<?xml version="1.0" encoding="UTF-8"?>
<svg xmlns="http://www.w3.org/2000/svg" xmlns:xlink="http://www.w3.org/1999/xlink" width="404pt" height="161pt" viewBox="0 0 404 161">
<defs>
<g>
<g id="glyph-0-0">
<path d="M 4.75 -6.15625 C 4.171875 -6.0625 3.6875 -6.046875 2.78125 -6.046875 C 1.953125 -6.046875 1.625 -6.0625 0.6875 -6.15625 L 0.390625 -3.5625 L 0.875 -3.5 L 0.953125 -3.90625 C 1.125 -4.671875 1.1875 -4.78125 1.5 -4.78125 C 1.53125 -4.78125 1.578125 -4.78125 1.640625 -4.765625 C 1.890625 -4.765625 2.421875 -4.75 2.640625 -4.75 C 2.71875 -4.75 3.015625 -4.75 3.453125 -4.765625 L 3.78125 -4.765625 L 3.1875 -3.890625 L 2.765625 -3.21875 C 2.078125 -2.15625 2.078125 -2.15625 1.875 -1.671875 C 1.703125 -1.28125 1.625 -1 1.625 -0.734375 C 1.625 -0.203125 1.9375 0.125 2.421875 0.125 C 2.96875 0.125 3.296875 -0.21875 3.296875 -0.828125 C 3.28125 -2.453125 3.453125 -3.03125 4.75 -5.796875 Z M 4.75 -6.15625 "/>
</g>
<g id="glyph-0-1">
<path d="M 0.71875 -3.3125 C 0.515625 -3.09375 0.5 -3.0625 0.5 -2.921875 C 0.5 -2.734375 0.640625 -2.59375 0.8125 -2.59375 C 1.015625 -2.59375 1.171875 -2.75 1.171875 -2.9375 C 1.171875 -2.96875 1.171875 -3.03125 1.15625 -3.078125 C 1.421875 -3.296875 1.765625 -3.40625 2.125 -3.40625 C 2.78125 -3.40625 3.109375 -2.9375 3.109375 -2 C 3.109375 -0.9375 2.734375 -0.375 2.03125 -0.375 C 1.640625 -0.375 1.265625 -0.5625 1.265625 -0.734375 C 1.265625 -0.796875 1.296875 -0.8125 1.375 -0.859375 C 1.71875 -1.03125 1.84375 -1.1875 1.84375 -1.484375 C 1.84375 -1.921875 1.546875 -2.203125 1.109375 -2.203125 C 0.59375 -2.203125 0.265625 -1.859375 0.265625 -1.3125 C 0.265625 -0.4375 1.046875 0.125 2.25 0.125 C 3.6875 0.125 4.65625 -0.75 4.65625 -2.03125 C 4.65625 -3.171875 3.75 -4 2.484375 -4 C 2.078125 -4 1.8125 -3.9375 1.234375 -3.671875 L 1.359375 -4.796875 C 1.78125 -4.703125 2.125 -4.671875 2.46875 -4.671875 C 3.1875 -4.671875 3.78125 -4.90625 4.109375 -5.328125 C 4.265625 -5.546875 4.40625 -5.875 4.40625 -6.0625 C 4.40625 -6.125 4.375 -6.15625 4.328125 -6.15625 C 4.296875 -6.15625 4.25 -6.15625 4.1875 -6.140625 C 3.875 -6.0625 3.3125 -6.015625 2.625 -6.015625 C 1.890625 -6.015625 1.453125 -6.046875 0.921875 -6.15625 C 0.875 -5.4375 0.875 -5.359375 0.78125 -3.9375 Z M 0.71875 -3.3125 "/>
</g>
<g id="glyph-0-2">
<path d="M 3.875 -2.15625 L 3.875 -4.84375 C 3.875 -4.96875 3.90625 -5.53125 3.9375 -6.15625 L 3.328125 -6.15625 L 0.171875 -2.21875 L 0.171875 -1.578125 L 2.515625 -1.578125 L 2.515625 -1.25 C 2.515625 -0.71875 2.515625 -0.671875 2.453125 -0.59375 C 2.390625 -0.5 2.203125 -0.46875 1.796875 -0.46875 L 1.703125 -0.46875 L 1.703125 0 L 4.671875 0 L 4.671875 -0.46875 L 4.5625 -0.46875 C 4.1875 -0.484375 4 -0.515625 3.9375 -0.59375 C 3.875 -0.6875 3.875 -0.71875 3.875 -1.25 L 3.875 -1.578125 L 4.75 -1.578125 L 4.75 -2.15625 Z M 2.515625 -2.15625 L 0.796875 -2.15625 L 2.515625 -4.328125 Z M 2.515625 -2.15625 "/>
</g>
<g id="glyph-0-3">
<path d="M 1.765625 -3.140625 C 1.765625 -3.5625 1.84375 -4.25 1.9375 -4.609375 C 2.125 -5.328125 2.46875 -5.703125 2.90625 -5.703125 C 3.125 -5.703125 3.28125 -5.625 3.28125 -5.515625 C 3.28125 -5.453125 3.265625 -5.421875 3.21875 -5.34375 C 3.09375 -5.203125 3.03125 -5 3.03125 -4.828125 C 3.03125 -4.4375 3.34375 -4.15625 3.796875 -4.15625 C 4.296875 -4.15625 4.609375 -4.46875 4.609375 -4.9375 C 4.609375 -5.6875 3.984375 -6.15625 2.984375 -6.15625 C 2.15625 -6.15625 1.5 -5.84375 1 -5.171875 C 0.484375 -4.5 0.25 -3.703125 0.25 -2.65625 C 0.25 -1.796875 0.4375 -1.171875 0.84375 -0.671875 C 1.265625 -0.140625 1.859375 0.125 2.5625 0.125 C 3.84375 0.125 4.78125 -0.734375 4.78125 -1.9375 C 4.78125 -2.984375 4.0625 -3.71875 3.03125 -3.71875 C 2.46875 -3.71875 2.125 -3.5625 1.765625 -3.140625 Z M 2.578125 -3.0625 C 3.03125 -3.046875 3.265625 -2.625 3.265625 -1.84375 C 3.265625 -0.828125 3.015625 -0.28125 2.546875 -0.28125 C 2.078125 -0.28125 1.8125 -0.796875 1.8125 -1.6875 C 1.8125 -2 1.84375 -2.265625 1.875 -2.46875 C 1.96875 -2.84375 2.25 -3.078125 2.578125 -3.0625 Z M 2.578125 -3.0625 "/>
</g>
<g id="glyph-0-4">
<path d="M 3.0625 -3.203125 C 3.390625 -3.296875 3.546875 -3.34375 3.734375 -3.4375 C 4.1875 -3.6875 4.453125 -4.109375 4.453125 -4.625 C 4.453125 -5.546875 3.640625 -6.15625 2.40625 -6.15625 C 1.765625 -6.15625 1.25 -6 0.890625 -5.671875 C 0.59375 -5.421875 0.421875 -5.0625 0.421875 -4.71875 C 0.421875 -4.265625 0.765625 -3.9375 1.203125 -3.9375 C 1.625 -3.9375 1.921875 -4.21875 1.921875 -4.625 C 1.921875 -4.859375 1.8125 -5.046875 1.578125 -5.28125 C 1.53125 -5.3125 1.515625 -5.34375 1.515625 -5.375 C 1.515625 -5.546875 1.84375 -5.703125 2.171875 -5.703125 C 2.71875 -5.703125 3.046875 -5.3125 3.046875 -4.625 C 3.046875 -3.875 2.796875 -3.40625 2.375 -3.40625 C 2.296875 -3.40625 2.203125 -3.421875 2.078125 -3.453125 C 1.875 -3.5 1.8125 -3.5 1.71875 -3.5 C 1.5 -3.5 1.40625 -3.40625 1.40625 -3.21875 C 1.40625 -3.015625 1.53125 -2.890625 1.71875 -2.890625 C 1.78125 -2.890625 1.828125 -2.890625 1.96875 -2.921875 C 2.171875 -2.9375 2.234375 -2.9375 2.28125 -2.9375 C 2.828125 -2.9375 3.09375 -2.53125 3.09375 -1.703125 C 3.09375 -0.828125 2.734375 -0.328125 2.09375 -0.328125 C 1.71875 -0.328125 1.34375 -0.515625 1.34375 -0.703125 C 1.34375 -0.75 1.359375 -0.796875 1.421875 -0.859375 C 1.6875 -1.09375 1.734375 -1.203125 1.734375 -1.46875 C 1.734375 -1.875 1.421875 -2.1875 0.984375 -2.1875 C 0.515625 -2.1875 0.203125 -1.84375 0.203125 -1.359375 C 0.203125 -0.484375 1.0625 0.125 2.3125 0.125 C 2.953125 0.125 3.546875 -0.03125 3.953125 -0.3125 C 4.359375 -0.59375 4.609375 -1.125 4.609375 -1.6875 C 4.609375 -2.234375 4.375 -2.703125 3.96875 -2.9375 C 3.71875 -3.078125 3.515625 -3.140625 3.0625 -3.203125 Z M 3.0625 -3.203125 "/>
</g>
<g id="glyph-1-0">
<path d="M 4.140625 14.390625 C 5.640625 14.390625 6.90625 12.390625 7.3125 10.359375 C 7.484375 9.421875 7.890625 7.21875 8.109375 5.96875 C 9.25 6.171875 9.703125 6.796875 9.703125 7.484375 C 9.703125 8.25 9.046875 9.03125 8.328125 9.03125 C 8.0625 9.03125 7.96875 9.28125 7.96875 9.5 C 7.96875 9.65625 8.015625 9.828125 8.125 9.828125 L 8.140625 9.828125 C 9.15625 9.828125 10.140625 10.15625 10.140625 11.078125 C 10.140625 12.109375 9.125 12.921875 8.25 12.921875 C 7.515625 12.921875 7.4375 12.4375 7.171875 12.4375 C 6.9375 12.4375 6.609375 12.6875 6.609375 12.921875 C 6.609375 13.109375 7.375 14.125 8.828125 14.125 C 10.59375 14.125 12.390625 12.671875 12.390625 10.984375 C 12.390625 9.875 11.515625 9.390625 10.359375 9.15625 C 11.609375 8.359375 11.734375 7.328125 11.734375 6.96875 C 11.734375 5.140625 8.859375 4.921875 7.453125 4.921875 C 5.140625 4.921875 2.78125 5.875 2.78125 7.515625 C 2.78125 8.453125 3.640625 9 4.46875 9 C 5.296875 9 5.3125 8.640625 5.3125 8.46875 C 5.3125 8.015625 4.796875 8.109375 4.796875 7.46875 C 4.796875 6.875 5.421875 6.328125 6.203125 6.078125 C 6.015625 7.15625 5.84375 8.625 5.84375 9.328125 L 5.84375 9.484375 C 5.84375 11.390625 5.359375 13.375 4.0625 13.375 C 3.3125 13.375 2.953125 12.625 2.625 12.625 C 2.390625 12.625 2.15625 12.921875 2.15625 13.140625 C 2.15625 13.203125 3.171875 14.390625 4.140625 14.390625 Z M 10.875 -5.125 C 10.875 -5.4375 10.3125 -5.734375 9.734375 -5.734375 C 9.265625 -5.734375 8.78125 -5.53125 8.609375 -5 C 7.375 -1.28125 3.9375 2.765625 2.53125 2.765625 C 2.015625 2.765625 1.65625 2.375 1.390625 2.375 C 1.109375 2.375 0.890625 2.703125 0.890625 2.921875 C 0.890625 3.015625 0.9375 3.09375 1 3.109375 C 1.5 3.328125 1.875 3.71875 2.484375 3.75 L 2.546875 3.75 C 3.546875 3.75 4.65625 2.90625 6 1.65625 C 6.375 2.234375 7.046875 2.3125 7.390625 2.3125 C 8.5 2.3125 8.5 1.859375 8.5 1.734375 C 8.5 1.578125 8.453125 1.4375 8.34375 1.4375 C 8.328125 1.4375 8.25 1.453125 8.109375 1.453125 C 7.3125 1.453125 6.953125 1 6.828125 0.796875 C 7.453125 0.140625 8.03125 -0.515625 8.5625 -1.21875 C 8.671875 0.09375 8.859375 1.375 9.1875 2.59375 C 9.34375 3.171875 9.609375 3.75 10.234375 3.75 C 10.84375 3.75 11.375 3.25 11.96875 3.0625 C 12.15625 3.015625 12.21875 2.84375 12.21875 2.6875 C 12.21875 2.515625 12.125 2.34375 12.03125 2.34375 C 11.875 2.34375 11.296875 2.75 10.9375 2.75 C 10.515625 2.75 10.515625 2.34375 10.515625 2.15625 C 10.515625 2.078125 10.875 -4.953125 10.875 -5.125 Z M 5.734375 -10.75 C 5.734375 -11.25 5.09375 -11.203125 5.09375 -11.96875 C 5.09375 -12.8125 6.109375 -13.375 7.34375 -13.375 C 7.53125 -13.375 7.75 -13.328125 7.984375 -13.265625 C 7.8125 -12.109375 7.59375 -10.015625 7.546875 -9.125 C 7.484375 -7.671875 6.96875 -6.140625 5.859375 -6.140625 C 5.078125 -6.140625 4.5625 -7.09375 4.21875 -7.09375 C 4 -7.09375 3.765625 -6.796875 3.765625 -6.578125 C 3.765625 -6.5 3.78125 -6.4375 3.84375 -6.390625 C 4.421875 -6.015625 5.046875 -5.3125 5.75 -5.15625 C 5.890625 -5.140625 6.015625 -5.125 6.140625 -5.125 C 7.625 -5.125 8.9375 -6.890625 9.390625 -8.8125 C 9.5625 -9.640625 9.90625 -11.46875 10.078125 -12.65625 C 10.359375 -12.578125 10.625 -12.53125 10.953125 -12.53125 C 12.6875 -12.53125 13.9375 -13.890625 13.9375 -14.03125 C 13.9375 -14.1875 13.703125 -14.40625 13.484375 -14.40625 C 13.265625 -14.40625 12.484375 -13.53125 11.109375 -13.53125 C 10.09375 -13.53125 8.625 -14.34375 7.703125 -14.34375 C 3.421875 -14.34375 3.09375 -12.546875 3.09375 -11.953125 C 3.09375 -11 3.921875 -10.28125 4.90625 -10.28125 C 5.71875 -10.28125 5.734375 -10.578125 5.734375 -10.75 Z M 5.734375 -10.75 "/>
</g>
<g id="glyph-1-1">
<path d="M 4.25 -2.234375 C 5.140625 -2.234375 6.90625 -1.546875 6.90625 0.484375 C 6.90625 1.546875 6.4375 2.234375 5.53125 2.234375 C 4.640625 2.234375 2.875 1.546875 2.875 -0.484375 C 2.875 -1.546875 3.34375 -2.234375 4.25 -2.234375 Z M 4.875 -2.703125 C 2.015625 -2.703125 0 -1.421875 0 0 C 0 1.421875 2.015625 2.703125 4.875 2.703125 C 7.75 2.703125 9.78125 1.421875 9.78125 0 C 9.78125 -1.421875 7.75 -2.703125 4.875 -2.703125 Z M 4.875 -2.703125 "/>
</g>
<g id="glyph-1-2">
<path d="M 5.296875 12.65625 L 5.3125 11.796875 L 5.234375 11.796875 C 4.265625 11.796875 3.421875 11.28125 2.90625 10.5 C 3.109375 10.578125 3.3125 10.625 3.53125 10.625 C 4.5625 10.625 5.421875 9.765625 5.421875 8.71875 C 5.421875 7.609375 4.609375 6.671875 3.53125 6.671875 C 2.34375 6.671875 1.296875 7.5625 1.296875 8.71875 C 1.296875 10.890625 3.03125 12.65625 5.171875 12.65625 Z M 9.1875 4.046875 C 8.9375 1.8125 8.359375 -1.234375 7.984375 -3.015625 C 10.125 -2.78125 11.4375 -1.015625 11.4375 0.78125 C 11.4375 2.25 10.53125 3.5625 9.1875 4.046875 Z M 1.46875 -0.5625 C 1.46875 -3.75 3.578125 -6.171875 5.71875 -8.59375 C 6.0625 -7.4375 6.359375 -6.25 6.640625 -5.09375 C 4.609375 -4.640625 3.453125 -2.921875 3.453125 -1.171875 C 3.453125 1.3125 5.65625 2.546875 5.953125 2.546875 C 6.203125 2.546875 6.390625 2.328125 6.390625 2.109375 C 6.390625 2.015625 6.359375 1.90625 6.25 1.8125 C 5.140625 1.171875 4.640625 0.234375 4.640625 -0.640625 C 4.640625 -1.796875 5.53125 -2.84375 7.109375 -3.015625 C 7.796875 0.203125 8.234375 2.96875 8.359375 4.25 C 7.671875 4.359375 6.75 4.359375 6.734375 4.359375 C 4.28125 4.359375 1.46875 2.328125 1.46875 -0.5625 Z M 4.984375 -11.015625 C 2.65625 -8.328125 0.046875 -5.75 0.046875 -2.234375 C 0.046875 1.640625 2.828125 5.21875 6.671875 5.21875 C 7.5625 5.21875 8.34375 5.078125 8.453125 5.0625 C 8.5 5.671875 8.53125 6.28125 8.53125 6.890625 C 8.53125 7.25 8.5 7.625 8.484375 7.984375 C 8.359375 9.953125 7.171875 11.75 5.3125 11.796875 L 5.296875 12.65625 C 7.5625 12.59375 9.1875 10.484375 9.328125 8.109375 C 9.34375 7.734375 9.359375 7.328125 9.359375 6.953125 C 9.359375 6.25 9.328125 5.5625 9.265625 4.859375 C 11.375 4.1875 12.84375 2.21875 12.84375 -0.046875 C 12.84375 -2.6875 10.84375 -5.234375 7.75 -5.234375 C 7.625 -5.234375 7.53125 -5.21875 7.484375 -5.21875 C 7.15625 -6.59375 6.796875 -7.984375 6.375 -9.34375 C 8.25 -11.515625 9.953125 -13.75 9.953125 -16.59375 C 9.953125 -18.84375 8.671875 -22.140625 7.3125 -23.734375 C 7.1875 -23.828125 7.03125 -23.828125 6.90625 -23.734375 C 5.046875 -22.375 3.9375 -20.203125 3.9375 -17.90625 C 3.9375 -14.40625 4.40625 -12.921875 4.984375 -11.015625 Z M 8.53125 -18.25 C 8.53125 -15.734375 7.21875 -13.71875 5.625 -11.796875 C 5.140625 -13.375 4.90625 -14.625 4.90625 -15.65625 C 4.90625 -17.84375 6.15625 -19.859375 8.125 -20.8125 C 8.546875 -19.5625 8.53125 -18.921875 8.53125 -18.25 Z M 8.53125 -18.25 "/>
</g>
<g id="glyph-1-3">
<path d="M 0 -2.375 L 0 -1.171875 C 0 -0.953125 0.171875 -0.78125 0.390625 -0.78125 C 0.4375 -0.78125 0.5 -0.78125 0.53125 -0.796875 L 1.171875 -1.015625 L 1.171875 2.171875 L 0.265625 2.484375 C 0.09375 2.546875 0 2.703125 0 2.875 L 0 4.0625 C 0 4.28125 0.171875 4.46875 0.390625 4.46875 C 0.4375 4.46875 0.5 4.46875 0.53125 4.4375 L 1.171875 4.203125 L 1.171875 7.09375 C 1.171875 7.296875 1.328125 7.46875 1.53125 7.46875 C 1.734375 7.46875 1.90625 7.296875 1.90625 7.09375 L 1.90625 3.9375 L 3.5625 3.328125 L 3.5625 6.21875 C 3.5625 6.421875 3.75 6.59375 3.9375 6.59375 C 4.140625 6.59375 4.296875 6.421875 4.296875 6.21875 L 4.296875 3.0625 L 5.21875 2.734375 C 5.375 2.671875 5.484375 2.53125 5.484375 2.375 L 5.484375 1.171875 C 5.484375 0.953125 5.296875 0.78125 5.078125 0.78125 C 5.046875 0.78125 4.984375 0.78125 4.9375 0.796875 L 4.296875 1.015625 L 4.296875 -2.171875 L 5.21875 -2.484375 C 5.375 -2.546875 5.484375 -2.703125 5.484375 -2.875 L 5.484375 -4.0625 C 5.484375 -4.28125 5.296875 -4.46875 5.078125 -4.46875 C 5.046875 -4.46875 4.984375 -4.46875 4.9375 -4.4375 L 4.296875 -4.203125 L 4.296875 -7.09375 C 4.296875 -7.296875 4.140625 -7.46875 3.9375 -7.46875 C 3.75 -7.46875 3.5625 -7.296875 3.5625 -7.09375 L 3.5625 -3.9375 L 1.90625 -3.328125 L 1.90625 -6.21875 C 1.90625 -6.421875 1.734375 -6.59375 1.53125 -6.59375 C 1.328125 -6.59375 1.171875 -6.421875 1.171875 -6.21875 L 1.171875 -3.0625 L 0.265625 -2.734375 C 0.09375 -2.671875 0 -2.53125 0 -2.375 Z M 3.5625 -1.890625 L 3.5625 1.296875 L 1.90625 1.890625 L 1.90625 -1.296875 Z M 3.5625 -1.890625 "/>
</g>
<g id="glyph-2-0">
<path d="M 6.171875 -2.859375 L 7.15625 0 L 8.515625 0 L 5.171875 -9.5 L 3.609375 -9.5 L 0.21875 0 L 1.515625 0 L 2.515625 -2.859375 Z M 5.84375 -3.875 L 2.8125 -3.875 L 4.375 -8.203125 Z M 5.84375 -3.875 "/>
</g>
<g id="glyph-2-1">
<path d="M 0.90625 -6.828125 L 0.90625 0 L 2 0 L 2 -4.28125 C 2 -5.28125 2.71875 -6.078125 3.609375 -6.078125 C 4.421875 -6.078125 4.875 -5.578125 4.875 -4.703125 L 4.875 0 L 5.96875 0 L 5.96875 -4.28125 C 5.96875 -5.28125 6.6875 -6.078125 7.578125 -6.078125 C 8.359375 -6.078125 8.828125 -5.5625 8.828125 -4.703125 L 8.828125 0 L 9.9375 0 L 9.9375 -5.125 C 9.9375 -6.34375 9.21875 -7.03125 7.953125 -7.03125 C 7.03125 -7.03125 6.484375 -6.75 5.84375 -5.984375 C 5.453125 -6.71875 4.90625 -7.03125 4.015625 -7.03125 C 3.09375 -7.03125 2.484375 -6.6875 1.921875 -5.859375 L 1.921875 -6.828125 Z M 0.90625 -6.828125 "/>
</g>
<g id="glyph-2-2">
<path d="M 1.15625 0 L 4.828125 0 C 7.21875 0 8.6875 -1.796875 8.6875 -4.75 C 8.6875 -7.703125 7.234375 -9.5 4.828125 -9.5 L 1.15625 -9.5 Z M 2.375 -1.0625 L 2.375 -8.4375 L 4.609375 -8.4375 C 6.484375 -8.4375 7.484375 -7.171875 7.484375 -4.75 C 7.484375 -2.328125 6.484375 -1.0625 4.609375 -1.0625 Z M 2.375 -1.0625 "/>
</g>
<g id="glyph-3-0">
<path d="M 4.796875 -6.53125 L 0.421875 -6.53125 L 0.421875 -5.734375 L 3.953125 -5.734375 C 2.390625 -3.515625 1.765625 -2.140625 1.265625 0 L 2.140625 0 C 2.5 -2.09375 3.3125 -3.890625 4.796875 -5.859375 Z M 4.796875 -6.53125 "/>
</g>
<g id="glyph-3-1">
<path d="M 4.59375 -4.9375 C 4.4375 -6.015625 3.734375 -6.671875 2.734375 -6.671875 C 2.015625 -6.671875 1.375 -6.3125 0.984375 -5.71875 C 0.578125 -5.0625 0.390625 -4.25 0.390625 -3.046875 C 0.390625 -1.921875 0.546875 -1.203125 0.953125 -0.625 C 1.296875 -0.078125 1.875 0.21875 2.59375 0.21875 C 3.828125 0.21875 4.734375 -0.71875 4.734375 -2.015625 C 4.734375 -3.25 3.90625 -4.109375 2.734375 -4.109375 C 2.078125 -4.109375 1.578125 -3.875 1.21875 -3.390625 C 1.234375 -5.03125 1.75 -5.953125 2.6875 -5.953125 C 3.25 -5.953125 3.65625 -5.578125 3.78125 -4.9375 Z M 2.625 -3.390625 C 3.40625 -3.390625 3.90625 -2.84375 3.90625 -1.953125 C 3.90625 -1.109375 3.34375 -0.5 2.59375 -0.5 C 1.84375 -0.5 1.265625 -1.140625 1.265625 -1.984375 C 1.265625 -2.828125 1.828125 -3.390625 2.625 -3.390625 Z M 2.625 -3.390625 "/>
</g>
<g id="glyph-4-0">
<path d="M 2.578125 -2.453125 L 4.1875 -4.796875 L 3.453125 -4.796875 L 2.21875 -2.921875 L 1 -4.796875 L 0.25 -4.796875 L 1.84375 -2.453125 L 0.140625 0 L 0.890625 0 L 2.203125 -2 L 3.515625 0 L 4.265625 0 Z M 2.578125 -2.453125 "/>
</g>
<g id="glyph-5-0">
<path d="M 2.34375 0 L 4 -4.3125 L 3.21875 -4.3125 L 2 -0.8125 L 0.859375 -4.3125 L 0.078125 -4.3125 L 1.59375 0 Z M 2.34375 0 "/>
</g>
<g id="glyph-5-1">
<path d="M 1.234375 -4.3125 L 0.546875 -4.3125 L 0.546875 0 L 1.234375 0 Z M 1.234375 -5.984375 L 0.546875 -5.984375 L 0.546875 -5.125 L 1.234375 -5.125 Z M 1.234375 -5.984375 "/>
</g>
<g id="glyph-6-0">
<path d="M 2.59375 -2.5625 C 2.921875 -2.703125 3.0625 -2.796875 3.1875 -2.890625 C 3.484375 -3.109375 3.640625 -3.4375 3.640625 -3.78125 C 3.640625 -4.40625 3.109375 -4.859375 2.375 -4.859375 C 1.484375 -4.859375 0.78125 -4.21875 0.78125 -3.390625 C 0.78125 -2.96875 0.9375 -2.6875 1.3125 -2.421875 C 0.484375 -2.109375 0.0625 -1.609375 0.0625 -0.984375 C 0.0625 -0.3125 0.609375 0.109375 1.484375 0.109375 C 2.5625 0.109375 3.3125 -0.546875 3.3125 -1.4375 C 3.3125 -1.703125 3.234375 -1.953125 3.078125 -2.140625 C 2.984375 -2.28125 2.859375 -2.390625 2.59375 -2.5625 Z M 2.296875 -2.71875 C 1.59375 -3.046875 1.34375 -3.328125 1.34375 -3.71875 C 1.34375 -4.1875 1.765625 -4.5625 2.3125 -4.5625 C 2.796875 -4.5625 3.125 -4.265625 3.125 -3.828125 C 3.125 -3.546875 2.984375 -3.234375 2.765625 -3.015625 C 2.625 -2.875 2.53125 -2.8125 2.296875 -2.71875 Z M 1.5625 -2.234375 C 1.90625 -2.078125 2.015625 -2.03125 2.1875 -1.921875 C 2.53125 -1.71875 2.71875 -1.4375 2.71875 -1.125 C 2.71875 -0.59375 2.21875 -0.203125 1.5625 -0.203125 C 0.984375 -0.203125 0.609375 -0.53125 0.609375 -1.0625 C 0.609375 -1.578125 0.953125 -1.984375 1.5625 -2.234375 Z M 1.5625 -2.234375 "/>
</g>
</g>
</defs>
<path fill="none" stroke-width="9.46451" stroke-linecap="butt" stroke-linejoin="miter" stroke="rgb(0%, 0%, 0%)" stroke-opacity="1" stroke-miterlimit="10" d="M 995.46875 7411.796875 L 995.46875 7611.054688 " transform="matrix(0.1, 0, 0, -0.1, -18, 833)"/>
<path fill="none" stroke-width="9.96264" stroke-linecap="round" stroke-linejoin="miter" stroke="rgb(0%, 0%, 0%)" stroke-opacity="1" stroke-miterlimit="10" d="M 3152.734375 7361.992188 L 3289.375 7361.992188 " transform="matrix(0.1, 0, 0, -0.1, -18, 833)"/>
<path fill="none" stroke-width="9.96264" stroke-linecap="round" stroke-linejoin="miter" stroke="rgb(0%, 0%, 0%)" stroke-opacity="1" stroke-miterlimit="10" d="M 3152.734375 7312.1875 L 3289.375 7312.1875 " transform="matrix(0.1, 0, 0, -0.1, -18, 833)"/>
<path fill="none" stroke-width="9.96264" stroke-linecap="round" stroke-linejoin="miter" stroke="rgb(0%, 0%, 0%)" stroke-opacity="1" stroke-miterlimit="10" d="M 1600.3125 7361.992188 L 1736.953125 7361.992188 " transform="matrix(0.1, 0, 0, -0.1, -18, 833)"/>
<path fill="none" stroke-width="9.96264" stroke-linecap="round" stroke-linejoin="miter" stroke="rgb(0%, 0%, 0%)" stroke-opacity="1" stroke-miterlimit="10" d="M 1600.3125 7312.1875 L 1736.953125 7312.1875 " transform="matrix(0.1, 0, 0, -0.1, -18, 833)"/>
<path fill="none" stroke-width="9.96264" stroke-linecap="round" stroke-linejoin="miter" stroke="rgb(0%, 0%, 0%)" stroke-opacity="1" stroke-miterlimit="10" d="M 1075.390625 7361.992188 L 1212.03125 7361.992188 " transform="matrix(0.1, 0, 0, -0.1, -18, 833)"/>
<path fill="none" stroke-width="9.96264" stroke-linecap="round" stroke-linejoin="miter" stroke="rgb(0%, 0%, 0%)" stroke-opacity="1" stroke-miterlimit="10" d="M 1075.390625 7312.1875 L 1212.03125 7312.1875 " transform="matrix(0.1, 0, 0, -0.1, -18, 833)"/>
<path fill="none" stroke-width="9.96264" stroke-linecap="round" stroke-linejoin="miter" stroke="rgb(0%, 0%, 0%)" stroke-opacity="1" stroke-miterlimit="10" d="M 557.929688 7361.992188 L 694.570312 7361.992188 " transform="matrix(0.1, 0, 0, -0.1, -18, 833)"/>
<path fill="none" stroke-width="9.96264" stroke-linecap="round" stroke-linejoin="miter" stroke="rgb(0%, 0%, 0%)" stroke-opacity="1" stroke-miterlimit="10" d="M 557.929688 7312.1875 L 694.570312 7312.1875 " transform="matrix(0.1, 0, 0, -0.1, -18, 833)"/>
<path fill="none" stroke-width="4.98132" stroke-linecap="round" stroke-linejoin="miter" stroke="rgb(0%, 0%, 0%)" stroke-opacity="1" stroke-miterlimit="10" d="M 285.9375 7411.796875 L 4110 7411.796875 " transform="matrix(0.1, 0, 0, -0.1, -18, 833)"/>
<path fill="none" stroke-width="4.98132" stroke-linecap="round" stroke-linejoin="miter" stroke="rgb(0%, 0%, 0%)" stroke-opacity="1" stroke-miterlimit="10" d="M 285.9375 7461.601562 L 4110 7461.601562 " transform="matrix(0.1, 0, 0, -0.1, -18, 833)"/>
<path fill="none" stroke-width="4.98132" stroke-linecap="round" stroke-linejoin="miter" stroke="rgb(0%, 0%, 0%)" stroke-opacity="1" stroke-miterlimit="10" d="M 285.9375 7511.40625 L 4110 7511.40625 " transform="matrix(0.1, 0, 0, -0.1, -18, 833)"/>
<path fill="none" stroke-width="4.98132" stroke-linecap="round" stroke-linejoin="miter" stroke="rgb(0%, 0%, 0%)" stroke-opacity="1" stroke-miterlimit="10" d="M 285.9375 7561.25 L 4110 7561.25 " transform="matrix(0.1, 0, 0, -0.1, -18, 833)"/>
<path fill="none" stroke-width="4.98132" stroke-linecap="round" stroke-linejoin="miter" stroke="rgb(0%, 0%, 0%)" stroke-opacity="1" stroke-miterlimit="10" d="M 285.9375 7611.054688 L 4110 7611.054688 " transform="matrix(0.1, 0, 0, -0.1, -18, 833)"/>
<path fill="none" stroke-width="9.46451" stroke-linecap="butt" stroke-linejoin="miter" stroke="rgb(0%, 0%, 0%)" stroke-opacity="1" stroke-miterlimit="10" d="M 4107.734375 6859.101562 L 4107.734375 7232.734375 " transform="matrix(0.1, 0, 0, -0.1, -18, 833)"/>
<path fill="none" stroke-width="4.98132" stroke-linecap="round" stroke-linejoin="miter" stroke="rgb(0%, 0%, 0%)" stroke-opacity="1" stroke-miterlimit="10" d="M 285.9375 6859.101562 L 4110 6859.101562 " transform="matrix(0.1, 0, 0, -0.1, -18, 833)"/>
<path fill="none" stroke-width="4.98132" stroke-linecap="round" stroke-linejoin="miter" stroke="rgb(0%, 0%, 0%)" stroke-opacity="1" stroke-miterlimit="10" d="M 285.9375 6933.828125 L 4110 6933.828125 " transform="matrix(0.1, 0, 0, -0.1, -18, 833)"/>
<path fill="none" stroke-width="4.98132" stroke-linecap="round" stroke-linejoin="miter" stroke="rgb(0%, 0%, 0%)" stroke-opacity="1" stroke-miterlimit="10" d="M 285.9375 7008.554688 L 4110 7008.554688 " transform="matrix(0.1, 0, 0, -0.1, -18, 833)"/>
<path fill="none" stroke-width="4.98132" stroke-linecap="round" stroke-linejoin="miter" stroke="rgb(0%, 0%, 0%)" stroke-opacity="1" stroke-miterlimit="10" d="M 285.9375 7083.28125 L 4110 7083.28125 " transform="matrix(0.1, 0, 0, -0.1, -18, 833)"/>
<path fill="none" stroke-width="4.98132" stroke-linecap="round" stroke-linejoin="miter" stroke="rgb(0%, 0%, 0%)" stroke-opacity="1" stroke-miterlimit="10" d="M 285.9375 7158.007812 L 4110 7158.007812 " transform="matrix(0.1, 0, 0, -0.1, -18, 833)"/>
<path fill="none" stroke-width="4.98132" stroke-linecap="round" stroke-linejoin="miter" stroke="rgb(0%, 0%, 0%)" stroke-opacity="1" stroke-miterlimit="10" d="M 285.9375 7232.734375 L 4110 7232.734375 " transform="matrix(0.1, 0, 0, -0.1, -18, 833)"/>
<path fill="none" stroke-width="9.46451" stroke-linecap="butt" stroke-linejoin="miter" stroke="rgb(0%, 0%, 0%)" stroke-opacity="1" stroke-miterlimit="10" d="M 4107.734375 7411.796875 L 4107.734375 7611.054688 " transform="matrix(0.1, 0, 0, -0.1, -18, 833)"/>
<path fill="none" stroke-width="9.46451" stroke-linecap="butt" stroke-linejoin="miter" stroke="rgb(0%, 0%, 0%)" stroke-opacity="1" stroke-miterlimit="10" d="M 3590.273438 6859.101562 L 3590.273438 7232.734375 " transform="matrix(0.1, 0, 0, -0.1, -18, 833)"/>
<path fill="none" stroke-width="9.46451" stroke-linecap="butt" stroke-linejoin="miter" stroke="rgb(0%, 0%, 0%)" stroke-opacity="1" stroke-miterlimit="10" d="M 3590.273438 7411.796875 L 3590.273438 7611.054688 " transform="matrix(0.1, 0, 0, -0.1, -18, 833)"/>
<path fill="none" stroke-width="9.46451" stroke-linecap="butt" stroke-linejoin="miter" stroke="rgb(0%, 0%, 0%)" stroke-opacity="1" stroke-miterlimit="10" d="M 3072.8125 6859.101562 L 3072.8125 7232.734375 " transform="matrix(0.1, 0, 0, -0.1, -18, 833)"/>
<path fill="none" stroke-width="9.46451" stroke-linecap="butt" stroke-linejoin="miter" stroke="rgb(0%, 0%, 0%)" stroke-opacity="1" stroke-miterlimit="10" d="M 3072.8125 7411.796875 L 3072.8125 7611.054688 " transform="matrix(0.1, 0, 0, -0.1, -18, 833)"/>
<path fill="none" stroke-width="9.46451" stroke-linecap="butt" stroke-linejoin="miter" stroke="rgb(0%, 0%, 0%)" stroke-opacity="1" stroke-miterlimit="10" d="M 2555.351562 6859.101562 L 2555.351562 7232.734375 " transform="matrix(0.1, 0, 0, -0.1, -18, 833)"/>
<path fill="none" stroke-width="9.46451" stroke-linecap="butt" stroke-linejoin="miter" stroke="rgb(0%, 0%, 0%)" stroke-opacity="1" stroke-miterlimit="10" d="M 2555.351562 7411.796875 L 2555.351562 7611.054688 " transform="matrix(0.1, 0, 0, -0.1, -18, 833)"/>
<path fill="none" stroke-width="9.46451" stroke-linecap="butt" stroke-linejoin="miter" stroke="rgb(0%, 0%, 0%)" stroke-opacity="1" stroke-miterlimit="10" d="M 2037.851562 6859.101562 L 2037.851562 7232.734375 " transform="matrix(0.1, 0, 0, -0.1, -18, 833)"/>
<path fill="none" stroke-width="9.46451" stroke-linecap="butt" stroke-linejoin="miter" stroke="rgb(0%, 0%, 0%)" stroke-opacity="1" stroke-miterlimit="10" d="M 2037.851562 7411.796875 L 2037.851562 7611.054688 " transform="matrix(0.1, 0, 0, -0.1, -18, 833)"/>
<path fill="none" stroke-width="9.46451" stroke-linecap="butt" stroke-linejoin="miter" stroke="rgb(0%, 0%, 0%)" stroke-opacity="1" stroke-miterlimit="10" d="M 1512.929688 6859.101562 L 1512.929688 7232.734375 " transform="matrix(0.1, 0, 0, -0.1, -18, 833)"/>
<path fill="none" stroke-width="9.46451" stroke-linecap="butt" stroke-linejoin="miter" stroke="rgb(0%, 0%, 0%)" stroke-opacity="1" stroke-miterlimit="10" d="M 1512.929688 7411.796875 L 1512.929688 7611.054688 " transform="matrix(0.1, 0, 0, -0.1, -18, 833)"/>
<path fill="none" stroke-width="9.46451" stroke-linecap="butt" stroke-linejoin="miter" stroke="rgb(0%, 0%, 0%)" stroke-opacity="1" stroke-miterlimit="10" d="M 995.46875 6859.101562 L 995.46875 7232.734375 " transform="matrix(0.1, 0, 0, -0.1, -18, 833)"/>
<path fill-rule="nonzero" fill="rgb(100%, 100%, 100%)" fill-opacity="1" d="M 196.21875 127.8125 L 201.152344 127.8125 L 201.152344 121.53125 L 196.21875 121.53125 Z M 196.21875 127.8125 "/>
<g fill="rgb(0%, 0%, 0%)" fill-opacity="1">
<use xlink:href="#glyph-0-0" x="196.218" y="127.69"/>
</g>
<path fill-rule="nonzero" fill="rgb(100%, 100%, 100%)" fill-opacity="1" d="M 40.230469 150.226562 L 45.160156 150.226562 L 45.160156 143.949219 L 40.230469 143.949219 Z M 40.230469 150.226562 "/>
<g fill="rgb(0%, 0%, 0%)" fill-opacity="1">
<use xlink:href="#glyph-0-1" x="40.2297" y="150.106"/>
</g>
<path fill-rule="nonzero" fill="rgb(100%, 100%, 100%)" fill-opacity="1" d="M 40.230469 142.757812 L 45.160156 142.757812 L 45.160156 136.476562 L 40.230469 136.476562 Z M 40.230469 142.757812 "/>
<g fill="rgb(0%, 0%, 0%)" fill-opacity="1">
<use xlink:href="#glyph-0-0" x="40.2297" y="142.634"/>
</g>
<path fill-rule="nonzero" fill="rgb(100%, 100%, 100%)" fill-opacity="1" d="M 40.230469 135.285156 L 45.160156 135.285156 L 45.160156 129.003906 L 40.230469 129.003906 Z M 40.230469 135.285156 "/>
<g fill="rgb(0%, 0%, 0%)" fill-opacity="1">
<use xlink:href="#glyph-0-0" x="40.2297" y="135.162"/>
</g>
<path fill-rule="nonzero" fill="rgb(100%, 100%, 100%)" fill-opacity="1" d="M 40.230469 127.8125 L 45.160156 127.8125 L 45.160156 121.53125 L 40.230469 121.53125 Z M 40.230469 127.8125 "/>
<g fill="rgb(0%, 0%, 0%)" fill-opacity="1">
<use xlink:href="#glyph-0-1" x="40.2297" y="127.69"/>
</g>
<g fill="rgb(0%, 0%, 0%)" fill-opacity="1">
<use xlink:href="#glyph-1-0" x="14.3317" y="128.407969"/>
</g>
<g fill="rgb(0%, 0%, 0%)" fill-opacity="1">
<use xlink:href="#glyph-2-0" x="91.4837" y="22.840969"/>
</g>
<g fill="rgb(0%, 0%, 0%)" fill-opacity="1">
<use xlink:href="#glyph-2-1" x="100.157517" y="22.840969"/>
</g>
<g fill="rgb(0%, 0%, 0%)" fill-opacity="1">
<use xlink:href="#glyph-3-0" x="111.0423" y="16.917139"/>
</g>
<g fill="rgb(0%, 0%, 0%)" fill-opacity="1">
<use xlink:href="#glyph-1-1" x="91.4837" y="101.782739"/>
</g>
<g fill="rgb(0%, 0%, 0%)" fill-opacity="1">
<use xlink:href="#glyph-1-1" x="91.4837" y="86.839039"/>
</g>
<g fill="rgb(0%, 0%, 0%)" fill-opacity="1">
<use xlink:href="#glyph-1-1" x="91.4837" y="79.366769"/>
</g>
<g fill="rgb(0%, 0%, 0%)" fill-opacity="1">
<use xlink:href="#glyph-1-1" x="91.4837" y="74.385519"/>
</g>
<path fill="none" stroke-width="3.73599" stroke-linecap="round" stroke-linejoin="miter" stroke="rgb(0%, 0%, 0%)" stroke-opacity="1" stroke-miterlimit="10" d="M 1346.953125 7638.320312 L 1346.953125 8011.914062 " transform="matrix(0.1, 0, 0, -0.1, -18, 833)"/>
<path fill="none" stroke-width="3.73599" stroke-linecap="round" stroke-linejoin="miter" stroke="rgb(0%, 0%, 0%)" stroke-opacity="1" stroke-miterlimit="10" d="M 1272.226562 7638.320312 L 1272.226562 8011.914062 " transform="matrix(0.1, 0, 0, -0.1, -18, 833)"/>
<path fill="none" stroke-width="3.73599" stroke-linecap="round" stroke-linejoin="miter" stroke="rgb(0%, 0%, 0%)" stroke-opacity="1" stroke-miterlimit="10" d="M 1197.5 7638.320312 L 1197.5 8011.914062 " transform="matrix(0.1, 0, 0, -0.1, -18, 833)"/>
<path fill="none" stroke-width="3.73599" stroke-linecap="round" stroke-linejoin="miter" stroke="rgb(0%, 0%, 0%)" stroke-opacity="1" stroke-miterlimit="10" d="M 1122.773438 7638.320312 L 1122.773438 8011.914062 " transform="matrix(0.1, 0, 0, -0.1, -18, 833)"/>
<path fill="none" stroke-width="3.73599" stroke-linecap="round" stroke-linejoin="miter" stroke="rgb(0%, 0%, 0%)" stroke-opacity="1" stroke-miterlimit="10" d="M 1048.085938 7638.320312 L 1048.085938 8011.914062 " transform="matrix(0.1, 0, 0, -0.1, -18, 833)"/>
<path fill="none" stroke-width="3.73599" stroke-linecap="round" stroke-linejoin="miter" stroke="rgb(0%, 0%, 0%)" stroke-opacity="1" stroke-miterlimit="10" d="M 973.359375 7638.320312 L 973.359375 8011.914062 " transform="matrix(0.1, 0, 0, -0.1, -18, 833)"/>
<path fill="none" stroke-width="3.73599" stroke-linecap="round" stroke-linejoin="miter" stroke="rgb(0%, 0%, 0%)" stroke-opacity="1" stroke-miterlimit="10" d="M 973.359375 8011.914062 L 1346.953125 8011.914062 " transform="matrix(0.1, 0, 0, -0.1, -18, 833)"/>
<path fill="none" stroke-width="3.73599" stroke-linecap="round" stroke-linejoin="miter" stroke="rgb(0%, 0%, 0%)" stroke-opacity="1" stroke-miterlimit="10" d="M 973.359375 7937.1875 L 1346.953125 7937.1875 " transform="matrix(0.1, 0, 0, -0.1, -18, 833)"/>
<path fill="none" stroke-width="3.73599" stroke-linecap="round" stroke-linejoin="miter" stroke="rgb(0%, 0%, 0%)" stroke-opacity="1" stroke-miterlimit="10" d="M 973.359375 7862.460938 L 1346.953125 7862.460938 " transform="matrix(0.1, 0, 0, -0.1, -18, 833)"/>
<path fill="none" stroke-width="3.73599" stroke-linecap="round" stroke-linejoin="miter" stroke="rgb(0%, 0%, 0%)" stroke-opacity="1" stroke-miterlimit="10" d="M 973.359375 7787.773438 L 1346.953125 7787.773438 " transform="matrix(0.1, 0, 0, -0.1, -18, 833)"/>
<path fill="none" stroke-width="3.73599" stroke-linecap="round" stroke-linejoin="miter" stroke="rgb(0%, 0%, 0%)" stroke-opacity="1" stroke-miterlimit="10" d="M 973.359375 7713.046875 L 1346.953125 7713.046875 " transform="matrix(0.1, 0, 0, -0.1, -18, 833)"/>
<path fill="none" stroke-width="3.73599" stroke-linecap="round" stroke-linejoin="miter" stroke="rgb(0%, 0%, 0%)" stroke-opacity="1" stroke-miterlimit="10" d="M 1290.898438 7967.109375 C 1290.898438 7977.382812 1282.539062 7985.78125 1272.226562 7985.78125 C 1261.914062 7985.78125 1253.554688 7977.382812 1253.554688 7967.109375 C 1253.554688 7956.757812 1261.914062 7948.398438 1272.226562 7948.398438 C 1282.539062 7948.398438 1290.898438 7956.757812 1290.898438 7967.109375 Z M 1290.898438 7967.109375 " transform="matrix(0.1, 0, 0, -0.1, -18, 833)"/>
<path fill-rule="nonzero" fill="rgb(0%, 0%, 0%)" fill-opacity="1" d="M 111.089844 36.289062 C 111.089844 35.261719 110.253906 34.421875 109.222656 34.421875 C 108.191406 34.421875 107.355469 35.261719 107.355469 36.289062 C 107.355469 37.324219 108.191406 38.160156 109.222656 38.160156 C 110.253906 38.160156 111.089844 37.324219 111.089844 36.289062 "/>
<path fill="none" stroke-width="3.73599" stroke-linecap="round" stroke-linejoin="miter" stroke="rgb(0%, 0%, 0%)" stroke-opacity="1" stroke-miterlimit="10" d="M 1216.171875 7967.109375 C 1216.171875 7977.382812 1207.8125 7985.78125 1197.5 7985.78125 C 1187.1875 7985.78125 1178.828125 7977.382812 1178.828125 7967.109375 C 1178.828125 7956.757812 1187.1875 7948.398438 1197.5 7948.398438 C 1207.8125 7948.398438 1216.171875 7956.757812 1216.171875 7967.109375 Z M 1216.171875 7967.109375 " transform="matrix(0.1, 0, 0, -0.1, -18, 833)"/>
<path fill-rule="nonzero" fill="rgb(0%, 0%, 0%)" fill-opacity="1" d="M 103.617188 36.289062 C 103.617188 35.261719 102.78125 34.421875 101.75 34.421875 C 100.71875 34.421875 99.882812 35.261719 99.882812 36.289062 C 99.882812 37.324219 100.71875 38.160156 101.75 38.160156 C 102.78125 38.160156 103.617188 37.324219 103.617188 36.289062 "/>
<path fill="none" stroke-width="3.73599" stroke-linecap="round" stroke-linejoin="miter" stroke="rgb(0%, 0%, 0%)" stroke-opacity="1" stroke-miterlimit="10" d="M 1141.445312 7967.109375 C 1141.445312 7977.382812 1133.085938 7985.78125 1122.773438 7985.78125 C 1112.460938 7985.78125 1104.101562 7977.382812 1104.101562 7967.109375 C 1104.101562 7956.757812 1112.460938 7948.398438 1122.773438 7948.398438 C 1133.085938 7948.398438 1141.445312 7956.757812 1141.445312 7967.109375 Z M 1141.445312 7967.109375 " transform="matrix(0.1, 0, 0, -0.1, -18, 833)"/>
<path fill-rule="nonzero" fill="rgb(0%, 0%, 0%)" fill-opacity="1" d="M 96.144531 36.289062 C 96.144531 35.261719 95.308594 34.421875 94.277344 34.421875 C 93.246094 34.421875 92.410156 35.261719 92.410156 36.289062 C 92.410156 37.324219 93.246094 38.160156 94.277344 38.160156 C 95.308594 38.160156 96.144531 37.324219 96.144531 36.289062 "/>
<path fill="none" stroke-width="3.73599" stroke-linecap="round" stroke-linejoin="miter" stroke="rgb(0%, 0%, 0%)" stroke-opacity="1" stroke-miterlimit="10" d="M 992.03125 7967.109375 C 992.03125 7977.382812 983.671875 7985.78125 973.359375 7985.78125 C 963.007812 7985.78125 954.648438 7977.382812 954.648438 7967.109375 C 954.648438 7956.757812 963.007812 7948.398438 973.359375 7948.398438 C 983.671875 7948.398438 992.03125 7956.757812 992.03125 7967.109375 Z M 992.03125 7967.109375 " transform="matrix(0.1, 0, 0, -0.1, -18, 833)"/>
<path fill-rule="nonzero" fill="rgb(0%, 0%, 0%)" fill-opacity="1" d="M 81.203125 36.289062 C 81.203125 35.261719 80.367188 34.421875 79.335938 34.421875 C 78.300781 34.421875 77.464844 35.261719 77.464844 36.289062 C 77.464844 37.324219 78.300781 38.160156 79.335938 38.160156 C 80.367188 38.160156 81.203125 37.324219 81.203125 36.289062 "/>
<g fill="rgb(0%, 0%, 0%)" fill-opacity="1">
<use xlink:href="#glyph-4-0" x="84.638" y="30.127"/>
</g>
<g fill="rgb(0%, 0%, 0%)" fill-opacity="1">
<use xlink:href="#glyph-5-0" x="120.5431" y="41.4336"/>
</g>
<g fill="rgb(0%, 0%, 0%)" fill-opacity="1">
<use xlink:href="#glyph-1-2" x="14.3311" y="86.8391"/>
</g>
<path fill-rule="nonzero" fill="rgb(100%, 100%, 100%)" fill-opacity="1" d="M 91.976562 150.226562 L 96.910156 150.226562 L 96.910156 143.949219 L 91.976562 143.949219 Z M 91.976562 150.226562 "/>
<g fill="rgb(0%, 0%, 0%)" fill-opacity="1">
<use xlink:href="#glyph-0-1" x="91.977" y="150.106"/>
</g>
<path fill-rule="nonzero" fill="rgb(100%, 100%, 100%)" fill-opacity="1" d="M 91.976562 135.285156 L 96.910156 135.285156 L 96.910156 129.003906 L 91.976562 129.003906 Z M 91.976562 135.285156 "/>
<g fill="rgb(0%, 0%, 0%)" fill-opacity="1">
<use xlink:href="#glyph-0-1" x="91.977" y="135.162"/>
</g>
<path fill-rule="nonzero" fill="rgb(100%, 100%, 100%)" fill-opacity="1" d="M 91.976562 127.8125 L 96.910156 127.8125 L 96.910156 121.53125 L 91.976562 121.53125 Z M 91.976562 127.8125 "/>
<g fill="rgb(0%, 0%, 0%)" fill-opacity="1">
<use xlink:href="#glyph-0-1" x="91.977" y="127.69"/>
</g>
<path fill-rule="nonzero" fill="rgb(100%, 100%, 100%)" fill-opacity="1" d="M 91.976562 120.339844 L 96.910156 120.339844 L 96.910156 114.058594 L 91.976562 114.058594 Z M 91.976562 120.339844 "/>
<g fill="rgb(0%, 0%, 0%)" fill-opacity="1">
<use xlink:href="#glyph-0-1" x="91.977" y="120.218"/>
</g>
<path fill="none" stroke-width="3.73599" stroke-linecap="round" stroke-linejoin="miter" stroke="rgb(0%, 0%, 0%)" stroke-opacity="1" stroke-miterlimit="10" d="M 829.492188 7638.320312 L 829.492188 8011.914062 " transform="matrix(0.1, 0, 0, -0.1, -18, 833)"/>
<path fill="none" stroke-width="3.73599" stroke-linecap="round" stroke-linejoin="miter" stroke="rgb(0%, 0%, 0%)" stroke-opacity="1" stroke-miterlimit="10" d="M 754.765625 7638.320312 L 754.765625 8011.914062 " transform="matrix(0.1, 0, 0, -0.1, -18, 833)"/>
<path fill="none" stroke-width="3.73599" stroke-linecap="round" stroke-linejoin="miter" stroke="rgb(0%, 0%, 0%)" stroke-opacity="1" stroke-miterlimit="10" d="M 680.039062 7638.320312 L 680.039062 8011.914062 " transform="matrix(0.1, 0, 0, -0.1, -18, 833)"/>
<path fill="none" stroke-width="3.73599" stroke-linecap="round" stroke-linejoin="miter" stroke="rgb(0%, 0%, 0%)" stroke-opacity="1" stroke-miterlimit="10" d="M 605.3125 7638.320312 L 605.3125 8011.914062 " transform="matrix(0.1, 0, 0, -0.1, -18, 833)"/>
<path fill="none" stroke-width="3.73599" stroke-linecap="round" stroke-linejoin="miter" stroke="rgb(0%, 0%, 0%)" stroke-opacity="1" stroke-miterlimit="10" d="M 530.585938 7638.320312 L 530.585938 8011.914062 " transform="matrix(0.1, 0, 0, -0.1, -18, 833)"/>
<path fill="none" stroke-width="3.73599" stroke-linecap="round" stroke-linejoin="miter" stroke="rgb(0%, 0%, 0%)" stroke-opacity="1" stroke-miterlimit="10" d="M 455.859375 7638.320312 L 455.859375 8011.914062 " transform="matrix(0.1, 0, 0, -0.1, -18, 833)"/>
<path fill="none" stroke-width="3.73599" stroke-linecap="round" stroke-linejoin="miter" stroke="rgb(0%, 0%, 0%)" stroke-opacity="1" stroke-miterlimit="10" d="M 455.859375 8011.914062 L 829.492188 8011.914062 " transform="matrix(0.1, 0, 0, -0.1, -18, 833)"/>
<path fill="none" stroke-width="3.73599" stroke-linecap="round" stroke-linejoin="miter" stroke="rgb(0%, 0%, 0%)" stroke-opacity="1" stroke-miterlimit="10" d="M 455.859375 7937.1875 L 829.492188 7937.1875 " transform="matrix(0.1, 0, 0, -0.1, -18, 833)"/>
<path fill="none" stroke-width="3.73599" stroke-linecap="round" stroke-linejoin="miter" stroke="rgb(0%, 0%, 0%)" stroke-opacity="1" stroke-miterlimit="10" d="M 455.859375 7862.460938 L 829.492188 7862.460938 " transform="matrix(0.1, 0, 0, -0.1, -18, 833)"/>
<path fill="none" stroke-width="3.73599" stroke-linecap="round" stroke-linejoin="miter" stroke="rgb(0%, 0%, 0%)" stroke-opacity="1" stroke-miterlimit="10" d="M 455.859375 7787.773438 L 829.492188 7787.773438 " transform="matrix(0.1, 0, 0, -0.1, -18, 833)"/>
<path fill="none" stroke-width="3.73599" stroke-linecap="round" stroke-linejoin="miter" stroke="rgb(0%, 0%, 0%)" stroke-opacity="1" stroke-miterlimit="10" d="M 455.859375 7713.046875 L 829.492188 7713.046875 " transform="matrix(0.1, 0, 0, -0.1, -18, 833)"/>
<path fill="none" stroke-width="3.73599" stroke-linecap="round" stroke-linejoin="miter" stroke="rgb(0%, 0%, 0%)" stroke-opacity="1" stroke-miterlimit="10" d="M 698.710938 7967.109375 C 698.710938 7977.382812 690.351562 7985.78125 680.039062 7985.78125 C 669.726562 7985.78125 661.367188 7977.382812 661.367188 7967.109375 C 661.367188 7956.757812 669.726562 7948.398438 680.039062 7948.398438 C 690.351562 7948.398438 698.710938 7956.757812 698.710938 7967.109375 Z M 698.710938 7967.109375 " transform="matrix(0.1, 0, 0, -0.1, -18, 833)"/>
<path fill-rule="nonzero" fill="rgb(0%, 0%, 0%)" fill-opacity="1" d="M 51.871094 36.289062 C 51.871094 35.261719 51.035156 34.421875 50.003906 34.421875 C 48.972656 34.421875 48.136719 35.261719 48.136719 36.289062 C 48.136719 37.324219 48.972656 38.160156 50.003906 38.160156 C 51.035156 38.160156 51.871094 37.324219 51.871094 36.289062 "/>
<path fill="none" stroke-width="3.73599" stroke-linecap="round" stroke-linejoin="miter" stroke="rgb(0%, 0%, 0%)" stroke-opacity="1" stroke-miterlimit="10" d="M 623.984375 7817.65625 C 623.984375 7827.96875 615.625 7836.328125 605.3125 7836.328125 C 595 7836.328125 586.640625 7827.96875 586.640625 7817.65625 C 586.640625 7807.34375 595 7798.984375 605.3125 7798.984375 C 615.625 7798.984375 623.984375 7807.34375 623.984375 7817.65625 Z M 623.984375 7817.65625 " transform="matrix(0.1, 0, 0, -0.1, -18, 833)"/>
<path fill-rule="nonzero" fill="rgb(0%, 0%, 0%)" fill-opacity="1" d="M 44.398438 51.234375 C 44.398438 50.203125 43.5625 49.367188 42.53125 49.367188 C 41.5 49.367188 40.664062 50.203125 40.664062 51.234375 C 40.664062 52.265625 41.5 53.101562 42.53125 53.101562 C 43.5625 53.101562 44.398438 52.265625 44.398438 51.234375 "/>
<path fill="none" stroke-width="3.73599" stroke-linecap="round" stroke-linejoin="miter" stroke="rgb(0%, 0%, 0%)" stroke-opacity="1" stroke-miterlimit="10" d="M 549.257812 7817.65625 C 549.257812 7827.96875 540.898438 7836.328125 530.585938 7836.328125 C 520.273438 7836.328125 511.914062 7827.96875 511.914062 7817.65625 C 511.914062 7807.34375 520.273438 7798.984375 530.585938 7798.984375 C 540.898438 7798.984375 549.257812 7807.34375 549.257812 7817.65625 Z M 549.257812 7817.65625 " transform="matrix(0.1, 0, 0, -0.1, -18, 833)"/>
<path fill-rule="nonzero" fill="rgb(0%, 0%, 0%)" fill-opacity="1" d="M 36.925781 51.234375 C 36.925781 50.203125 36.089844 49.367188 35.058594 49.367188 C 34.027344 49.367188 33.191406 50.203125 33.191406 51.234375 C 33.191406 52.265625 34.027344 53.101562 35.058594 53.101562 C 36.089844 53.101562 36.925781 52.265625 36.925781 51.234375 "/>
<path fill="none" stroke-width="3.73599" stroke-linecap="round" stroke-linejoin="miter" stroke="rgb(0%, 0%, 0%)" stroke-opacity="1" stroke-miterlimit="10" d="M 474.570312 7967.109375 C 474.570312 7977.382812 466.171875 7985.78125 455.859375 7985.78125 C 445.546875 7985.78125 437.1875 7977.382812 437.1875 7967.109375 C 437.1875 7956.757812 445.546875 7948.398438 455.859375 7948.398438 C 466.171875 7948.398438 474.570312 7956.757812 474.570312 7967.109375 Z M 474.570312 7967.109375 " transform="matrix(0.1, 0, 0, -0.1, -18, 833)"/>
<path fill-rule="nonzero" fill="rgb(0%, 0%, 0%)" fill-opacity="1" d="M 29.457031 36.289062 C 29.457031 35.261719 28.617188 34.421875 27.585938 34.421875 C 26.554688 34.421875 25.71875 35.261719 25.71875 36.289062 C 25.71875 37.324219 26.554688 38.160156 27.585938 38.160156 C 28.617188 38.160156 29.457031 37.324219 29.457031 36.289062 "/>
<g fill="rgb(0%, 0%, 0%)" fill-opacity="1">
<use xlink:href="#glyph-4-0" x="62.7789" y="30.127"/>
</g>
<g fill="rgb(0%, 0%, 0%)" fill-opacity="1">
<use xlink:href="#glyph-4-0" x="55.307001" y="30.127"/>
</g>
<g fill="rgb(0%, 0%, 0%)" fill-opacity="1">
<use xlink:href="#glyph-5-0" x="68.79609" y="41.4336"/>
</g>
<g fill="rgb(0%, 0%, 0%)" fill-opacity="1">
<use xlink:href="#glyph-2-0" x="143.97769" y="22.841"/>
</g>
<g fill="rgb(0%, 0%, 0%)" fill-opacity="1">
<use xlink:href="#glyph-2-1" x="152.651507" y="22.841"/>
</g>
<g fill="rgb(0%, 0%, 0%)" fill-opacity="1">
<use xlink:href="#glyph-3-1" x="163.53669" y="16.91717"/>
</g>
<g fill="rgb(0%, 0%, 0%)" fill-opacity="1">
<use xlink:href="#glyph-1-1" x="143.97769" y="101.78277"/>
</g>
<g fill="rgb(0%, 0%, 0%)" fill-opacity="1">
<use xlink:href="#glyph-1-1" x="143.97769" y="89.32967"/>
</g>
<g fill="rgb(0%, 0%, 0%)" fill-opacity="1">
<use xlink:href="#glyph-1-1" x="143.97769" y="79.36678"/>
</g>
<g fill="rgb(0%, 0%, 0%)" fill-opacity="1">
<use xlink:href="#glyph-1-1" x="143.97769" y="74.38553"/>
</g>
<path fill="none" stroke-width="3.73599" stroke-linecap="round" stroke-linejoin="miter" stroke="rgb(0%, 0%, 0%)" stroke-opacity="1" stroke-miterlimit="10" d="M 1866.679688 7638.320312 L 1866.679688 8011.914062 " transform="matrix(0.1, 0, 0, -0.1, -18, 833)"/>
<path fill="none" stroke-width="3.73599" stroke-linecap="round" stroke-linejoin="miter" stroke="rgb(0%, 0%, 0%)" stroke-opacity="1" stroke-miterlimit="10" d="M 1791.953125 7638.320312 L 1791.953125 8011.914062 " transform="matrix(0.1, 0, 0, -0.1, -18, 833)"/>
<path fill="none" stroke-width="3.73599" stroke-linecap="round" stroke-linejoin="miter" stroke="rgb(0%, 0%, 0%)" stroke-opacity="1" stroke-miterlimit="10" d="M 1717.226562 7638.320312 L 1717.226562 8011.914062 " transform="matrix(0.1, 0, 0, -0.1, -18, 833)"/>
<path fill="none" stroke-width="3.73599" stroke-linecap="round" stroke-linejoin="miter" stroke="rgb(0%, 0%, 0%)" stroke-opacity="1" stroke-miterlimit="10" d="M 1642.539062 7638.320312 L 1642.539062 8011.914062 " transform="matrix(0.1, 0, 0, -0.1, -18, 833)"/>
<path fill="none" stroke-width="3.73599" stroke-linecap="round" stroke-linejoin="miter" stroke="rgb(0%, 0%, 0%)" stroke-opacity="1" stroke-miterlimit="10" d="M 1567.8125 7638.320312 L 1567.8125 8011.914062 " transform="matrix(0.1, 0, 0, -0.1, -18, 833)"/>
<path fill="none" stroke-width="3.73599" stroke-linecap="round" stroke-linejoin="miter" stroke="rgb(0%, 0%, 0%)" stroke-opacity="1" stroke-miterlimit="10" d="M 1493.085938 7638.320312 L 1493.085938 8011.914062 " transform="matrix(0.1, 0, 0, -0.1, -18, 833)"/>
<path fill="none" stroke-width="3.73599" stroke-linecap="round" stroke-linejoin="miter" stroke="rgb(0%, 0%, 0%)" stroke-opacity="1" stroke-miterlimit="10" d="M 1493.085938 8011.914062 L 1866.679688 8011.914062 " transform="matrix(0.1, 0, 0, -0.1, -18, 833)"/>
<path fill="none" stroke-width="3.73599" stroke-linecap="round" stroke-linejoin="miter" stroke="rgb(0%, 0%, 0%)" stroke-opacity="1" stroke-miterlimit="10" d="M 1493.085938 7937.1875 L 1866.679688 7937.1875 " transform="matrix(0.1, 0, 0, -0.1, -18, 833)"/>
<path fill="none" stroke-width="3.73599" stroke-linecap="round" stroke-linejoin="miter" stroke="rgb(0%, 0%, 0%)" stroke-opacity="1" stroke-miterlimit="10" d="M 1493.085938 7862.460938 L 1866.679688 7862.460938 " transform="matrix(0.1, 0, 0, -0.1, -18, 833)"/>
<path fill="none" stroke-width="3.73599" stroke-linecap="round" stroke-linejoin="miter" stroke="rgb(0%, 0%, 0%)" stroke-opacity="1" stroke-miterlimit="10" d="M 1493.085938 7787.773438 L 1866.679688 7787.773438 " transform="matrix(0.1, 0, 0, -0.1, -18, 833)"/>
<path fill="none" stroke-width="3.73599" stroke-linecap="round" stroke-linejoin="miter" stroke="rgb(0%, 0%, 0%)" stroke-opacity="1" stroke-miterlimit="10" d="M 1493.085938 7713.046875 L 1866.679688 7713.046875 " transform="matrix(0.1, 0, 0, -0.1, -18, 833)"/>
<path fill="none" stroke-width="3.73599" stroke-linecap="round" stroke-linejoin="miter" stroke="rgb(0%, 0%, 0%)" stroke-opacity="1" stroke-miterlimit="10" d="M 1810.625 7892.382812 C 1810.625 7902.695312 1802.265625 7911.054688 1791.953125 7911.054688 C 1781.640625 7911.054688 1773.28125 7902.695312 1773.28125 7892.382812 C 1773.28125 7882.03125 1781.640625 7873.671875 1791.953125 7873.671875 C 1802.265625 7873.671875 1810.625 7882.03125 1810.625 7892.382812 Z M 1810.625 7892.382812 " transform="matrix(0.1, 0, 0, -0.1, -18, 833)"/>
<path fill-rule="nonzero" fill="rgb(0%, 0%, 0%)" fill-opacity="1" d="M 163.0625 43.761719 C 163.0625 42.730469 162.226562 41.894531 161.195312 41.894531 C 160.164062 41.894531 159.328125 42.730469 159.328125 43.761719 C 159.328125 44.796875 160.164062 45.632812 161.195312 45.632812 C 162.226562 45.632812 163.0625 44.796875 163.0625 43.761719 "/>
<path fill="none" stroke-width="3.73599" stroke-linecap="round" stroke-linejoin="miter" stroke="rgb(0%, 0%, 0%)" stroke-opacity="1" stroke-miterlimit="10" d="M 1735.9375 7892.382812 C 1735.9375 7902.695312 1727.578125 7911.054688 1717.226562 7911.054688 C 1706.914062 7911.054688 1698.554688 7902.695312 1698.554688 7892.382812 C 1698.554688 7882.03125 1706.914062 7873.671875 1717.226562 7873.671875 C 1727.578125 7873.671875 1735.9375 7882.03125 1735.9375 7892.382812 Z M 1735.9375 7892.382812 " transform="matrix(0.1, 0, 0, -0.1, -18, 833)"/>
<path fill-rule="nonzero" fill="rgb(0%, 0%, 0%)" fill-opacity="1" d="M 155.59375 43.761719 C 155.59375 42.730469 154.757812 41.894531 153.722656 41.894531 C 152.691406 41.894531 151.855469 42.730469 151.855469 43.761719 C 151.855469 44.796875 152.691406 45.632812 153.722656 45.632812 C 154.757812 45.632812 155.59375 44.796875 155.59375 43.761719 "/>
<path fill="none" stroke-width="3.73599" stroke-linecap="round" stroke-linejoin="miter" stroke="rgb(0%, 0%, 0%)" stroke-opacity="1" stroke-miterlimit="10" d="M 1661.210938 7967.109375 C 1661.210938 7977.382812 1652.851562 7985.78125 1642.539062 7985.78125 C 1632.1875 7985.78125 1623.828125 7977.382812 1623.828125 7967.109375 C 1623.828125 7956.757812 1632.1875 7948.398438 1642.539062 7948.398438 C 1652.851562 7948.398438 1661.210938 7956.757812 1661.210938 7967.109375 Z M 1661.210938 7967.109375 " transform="matrix(0.1, 0, 0, -0.1, -18, 833)"/>
<path fill-rule="nonzero" fill="rgb(0%, 0%, 0%)" fill-opacity="1" d="M 148.121094 36.289062 C 148.121094 35.261719 147.285156 34.421875 146.253906 34.421875 C 145.21875 34.421875 144.382812 35.261719 144.382812 36.289062 C 144.382812 37.324219 145.21875 38.160156 146.253906 38.160156 C 147.285156 38.160156 148.121094 37.324219 148.121094 36.289062 "/>
<path fill="none" stroke-width="3.73599" stroke-linecap="round" stroke-linejoin="miter" stroke="rgb(0%, 0%, 0%)" stroke-opacity="1" stroke-miterlimit="10" d="M 1511.757812 7892.382812 C 1511.757812 7902.695312 1503.398438 7911.054688 1493.085938 7911.054688 C 1482.773438 7911.054688 1474.414062 7902.695312 1474.414062 7892.382812 C 1474.414062 7882.03125 1482.773438 7873.671875 1493.085938 7873.671875 C 1503.398438 7873.671875 1511.757812 7882.03125 1511.757812 7892.382812 Z M 1511.757812 7892.382812 " transform="matrix(0.1, 0, 0, -0.1, -18, 833)"/>
<path fill-rule="nonzero" fill="rgb(0%, 0%, 0%)" fill-opacity="1" d="M 133.175781 43.761719 C 133.175781 42.730469 132.339844 41.894531 131.308594 41.894531 C 130.277344 41.894531 129.441406 42.730469 129.441406 43.761719 C 129.441406 44.796875 130.277344 45.632812 131.308594 45.632812 C 132.339844 45.632812 133.175781 44.796875 133.175781 43.761719 "/>
<g fill="rgb(0%, 0%, 0%)" fill-opacity="1">
<use xlink:href="#glyph-4-0" x="136.612" y="30.127"/>
</g>
<g fill="rgb(0%, 0%, 0%)" fill-opacity="1">
<use xlink:href="#glyph-5-1" x="172.4671" y="42.2762"/>
</g>
<g fill="rgb(0%, 0%, 0%)" fill-opacity="1">
<use xlink:href="#glyph-5-0" x="174.253033" y="42.2762"/>
</g>
<g fill="rgb(0%, 0%, 0%)" fill-opacity="1">
<use xlink:href="#glyph-1-1" x="39.7361" y="79.3668"/>
</g>
<path fill-rule="nonzero" fill="rgb(100%, 100%, 100%)" fill-opacity="1" d="M 144.472656 150.226562 L 149.402344 150.226562 L 149.402344 143.949219 L 144.472656 143.949219 Z M 144.472656 150.226562 "/>
<g fill="rgb(0%, 0%, 0%)" fill-opacity="1">
<use xlink:href="#glyph-0-1" x="144.471" y="150.106"/>
</g>
<path fill-rule="nonzero" fill="rgb(100%, 100%, 100%)" fill-opacity="1" d="M 144.472656 135.222656 L 149.402344 135.222656 L 149.402344 129.066406 L 144.472656 129.066406 Z M 144.472656 135.222656 "/>
<g fill="rgb(0%, 0%, 0%)" fill-opacity="1">
<use xlink:href="#glyph-0-2" x="144.471" y="135.223"/>
</g>
<path fill-rule="nonzero" fill="rgb(100%, 100%, 100%)" fill-opacity="1" d="M 144.472656 127.8125 L 149.402344 127.8125 L 149.402344 121.53125 L 144.472656 121.53125 Z M 144.472656 127.8125 "/>
<g fill="rgb(0%, 0%, 0%)" fill-opacity="1">
<use xlink:href="#glyph-0-1" x="144.471" y="127.69"/>
</g>
<path fill-rule="nonzero" fill="rgb(100%, 100%, 100%)" fill-opacity="1" d="M 144.472656 120.339844 L 149.402344 120.339844 L 149.402344 114.058594 L 144.472656 114.058594 Z M 144.472656 120.339844 "/>
<g fill="rgb(0%, 0%, 0%)" fill-opacity="1">
<use xlink:href="#glyph-0-1" x="144.471" y="120.218"/>
</g>
<g fill="rgb(0%, 0%, 0%)" fill-opacity="1">
<use xlink:href="#glyph-1-1" x="39.736" y="84.3481"/>
</g>
<g fill="rgb(0%, 0%, 0%)" fill-opacity="1">
<use xlink:href="#glyph-1-3" x="136.7547" y="89.32935"/>
</g>
<g fill="rgb(0%, 0%, 0%)" fill-opacity="1">
<use xlink:href="#glyph-2-2" x="195.7246" y="22.84065"/>
</g>
<g fill="rgb(0%, 0%, 0%)" fill-opacity="1">
<use xlink:href="#glyph-2-1" x="205.078887" y="22.84065"/>
</g>
<g fill="rgb(0%, 0%, 0%)" fill-opacity="1">
<use xlink:href="#glyph-1-1" x="195.7246" y="94.31055"/>
</g>
<g fill="rgb(0%, 0%, 0%)" fill-opacity="1">
<use xlink:href="#glyph-1-1" x="195.7246" y="84.34805"/>
</g>
<g fill="rgb(0%, 0%, 0%)" fill-opacity="1">
<use xlink:href="#glyph-1-1" x="195.7246" y="76.87578"/>
</g>
<g fill="rgb(0%, 0%, 0%)" fill-opacity="1">
<use xlink:href="#glyph-1-1" x="195.7246" y="71.89453"/>
</g>
<path fill="none" stroke-width="3.73599" stroke-linecap="round" stroke-linejoin="miter" stroke="rgb(0%, 0%, 0%)" stroke-opacity="1" stroke-miterlimit="10" d="M 2376.289062 7662.96875 L 2376.289062 8036.5625 " transform="matrix(0.1, 0, 0, -0.1, -18, 833)"/>
<path fill="none" stroke-width="3.73599" stroke-linecap="round" stroke-linejoin="miter" stroke="rgb(0%, 0%, 0%)" stroke-opacity="1" stroke-miterlimit="10" d="M 2301.5625 7662.96875 L 2301.5625 8036.5625 " transform="matrix(0.1, 0, 0, -0.1, -18, 833)"/>
<path fill="none" stroke-width="3.73599" stroke-linecap="round" stroke-linejoin="miter" stroke="rgb(0%, 0%, 0%)" stroke-opacity="1" stroke-miterlimit="10" d="M 2226.835938 7662.96875 L 2226.835938 8036.5625 " transform="matrix(0.1, 0, 0, -0.1, -18, 833)"/>
<path fill="none" stroke-width="3.73599" stroke-linecap="round" stroke-linejoin="miter" stroke="rgb(0%, 0%, 0%)" stroke-opacity="1" stroke-miterlimit="10" d="M 2152.109375 7662.96875 L 2152.109375 8036.5625 " transform="matrix(0.1, 0, 0, -0.1, -18, 833)"/>
<path fill="none" stroke-width="3.73599" stroke-linecap="round" stroke-linejoin="miter" stroke="rgb(0%, 0%, 0%)" stroke-opacity="1" stroke-miterlimit="10" d="M 2077.382812 7662.96875 L 2077.382812 8036.5625 " transform="matrix(0.1, 0, 0, -0.1, -18, 833)"/>
<path fill="none" stroke-width="3.73599" stroke-linecap="round" stroke-linejoin="miter" stroke="rgb(0%, 0%, 0%)" stroke-opacity="1" stroke-miterlimit="10" d="M 2002.695312 7662.96875 L 2002.695312 8036.5625 " transform="matrix(0.1, 0, 0, -0.1, -18, 833)"/>
<path fill="none" stroke-width="3.73599" stroke-linecap="round" stroke-linejoin="miter" stroke="rgb(0%, 0%, 0%)" stroke-opacity="1" stroke-miterlimit="10" d="M 2002.695312 8036.5625 L 2376.289062 8036.5625 " transform="matrix(0.1, 0, 0, -0.1, -18, 833)"/>
<path fill="none" stroke-width="3.73599" stroke-linecap="round" stroke-linejoin="miter" stroke="rgb(0%, 0%, 0%)" stroke-opacity="1" stroke-miterlimit="10" d="M 2002.695312 7961.875 L 2376.289062 7961.875 " transform="matrix(0.1, 0, 0, -0.1, -18, 833)"/>
<path fill="none" stroke-width="3.73599" stroke-linecap="round" stroke-linejoin="miter" stroke="rgb(0%, 0%, 0%)" stroke-opacity="1" stroke-miterlimit="10" d="M 2002.695312 7887.148438 L 2376.289062 7887.148438 " transform="matrix(0.1, 0, 0, -0.1, -18, 833)"/>
<path fill="none" stroke-width="3.73599" stroke-linecap="round" stroke-linejoin="miter" stroke="rgb(0%, 0%, 0%)" stroke-opacity="1" stroke-miterlimit="10" d="M 2002.695312 7812.421875 L 2376.289062 7812.421875 " transform="matrix(0.1, 0, 0, -0.1, -18, 833)"/>
<path fill="none" stroke-width="3.73599" stroke-linecap="round" stroke-linejoin="miter" stroke="rgb(0%, 0%, 0%)" stroke-opacity="1" stroke-miterlimit="10" d="M 2002.695312 7737.695312 L 2376.289062 7737.695312 " transform="matrix(0.1, 0, 0, -0.1, -18, 833)"/>
<path fill="none" stroke-width="3.73599" stroke-linecap="round" stroke-linejoin="miter" stroke="rgb(0%, 0%, 0%)" stroke-opacity="1" stroke-miterlimit="10" d="M 2320.234375 7917.03125 C 2320.234375 7927.34375 2311.875 7935.703125 2301.5625 7935.703125 C 2291.25 7935.703125 2282.890625 7927.34375 2282.890625 7917.03125 C 2282.890625 7906.71875 2291.25 7898.359375 2301.5625 7898.359375 C 2311.875 7898.359375 2320.234375 7906.71875 2320.234375 7917.03125 Z M 2320.234375 7917.03125 " transform="matrix(0.1, 0, 0, -0.1, -18, 833)"/>
<path fill-rule="nonzero" fill="rgb(0%, 0%, 0%)" fill-opacity="1" d="M 214.023438 41.296875 C 214.023438 40.265625 213.1875 39.429688 212.15625 39.429688 C 211.125 39.429688 210.289062 40.265625 210.289062 41.296875 C 210.289062 42.328125 211.125 43.164062 212.15625 43.164062 C 213.1875 43.164062 214.023438 42.328125 214.023438 41.296875 "/>
<path fill="none" stroke-width="3.73599" stroke-linecap="round" stroke-linejoin="miter" stroke="rgb(0%, 0%, 0%)" stroke-opacity="1" stroke-miterlimit="10" d="M 2245.507812 7842.304688 C 2245.507812 7852.617188 2237.148438 7860.976562 2226.835938 7860.976562 C 2216.523438 7860.976562 2208.164062 7852.617188 2208.164062 7842.304688 C 2208.164062 7831.992188 2216.523438 7823.632812 2226.835938 7823.632812 C 2237.148438 7823.632812 2245.507812 7831.992188 2245.507812 7842.304688 Z M 2245.507812 7842.304688 " transform="matrix(0.1, 0, 0, -0.1, -18, 833)"/>
<path fill-rule="nonzero" fill="rgb(0%, 0%, 0%)" fill-opacity="1" d="M 206.550781 48.769531 C 206.550781 47.738281 205.714844 46.902344 204.683594 46.902344 C 203.652344 46.902344 202.816406 47.738281 202.816406 48.769531 C 202.816406 49.800781 203.652344 50.636719 204.683594 50.636719 C 205.714844 50.636719 206.550781 49.800781 206.550781 48.769531 "/>
<path fill="none" stroke-width="3.73599" stroke-linecap="round" stroke-linejoin="miter" stroke="rgb(0%, 0%, 0%)" stroke-opacity="1" stroke-miterlimit="10" d="M 2170.78125 7842.304688 C 2170.78125 7852.617188 2162.421875 7860.976562 2152.109375 7860.976562 C 2141.796875 7860.976562 2133.4375 7852.617188 2133.4375 7842.304688 C 2133.4375 7831.992188 2141.796875 7823.632812 2152.109375 7823.632812 C 2162.421875 7823.632812 2170.78125 7831.992188 2170.78125 7842.304688 Z M 2170.78125 7842.304688 " transform="matrix(0.1, 0, 0, -0.1, -18, 833)"/>
<path fill-rule="nonzero" fill="rgb(0%, 0%, 0%)" fill-opacity="1" d="M 199.078125 48.769531 C 199.078125 47.738281 198.242188 46.902344 197.210938 46.902344 C 196.179688 46.902344 195.34375 47.738281 195.34375 48.769531 C 195.34375 49.800781 196.179688 50.636719 197.210938 50.636719 C 198.242188 50.636719 199.078125 49.800781 199.078125 48.769531 "/>
<path fill="none" stroke-width="3.73599" stroke-linecap="round" stroke-linejoin="miter" stroke="rgb(0%, 0%, 0%)" stroke-opacity="1" stroke-miterlimit="10" d="M 2096.09375 7991.757812 C 2096.09375 8002.070312 2087.695312 8010.429688 2077.382812 8010.429688 C 2067.070312 8010.429688 2058.710938 8002.070312 2058.710938 7991.757812 C 2058.710938 7981.445312 2067.070312 7973.085938 2077.382812 7973.085938 C 2087.695312 7973.085938 2096.09375 7981.445312 2096.09375 7991.757812 Z M 2096.09375 7991.757812 " transform="matrix(0.1, 0, 0, -0.1, -18, 833)"/>
<path fill-rule="nonzero" fill="rgb(0%, 0%, 0%)" fill-opacity="1" d="M 191.609375 33.824219 C 191.609375 32.792969 190.769531 31.957031 189.738281 31.957031 C 188.707031 31.957031 187.871094 32.792969 187.871094 33.824219 C 187.871094 34.855469 188.707031 35.691406 189.738281 35.691406 C 190.769531 35.691406 191.609375 34.855469 191.609375 33.824219 "/>
<g fill="rgb(0%, 0%, 0%)" fill-opacity="1">
<use xlink:href="#glyph-5-0" x="223.477" y="38.968"/>
</g>
<g fill="rgb(0%, 0%, 0%)" fill-opacity="1">
<use xlink:href="#glyph-1-1" x="39.736" y="91.8207"/>
</g>
<path fill-rule="nonzero" fill="rgb(100%, 100%, 100%)" fill-opacity="1" d="M 196.21875 142.757812 L 201.152344 142.757812 L 201.152344 136.476562 L 196.21875 136.476562 Z M 196.21875 142.757812 "/>
<g fill="rgb(0%, 0%, 0%)" fill-opacity="1">
<use xlink:href="#glyph-0-1" x="196.218" y="142.634"/>
</g>
<path fill-rule="nonzero" fill="rgb(100%, 100%, 100%)" fill-opacity="1" d="M 196.21875 135.285156 L 201.152344 135.285156 L 201.152344 129.003906 L 196.21875 129.003906 Z M 196.21875 135.285156 "/>
<g fill="rgb(0%, 0%, 0%)" fill-opacity="1">
<use xlink:href="#glyph-0-0" x="196.218" y="135.162"/>
</g>
<g fill="rgb(0%, 0%, 0%)" fill-opacity="1">
<use xlink:href="#glyph-1-1" x="39.736" y="101.7827"/>
</g>
<path fill-rule="nonzero" fill="rgb(100%, 100%, 100%)" fill-opacity="1" d="M 196.21875 120.339844 L 201.152344 120.339844 L 201.152344 114.058594 L 196.21875 114.058594 Z M 196.21875 120.339844 "/>
<g fill="rgb(0%, 0%, 0%)" fill-opacity="1">
<use xlink:href="#glyph-0-3" x="196.218" y="120.218"/>
</g>
<g fill="rgb(0%, 0%, 0%)" fill-opacity="1">
<use xlink:href="#glyph-6-0" x="17.487" y="104.3117"/>
</g>
<g fill="rgb(0%, 0%, 0%)" fill-opacity="1">
<use xlink:href="#glyph-2-2" x="247.472" y="22.8406"/>
</g>
<g fill="rgb(0%, 0%, 0%)" fill-opacity="1">
<use xlink:href="#glyph-2-1" x="256.826287" y="22.8406"/>
</g>
<g fill="rgb(0%, 0%, 0%)" fill-opacity="1">
<use xlink:href="#glyph-3-0" x="267.7115" y="16.91677"/>
</g>
<g fill="rgb(0%, 0%, 0%)" fill-opacity="1">
<use xlink:href="#glyph-1-1" x="247.472" y="94.31047"/>
</g>
<g fill="rgb(0%, 0%, 0%)" fill-opacity="1">
<use xlink:href="#glyph-1-1" x="247.472" y="84.34797"/>
</g>
<g fill="rgb(0%, 0%, 0%)" fill-opacity="1">
<use xlink:href="#glyph-1-1" x="247.472" y="79.36633"/>
</g>
<g fill="rgb(0%, 0%, 0%)" fill-opacity="1">
<use xlink:href="#glyph-1-1" x="247.472" y="71.89446"/>
</g>
<path fill="none" stroke-width="3.73599" stroke-linecap="round" stroke-linejoin="miter" stroke="rgb(0%, 0%, 0%)" stroke-opacity="1" stroke-miterlimit="10" d="M 2893.75 7662.96875 L 2893.75 8036.5625 " transform="matrix(0.1, 0, 0, -0.1, -18, 833)"/>
<path fill="none" stroke-width="3.73599" stroke-linecap="round" stroke-linejoin="miter" stroke="rgb(0%, 0%, 0%)" stroke-opacity="1" stroke-miterlimit="10" d="M 2819.023438 7662.96875 L 2819.023438 8036.5625 " transform="matrix(0.1, 0, 0, -0.1, -18, 833)"/>
<path fill="none" stroke-width="3.73599" stroke-linecap="round" stroke-linejoin="miter" stroke="rgb(0%, 0%, 0%)" stroke-opacity="1" stroke-miterlimit="10" d="M 2744.296875 7662.96875 L 2744.296875 8036.5625 " transform="matrix(0.1, 0, 0, -0.1, -18, 833)"/>
<path fill="none" stroke-width="3.73599" stroke-linecap="round" stroke-linejoin="miter" stroke="rgb(0%, 0%, 0%)" stroke-opacity="1" stroke-miterlimit="10" d="M 2669.609375 7662.96875 L 2669.609375 8036.5625 " transform="matrix(0.1, 0, 0, -0.1, -18, 833)"/>
<path fill="none" stroke-width="3.73599" stroke-linecap="round" stroke-linejoin="miter" stroke="rgb(0%, 0%, 0%)" stroke-opacity="1" stroke-miterlimit="10" d="M 2594.882812 7662.96875 L 2594.882812 8036.5625 " transform="matrix(0.1, 0, 0, -0.1, -18, 833)"/>
<path fill="none" stroke-width="3.73599" stroke-linecap="round" stroke-linejoin="miter" stroke="rgb(0%, 0%, 0%)" stroke-opacity="1" stroke-miterlimit="10" d="M 2520.15625 7662.96875 L 2520.15625 8036.5625 " transform="matrix(0.1, 0, 0, -0.1, -18, 833)"/>
<path fill="none" stroke-width="3.73599" stroke-linecap="round" stroke-linejoin="miter" stroke="rgb(0%, 0%, 0%)" stroke-opacity="1" stroke-miterlimit="10" d="M 2520.15625 8036.5625 L 2893.75 8036.5625 " transform="matrix(0.1, 0, 0, -0.1, -18, 833)"/>
<path fill="none" stroke-width="3.73599" stroke-linecap="round" stroke-linejoin="miter" stroke="rgb(0%, 0%, 0%)" stroke-opacity="1" stroke-miterlimit="10" d="M 2520.15625 7961.875 L 2893.75 7961.875 " transform="matrix(0.1, 0, 0, -0.1, -18, 833)"/>
<path fill="none" stroke-width="3.73599" stroke-linecap="round" stroke-linejoin="miter" stroke="rgb(0%, 0%, 0%)" stroke-opacity="1" stroke-miterlimit="10" d="M 2520.15625 7887.148438 L 2893.75 7887.148438 " transform="matrix(0.1, 0, 0, -0.1, -18, 833)"/>
<path fill="none" stroke-width="3.73599" stroke-linecap="round" stroke-linejoin="miter" stroke="rgb(0%, 0%, 0%)" stroke-opacity="1" stroke-miterlimit="10" d="M 2520.15625 7812.421875 L 2893.75 7812.421875 " transform="matrix(0.1, 0, 0, -0.1, -18, 833)"/>
<path fill="none" stroke-width="3.73599" stroke-linecap="round" stroke-linejoin="miter" stroke="rgb(0%, 0%, 0%)" stroke-opacity="1" stroke-miterlimit="10" d="M 2520.15625 7737.695312 L 2893.75 7737.695312 " transform="matrix(0.1, 0, 0, -0.1, -18, 833)"/>
<path fill="none" stroke-width="3.73599" stroke-linecap="round" stroke-linejoin="miter" stroke="rgb(0%, 0%, 0%)" stroke-opacity="1" stroke-miterlimit="10" d="M 2837.695312 7917.03125 C 2837.695312 7927.34375 2829.335938 7935.703125 2819.023438 7935.703125 C 2808.710938 7935.703125 2800.351562 7927.34375 2800.351562 7917.03125 C 2800.351562 7906.71875 2808.710938 7898.359375 2819.023438 7898.359375 C 2829.335938 7898.359375 2837.695312 7906.71875 2837.695312 7917.03125 Z M 2837.695312 7917.03125 " transform="matrix(0.1, 0, 0, -0.1, -18, 833)"/>
<path fill-rule="nonzero" fill="rgb(0%, 0%, 0%)" fill-opacity="1" d="M 265.769531 41.296875 C 265.769531 40.265625 264.933594 39.429688 263.902344 39.429688 C 262.871094 39.429688 262.035156 40.265625 262.035156 41.296875 C 262.035156 42.328125 262.871094 43.164062 263.902344 43.164062 C 264.933594 43.164062 265.769531 42.328125 265.769531 41.296875 "/>
<path fill="none" stroke-width="3.73599" stroke-linecap="round" stroke-linejoin="miter" stroke="rgb(0%, 0%, 0%)" stroke-opacity="1" stroke-miterlimit="10" d="M 2763.007812 7991.757812 C 2763.007812 8002.070312 2754.648438 8010.429688 2744.296875 8010.429688 C 2733.984375 8010.429688 2725.625 8002.070312 2725.625 7991.757812 C 2725.625 7981.445312 2733.984375 7973.085938 2744.296875 7973.085938 C 2754.648438 7973.085938 2763.007812 7981.445312 2763.007812 7991.757812 Z M 2763.007812 7991.757812 " transform="matrix(0.1, 0, 0, -0.1, -18, 833)"/>
<path fill-rule="nonzero" fill="rgb(0%, 0%, 0%)" fill-opacity="1" d="M 258.300781 33.824219 C 258.300781 32.792969 257.464844 31.957031 256.429688 31.957031 C 255.398438 31.957031 254.5625 32.792969 254.5625 33.824219 C 254.5625 34.855469 255.398438 35.691406 256.429688 35.691406 C 257.464844 35.691406 258.300781 34.855469 258.300781 33.824219 "/>
<path fill="none" stroke-width="3.73599" stroke-linecap="round" stroke-linejoin="miter" stroke="rgb(0%, 0%, 0%)" stroke-opacity="1" stroke-miterlimit="10" d="M 2688.28125 7842.304688 C 2688.28125 7852.617188 2679.921875 7860.976562 2669.609375 7860.976562 C 2659.257812 7860.976562 2650.898438 7852.617188 2650.898438 7842.304688 C 2650.898438 7831.992188 2659.257812 7823.632812 2669.609375 7823.632812 C 2679.921875 7823.632812 2688.28125 7831.992188 2688.28125 7842.304688 Z M 2688.28125 7842.304688 " transform="matrix(0.1, 0, 0, -0.1, -18, 833)"/>
<path fill-rule="nonzero" fill="rgb(0%, 0%, 0%)" fill-opacity="1" d="M 250.828125 48.769531 C 250.828125 47.738281 249.992188 46.902344 248.960938 46.902344 C 247.925781 46.902344 247.089844 47.738281 247.089844 48.769531 C 247.089844 49.800781 247.925781 50.636719 248.960938 50.636719 C 249.992188 50.636719 250.828125 49.800781 250.828125 48.769531 "/>
<path fill="none" stroke-width="3.73599" stroke-linecap="round" stroke-linejoin="miter" stroke="rgb(0%, 0%, 0%)" stroke-opacity="1" stroke-miterlimit="10" d="M 2613.554688 7991.757812 C 2613.554688 8002.070312 2605.195312 8010.429688 2594.882812 8010.429688 C 2584.53125 8010.429688 2576.171875 8002.070312 2576.171875 7991.757812 C 2576.171875 7981.445312 2584.53125 7973.085938 2594.882812 7973.085938 C 2605.195312 7973.085938 2613.554688 7981.445312 2613.554688 7991.757812 Z M 2613.554688 7991.757812 " transform="matrix(0.1, 0, 0, -0.1, -18, 833)"/>
<path fill-rule="nonzero" fill="rgb(0%, 0%, 0%)" fill-opacity="1" d="M 243.355469 33.824219 C 243.355469 32.792969 242.519531 31.957031 241.488281 31.957031 C 240.453125 31.957031 239.617188 32.792969 239.617188 33.824219 C 239.617188 34.855469 240.453125 35.691406 241.488281 35.691406 C 242.519531 35.691406 243.355469 34.855469 243.355469 33.824219 "/>
<g fill="rgb(0%, 0%, 0%)" fill-opacity="1">
<use xlink:href="#glyph-5-0" x="275.224" y="38.968"/>
</g>
<g fill="rgb(0%, 0%, 0%)" fill-opacity="1">
<use xlink:href="#glyph-2-0" x="39.736" y="22.8414"/>
</g>
<g fill="rgb(0%, 0%, 0%)" fill-opacity="1">
<use xlink:href="#glyph-2-1" x="48.410592" y="22.8414"/>
</g>
<path fill-rule="nonzero" fill="rgb(100%, 100%, 100%)" fill-opacity="1" d="M 247.964844 142.757812 L 252.894531 142.757812 L 252.894531 136.476562 L 247.964844 136.476562 Z M 247.964844 142.757812 "/>
<g fill="rgb(0%, 0%, 0%)" fill-opacity="1">
<use xlink:href="#glyph-0-1" x="247.964" y="142.634"/>
</g>
<path fill-rule="nonzero" fill="rgb(100%, 100%, 100%)" fill-opacity="1" d="M 247.964844 135.285156 L 252.894531 135.285156 L 252.894531 129.003906 L 247.964844 129.003906 Z M 247.964844 135.285156 "/>
<g fill="rgb(0%, 0%, 0%)" fill-opacity="1">
<use xlink:href="#glyph-0-0" x="247.964" y="135.162"/>
</g>
<path fill-rule="nonzero" fill="rgb(100%, 100%, 100%)" fill-opacity="1" d="M 247.964844 127.8125 L 252.894531 127.8125 L 252.894531 121.53125 L 247.964844 121.53125 Z M 247.964844 127.8125 "/>
<g fill="rgb(0%, 0%, 0%)" fill-opacity="1">
<use xlink:href="#glyph-0-1" x="247.964" y="127.69"/>
</g>
<path fill-rule="nonzero" fill="rgb(100%, 100%, 100%)" fill-opacity="1" d="M 247.964844 120.339844 L 252.894531 120.339844 L 252.894531 114.058594 L 247.964844 114.058594 Z M 247.964844 120.339844 "/>
<g fill="rgb(0%, 0%, 0%)" fill-opacity="1">
<use xlink:href="#glyph-0-3" x="247.964" y="120.218"/>
</g>
<g fill="rgb(0%, 0%, 0%)" fill-opacity="1">
<use xlink:href="#glyph-2-0" x="299.2179" y="22.8407"/>
</g>
<g fill="rgb(0%, 0%, 0%)" fill-opacity="1">
<use xlink:href="#glyph-2-1" x="307.892107" y="22.8407"/>
</g>
<g fill="rgb(0%, 0%, 0%)" fill-opacity="1">
<use xlink:href="#glyph-3-0" x="318.7773" y="16.91687"/>
</g>
<g fill="rgb(0%, 0%, 0%)" fill-opacity="1">
<use xlink:href="#glyph-1-1" x="299.2179" y="101.78247"/>
</g>
<g fill="rgb(0%, 0%, 0%)" fill-opacity="1">
<use xlink:href="#glyph-1-1" x="299.2179" y="86.83877"/>
</g>
<g fill="rgb(0%, 0%, 0%)" fill-opacity="1">
<use xlink:href="#glyph-1-1" x="299.2179" y="79.3665"/>
</g>
<path fill="none" stroke-width="3.73599" stroke-linecap="round" stroke-linejoin="miter" stroke="rgb(0%, 0%, 0%)" stroke-opacity="1" stroke-miterlimit="10" d="M 3424.296875 7638.320312 L 3424.296875 8011.914062 " transform="matrix(0.1, 0, 0, -0.1, -18, 833)"/>
<path fill="none" stroke-width="3.73599" stroke-linecap="round" stroke-linejoin="miter" stroke="rgb(0%, 0%, 0%)" stroke-opacity="1" stroke-miterlimit="10" d="M 3349.570312 7638.320312 L 3349.570312 8011.914062 " transform="matrix(0.1, 0, 0, -0.1, -18, 833)"/>
<path fill="none" stroke-width="3.73599" stroke-linecap="round" stroke-linejoin="miter" stroke="rgb(0%, 0%, 0%)" stroke-opacity="1" stroke-miterlimit="10" d="M 3274.84375 7638.320312 L 3274.84375 8011.914062 " transform="matrix(0.1, 0, 0, -0.1, -18, 833)"/>
<path fill="none" stroke-width="3.73599" stroke-linecap="round" stroke-linejoin="miter" stroke="rgb(0%, 0%, 0%)" stroke-opacity="1" stroke-miterlimit="10" d="M 3200.15625 7638.320312 L 3200.15625 8011.914062 " transform="matrix(0.1, 0, 0, -0.1, -18, 833)"/>
<path fill="none" stroke-width="3.73599" stroke-linecap="round" stroke-linejoin="miter" stroke="rgb(0%, 0%, 0%)" stroke-opacity="1" stroke-miterlimit="10" d="M 3125.429688 7638.320312 L 3125.429688 8011.914062 " transform="matrix(0.1, 0, 0, -0.1, -18, 833)"/>
<path fill="none" stroke-width="3.73599" stroke-linecap="round" stroke-linejoin="miter" stroke="rgb(0%, 0%, 0%)" stroke-opacity="1" stroke-miterlimit="10" d="M 3050.703125 7638.320312 L 3050.703125 8011.914062 " transform="matrix(0.1, 0, 0, -0.1, -18, 833)"/>
<path fill="none" stroke-width="3.73599" stroke-linecap="round" stroke-linejoin="miter" stroke="rgb(0%, 0%, 0%)" stroke-opacity="1" stroke-miterlimit="10" d="M 3050.703125 8011.914062 L 3424.296875 8011.914062 " transform="matrix(0.1, 0, 0, -0.1, -18, 833)"/>
<path fill="none" stroke-width="3.73599" stroke-linecap="round" stroke-linejoin="miter" stroke="rgb(0%, 0%, 0%)" stroke-opacity="1" stroke-miterlimit="10" d="M 3050.703125 7937.1875 L 3424.296875 7937.1875 " transform="matrix(0.1, 0, 0, -0.1, -18, 833)"/>
<path fill="none" stroke-width="3.73599" stroke-linecap="round" stroke-linejoin="miter" stroke="rgb(0%, 0%, 0%)" stroke-opacity="1" stroke-miterlimit="10" d="M 3050.703125 7862.460938 L 3424.296875 7862.460938 " transform="matrix(0.1, 0, 0, -0.1, -18, 833)"/>
<path fill="none" stroke-width="3.73599" stroke-linecap="round" stroke-linejoin="miter" stroke="rgb(0%, 0%, 0%)" stroke-opacity="1" stroke-miterlimit="10" d="M 3050.703125 7787.773438 L 3424.296875 7787.773438 " transform="matrix(0.1, 0, 0, -0.1, -18, 833)"/>
<path fill="none" stroke-width="3.73599" stroke-linecap="round" stroke-linejoin="miter" stroke="rgb(0%, 0%, 0%)" stroke-opacity="1" stroke-miterlimit="10" d="M 3050.703125 7713.046875 L 3424.296875 7713.046875 " transform="matrix(0.1, 0, 0, -0.1, -18, 833)"/>
<path fill="none" stroke-width="3.73599" stroke-linecap="round" stroke-linejoin="miter" stroke="rgb(0%, 0%, 0%)" stroke-opacity="1" stroke-miterlimit="10" d="M 3293.554688 7967.109375 C 3293.554688 7977.382812 3285.15625 7985.78125 3274.84375 7985.78125 C 3264.53125 7985.78125 3256.171875 7977.382812 3256.171875 7967.109375 C 3256.171875 7956.757812 3264.53125 7948.398438 3274.84375 7948.398438 C 3285.15625 7948.398438 3293.554688 7956.757812 3293.554688 7967.109375 Z M 3293.554688 7967.109375 " transform="matrix(0.1, 0, 0, -0.1, -18, 833)"/>
<path fill-rule="nonzero" fill="rgb(0%, 0%, 0%)" fill-opacity="1" d="M 311.355469 36.289062 C 311.355469 35.261719 310.515625 34.421875 309.484375 34.421875 C 308.453125 34.421875 307.617188 35.261719 307.617188 36.289062 C 307.617188 37.324219 308.453125 38.160156 309.484375 38.160156 C 310.515625 38.160156 311.355469 37.324219 311.355469 36.289062 "/>
<path fill="none" stroke-width="3.73599" stroke-linecap="round" stroke-linejoin="miter" stroke="rgb(0%, 0%, 0%)" stroke-opacity="1" stroke-miterlimit="10" d="M 3218.828125 7967.109375 C 3218.828125 7977.382812 3210.46875 7985.78125 3200.15625 7985.78125 C 3189.804688 7985.78125 3181.445312 7977.382812 3181.445312 7967.109375 C 3181.445312 7956.757812 3189.804688 7948.398438 3200.15625 7948.398438 C 3210.46875 7948.398438 3218.828125 7956.757812 3218.828125 7967.109375 Z M 3218.828125 7967.109375 " transform="matrix(0.1, 0, 0, -0.1, -18, 833)"/>
<path fill-rule="nonzero" fill="rgb(0%, 0%, 0%)" fill-opacity="1" d="M 303.882812 36.289062 C 303.882812 35.261719 303.046875 34.421875 302.015625 34.421875 C 300.980469 34.421875 300.144531 35.261719 300.144531 36.289062 C 300.144531 37.324219 300.980469 38.160156 302.015625 38.160156 C 303.046875 38.160156 303.882812 37.324219 303.882812 36.289062 "/>
<path fill="none" stroke-width="3.73599" stroke-linecap="round" stroke-linejoin="miter" stroke="rgb(0%, 0%, 0%)" stroke-opacity="1" stroke-miterlimit="10" d="M 3069.375 7967.109375 C 3069.375 7977.382812 3061.015625 7985.78125 3050.703125 7985.78125 C 3040.390625 7985.78125 3032.03125 7977.382812 3032.03125 7967.109375 C 3032.03125 7956.757812 3040.390625 7948.398438 3050.703125 7948.398438 C 3061.015625 7948.398438 3069.375 7956.757812 3069.375 7967.109375 Z M 3069.375 7967.109375 " transform="matrix(0.1, 0, 0, -0.1, -18, 833)"/>
<path fill-rule="nonzero" fill="rgb(0%, 0%, 0%)" fill-opacity="1" d="M 288.9375 36.289062 C 288.9375 35.261719 288.101562 34.421875 287.070312 34.421875 C 286.039062 34.421875 285.203125 35.261719 285.203125 36.289062 C 285.203125 37.324219 286.039062 38.160156 287.070312 38.160156 C 288.101562 38.160156 288.9375 37.324219 288.9375 36.289062 "/>
<g fill="rgb(0%, 0%, 0%)" fill-opacity="1">
<use xlink:href="#glyph-4-0" x="292.373" y="30.127"/>
</g>
<g fill="rgb(0%, 0%, 0%)" fill-opacity="1">
<use xlink:href="#glyph-5-0" x="328.2781" y="41.4336"/>
</g>
<path fill-rule="nonzero" fill="rgb(100%, 100%, 100%)" fill-opacity="1" d="M 299.710938 150.226562 L 304.644531 150.226562 L 304.644531 143.949219 L 299.710938 143.949219 Z M 299.710938 150.226562 "/>
<g fill="rgb(0%, 0%, 0%)" fill-opacity="1">
<use xlink:href="#glyph-0-1" x="299.712" y="150.106"/>
</g>
<path fill-rule="nonzero" fill="rgb(100%, 100%, 100%)" fill-opacity="1" d="M 299.710938 135.285156 L 304.644531 135.285156 L 304.644531 129.003906 L 299.710938 129.003906 Z M 299.710938 135.285156 "/>
<g fill="rgb(0%, 0%, 0%)" fill-opacity="1">
<use xlink:href="#glyph-0-1" x="299.712" y="135.162"/>
</g>
<path fill-rule="nonzero" fill="rgb(100%, 100%, 100%)" fill-opacity="1" d="M 299.710938 127.8125 L 304.644531 127.8125 L 304.644531 121.53125 L 299.710938 121.53125 Z M 299.710938 127.8125 "/>
<g fill="rgb(0%, 0%, 0%)" fill-opacity="1">
<use xlink:href="#glyph-0-1" x="299.712" y="127.69"/>
</g>
<g fill="rgb(0%, 0%, 0%)" fill-opacity="1">
<use xlink:href="#glyph-2-2" x="350.9655" y="22.841"/>
</g>
<g fill="rgb(0%, 0%, 0%)" fill-opacity="1">
<use xlink:href="#glyph-2-1" x="360.320178" y="22.841"/>
</g>
<g fill="rgb(0%, 0%, 0%)" fill-opacity="1">
<use xlink:href="#glyph-3-0" x="371.2053" y="16.91717"/>
</g>
<g fill="rgb(0%, 0%, 0%)" fill-opacity="1">
<use xlink:href="#glyph-1-1" x="350.9655" y="94.31087"/>
</g>
<g fill="rgb(0%, 0%, 0%)" fill-opacity="1">
<use xlink:href="#glyph-1-1" x="350.9655" y="89.32962"/>
</g>
<g fill="rgb(0%, 0%, 0%)" fill-opacity="1">
<use xlink:href="#glyph-1-1" x="350.9655" y="79.36673"/>
</g>
<path fill="none" stroke-width="3.73599" stroke-linecap="round" stroke-linejoin="miter" stroke="rgb(0%, 0%, 0%)" stroke-opacity="1" stroke-miterlimit="10" d="M 3924.257812 7638.320312 L 3924.257812 8011.914062 " transform="matrix(0.1, 0, 0, -0.1, -18, 833)"/>
<path fill="none" stroke-width="3.73599" stroke-linecap="round" stroke-linejoin="miter" stroke="rgb(0%, 0%, 0%)" stroke-opacity="1" stroke-miterlimit="10" d="M 3849.53125 7638.320312 L 3849.53125 8011.914062 " transform="matrix(0.1, 0, 0, -0.1, -18, 833)"/>
<path fill="none" stroke-width="3.73599" stroke-linecap="round" stroke-linejoin="miter" stroke="rgb(0%, 0%, 0%)" stroke-opacity="1" stroke-miterlimit="10" d="M 3774.804688 7638.320312 L 3774.804688 8011.914062 " transform="matrix(0.1, 0, 0, -0.1, -18, 833)"/>
<path fill="none" stroke-width="3.73599" stroke-linecap="round" stroke-linejoin="miter" stroke="rgb(0%, 0%, 0%)" stroke-opacity="1" stroke-miterlimit="10" d="M 3700.078125 7638.320312 L 3700.078125 8011.914062 " transform="matrix(0.1, 0, 0, -0.1, -18, 833)"/>
<path fill="none" stroke-width="3.73599" stroke-linecap="round" stroke-linejoin="miter" stroke="rgb(0%, 0%, 0%)" stroke-opacity="1" stroke-miterlimit="10" d="M 3625.351562 7638.320312 L 3625.351562 8011.914062 " transform="matrix(0.1, 0, 0, -0.1, -18, 833)"/>
<path fill="none" stroke-width="3.73599" stroke-linecap="round" stroke-linejoin="miter" stroke="rgb(0%, 0%, 0%)" stroke-opacity="1" stroke-miterlimit="10" d="M 3550.664062 7638.320312 L 3550.664062 8011.914062 " transform="matrix(0.1, 0, 0, -0.1, -18, 833)"/>
<path fill="none" stroke-width="3.73599" stroke-linecap="round" stroke-linejoin="miter" stroke="rgb(0%, 0%, 0%)" stroke-opacity="1" stroke-miterlimit="10" d="M 3550.664062 8011.914062 L 3924.257812 8011.914062 " transform="matrix(0.1, 0, 0, -0.1, -18, 833)"/>
<path fill="none" stroke-width="3.73599" stroke-linecap="round" stroke-linejoin="miter" stroke="rgb(0%, 0%, 0%)" stroke-opacity="1" stroke-miterlimit="10" d="M 3550.664062 7937.1875 L 3924.257812 7937.1875 " transform="matrix(0.1, 0, 0, -0.1, -18, 833)"/>
<path fill="none" stroke-width="3.73599" stroke-linecap="round" stroke-linejoin="miter" stroke="rgb(0%, 0%, 0%)" stroke-opacity="1" stroke-miterlimit="10" d="M 3550.664062 7862.460938 L 3924.257812 7862.460938 " transform="matrix(0.1, 0, 0, -0.1, -18, 833)"/>
<path fill="none" stroke-width="3.73599" stroke-linecap="round" stroke-linejoin="miter" stroke="rgb(0%, 0%, 0%)" stroke-opacity="1" stroke-miterlimit="10" d="M 3550.664062 7787.773438 L 3924.257812 7787.773438 " transform="matrix(0.1, 0, 0, -0.1, -18, 833)"/>
<path fill="none" stroke-width="3.73599" stroke-linecap="round" stroke-linejoin="miter" stroke="rgb(0%, 0%, 0%)" stroke-opacity="1" stroke-miterlimit="10" d="M 3550.664062 7713.046875 L 3924.257812 7713.046875 " transform="matrix(0.1, 0, 0, -0.1, -18, 833)"/>
<path fill="none" stroke-width="3.73599" stroke-linecap="round" stroke-linejoin="miter" stroke="rgb(0%, 0%, 0%)" stroke-opacity="1" stroke-miterlimit="10" d="M 3793.476562 7817.65625 C 3793.476562 7827.96875 3785.117188 7836.328125 3774.804688 7836.328125 C 3764.492188 7836.328125 3756.132812 7827.96875 3756.132812 7817.65625 C 3756.132812 7807.34375 3764.492188 7798.984375 3774.804688 7798.984375 C 3785.117188 7798.984375 3793.476562 7807.34375 3793.476562 7817.65625 Z M 3793.476562 7817.65625 " transform="matrix(0.1, 0, 0, -0.1, -18, 833)"/>
<path fill-rule="nonzero" fill="rgb(0%, 0%, 0%)" fill-opacity="1" d="M 361.347656 51.234375 C 361.347656 50.203125 360.511719 49.367188 359.480469 49.367188 C 358.449219 49.367188 357.613281 50.203125 357.613281 51.234375 C 357.613281 52.265625 358.449219 53.101562 359.480469 53.101562 C 360.511719 53.101562 361.347656 52.265625 361.347656 51.234375 "/>
<path fill="none" stroke-width="3.73599" stroke-linecap="round" stroke-linejoin="miter" stroke="rgb(0%, 0%, 0%)" stroke-opacity="1" stroke-miterlimit="10" d="M 3718.789062 7967.109375 C 3718.789062 7977.382812 3710.390625 7985.78125 3700.078125 7985.78125 C 3689.765625 7985.78125 3681.40625 7977.382812 3681.40625 7967.109375 C 3681.40625 7956.757812 3689.765625 7948.398438 3700.078125 7948.398438 C 3710.390625 7948.398438 3718.789062 7956.757812 3718.789062 7967.109375 Z M 3718.789062 7967.109375 " transform="matrix(0.1, 0, 0, -0.1, -18, 833)"/>
<path fill-rule="nonzero" fill="rgb(0%, 0%, 0%)" fill-opacity="1" d="M 353.878906 36.289062 C 353.878906 35.261719 353.039062 34.421875 352.007812 34.421875 C 350.976562 34.421875 350.140625 35.261719 350.140625 36.289062 C 350.140625 37.324219 350.976562 38.160156 352.007812 38.160156 C 353.039062 38.160156 353.878906 37.324219 353.878906 36.289062 "/>
<path fill="none" stroke-width="3.73599" stroke-linecap="round" stroke-linejoin="miter" stroke="rgb(0%, 0%, 0%)" stroke-opacity="1" stroke-miterlimit="10" d="M 3644.0625 7817.65625 C 3644.0625 7827.96875 3635.664062 7836.328125 3625.351562 7836.328125 C 3615.039062 7836.328125 3606.679688 7827.96875 3606.679688 7817.65625 C 3606.679688 7807.34375 3615.039062 7798.984375 3625.351562 7798.984375 C 3635.664062 7798.984375 3644.0625 7807.34375 3644.0625 7817.65625 Z M 3644.0625 7817.65625 " transform="matrix(0.1, 0, 0, -0.1, -18, 833)"/>
<path fill-rule="nonzero" fill="rgb(0%, 0%, 0%)" fill-opacity="1" d="M 346.40625 51.234375 C 346.40625 50.203125 345.566406 49.367188 344.535156 49.367188 C 343.503906 49.367188 342.667969 50.203125 342.667969 51.234375 C 342.667969 52.265625 343.503906 53.101562 344.535156 53.101562 C 345.566406 53.101562 346.40625 52.265625 346.40625 51.234375 "/>
<g fill="rgb(0%, 0%, 0%)" fill-opacity="1">
<use xlink:href="#glyph-5-1" x="378.479" y="42.276"/>
</g>
<g fill="rgb(0%, 0%, 0%)" fill-opacity="1">
<use xlink:href="#glyph-5-1" x="380.264933" y="42.276"/>
</g>
<g fill="rgb(0%, 0%, 0%)" fill-opacity="1">
<use xlink:href="#glyph-5-1" x="382.050475" y="42.276"/>
</g>
<path fill-rule="nonzero" fill="rgb(100%, 100%, 100%)" fill-opacity="1" d="M 351.457031 142.757812 L 356.390625 142.757812 L 356.390625 136.476562 L 351.457031 136.476562 Z M 351.457031 142.757812 "/>
<g fill="rgb(0%, 0%, 0%)" fill-opacity="1">
<use xlink:href="#glyph-0-1" x="351.459" y="142.634"/>
</g>
<path fill-rule="nonzero" fill="rgb(100%, 100%, 100%)" fill-opacity="1" d="M 351.457031 135.285156 L 356.390625 135.285156 L 356.390625 129.003906 L 351.457031 129.003906 Z M 351.457031 135.285156 "/>
<g fill="rgb(0%, 0%, 0%)" fill-opacity="1">
<use xlink:href="#glyph-0-4" x="351.459" y="135.162"/>
</g>
<path fill-rule="nonzero" fill="rgb(100%, 100%, 100%)" fill-opacity="1" d="M 351.457031 127.8125 L 356.390625 127.8125 L 356.390625 121.53125 L 351.457031 121.53125 Z M 351.457031 127.8125 "/>
<g fill="rgb(0%, 0%, 0%)" fill-opacity="1">
<use xlink:href="#glyph-0-1" x="351.459" y="127.69"/>
</g>
<path fill="none" stroke-width="4.98132" stroke-linecap="butt" stroke-linejoin="round" stroke="rgb(0%, 0%, 0%)" stroke-opacity="1" stroke-miterlimit="10" d="M 282.96875 6859.101562 L 285.976562 6859.101562 L 285.976562 7611.054688 L 282.96875 7611.054688 Z M 282.96875 6859.101562 " transform="matrix(0.1, 0, 0, -0.1, -18, 833)"/>
<path fill-rule="nonzero" fill="rgb(0%, 0%, 0%)" fill-opacity="1" d="M 10.296875 147.089844 L 10.597656 147.089844 L 10.597656 71.894531 L 10.296875 71.894531 Z M 10.296875 147.089844 "/>
</svg>
