<?xml version="1.0" encoding="UTF-8"?>
<svg xmlns="http://www.w3.org/2000/svg" xmlns:xlink="http://www.w3.org/1999/xlink" width="366pt" height="160pt" viewBox="0 0 366 160">
<defs>
<g>
<g id="glyph-0-0">
<path d="M 5.296875 12.65625 L 5.3125 11.796875 L 5.234375 11.796875 C 4.265625 11.796875 3.421875 11.28125 2.90625 10.5 C 3.109375 10.578125 3.3125 10.625 3.53125 10.625 C 4.5625 10.625 5.421875 9.765625 5.421875 8.71875 C 5.421875 7.609375 4.609375 6.671875 3.53125 6.671875 C 2.34375 6.671875 1.296875 7.5625 1.296875 8.71875 C 1.296875 10.890625 3.03125 12.65625 5.171875 12.65625 Z M 7.984375 -3.015625 C 10.21875 -2.765625 11.421875 -0.96875 11.421875 0.796875 C 11.421875 2.171875 10.703125 3.5 9.1875 4.046875 C 8.9375 1.8125 8.359375 -1.234375 7.984375 -3.015625 Z M 1.46875 -0.5625 C 1.46875 -3.75 3.578125 -6.171875 5.71875 -8.59375 C 6.0625 -7.4375 6.359375 -6.25 6.640625 -5.09375 C 4.609375 -4.640625 3.453125 -2.921875 3.453125 -1.171875 C 3.453125 1.3125 5.65625 2.546875 5.953125 2.546875 C 6.203125 2.546875 6.390625 2.328125 6.390625 2.109375 C 6.390625 2.015625 6.359375 1.90625 6.25 1.8125 C 5.140625 1.171875 4.640625 0.234375 4.640625 -0.640625 C 4.640625 -1.796875 5.53125 -2.84375 7.109375 -3.015625 C 7.796875 0.203125 8.234375 2.96875 8.359375 4.25 C 7.890625 4.328125 7.4375 4.359375 7.015625 4.359375 C 3.421875 4.359375 1.46875 1.671875 1.46875 -0.5625 Z M 7.109375 -23.78125 C 6.8125 -23.78125 3.9375 -21.671875 3.9375 -17.90625 C 3.9375 -14.40625 4.40625 -12.921875 4.984375 -11.015625 C 2.65625 -8.328125 0.046875 -5.75 0.046875 -2.234375 C 0.046875 0.890625 2.09375 5.21875 6.859375 5.21875 C 7.34375 5.21875 7.890625 5.15625 8.453125 5.0625 C 8.5 5.671875 8.53125 6.28125 8.53125 6.890625 C 8.53125 7.25 8.5 7.625 8.484375 7.984375 C 8.359375 9.953125 7.171875 11.75 5.3125 11.796875 L 5.296875 12.65625 C 7.5625 12.59375 9.1875 10.484375 9.328125 8.109375 C 9.34375 7.734375 9.359375 7.328125 9.359375 6.953125 C 9.359375 6.25 9.328125 5.5625 9.265625 4.859375 C 11.375 4.203125 12.84375 2.234375 12.84375 -0.015625 C 12.84375 -2.671875 10.859375 -5.234375 7.765625 -5.234375 C 7.6875 -5.234375 7.59375 -5.21875 7.484375 -5.21875 C 7.15625 -6.59375 6.796875 -7.984375 6.375 -9.34375 C 8.25 -11.515625 9.953125 -13.75 9.953125 -16.59375 C 9.953125 -19.6875 7.671875 -23.78125 7.109375 -23.78125 Z M 4.921875 -15.578125 C 4.921875 -18.890625 7.15625 -20.34375 8.125 -20.8125 C 8.421875 -19.921875 8.546875 -19.078125 8.546875 -18.28125 C 8.546875 -15.8125 7.25 -13.78125 5.625 -11.796875 C 5.15625 -13.28125 4.921875 -14.484375 4.921875 -15.578125 Z M 4.921875 -15.578125 "/>
</g>
<g id="glyph-0-1">
<path d="M 5.3125 8.46875 C 5.3125 7.984375 4.796875 8.125 4.796875 7.484375 C 4.796875 7.015625 5.21875 6.390625 6.203125 6.078125 C 6.015625 7.15625 5.84375 8.625 5.84375 9.328125 L 5.84375 9.484375 C 5.84375 11.390625 5.359375 13.375 4.0625 13.375 C 3.3125 13.375 2.953125 12.625 2.625 12.625 C 2.390625 12.625 2.15625 12.921875 2.15625 13.140625 C 2.15625 13.28125 3.234375 14.21875 3.8125 14.34375 C 3.921875 14.359375 4.03125 14.390625 4.140625 14.390625 C 5.640625 14.390625 6.90625 12.390625 7.3125 10.359375 C 7.484375 9.421875 7.890625 7.21875 8.109375 5.96875 C 9.265625 6.203125 9.703125 6.828125 9.703125 7.46875 C 9.703125 8.25 9.046875 9.03125 8.328125 9.03125 C 8.0625 9.03125 7.96875 9.28125 7.96875 9.5 C 7.96875 9.65625 8.015625 9.828125 8.125 9.828125 L 8.140625 9.828125 C 9.15625 9.828125 10.140625 10.15625 10.140625 11.078125 C 10.140625 12.109375 9.125 12.921875 8.25 12.921875 C 7.515625 12.921875 7.4375 12.4375 7.171875 12.4375 C 6.9375 12.4375 6.609375 12.6875 6.609375 12.921875 C 6.609375 13.109375 7.375 14.125 8.828125 14.125 C 10.59375 14.125 12.390625 12.671875 12.390625 10.984375 C 12.390625 9.875 11.515625 9.390625 10.359375 9.15625 C 11.0625 8.71875 11.78125 7.828125 11.78125 6.96875 C 11.78125 5.078125 8.53125 4.921875 7.453125 4.921875 C 5.140625 4.921875 2.78125 5.875 2.78125 7.515625 C 2.78125 8.453125 3.640625 9 4.46875 9 C 5.296875 9 5.3125 8.640625 5.3125 8.46875 Z M 10.875 -5.125 C 10.875 -5.4375 10.3125 -5.734375 9.734375 -5.734375 C 9.265625 -5.734375 8.78125 -5.53125 8.609375 -5 C 7.375 -1.25 3.9375 2.765625 2.53125 2.765625 C 2.015625 2.765625 1.65625 2.375 1.390625 2.375 C 1.109375 2.375 0.890625 2.703125 0.890625 2.921875 C 0.890625 3.015625 0.9375 3.09375 1 3.109375 C 1.5 3.328125 1.875 3.71875 2.484375 3.75 L 2.546875 3.75 C 3.546875 3.75 4.6875 2.890625 6 1.65625 C 6.328125 2.171875 6.875 2.3125 7.34375 2.3125 C 8.484375 2.3125 8.5 1.875 8.5 1.734375 C 8.5 1.578125 8.453125 1.4375 8.34375 1.4375 C 8.328125 1.4375 8.25 1.453125 8.109375 1.453125 C 7.53125 1.453125 7.078125 1.21875 6.828125 0.796875 C 7.453125 0.140625 8.03125 -0.515625 8.5625 -1.21875 C 8.671875 0.09375 8.859375 1.375 9.1875 2.59375 C 9.34375 3.171875 9.609375 3.75 10.234375 3.75 C 10.84375 3.75 11.375 3.25 11.96875 3.0625 C 12.15625 3.015625 12.21875 2.84375 12.21875 2.6875 C 12.21875 2.515625 12.125 2.34375 12.03125 2.34375 C 11.875 2.34375 11.296875 2.75 10.9375 2.75 C 10.515625 2.75 10.515625 2.34375 10.515625 2.15625 C 10.515625 2.078125 10.875 -4.953125 10.875 -5.125 Z M 5.734375 -10.75 C 5.734375 -11.296875 5.09375 -11.140625 5.09375 -11.90625 C 5.09375 -12.578125 5.75 -13.375 7.34375 -13.375 C 7.53125 -13.375 7.75 -13.328125 7.984375 -13.265625 C 7.8125 -12.109375 7.59375 -10.015625 7.546875 -9.125 C 7.484375 -7.671875 6.96875 -6.140625 5.859375 -6.140625 C 5.078125 -6.140625 4.5625 -7.09375 4.21875 -7.09375 C 4 -7.09375 3.765625 -6.796875 3.765625 -6.578125 C 3.765625 -6.5 3.78125 -6.4375 3.84375 -6.390625 C 4.421875 -6.015625 5.046875 -5.3125 5.75 -5.15625 C 5.890625 -5.140625 6.015625 -5.125 6.140625 -5.125 C 7.625 -5.125 8.9375 -6.890625 9.390625 -8.8125 C 9.5625 -9.640625 9.90625 -11.46875 10.078125 -12.65625 C 10.375 -12.578125 10.703125 -12.53125 10.984375 -12.53125 C 12.828125 -12.53125 13.9375 -13.984375 13.9375 -14.03125 C 13.9375 -14.1875 13.703125 -14.40625 13.484375 -14.40625 C 13.265625 -14.40625 12.484375 -13.53125 11.109375 -13.53125 C 10.09375 -13.53125 8.625 -14.34375 7.703125 -14.34375 C 4.265625 -14.34375 3.0625 -13.125 3.0625 -12.015625 C 3.0625 -11.09375 3.890625 -10.28125 4.90625 -10.28125 C 5.734375 -10.28125 5.734375 -10.59375 5.734375 -10.75 Z M 5.734375 -10.75 "/>
</g>
<g id="glyph-0-2">
<path d="M 0 -2.375 L 0 -1.171875 C 0 -0.953125 0.171875 -0.78125 0.390625 -0.78125 C 0.4375 -0.78125 0.5 -0.78125 0.53125 -0.796875 L 1.171875 -1.015625 L 1.171875 2.171875 L 0.265625 2.484375 C 0.09375 2.546875 0 2.703125 0 2.875 L 0 4.0625 C 0 4.28125 0.171875 4.46875 0.390625 4.46875 C 0.4375 4.46875 0.5 4.46875 0.53125 4.4375 L 1.171875 4.203125 L 1.171875 7.09375 C 1.171875 7.296875 1.328125 7.46875 1.53125 7.46875 C 1.734375 7.46875 1.90625 7.296875 1.90625 7.09375 L 1.90625 3.9375 L 3.5625 3.328125 L 3.5625 6.21875 C 3.5625 6.421875 3.75 6.59375 3.9375 6.59375 C 4.140625 6.59375 4.296875 6.421875 4.296875 6.21875 L 4.296875 3.0625 L 5.21875 2.734375 C 5.375 2.671875 5.484375 2.53125 5.484375 2.375 L 5.484375 1.171875 C 5.484375 0.953125 5.296875 0.78125 5.078125 0.78125 C 5.046875 0.78125 4.984375 0.78125 4.9375 0.796875 L 4.296875 1.015625 L 4.296875 -2.171875 L 5.21875 -2.484375 C 5.375 -2.546875 5.484375 -2.703125 5.484375 -2.875 L 5.484375 -4.0625 C 5.484375 -4.28125 5.296875 -4.46875 5.078125 -4.46875 C 5.046875 -4.46875 4.984375 -4.46875 4.9375 -4.4375 L 4.296875 -4.203125 L 4.296875 -7.09375 C 4.296875 -7.296875 4.140625 -7.46875 3.9375 -7.46875 C 3.75 -7.46875 3.5625 -7.296875 3.5625 -7.09375 L 3.5625 -3.9375 L 1.90625 -3.328125 L 1.90625 -6.21875 C 1.90625 -6.421875 1.734375 -6.59375 1.53125 -6.59375 C 1.328125 -6.59375 1.171875 -6.421875 1.171875 -6.21875 L 1.171875 -3.0625 L 0.265625 -2.734375 C 0.09375 -2.671875 0 -2.53125 0 -2.375 Z M 3.5625 -1.890625 L 3.5625 1.296875 L 1.90625 1.890625 L 1.90625 -1.296875 Z M 3.5625 -1.890625 "/>
</g>
<g id="glyph-0-3">
<path d="M 6.90625 0.515625 C 6.90625 2.078125 5.9375 2.234375 5.5 2.234375 C 4.375 2.234375 2.875 1.328125 2.875 -0.484375 C 2.875 -2.046875 3.8125 -2.25 4.265625 -2.25 C 5.140625 -2.25 6.90625 -1.515625 6.90625 0.515625 Z M 4.875 -2.703125 C 2.015625 -2.703125 0 -1.421875 0 0 C 0 1.421875 2.015625 2.703125 4.875 2.703125 C 7.75 2.703125 9.78125 1.421875 9.78125 0 C 9.78125 -1.421875 7.75 -2.703125 4.875 -2.703125 Z M 4.875 -2.703125 "/>
</g>
<g id="glyph-1-0">
<path d="M 2.59375 -2.5625 C 2.921875 -2.703125 3.0625 -2.796875 3.1875 -2.890625 C 3.484375 -3.109375 3.640625 -3.4375 3.640625 -3.78125 C 3.640625 -4.40625 3.109375 -4.859375 2.375 -4.859375 C 1.484375 -4.859375 0.78125 -4.21875 0.78125 -3.390625 C 0.78125 -2.96875 0.9375 -2.6875 1.3125 -2.421875 C 0.484375 -2.109375 0.0625 -1.609375 0.0625 -0.984375 C 0.0625 -0.3125 0.609375 0.109375 1.484375 0.109375 C 2.5625 0.109375 3.3125 -0.546875 3.3125 -1.4375 C 3.3125 -1.703125 3.234375 -1.953125 3.078125 -2.140625 C 2.984375 -2.28125 2.859375 -2.390625 2.59375 -2.5625 Z M 2.296875 -2.71875 C 1.59375 -3.046875 1.34375 -3.328125 1.34375 -3.71875 C 1.34375 -4.1875 1.765625 -4.5625 2.3125 -4.5625 C 2.796875 -4.5625 3.125 -4.265625 3.125 -3.828125 C 3.125 -3.546875 2.984375 -3.234375 2.765625 -3.015625 C 2.625 -2.875 2.53125 -2.8125 2.296875 -2.71875 Z M 1.5625 -2.234375 C 1.90625 -2.078125 2.015625 -2.03125 2.1875 -1.921875 C 2.53125 -1.71875 2.71875 -1.4375 2.71875 -1.125 C 2.71875 -0.59375 2.21875 -0.203125 1.5625 -0.203125 C 0.984375 -0.203125 0.609375 -0.53125 0.609375 -1.0625 C 0.609375 -1.578125 0.953125 -1.984375 1.5625 -2.234375 Z M 1.5625 -2.234375 "/>
</g>
<g id="glyph-2-0">
<path d="M 0.71875 -3.3125 C 0.515625 -3.09375 0.5 -3.0625 0.5 -2.921875 C 0.5 -2.734375 0.640625 -2.59375 0.8125 -2.59375 C 1.015625 -2.59375 1.171875 -2.75 1.171875 -2.9375 C 1.171875 -2.96875 1.171875 -3.03125 1.15625 -3.078125 C 1.421875 -3.296875 1.765625 -3.40625 2.125 -3.40625 C 2.78125 -3.40625 3.109375 -2.9375 3.109375 -2 C 3.109375 -0.9375 2.734375 -0.375 2.03125 -0.375 C 1.640625 -0.375 1.265625 -0.5625 1.265625 -0.734375 C 1.265625 -0.796875 1.296875 -0.8125 1.375 -0.859375 C 1.71875 -1.03125 1.84375 -1.1875 1.84375 -1.484375 C 1.84375 -1.921875 1.546875 -2.203125 1.109375 -2.203125 C 0.59375 -2.203125 0.265625 -1.859375 0.265625 -1.3125 C 0.265625 -0.4375 1.046875 0.125 2.25 0.125 C 3.6875 0.125 4.65625 -0.75 4.65625 -2.03125 C 4.65625 -3.171875 3.75 -4 2.484375 -4 C 2.078125 -4 1.8125 -3.9375 1.234375 -3.671875 L 1.359375 -4.796875 C 1.78125 -4.703125 2.125 -4.671875 2.46875 -4.671875 C 3.1875 -4.671875 3.78125 -4.90625 4.109375 -5.328125 C 4.265625 -5.546875 4.40625 -5.875 4.40625 -6.0625 C 4.40625 -6.125 4.375 -6.15625 4.328125 -6.15625 C 4.296875 -6.15625 4.25 -6.15625 4.1875 -6.140625 C 3.875 -6.0625 3.3125 -6.015625 2.625 -6.015625 C 1.890625 -6.015625 1.453125 -6.046875 0.921875 -6.15625 C 0.875 -5.4375 0.875 -5.359375 0.78125 -3.9375 Z M 0.71875 -3.3125 "/>
</g>
<g id="glyph-2-1">
<path d="M 4.75 -6.15625 C 4.171875 -6.0625 3.6875 -6.046875 2.78125 -6.046875 C 1.953125 -6.046875 1.625 -6.0625 0.6875 -6.15625 L 0.390625 -3.5625 L 0.875 -3.5 L 0.953125 -3.90625 C 1.125 -4.671875 1.1875 -4.78125 1.5 -4.78125 C 1.53125 -4.78125 1.578125 -4.78125 1.640625 -4.765625 C 1.890625 -4.765625 2.421875 -4.75 2.640625 -4.75 C 2.71875 -4.75 3.015625 -4.75 3.453125 -4.765625 L 3.78125 -4.765625 L 3.1875 -3.890625 L 2.765625 -3.21875 C 2.078125 -2.15625 2.078125 -2.15625 1.875 -1.671875 C 1.703125 -1.28125 1.625 -1 1.625 -0.734375 C 1.625 -0.203125 1.9375 0.125 2.421875 0.125 C 2.96875 0.125 3.296875 -0.21875 3.296875 -0.828125 C 3.28125 -2.453125 3.453125 -3.03125 4.75 -5.796875 Z M 4.75 -6.15625 "/>
</g>
<g id="glyph-2-2">
<path d="M 1.765625 -3.140625 C 1.765625 -3.5625 1.84375 -4.25 1.9375 -4.609375 C 2.125 -5.328125 2.46875 -5.703125 2.90625 -5.703125 C 3.125 -5.703125 3.28125 -5.625 3.28125 -5.515625 C 3.28125 -5.453125 3.265625 -5.421875 3.21875 -5.34375 C 3.09375 -5.203125 3.03125 -5 3.03125 -4.828125 C 3.03125 -4.4375 3.34375 -4.15625 3.796875 -4.15625 C 4.296875 -4.15625 4.609375 -4.46875 4.609375 -4.9375 C 4.609375 -5.6875 3.984375 -6.15625 2.984375 -6.15625 C 2.15625 -6.15625 1.5 -5.84375 1 -5.171875 C 0.484375 -4.5 0.25 -3.703125 0.25 -2.65625 C 0.25 -1.796875 0.4375 -1.171875 0.84375 -0.671875 C 1.265625 -0.140625 1.859375 0.125 2.5625 0.125 C 3.84375 0.125 4.78125 -0.734375 4.78125 -1.9375 C 4.78125 -2.984375 4.0625 -3.71875 3.03125 -3.71875 C 2.46875 -3.71875 2.125 -3.5625 1.765625 -3.140625 Z M 2.578125 -3.0625 C 3.03125 -3.046875 3.265625 -2.625 3.265625 -1.84375 C 3.265625 -0.828125 3.015625 -0.28125 2.546875 -0.28125 C 2.078125 -0.28125 1.8125 -0.796875 1.8125 -1.6875 C 1.8125 -2 1.84375 -2.265625 1.875 -2.46875 C 1.96875 -2.84375 2.25 -3.078125 2.578125 -3.0625 Z M 2.578125 -3.0625 "/>
</g>
<g id="glyph-2-3">
<path d="M 3.234375 -6.15625 L 2.921875 -6.15625 C 2.375 -5.75 1.765625 -5.578125 0.71875 -5.5625 L 0.71875 -5.078125 L 1.09375 -5.078125 C 1.859375 -5.078125 1.875 -5.0625 1.859375 -4.34375 L 1.859375 -1.25 C 1.859375 -0.71875 1.859375 -0.6875 1.796875 -0.59375 C 1.71875 -0.5 1.546875 -0.46875 1.078125 -0.46875 L 0.796875 -0.46875 L 0.796875 0 L 4.265625 0 L 4.265625 -0.46875 L 4 -0.46875 C 3.53125 -0.46875 3.375 -0.5 3.296875 -0.59375 C 3.234375 -0.6875 3.234375 -0.71875 3.234375 -1.25 Z M 3.234375 -6.15625 "/>
</g>
<g id="glyph-2-4">
<path d="M 2.5 -6.15625 C 1.1875 -6.15625 0.234375 -4.828125 0.234375 -3.015625 C 0.234375 -1.203125 1.1875 0.125 2.5 0.125 C 3.78125 0.125 4.75 -1.203125 4.75 -2.96875 C 4.75 -4 4.515625 -4.765625 4 -5.40625 C 3.59375 -5.90625 3.078125 -6.15625 2.5 -6.15625 Z M 2.484375 -5.703125 C 2.75 -5.703125 2.953125 -5.546875 3.0625 -5.28125 C 3.171875 -4.984375 3.234375 -4.078125 3.234375 -3 C 3.234375 -2.09375 3.171875 -1.15625 3.09375 -0.859375 C 3 -0.515625 2.78125 -0.328125 2.484375 -0.328125 C 2.21875 -0.328125 2.015625 -0.484375 1.921875 -0.765625 C 1.796875 -1.046875 1.734375 -1.96875 1.734375 -3.015625 C 1.734375 -3.9375 1.796875 -4.875 1.875 -5.171875 C 1.96875 -5.53125 2.1875 -5.703125 2.484375 -5.703125 Z M 2.484375 -5.703125 "/>
</g>
<g id="glyph-2-5">
<path d="M 3.21875 -2.859375 C 3.21875 -2.109375 3.15625 -1.65625 3.03125 -1.25 C 2.828125 -0.625 2.515625 -0.328125 2.015625 -0.328125 C 1.828125 -0.328125 1.71875 -0.390625 1.71875 -0.5 C 1.71875 -0.5625 1.734375 -0.609375 1.78125 -0.65625 C 1.9375 -0.90625 1.953125 -0.96875 1.953125 -1.15625 C 1.953125 -1.578125 1.65625 -1.859375 1.21875 -1.859375 C 0.734375 -1.859375 0.390625 -1.5 0.390625 -0.984375 C 0.390625 -0.3125 1.03125 0.125 2.015625 0.125 C 2.90625 0.125 3.625 -0.25 4.09375 -0.9375 C 4.515625 -1.578125 4.75 -2.40625 4.75 -3.359375 C 4.75 -4.15625 4.5625 -4.75 4.203125 -5.25 C 3.765625 -5.84375 3.125 -6.15625 2.390625 -6.15625 C 1.125 -6.15625 0.21875 -5.28125 0.21875 -4.078125 C 0.21875 -3.046875 0.953125 -2.28125 1.9375 -2.28125 C 2.484375 -2.28125 2.84375 -2.453125 3.21875 -2.859375 Z M 2.46875 -5.703125 C 2.6875 -5.703125 2.875 -5.5625 2.984375 -5.3125 C 3.09375 -5.0625 3.171875 -4.609375 3.171875 -4.1875 C 3.171875 -3.421875 2.890625 -2.9375 2.453125 -2.9375 C 2.203125 -2.9375 1.96875 -3.09375 1.875 -3.3125 C 1.765625 -3.53125 1.71875 -3.84375 1.71875 -4.265625 C 1.71875 -5.21875 1.96875 -5.703125 2.46875 -5.703125 Z M 2.46875 -5.703125 "/>
</g>
<g id="glyph-2-6">
<path d="M 3.875 -2.15625 L 3.875 -4.84375 C 3.875 -4.96875 3.90625 -5.53125 3.9375 -6.15625 L 3.328125 -6.15625 L 0.171875 -2.21875 L 0.171875 -1.578125 L 2.515625 -1.578125 L 2.515625 -1.25 C 2.515625 -0.71875 2.515625 -0.671875 2.453125 -0.59375 C 2.390625 -0.5 2.203125 -0.46875 1.796875 -0.46875 L 1.703125 -0.46875 L 1.703125 0 L 4.671875 0 L 4.671875 -0.46875 L 4.5625 -0.46875 C 4.1875 -0.484375 4 -0.515625 3.9375 -0.59375 C 3.875 -0.6875 3.875 -0.71875 3.875 -1.25 L 3.875 -1.578125 L 4.75 -1.578125 L 4.75 -2.15625 Z M 2.515625 -2.15625 L 0.796875 -2.15625 L 2.515625 -4.328125 Z M 2.515625 -2.15625 "/>
</g>
<g id="glyph-3-0">
<path d="M 6.171875 -2.859375 L 7.15625 0 L 8.515625 0 L 5.171875 -9.5 L 3.609375 -9.5 L 0.21875 0 L 1.515625 0 L 2.515625 -2.859375 Z M 5.84375 -3.875 L 2.8125 -3.875 L 4.375 -8.203125 Z M 5.84375 -3.875 "/>
</g>
<g id="glyph-3-1">
<path d="M 1.15625 0 L 4.828125 0 C 7.21875 0 8.6875 -1.796875 8.6875 -4.75 C 8.6875 -7.703125 7.234375 -9.5 4.828125 -9.5 L 1.15625 -9.5 Z M 2.375 -1.0625 L 2.375 -8.4375 L 4.609375 -8.4375 C 6.484375 -8.4375 7.484375 -7.171875 7.484375 -4.75 C 7.484375 -2.328125 6.484375 -1.0625 4.609375 -1.0625 Z M 2.375 -1.0625 "/>
</g>
<g id="glyph-4-0">
<path d="M 4.796875 -6.53125 L 0.421875 -6.53125 L 0.421875 -5.734375 L 3.953125 -5.734375 C 2.390625 -3.515625 1.765625 -2.140625 1.265625 0 L 2.140625 0 C 2.5 -2.09375 3.3125 -3.890625 4.796875 -5.859375 Z M 4.796875 -6.53125 "/>
</g>
<g id="glyph-5-0">
<path d="M 2.578125 -2.453125 L 4.1875 -4.796875 L 3.453125 -4.796875 L 2.21875 -2.921875 L 1 -4.796875 L 0.25 -4.796875 L 1.84375 -2.453125 L 0.140625 0 L 0.890625 0 L 2.203125 -2 L 3.515625 0 L 4.265625 0 Z M 2.578125 -2.453125 "/>
</g>
<g id="glyph-6-0">
<path d="M 3.90625 -5.828125 L 0.90625 -5.828125 L 0.46875 -2.65625 L 1.140625 -2.65625 C 1.46875 -3.0625 1.75 -3.203125 2.203125 -3.203125 C 2.984375 -3.203125 3.46875 -2.65625 3.46875 -1.796875 C 3.46875 -0.96875 2.984375 -0.453125 2.203125 -0.453125 C 1.5625 -0.453125 1.1875 -0.765625 1.015625 -1.4375 L 0.28125 -1.4375 C 0.390625 -0.953125 0.46875 -0.71875 0.640625 -0.515625 C 0.96875 -0.0625 1.5625 0.1875 2.21875 0.1875 C 3.390625 0.1875 4.21875 -0.671875 4.21875 -1.90625 C 4.21875 -3.046875 3.453125 -3.84375 2.328125 -3.84375 C 1.921875 -3.84375 1.59375 -3.734375 1.25 -3.484375 L 1.484375 -5.109375 L 3.90625 -5.109375 Z M 3.90625 -5.828125 "/>
</g>
<g id="glyph-6-1">
<path d="M 2.125 -4.3125 L 1.40625 -4.3125 L 1.40625 -4.984375 C 1.40625 -5.265625 1.5625 -5.421875 1.875 -5.421875 C 1.9375 -5.421875 1.96875 -5.421875 2.125 -5.40625 L 2.125 -5.96875 C 1.96875 -6.015625 1.875 -6.015625 1.734375 -6.015625 C 1.09375 -6.015625 0.71875 -5.65625 0.71875 -5.03125 L 0.71875 -4.3125 L 0.140625 -4.3125 L 0.140625 -3.75 L 0.71875 -3.75 L 0.71875 0 L 1.40625 0 L 1.40625 -3.75 L 2.125 -3.75 Z M 2.125 -4.3125 "/>
</g>
<g id="glyph-6-2">
<path d="M 0.5625 -4.3125 L 0.5625 0 L 1.25 0 L 1.25 -2.234375 C 1.265625 -3.265625 1.6875 -3.734375 2.640625 -3.703125 L 2.640625 -4.40625 C 2.515625 -4.421875 2.453125 -4.4375 2.375 -4.4375 C 1.9375 -4.4375 1.59375 -4.171875 1.203125 -3.53125 L 1.203125 -4.3125 Z M 0.5625 -4.3125 "/>
</g>
<g id="glyph-6-3">
<path d="M 1.8125 -2.734375 L 2.203125 -2.734375 C 3 -2.734375 3.421875 -2.359375 3.421875 -1.65625 C 3.421875 -0.90625 2.96875 -0.453125 2.21875 -0.453125 C 1.421875 -0.453125 1.03125 -0.859375 0.984375 -1.71875 L 0.265625 -1.71875 C 0.296875 -1.25 0.375 -0.9375 0.515625 -0.671875 C 0.828125 -0.09375 1.390625 0.1875 2.1875 0.1875 C 3.390625 0.1875 4.15625 -0.53125 4.15625 -1.65625 C 4.15625 -2.421875 3.875 -2.828125 3.171875 -3.078125 C 3.71875 -3.296875 3.984375 -3.703125 3.984375 -4.3125 C 3.984375 -5.328125 3.328125 -5.9375 2.203125 -5.9375 C 1.03125 -5.9375 0.40625 -5.28125 0.390625 -4.03125 L 1.109375 -4.03125 C 1.125 -4.390625 1.15625 -4.59375 1.234375 -4.78125 C 1.40625 -5.109375 1.765625 -5.3125 2.21875 -5.3125 C 2.859375 -5.3125 3.25 -4.921875 3.25 -4.28125 C 3.25 -3.859375 3.09375 -3.609375 2.78125 -3.46875 C 2.578125 -3.390625 2.3125 -3.359375 1.8125 -3.34375 Z M 1.8125 -2.734375 "/>
</g>
<g id="glyph-6-4">
<path d="M 2.6875 -1.4375 L 2.6875 0 L 3.40625 0 L 3.40625 -1.4375 L 4.28125 -1.4375 L 4.28125 -2.09375 L 3.40625 -2.09375 L 3.40625 -5.9375 L 2.875 -5.9375 L 0.234375 -2.203125 L 0.234375 -1.4375 Z M 2.6875 -2.09375 L 0.859375 -2.09375 L 2.6875 -4.703125 Z M 2.6875 -2.09375 "/>
</g>
</g>
</defs>
<path fill="none" stroke-width="9.46451" stroke-linecap="butt" stroke-linejoin="miter" stroke="rgb(0%, 0%, 0%)" stroke-opacity="1" stroke-miterlimit="10" d="M 1152.890625 7276.289062 L 1152.890625 7475.507812 " transform="matrix(0.1, 0, 0, -0.1, -32, 819)"/>
<path fill="none" stroke-width="9.96264" stroke-linecap="round" stroke-linejoin="miter" stroke="rgb(0%, 0%, 0%)" stroke-opacity="1" stroke-miterlimit="10" d="M 2874.648438 7226.445312 L 3011.289062 7226.445312 " transform="matrix(0.1, 0, 0, -0.1, -32, 819)"/>
<path fill="none" stroke-width="9.96264" stroke-linecap="round" stroke-linejoin="miter" stroke="rgb(0%, 0%, 0%)" stroke-opacity="1" stroke-miterlimit="10" d="M 2874.648438 7176.640625 L 3011.289062 7176.640625 " transform="matrix(0.1, 0, 0, -0.1, -32, 819)"/>
<path fill="none" stroke-width="9.96264" stroke-linecap="round" stroke-linejoin="miter" stroke="rgb(0%, 0%, 0%)" stroke-opacity="1" stroke-miterlimit="10" d="M 1240.3125 7226.445312 L 1376.953125 7226.445312 " transform="matrix(0.1, 0, 0, -0.1, -32, 819)"/>
<path fill="none" stroke-width="9.96264" stroke-linecap="round" stroke-linejoin="miter" stroke="rgb(0%, 0%, 0%)" stroke-opacity="1" stroke-miterlimit="10" d="M 1240.3125 7176.640625 L 1376.953125 7176.640625 " transform="matrix(0.1, 0, 0, -0.1, -32, 819)"/>
<path fill="none" stroke-width="9.96264" stroke-linecap="round" stroke-linejoin="miter" stroke="rgb(0%, 0%, 0%)" stroke-opacity="1" stroke-miterlimit="10" d="M 699.648438 7226.445312 L 836.289062 7226.445312 " transform="matrix(0.1, 0, 0, -0.1, -32, 819)"/>
<path fill="none" stroke-width="9.96264" stroke-linecap="round" stroke-linejoin="miter" stroke="rgb(0%, 0%, 0%)" stroke-opacity="1" stroke-miterlimit="10" d="M 699.648438 7176.640625 L 836.289062 7176.640625 " transform="matrix(0.1, 0, 0, -0.1, -32, 819)"/>
<path fill="none" stroke-width="4.98132" stroke-linecap="round" stroke-linejoin="miter" stroke="rgb(0%, 0%, 0%)" stroke-opacity="1" stroke-miterlimit="10" d="M 427.695312 7276.289062 L 3870.820312 7276.289062 " transform="matrix(0.1, 0, 0, -0.1, -32, 819)"/>
<path fill="none" stroke-width="4.98132" stroke-linecap="round" stroke-linejoin="miter" stroke="rgb(0%, 0%, 0%)" stroke-opacity="1" stroke-miterlimit="10" d="M 427.695312 7326.09375 L 3870.820312 7326.09375 " transform="matrix(0.1, 0, 0, -0.1, -32, 819)"/>
<path fill="none" stroke-width="4.98132" stroke-linecap="round" stroke-linejoin="miter" stroke="rgb(0%, 0%, 0%)" stroke-opacity="1" stroke-miterlimit="10" d="M 427.695312 7375.898438 L 3870.820312 7375.898438 " transform="matrix(0.1, 0, 0, -0.1, -32, 819)"/>
<path fill="none" stroke-width="4.98132" stroke-linecap="round" stroke-linejoin="miter" stroke="rgb(0%, 0%, 0%)" stroke-opacity="1" stroke-miterlimit="10" d="M 427.695312 7425.703125 L 3870.820312 7425.703125 " transform="matrix(0.1, 0, 0, -0.1, -32, 819)"/>
<path fill="none" stroke-width="4.98132" stroke-linecap="round" stroke-linejoin="miter" stroke="rgb(0%, 0%, 0%)" stroke-opacity="1" stroke-miterlimit="10" d="M 427.695312 7475.507812 L 3870.820312 7475.507812 " transform="matrix(0.1, 0, 0, -0.1, -32, 819)"/>
<path fill="none" stroke-width="9.46451" stroke-linecap="butt" stroke-linejoin="miter" stroke="rgb(0%, 0%, 0%)" stroke-opacity="1" stroke-miterlimit="10" d="M 3868.554688 6723.59375 L 3868.554688 7097.1875 " transform="matrix(0.1, 0, 0, -0.1, -32, 819)"/>
<path fill="none" stroke-width="4.98132" stroke-linecap="round" stroke-linejoin="miter" stroke="rgb(0%, 0%, 0%)" stroke-opacity="1" stroke-miterlimit="10" d="M 427.695312 6723.59375 L 3870.820312 6723.59375 " transform="matrix(0.1, 0, 0, -0.1, -32, 819)"/>
<path fill="none" stroke-width="4.98132" stroke-linecap="round" stroke-linejoin="miter" stroke="rgb(0%, 0%, 0%)" stroke-opacity="1" stroke-miterlimit="10" d="M 427.695312 6798.320312 L 3870.820312 6798.320312 " transform="matrix(0.1, 0, 0, -0.1, -32, 819)"/>
<path fill="none" stroke-width="4.98132" stroke-linecap="round" stroke-linejoin="miter" stroke="rgb(0%, 0%, 0%)" stroke-opacity="1" stroke-miterlimit="10" d="M 427.695312 6873.046875 L 3870.820312 6873.046875 " transform="matrix(0.1, 0, 0, -0.1, -32, 819)"/>
<path fill="none" stroke-width="4.98132" stroke-linecap="round" stroke-linejoin="miter" stroke="rgb(0%, 0%, 0%)" stroke-opacity="1" stroke-miterlimit="10" d="M 427.695312 6947.734375 L 3870.820312 6947.734375 " transform="matrix(0.1, 0, 0, -0.1, -32, 819)"/>
<path fill="none" stroke-width="4.98132" stroke-linecap="round" stroke-linejoin="miter" stroke="rgb(0%, 0%, 0%)" stroke-opacity="1" stroke-miterlimit="10" d="M 427.695312 7022.460938 L 3870.820312 7022.460938 " transform="matrix(0.1, 0, 0, -0.1, -32, 819)"/>
<path fill="none" stroke-width="4.98132" stroke-linecap="round" stroke-linejoin="miter" stroke="rgb(0%, 0%, 0%)" stroke-opacity="1" stroke-miterlimit="10" d="M 427.695312 7097.1875 L 3870.820312 7097.1875 " transform="matrix(0.1, 0, 0, -0.1, -32, 819)"/>
<path fill="none" stroke-width="9.46451" stroke-linecap="butt" stroke-linejoin="miter" stroke="rgb(0%, 0%, 0%)" stroke-opacity="1" stroke-miterlimit="10" d="M 3868.554688 7276.289062 L 3868.554688 7475.507812 " transform="matrix(0.1, 0, 0, -0.1, -32, 819)"/>
<path fill="none" stroke-width="9.46451" stroke-linecap="butt" stroke-linejoin="miter" stroke="rgb(0%, 0%, 0%)" stroke-opacity="1" stroke-miterlimit="10" d="M 3327.890625 6723.59375 L 3327.890625 7097.1875 " transform="matrix(0.1, 0, 0, -0.1, -32, 819)"/>
<path fill="none" stroke-width="9.46451" stroke-linecap="butt" stroke-linejoin="miter" stroke="rgb(0%, 0%, 0%)" stroke-opacity="1" stroke-miterlimit="10" d="M 3327.890625 7276.289062 L 3327.890625 7475.507812 " transform="matrix(0.1, 0, 0, -0.1, -32, 819)"/>
<path fill="none" stroke-width="9.46451" stroke-linecap="butt" stroke-linejoin="miter" stroke="rgb(0%, 0%, 0%)" stroke-opacity="1" stroke-miterlimit="10" d="M 2787.226562 6723.59375 L 2787.226562 7097.1875 " transform="matrix(0.1, 0, 0, -0.1, -32, 819)"/>
<path fill="none" stroke-width="9.46451" stroke-linecap="butt" stroke-linejoin="miter" stroke="rgb(0%, 0%, 0%)" stroke-opacity="1" stroke-miterlimit="10" d="M 2787.226562 7276.289062 L 2787.226562 7475.507812 " transform="matrix(0.1, 0, 0, -0.1, -32, 819)"/>
<path fill="none" stroke-width="9.46451" stroke-linecap="butt" stroke-linejoin="miter" stroke="rgb(0%, 0%, 0%)" stroke-opacity="1" stroke-miterlimit="10" d="M 2246.5625 6723.59375 L 2246.5625 7097.1875 " transform="matrix(0.1, 0, 0, -0.1, -32, 819)"/>
<path fill="none" stroke-width="9.46451" stroke-linecap="butt" stroke-linejoin="miter" stroke="rgb(0%, 0%, 0%)" stroke-opacity="1" stroke-miterlimit="10" d="M 2246.5625 7276.289062 L 2246.5625 7475.507812 " transform="matrix(0.1, 0, 0, -0.1, -32, 819)"/>
<path fill="none" stroke-width="9.46451" stroke-linecap="butt" stroke-linejoin="miter" stroke="rgb(0%, 0%, 0%)" stroke-opacity="1" stroke-miterlimit="10" d="M 1693.554688 6723.59375 L 1693.554688 7097.1875 " transform="matrix(0.1, 0, 0, -0.1, -32, 819)"/>
<path fill="none" stroke-width="9.46451" stroke-linecap="butt" stroke-linejoin="miter" stroke="rgb(0%, 0%, 0%)" stroke-opacity="1" stroke-miterlimit="10" d="M 1693.554688 7276.289062 L 1693.554688 7475.507812 " transform="matrix(0.1, 0, 0, -0.1, -32, 819)"/>
<path fill="none" stroke-width="9.46451" stroke-linecap="butt" stroke-linejoin="miter" stroke="rgb(0%, 0%, 0%)" stroke-opacity="1" stroke-miterlimit="10" d="M 1152.890625 6723.59375 L 1152.890625 7097.1875 " transform="matrix(0.1, 0, 0, -0.1, -32, 819)"/>
<g fill="rgb(0%, 0%, 0%)" fill-opacity="1">
<use xlink:href="#glyph-0-0" x="14.5047" y="86.392"/>
</g>
<g fill="rgb(0%, 0%, 0%)" fill-opacity="1">
<use xlink:href="#glyph-1-0" x="17.65978" y="103.865"/>
</g>
<path fill-rule="nonzero" fill="rgb(100%, 100%, 100%)" fill-opacity="1" d="M 40.402344 149.78125 L 45.335938 149.78125 L 45.335938 143.5 L 40.402344 143.5 Z M 40.402344 149.78125 "/>
<g fill="rgb(0%, 0%, 0%)" fill-opacity="1">
<use xlink:href="#glyph-2-0" x="40.4023" y="149.659"/>
</g>
<path fill-rule="nonzero" fill="rgb(100%, 100%, 100%)" fill-opacity="1" d="M 40.402344 142.308594 L 45.335938 142.308594 L 45.335938 136.03125 L 40.402344 136.03125 Z M 40.402344 142.308594 "/>
<g fill="rgb(0%, 0%, 0%)" fill-opacity="1">
<use xlink:href="#glyph-2-1" x="40.4023" y="142.187"/>
</g>
<path fill-rule="nonzero" fill="rgb(100%, 100%, 100%)" fill-opacity="1" d="M 40.402344 134.835938 L 45.335938 134.835938 L 45.335938 128.558594 L 40.402344 128.558594 Z M 40.402344 134.835938 "/>
<g fill="rgb(0%, 0%, 0%)" fill-opacity="1">
<use xlink:href="#glyph-2-0" x="40.4023" y="134.715"/>
</g>
<path fill-rule="nonzero" fill="rgb(100%, 100%, 100%)" fill-opacity="1" d="M 40.402344 127.363281 L 45.335938 127.363281 L 45.335938 121.085938 L 40.402344 121.085938 Z M 40.402344 127.363281 "/>
<g fill="rgb(0%, 0%, 0%)" fill-opacity="1">
<use xlink:href="#glyph-2-2" x="40.4023" y="127.243"/>
</g>
<g fill="rgb(0%, 0%, 0%)" fill-opacity="1">
<use xlink:href="#glyph-0-1" x="14.5046" y="127.960969"/>
</g>
<g fill="rgb(0%, 0%, 0%)" fill-opacity="1">
<use xlink:href="#glyph-0-2" x="32.6862" y="78.919969"/>
</g>
<g fill="rgb(0%, 0%, 0%)" fill-opacity="1">
<use xlink:href="#glyph-3-0" x="93.976" y="22.884769"/>
</g>
<g fill="rgb(0%, 0%, 0%)" fill-opacity="1">
<use xlink:href="#glyph-4-0" x="102.64983" y="16.960939"/>
</g>
<g fill="rgb(0%, 0%, 0%)" fill-opacity="1">
<use xlink:href="#glyph-0-3" x="93.976" y="101.335539"/>
</g>
<g fill="rgb(0%, 0%, 0%)" fill-opacity="1">
<use xlink:href="#glyph-0-3" x="93.976" y="86.391839"/>
</g>
<g fill="rgb(0%, 0%, 0%)" fill-opacity="1">
<use xlink:href="#glyph-0-3" x="93.976" y="78.919969"/>
</g>
<g fill="rgb(0%, 0%, 0%)" fill-opacity="1">
<use xlink:href="#glyph-0-3" x="93.976" y="73.938329"/>
</g>
<path fill="none" stroke-width="3.73599" stroke-linecap="round" stroke-linejoin="miter" stroke="rgb(0%, 0%, 0%)" stroke-opacity="1" stroke-miterlimit="10" d="M 1496.132812 7502.773438 L 1496.132812 7876.40625 " transform="matrix(0.1, 0, 0, -0.1, -32, 819)"/>
<path fill="none" stroke-width="3.73599" stroke-linecap="round" stroke-linejoin="miter" stroke="rgb(0%, 0%, 0%)" stroke-opacity="1" stroke-miterlimit="10" d="M 1421.40625 7502.773438 L 1421.40625 7876.40625 " transform="matrix(0.1, 0, 0, -0.1, -32, 819)"/>
<path fill="none" stroke-width="3.73599" stroke-linecap="round" stroke-linejoin="miter" stroke="rgb(0%, 0%, 0%)" stroke-opacity="1" stroke-miterlimit="10" d="M 1346.679688 7502.773438 L 1346.679688 7876.40625 " transform="matrix(0.1, 0, 0, -0.1, -32, 819)"/>
<path fill="none" stroke-width="3.73599" stroke-linecap="round" stroke-linejoin="miter" stroke="rgb(0%, 0%, 0%)" stroke-opacity="1" stroke-miterlimit="10" d="M 1271.953125 7502.773438 L 1271.953125 7876.40625 " transform="matrix(0.1, 0, 0, -0.1, -32, 819)"/>
<path fill="none" stroke-width="3.73599" stroke-linecap="round" stroke-linejoin="miter" stroke="rgb(0%, 0%, 0%)" stroke-opacity="1" stroke-miterlimit="10" d="M 1197.226562 7502.773438 L 1197.226562 7876.40625 " transform="matrix(0.1, 0, 0, -0.1, -32, 819)"/>
<path fill="none" stroke-width="3.73599" stroke-linecap="round" stroke-linejoin="miter" stroke="rgb(0%, 0%, 0%)" stroke-opacity="1" stroke-miterlimit="10" d="M 1122.539062 7502.773438 L 1122.539062 7876.40625 " transform="matrix(0.1, 0, 0, -0.1, -32, 819)"/>
<path fill="none" stroke-width="3.73599" stroke-linecap="round" stroke-linejoin="miter" stroke="rgb(0%, 0%, 0%)" stroke-opacity="1" stroke-miterlimit="10" d="M 1122.539062 7876.40625 L 1496.132812 7876.40625 " transform="matrix(0.1, 0, 0, -0.1, -32, 819)"/>
<path fill="none" stroke-width="3.73599" stroke-linecap="round" stroke-linejoin="miter" stroke="rgb(0%, 0%, 0%)" stroke-opacity="1" stroke-miterlimit="10" d="M 1122.539062 7801.679688 L 1496.132812 7801.679688 " transform="matrix(0.1, 0, 0, -0.1, -32, 819)"/>
<path fill="none" stroke-width="3.73599" stroke-linecap="round" stroke-linejoin="miter" stroke="rgb(0%, 0%, 0%)" stroke-opacity="1" stroke-miterlimit="10" d="M 1122.539062 7726.953125 L 1496.132812 7726.953125 " transform="matrix(0.1, 0, 0, -0.1, -32, 819)"/>
<path fill="none" stroke-width="3.73599" stroke-linecap="round" stroke-linejoin="miter" stroke="rgb(0%, 0%, 0%)" stroke-opacity="1" stroke-miterlimit="10" d="M 1122.539062 7652.226562 L 1496.132812 7652.226562 " transform="matrix(0.1, 0, 0, -0.1, -32, 819)"/>
<path fill="none" stroke-width="3.73599" stroke-linecap="round" stroke-linejoin="miter" stroke="rgb(0%, 0%, 0%)" stroke-opacity="1" stroke-miterlimit="10" d="M 1122.539062 7577.5 L 1496.132812 7577.5 " transform="matrix(0.1, 0, 0, -0.1, -32, 819)"/>
<path fill="none" stroke-width="3.73599" stroke-linecap="round" stroke-linejoin="miter" stroke="rgb(0%, 0%, 0%)" stroke-opacity="1" stroke-miterlimit="10" d="M 1440.078125 7831.5625 C 1440.078125 7841.875 1431.71875 7850.234375 1421.40625 7850.234375 C 1411.09375 7850.234375 1402.734375 7841.875 1402.734375 7831.5625 C 1402.734375 7821.25 1411.09375 7812.890625 1421.40625 7812.890625 C 1431.71875 7812.890625 1440.078125 7821.25 1440.078125 7831.5625 Z M 1440.078125 7831.5625 " transform="matrix(0.1, 0, 0, -0.1, -32, 819)"/>
<path fill-rule="nonzero" fill="rgb(0%, 0%, 0%)" fill-opacity="1" d="M 112.007812 35.84375 C 112.007812 34.8125 111.171875 33.976562 110.140625 33.976562 C 109.109375 33.976562 108.273438 34.8125 108.273438 35.84375 C 108.273438 36.875 109.109375 37.710938 110.140625 37.710938 C 111.171875 37.710938 112.007812 36.875 112.007812 35.84375 "/>
<path fill="none" stroke-width="3.73599" stroke-linecap="round" stroke-linejoin="miter" stroke="rgb(0%, 0%, 0%)" stroke-opacity="1" stroke-miterlimit="10" d="M 1365.351562 7756.835938 C 1365.351562 7767.148438 1356.992188 7775.507812 1346.679688 7775.507812 C 1336.367188 7775.507812 1328.007812 7767.148438 1328.007812 7756.835938 C 1328.007812 7746.523438 1336.367188 7738.164062 1346.679688 7738.164062 C 1356.992188 7738.164062 1365.351562 7746.523438 1365.351562 7756.835938 Z M 1365.351562 7756.835938 " transform="matrix(0.1, 0, 0, -0.1, -32, 819)"/>
<path fill-rule="nonzero" fill="rgb(0%, 0%, 0%)" fill-opacity="1" d="M 104.535156 43.316406 C 104.535156 42.285156 103.699219 41.449219 102.667969 41.449219 C 101.636719 41.449219 100.800781 42.285156 100.800781 43.316406 C 100.800781 44.347656 101.636719 45.183594 102.667969 45.183594 C 103.699219 45.183594 104.535156 44.347656 104.535156 43.316406 "/>
<path fill="none" stroke-width="3.73599" stroke-linecap="round" stroke-linejoin="miter" stroke="rgb(0%, 0%, 0%)" stroke-opacity="1" stroke-miterlimit="10" d="M 1290.625 7831.5625 C 1290.625 7841.875 1282.265625 7850.234375 1271.953125 7850.234375 C 1261.640625 7850.234375 1253.28125 7841.875 1253.28125 7831.5625 C 1253.28125 7821.25 1261.640625 7812.890625 1271.953125 7812.890625 C 1282.265625 7812.890625 1290.625 7821.25 1290.625 7831.5625 Z M 1290.625 7831.5625 " transform="matrix(0.1, 0, 0, -0.1, -32, 819)"/>
<path fill-rule="nonzero" fill="rgb(0%, 0%, 0%)" fill-opacity="1" d="M 97.0625 35.84375 C 97.0625 34.8125 96.226562 33.976562 95.195312 33.976562 C 94.164062 33.976562 93.328125 34.8125 93.328125 35.84375 C 93.328125 36.875 94.164062 37.710938 95.195312 37.710938 C 96.226562 37.710938 97.0625 36.875 97.0625 35.84375 "/>
<path fill="none" stroke-width="3.73599" stroke-linecap="round" stroke-linejoin="miter" stroke="rgb(0%, 0%, 0%)" stroke-opacity="1" stroke-miterlimit="10" d="M 1141.210938 7831.5625 C 1141.210938 7841.875 1132.851562 7850.234375 1122.539062 7850.234375 C 1112.226562 7850.234375 1103.828125 7841.875 1103.828125 7831.5625 C 1103.828125 7821.25 1112.226562 7812.890625 1122.539062 7812.890625 C 1132.851562 7812.890625 1141.210938 7821.25 1141.210938 7831.5625 Z M 1141.210938 7831.5625 " transform="matrix(0.1, 0, 0, -0.1, -32, 819)"/>
<path fill-rule="nonzero" fill="rgb(0%, 0%, 0%)" fill-opacity="1" d="M 82.121094 35.84375 C 82.121094 34.8125 81.285156 33.976562 80.253906 33.976562 C 79.222656 33.976562 78.382812 34.8125 78.382812 35.84375 C 78.382812 36.875 79.222656 37.710938 80.253906 37.710938 C 81.285156 37.710938 82.121094 36.875 82.121094 35.84375 "/>
<g fill="rgb(0%, 0%, 0%)" fill-opacity="1">
<use xlink:href="#glyph-5-0" x="85.556" y="29.68"/>
</g>
<g fill="rgb(0%, 0%, 0%)" fill-opacity="1">
<use xlink:href="#glyph-6-0" x="121.0982" y="38.01047"/>
</g>
<g fill="rgb(0%, 0%, 0%)" fill-opacity="1">
<use xlink:href="#glyph-6-1" x="125.690388" y="38.01047"/>
</g>
<g fill="rgb(0%, 0%, 0%)" fill-opacity="1">
<use xlink:href="#glyph-6-2" x="127.986483" y="38.01047"/>
</g>
<g fill="rgb(0%, 0%, 0%)" fill-opacity="1">
<use xlink:href="#glyph-0-3" x="39.9095" y="78.92067"/>
</g>
<path fill-rule="nonzero" fill="rgb(100%, 100%, 100%)" fill-opacity="1" d="M 94.46875 149.78125 L 99.402344 149.78125 L 99.402344 143.5 L 94.46875 143.5 Z M 94.46875 149.78125 "/>
<g fill="rgb(0%, 0%, 0%)" fill-opacity="1">
<use xlink:href="#glyph-2-0" x="94.469" y="149.659"/>
</g>
<path fill-rule="nonzero" fill="rgb(100%, 100%, 100%)" fill-opacity="1" d="M 94.46875 134.835938 L 99.402344 134.835938 L 99.402344 128.558594 L 94.46875 128.558594 Z M 94.46875 134.835938 "/>
<g fill="rgb(0%, 0%, 0%)" fill-opacity="1">
<use xlink:href="#glyph-2-0" x="94.469" y="134.715"/>
</g>
<path fill-rule="nonzero" fill="rgb(100%, 100%, 100%)" fill-opacity="1" d="M 94.46875 127.363281 L 99.402344 127.363281 L 99.402344 121.085938 L 94.46875 121.085938 Z M 94.46875 127.363281 "/>
<g fill="rgb(0%, 0%, 0%)" fill-opacity="1">
<use xlink:href="#glyph-2-2" x="94.469" y="127.243"/>
</g>
<path fill-rule="nonzero" fill="rgb(100%, 100%, 100%)" fill-opacity="1" d="M 94.46875 119.894531 L 99.402344 119.894531 L 99.402344 113.613281 L 94.46875 113.613281 Z M 94.46875 119.894531 "/>
<g fill="rgb(0%, 0%, 0%)" fill-opacity="1">
<use xlink:href="#glyph-2-0" x="94.469" y="119.771"/>
</g>
<g fill="rgb(0%, 0%, 0%)" fill-opacity="1">
<use xlink:href="#glyph-0-3" x="39.9092" y="86.3917"/>
</g>
<g fill="rgb(0%, 0%, 0%)" fill-opacity="1">
<use xlink:href="#glyph-0-2" x="86.753" y="78.91983"/>
</g>
<g fill="rgb(0%, 0%, 0%)" fill-opacity="1">
<use xlink:href="#glyph-3-1" x="148.0421" y="22.88463"/>
</g>
<g fill="rgb(0%, 0%, 0%)" fill-opacity="1">
<use xlink:href="#glyph-4-0" x="157.39679" y="16.9608"/>
</g>
<g fill="rgb(0%, 0%, 0%)" fill-opacity="1">
<use xlink:href="#glyph-0-3" x="148.0421" y="93.8635"/>
</g>
<g fill="rgb(0%, 0%, 0%)" fill-opacity="1">
<use xlink:href="#glyph-0-3" x="148.0421" y="88.88225"/>
</g>
<g fill="rgb(0%, 0%, 0%)" fill-opacity="1">
<use xlink:href="#glyph-0-3" x="148.0421" y="78.91975"/>
</g>
<g fill="rgb(0%, 0%, 0%)" fill-opacity="1">
<use xlink:href="#glyph-0-3" x="156.52062" y="76.42873"/>
</g>
<path fill="none" stroke-width="3.73599" stroke-linecap="round" stroke-linejoin="miter" stroke="rgb(0%, 0%, 0%)" stroke-opacity="1" stroke-miterlimit="10" d="M 2023.710938 7502.773438 L 2023.710938 7876.40625 " transform="matrix(0.1, 0, 0, -0.1, -32, 819)"/>
<path fill="none" stroke-width="3.73599" stroke-linecap="round" stroke-linejoin="miter" stroke="rgb(0%, 0%, 0%)" stroke-opacity="1" stroke-miterlimit="10" d="M 1948.984375 7502.773438 L 1948.984375 7876.40625 " transform="matrix(0.1, 0, 0, -0.1, -32, 819)"/>
<path fill="none" stroke-width="3.73599" stroke-linecap="round" stroke-linejoin="miter" stroke="rgb(0%, 0%, 0%)" stroke-opacity="1" stroke-miterlimit="10" d="M 1874.257812 7502.773438 L 1874.257812 7876.40625 " transform="matrix(0.1, 0, 0, -0.1, -32, 819)"/>
<path fill="none" stroke-width="3.73599" stroke-linecap="round" stroke-linejoin="miter" stroke="rgb(0%, 0%, 0%)" stroke-opacity="1" stroke-miterlimit="10" d="M 1799.53125 7502.773438 L 1799.53125 7876.40625 " transform="matrix(0.1, 0, 0, -0.1, -32, 819)"/>
<path fill="none" stroke-width="3.73599" stroke-linecap="round" stroke-linejoin="miter" stroke="rgb(0%, 0%, 0%)" stroke-opacity="1" stroke-miterlimit="10" d="M 1724.84375 7502.773438 L 1724.84375 7876.40625 " transform="matrix(0.1, 0, 0, -0.1, -32, 819)"/>
<path fill="none" stroke-width="3.73599" stroke-linecap="round" stroke-linejoin="miter" stroke="rgb(0%, 0%, 0%)" stroke-opacity="1" stroke-miterlimit="10" d="M 1650.117188 7502.773438 L 1650.117188 7876.40625 " transform="matrix(0.1, 0, 0, -0.1, -32, 819)"/>
<path fill="none" stroke-width="3.73599" stroke-linecap="round" stroke-linejoin="miter" stroke="rgb(0%, 0%, 0%)" stroke-opacity="1" stroke-miterlimit="10" d="M 1650.117188 7876.40625 L 2023.710938 7876.40625 " transform="matrix(0.1, 0, 0, -0.1, -32, 819)"/>
<path fill="none" stroke-width="3.73599" stroke-linecap="round" stroke-linejoin="miter" stroke="rgb(0%, 0%, 0%)" stroke-opacity="1" stroke-miterlimit="10" d="M 1650.117188 7801.679688 L 2023.710938 7801.679688 " transform="matrix(0.1, 0, 0, -0.1, -32, 819)"/>
<path fill="none" stroke-width="3.73599" stroke-linecap="round" stroke-linejoin="miter" stroke="rgb(0%, 0%, 0%)" stroke-opacity="1" stroke-miterlimit="10" d="M 1650.117188 7726.953125 L 2023.710938 7726.953125 " transform="matrix(0.1, 0, 0, -0.1, -32, 819)"/>
<path fill="none" stroke-width="3.73599" stroke-linecap="round" stroke-linejoin="miter" stroke="rgb(0%, 0%, 0%)" stroke-opacity="1" stroke-miterlimit="10" d="M 1650.117188 7652.226562 L 2023.710938 7652.226562 " transform="matrix(0.1, 0, 0, -0.1, -32, 819)"/>
<path fill="none" stroke-width="3.73599" stroke-linecap="round" stroke-linejoin="miter" stroke="rgb(0%, 0%, 0%)" stroke-opacity="1" stroke-miterlimit="10" d="M 1650.117188 7577.5 L 2023.710938 7577.5 " transform="matrix(0.1, 0, 0, -0.1, -32, 819)"/>
<path fill="none" stroke-width="3.73599" stroke-linecap="round" stroke-linejoin="miter" stroke="rgb(0%, 0%, 0%)" stroke-opacity="1" stroke-miterlimit="10" d="M 1967.65625 7831.5625 C 1967.65625 7841.875 1959.296875 7850.234375 1948.984375 7850.234375 C 1938.671875 7850.234375 1930.3125 7841.875 1930.3125 7831.5625 C 1930.3125 7821.25 1938.671875 7812.890625 1948.984375 7812.890625 C 1959.296875 7812.890625 1967.65625 7821.25 1967.65625 7831.5625 Z M 1967.65625 7831.5625 " transform="matrix(0.1, 0, 0, -0.1, -32, 819)"/>
<path fill-rule="nonzero" fill="rgb(0%, 0%, 0%)" fill-opacity="1" d="M 164.765625 35.84375 C 164.765625 34.8125 163.929688 33.976562 162.898438 33.976562 C 161.867188 33.976562 161.03125 34.8125 161.03125 35.84375 C 161.03125 36.875 161.867188 37.710938 162.898438 37.710938 C 163.929688 37.710938 164.765625 36.875 164.765625 35.84375 "/>
<path fill="none" stroke-width="3.73599" stroke-linecap="round" stroke-linejoin="miter" stroke="rgb(0%, 0%, 0%)" stroke-opacity="1" stroke-miterlimit="10" d="M 1892.96875 7682.109375 C 1892.96875 7692.421875 1884.609375 7700.78125 1874.257812 7700.78125 C 1863.945312 7700.78125 1855.585938 7692.421875 1855.585938 7682.109375 C 1855.585938 7671.796875 1863.945312 7663.4375 1874.257812 7663.4375 C 1884.609375 7663.4375 1892.96875 7671.796875 1892.96875 7682.109375 Z M 1892.96875 7682.109375 " transform="matrix(0.1, 0, 0, -0.1, -32, 819)"/>
<path fill-rule="nonzero" fill="rgb(0%, 0%, 0%)" fill-opacity="1" d="M 157.296875 50.789062 C 157.296875 49.757812 156.460938 48.921875 155.425781 48.921875 C 154.394531 48.921875 153.558594 49.757812 153.558594 50.789062 C 153.558594 51.820312 154.394531 52.65625 155.425781 52.65625 C 156.460938 52.65625 157.296875 51.820312 157.296875 50.789062 "/>
<path fill="none" stroke-width="3.73599" stroke-linecap="round" stroke-linejoin="miter" stroke="rgb(0%, 0%, 0%)" stroke-opacity="1" stroke-miterlimit="10" d="M 1818.242188 7756.835938 C 1818.242188 7767.148438 1809.882812 7775.507812 1799.53125 7775.507812 C 1789.21875 7775.507812 1780.859375 7767.148438 1780.859375 7756.835938 C 1780.859375 7746.523438 1789.21875 7738.164062 1799.53125 7738.164062 C 1809.882812 7738.164062 1818.242188 7746.523438 1818.242188 7756.835938 Z M 1818.242188 7756.835938 " transform="matrix(0.1, 0, 0, -0.1, -32, 819)"/>
<path fill-rule="nonzero" fill="rgb(0%, 0%, 0%)" fill-opacity="1" d="M 149.824219 43.316406 C 149.824219 42.285156 148.988281 41.449219 147.953125 41.449219 C 146.921875 41.449219 146.085938 42.285156 146.085938 43.316406 C 146.085938 44.347656 146.921875 45.183594 147.953125 45.183594 C 148.988281 45.183594 149.824219 44.347656 149.824219 43.316406 "/>
<path fill="none" stroke-width="3.73599" stroke-linecap="round" stroke-linejoin="miter" stroke="rgb(0%, 0%, 0%)" stroke-opacity="1" stroke-miterlimit="10" d="M 1743.515625 7682.109375 C 1743.515625 7692.421875 1735.15625 7700.78125 1724.84375 7700.78125 C 1714.53125 7700.78125 1706.132812 7692.421875 1706.132812 7682.109375 C 1706.132812 7671.796875 1714.53125 7663.4375 1724.84375 7663.4375 C 1735.15625 7663.4375 1743.515625 7671.796875 1743.515625 7682.109375 Z M 1743.515625 7682.109375 " transform="matrix(0.1, 0, 0, -0.1, -32, 819)"/>
<path fill-rule="nonzero" fill="rgb(0%, 0%, 0%)" fill-opacity="1" d="M 142.351562 50.789062 C 142.351562 49.757812 141.515625 48.921875 140.484375 48.921875 C 139.453125 48.921875 138.613281 49.757812 138.613281 50.789062 C 138.613281 51.820312 139.453125 52.65625 140.484375 52.65625 C 141.515625 52.65625 142.351562 51.820312 142.351562 50.789062 "/>
<g fill="rgb(0%, 0%, 0%)" fill-opacity="1">
<use xlink:href="#glyph-6-3" x="173.857" y="38.01"/>
</g>
<g fill="rgb(0%, 0%, 0%)" fill-opacity="1">
<use xlink:href="#glyph-6-1" x="178.449579" y="38.01"/>
</g>
<g fill="rgb(0%, 0%, 0%)" fill-opacity="1">
<use xlink:href="#glyph-6-2" x="180.745661" y="38.01"/>
</g>
<g fill="rgb(0%, 0%, 0%)" fill-opacity="1">
<use xlink:href="#glyph-0-3" x="39.91" y="91.3733"/>
</g>
<path fill-rule="nonzero" fill="rgb(100%, 100%, 100%)" fill-opacity="1" d="M 146.070312 149.78125 L 155.933594 149.78125 L 155.933594 143.5 L 146.070312 143.5 Z M 146.070312 149.78125 "/>
<g fill="rgb(0%, 0%, 0%)" fill-opacity="1">
<use xlink:href="#glyph-2-3" x="146.07" y="149.659"/>
</g>
<g fill="rgb(0%, 0%, 0%)" fill-opacity="1">
<use xlink:href="#glyph-2-4" x="151.002415" y="149.659"/>
</g>
<path fill-rule="nonzero" fill="rgb(100%, 100%, 100%)" fill-opacity="1" d="M 148.535156 142.308594 L 153.46875 142.308594 L 153.46875 136.03125 L 148.535156 136.03125 Z M 148.535156 142.308594 "/>
<g fill="rgb(0%, 0%, 0%)" fill-opacity="1">
<use xlink:href="#glyph-2-5" x="148.536" y="142.187"/>
</g>
<path fill-rule="nonzero" fill="rgb(100%, 100%, 100%)" fill-opacity="1" d="M 146.070312 134.835938 L 155.933594 134.835938 L 155.933594 128.558594 L 146.070312 128.558594 Z M 146.070312 134.835938 "/>
<g fill="rgb(0%, 0%, 0%)" fill-opacity="1">
<use xlink:href="#glyph-2-3" x="146.07" y="134.715"/>
</g>
<g fill="rgb(0%, 0%, 0%)" fill-opacity="1">
<use xlink:href="#glyph-2-4" x="151.002415" y="134.715"/>
</g>
<path fill-rule="nonzero" fill="rgb(100%, 100%, 100%)" fill-opacity="1" d="M 148.535156 127.363281 L 153.46875 127.363281 L 153.46875 121.085938 L 148.535156 121.085938 Z M 148.535156 127.363281 "/>
<g fill="rgb(0%, 0%, 0%)" fill-opacity="1">
<use xlink:href="#glyph-2-1" x="148.536" y="127.243"/>
</g>
<g fill="rgb(0%, 0%, 0%)" fill-opacity="1">
<use xlink:href="#glyph-0-3" x="39.909" y="101.3356"/>
</g>
<g fill="rgb(0%, 0%, 0%)" fill-opacity="1">
<use xlink:href="#glyph-0-2" x="140.819" y="88.8825"/>
</g>
<g fill="rgb(0%, 0%, 0%)" fill-opacity="1">
<use xlink:href="#glyph-3-1" x="203.3413" y="22.8848"/>
</g>
<g fill="rgb(0%, 0%, 0%)" fill-opacity="1">
<use xlink:href="#glyph-4-0" x="212.69599" y="16.96097"/>
</g>
<g fill="rgb(0%, 0%, 0%)" fill-opacity="1">
<use xlink:href="#glyph-0-3" x="203.3413" y="93.86367"/>
</g>
<g fill="rgb(0%, 0%, 0%)" fill-opacity="1">
<use xlink:href="#glyph-0-3" x="203.3413" y="83.90117"/>
</g>
<g fill="rgb(0%, 0%, 0%)" fill-opacity="1">
<use xlink:href="#glyph-0-3" x="203.3413" y="78.91992"/>
</g>
<g fill="rgb(0%, 0%, 0%)" fill-opacity="1">
<use xlink:href="#glyph-0-3" x="203.3413" y="71.44765"/>
</g>
<path fill="none" stroke-width="3.73599" stroke-linecap="round" stroke-linejoin="miter" stroke="rgb(0%, 0%, 0%)" stroke-opacity="1" stroke-miterlimit="10" d="M 2576.71875 7560.78125 L 2576.71875 7934.375 " transform="matrix(0.1, 0, 0, -0.1, -32, 819)"/>
<path fill="none" stroke-width="3.73599" stroke-linecap="round" stroke-linejoin="miter" stroke="rgb(0%, 0%, 0%)" stroke-opacity="1" stroke-miterlimit="10" d="M 2501.992188 7560.78125 L 2501.992188 7934.375 " transform="matrix(0.1, 0, 0, -0.1, -32, 819)"/>
<path fill="none" stroke-width="3.73599" stroke-linecap="round" stroke-linejoin="miter" stroke="rgb(0%, 0%, 0%)" stroke-opacity="1" stroke-miterlimit="10" d="M 2427.265625 7560.78125 L 2427.265625 7934.375 " transform="matrix(0.1, 0, 0, -0.1, -32, 819)"/>
<path fill="none" stroke-width="3.73599" stroke-linecap="round" stroke-linejoin="miter" stroke="rgb(0%, 0%, 0%)" stroke-opacity="1" stroke-miterlimit="10" d="M 2352.539062 7560.78125 L 2352.539062 7934.375 " transform="matrix(0.1, 0, 0, -0.1, -32, 819)"/>
<path fill="none" stroke-width="3.73599" stroke-linecap="round" stroke-linejoin="miter" stroke="rgb(0%, 0%, 0%)" stroke-opacity="1" stroke-miterlimit="10" d="M 2277.8125 7560.78125 L 2277.8125 7934.375 " transform="matrix(0.1, 0, 0, -0.1, -32, 819)"/>
<path fill="none" stroke-width="3.73599" stroke-linecap="round" stroke-linejoin="miter" stroke="rgb(0%, 0%, 0%)" stroke-opacity="1" stroke-miterlimit="10" d="M 2203.125 7560.78125 L 2203.125 7934.375 " transform="matrix(0.1, 0, 0, -0.1, -32, 819)"/>
<path fill="none" stroke-width="3.73599" stroke-linecap="round" stroke-linejoin="miter" stroke="rgb(0%, 0%, 0%)" stroke-opacity="1" stroke-miterlimit="10" d="M 2203.125 7934.375 L 2576.71875 7934.375 " transform="matrix(0.1, 0, 0, -0.1, -32, 819)"/>
<path fill="none" stroke-width="3.73599" stroke-linecap="round" stroke-linejoin="miter" stroke="rgb(0%, 0%, 0%)" stroke-opacity="1" stroke-miterlimit="10" d="M 2203.125 7859.648438 L 2576.71875 7859.648438 " transform="matrix(0.1, 0, 0, -0.1, -32, 819)"/>
<path fill="none" stroke-width="3.73599" stroke-linecap="round" stroke-linejoin="miter" stroke="rgb(0%, 0%, 0%)" stroke-opacity="1" stroke-miterlimit="10" d="M 2203.125 7784.921875 L 2576.71875 7784.921875 " transform="matrix(0.1, 0, 0, -0.1, -32, 819)"/>
<path fill="none" stroke-width="3.73599" stroke-linecap="round" stroke-linejoin="miter" stroke="rgb(0%, 0%, 0%)" stroke-opacity="1" stroke-miterlimit="10" d="M 2203.125 7710.195312 L 2576.71875 7710.195312 " transform="matrix(0.1, 0, 0, -0.1, -32, 819)"/>
<path fill="none" stroke-width="3.73599" stroke-linecap="round" stroke-linejoin="miter" stroke="rgb(0%, 0%, 0%)" stroke-opacity="1" stroke-miterlimit="10" d="M 2203.125 7635.507812 L 2576.71875 7635.507812 " transform="matrix(0.1, 0, 0, -0.1, -32, 819)"/>
<path fill="none" stroke-width="3.73599" stroke-linecap="round" stroke-linejoin="miter" stroke="rgb(0%, 0%, 0%)" stroke-opacity="1" stroke-miterlimit="10" d="M 2520.664062 7740.117188 C 2520.664062 7750.429688 2512.304688 7758.789062 2501.992188 7758.789062 C 2491.679688 7758.789062 2483.320312 7750.429688 2483.320312 7740.117188 C 2483.320312 7729.804688 2491.679688 7721.445312 2501.992188 7721.445312 C 2512.304688 7721.445312 2520.664062 7729.804688 2520.664062 7740.117188 Z M 2520.664062 7740.117188 " transform="matrix(0.1, 0, 0, -0.1, -32, 819)"/>
<path fill-rule="nonzero" fill="rgb(0%, 0%, 0%)" fill-opacity="1" d="M 220.066406 44.988281 C 220.066406 43.957031 219.230469 43.121094 218.199219 43.121094 C 217.167969 43.121094 216.332031 43.957031 216.332031 44.988281 C 216.332031 46.019531 217.167969 46.855469 218.199219 46.855469 C 219.230469 46.855469 220.066406 46.019531 220.066406 44.988281 "/>
<path fill="none" stroke-width="3.73599" stroke-linecap="round" stroke-linejoin="miter" stroke="rgb(0%, 0%, 0%)" stroke-opacity="1" stroke-miterlimit="10" d="M 2445.9375 7889.53125 C 2445.9375 7899.84375 2437.578125 7908.203125 2427.265625 7908.203125 C 2416.953125 7908.203125 2408.59375 7899.84375 2408.59375 7889.53125 C 2408.59375 7879.21875 2416.953125 7870.859375 2427.265625 7870.859375 C 2437.578125 7870.859375 2445.9375 7879.21875 2445.9375 7889.53125 Z M 2445.9375 7889.53125 " transform="matrix(0.1, 0, 0, -0.1, -32, 819)"/>
<path fill-rule="nonzero" fill="rgb(0%, 0%, 0%)" fill-opacity="1" d="M 212.59375 30.046875 C 212.59375 29.015625 211.757812 28.179688 210.726562 28.179688 C 209.695312 28.179688 208.859375 29.015625 208.859375 30.046875 C 208.859375 31.078125 209.695312 31.914062 210.726562 31.914062 C 211.757812 31.914062 212.59375 31.078125 212.59375 30.046875 "/>
<path fill="none" stroke-width="3.73599" stroke-linecap="round" stroke-linejoin="miter" stroke="rgb(0%, 0%, 0%)" stroke-opacity="1" stroke-miterlimit="10" d="M 2371.210938 7740.117188 C 2371.210938 7750.429688 2362.851562 7758.789062 2352.539062 7758.789062 C 2342.226562 7758.789062 2333.867188 7750.429688 2333.867188 7740.117188 C 2333.867188 7729.804688 2342.226562 7721.445312 2352.539062 7721.445312 C 2362.851562 7721.445312 2371.210938 7729.804688 2371.210938 7740.117188 Z M 2371.210938 7740.117188 " transform="matrix(0.1, 0, 0, -0.1, -32, 819)"/>
<path fill-rule="nonzero" fill="rgb(0%, 0%, 0%)" fill-opacity="1" d="M 205.121094 44.988281 C 205.121094 43.957031 204.285156 43.121094 203.253906 43.121094 C 202.222656 43.121094 201.386719 43.957031 201.386719 44.988281 C 201.386719 46.019531 202.222656 46.855469 203.253906 46.855469 C 204.285156 46.855469 205.121094 46.019531 205.121094 44.988281 "/>
<path fill="none" stroke-width="3.73599" stroke-linecap="round" stroke-linejoin="miter" stroke="rgb(0%, 0%, 0%)" stroke-opacity="1" stroke-miterlimit="10" d="M 2296.523438 7889.53125 C 2296.523438 7899.84375 2288.164062 7908.203125 2277.8125 7908.203125 C 2267.539062 7908.203125 2259.140625 7899.84375 2259.140625 7889.53125 C 2259.140625 7879.21875 2267.539062 7870.859375 2277.8125 7870.859375 C 2288.164062 7870.859375 2296.523438 7879.21875 2296.523438 7889.53125 Z M 2296.523438 7889.53125 " transform="matrix(0.1, 0, 0, -0.1, -32, 819)"/>
<path fill-rule="nonzero" fill="rgb(0%, 0%, 0%)" fill-opacity="1" d="M 197.652344 30.046875 C 197.652344 29.015625 196.816406 28.179688 195.78125 28.179688 C 194.753906 28.179688 193.914062 29.015625 193.914062 30.046875 C 193.914062 31.078125 194.753906 31.914062 195.78125 31.914062 C 196.816406 31.914062 197.652344 31.078125 197.652344 30.046875 "/>
<g fill="rgb(0%, 0%, 0%)" fill-opacity="1">
<use xlink:href="#glyph-6-0" x="229.156" y="32.212"/>
</g>
<g fill="rgb(0%, 0%, 0%)" fill-opacity="1">
<use xlink:href="#glyph-6-1" x="233.748188" y="32.212"/>
</g>
<g fill="rgb(0%, 0%, 0%)" fill-opacity="1">
<use xlink:href="#glyph-6-2" x="236.044271" y="32.212"/>
</g>
<g fill="rgb(0%, 0%, 0%)" fill-opacity="1">
<use xlink:href="#glyph-3-0" x="39.909" y="22.88544"/>
</g>
<g fill="rgb(0%, 0%, 0%)" fill-opacity="1">
<use xlink:href="#glyph-4-0" x="48.58283" y="16.96161"/>
</g>
<path fill="none" stroke-width="3.73599" stroke-linecap="round" stroke-linejoin="miter" stroke="rgb(0%, 0%, 0%)" stroke-opacity="1" stroke-miterlimit="10" d="M 955.46875 7534.375 L 955.46875 7907.96875 " transform="matrix(0.1, 0, 0, -0.1, -32, 819)"/>
<path fill="none" stroke-width="3.73599" stroke-linecap="round" stroke-linejoin="miter" stroke="rgb(0%, 0%, 0%)" stroke-opacity="1" stroke-miterlimit="10" d="M 880.742188 7534.375 L 880.742188 7907.96875 " transform="matrix(0.1, 0, 0, -0.1, -32, 819)"/>
<path fill="none" stroke-width="3.73599" stroke-linecap="round" stroke-linejoin="miter" stroke="rgb(0%, 0%, 0%)" stroke-opacity="1" stroke-miterlimit="10" d="M 806.015625 7534.375 L 806.015625 7907.96875 " transform="matrix(0.1, 0, 0, -0.1, -32, 819)"/>
<path fill="none" stroke-width="3.73599" stroke-linecap="round" stroke-linejoin="miter" stroke="rgb(0%, 0%, 0%)" stroke-opacity="1" stroke-miterlimit="10" d="M 731.289062 7534.375 L 731.289062 7907.96875 " transform="matrix(0.1, 0, 0, -0.1, -32, 819)"/>
<path fill="none" stroke-width="3.73599" stroke-linecap="round" stroke-linejoin="miter" stroke="rgb(0%, 0%, 0%)" stroke-opacity="1" stroke-miterlimit="10" d="M 656.5625 7534.375 L 656.5625 7907.96875 " transform="matrix(0.1, 0, 0, -0.1, -32, 819)"/>
<path fill="none" stroke-width="3.73599" stroke-linecap="round" stroke-linejoin="miter" stroke="rgb(0%, 0%, 0%)" stroke-opacity="1" stroke-miterlimit="10" d="M 581.875 7534.375 L 581.875 7907.96875 " transform="matrix(0.1, 0, 0, -0.1, -32, 819)"/>
<path fill="none" stroke-width="3.73599" stroke-linecap="round" stroke-linejoin="miter" stroke="rgb(0%, 0%, 0%)" stroke-opacity="1" stroke-miterlimit="10" d="M 581.875 7907.96875 L 955.46875 7907.96875 " transform="matrix(0.1, 0, 0, -0.1, -32, 819)"/>
<path fill="none" stroke-width="3.73599" stroke-linecap="round" stroke-linejoin="miter" stroke="rgb(0%, 0%, 0%)" stroke-opacity="1" stroke-miterlimit="10" d="M 581.875 7833.242188 L 955.46875 7833.242188 " transform="matrix(0.1, 0, 0, -0.1, -32, 819)"/>
<path fill="none" stroke-width="3.73599" stroke-linecap="round" stroke-linejoin="miter" stroke="rgb(0%, 0%, 0%)" stroke-opacity="1" stroke-miterlimit="10" d="M 581.875 7758.515625 L 955.46875 7758.515625 " transform="matrix(0.1, 0, 0, -0.1, -32, 819)"/>
<path fill="none" stroke-width="3.73599" stroke-linecap="round" stroke-linejoin="miter" stroke="rgb(0%, 0%, 0%)" stroke-opacity="1" stroke-miterlimit="10" d="M 581.875 7683.828125 L 955.46875 7683.828125 " transform="matrix(0.1, 0, 0, -0.1, -32, 819)"/>
<path fill="none" stroke-width="3.73599" stroke-linecap="round" stroke-linejoin="miter" stroke="rgb(0%, 0%, 0%)" stroke-opacity="1" stroke-miterlimit="10" d="M 581.875 7609.101562 L 955.46875 7609.101562 " transform="matrix(0.1, 0, 0, -0.1, -32, 819)"/>
<path fill="none" stroke-width="3.73599" stroke-linecap="round" stroke-linejoin="miter" stroke="rgb(0%, 0%, 0%)" stroke-opacity="1" stroke-miterlimit="10" d="M 824.6875 7788.4375 C 824.6875 7798.710938 816.328125 7807.109375 806.015625 7807.109375 C 795.703125 7807.109375 787.34375 7798.710938 787.34375 7788.4375 C 787.34375 7778.085938 795.703125 7769.726562 806.015625 7769.726562 C 816.328125 7769.726562 824.6875 7778.085938 824.6875 7788.4375 Z M 824.6875 7788.4375 " transform="matrix(0.1, 0, 0, -0.1, -32, 819)"/>
<path fill-rule="nonzero" fill="rgb(0%, 0%, 0%)" fill-opacity="1" d="M 50.46875 40.15625 C 50.46875 39.128906 49.632812 38.289062 48.601562 38.289062 C 47.570312 38.289062 46.734375 39.128906 46.734375 40.15625 C 46.734375 41.191406 47.570312 42.027344 48.601562 42.027344 C 49.632812 42.027344 50.46875 41.191406 50.46875 40.15625 "/>
<path fill="none" stroke-width="3.73599" stroke-linecap="round" stroke-linejoin="miter" stroke="rgb(0%, 0%, 0%)" stroke-opacity="1" stroke-miterlimit="10" d="M 749.960938 7863.125 C 749.960938 7873.4375 741.601562 7881.835938 731.289062 7881.835938 C 720.976562 7881.835938 712.617188 7873.4375 712.617188 7863.125 C 712.617188 7852.8125 720.976562 7844.453125 731.289062 7844.453125 C 741.601562 7844.453125 749.960938 7852.8125 749.960938 7863.125 Z M 749.960938 7863.125 " transform="matrix(0.1, 0, 0, -0.1, -32, 819)"/>
<path fill-rule="nonzero" fill="rgb(0%, 0%, 0%)" fill-opacity="1" d="M 42.996094 32.6875 C 42.996094 31.65625 42.160156 30.816406 41.128906 30.816406 C 40.097656 30.816406 39.261719 31.65625 39.261719 32.6875 C 39.261719 33.71875 40.097656 34.554688 41.128906 34.554688 C 42.160156 34.554688 42.996094 33.71875 42.996094 32.6875 "/>
<path fill="none" stroke-width="3.73599" stroke-linecap="round" stroke-linejoin="miter" stroke="rgb(0%, 0%, 0%)" stroke-opacity="1" stroke-miterlimit="10" d="M 675.273438 7713.710938 C 675.273438 7724.023438 666.914062 7732.382812 656.5625 7732.382812 C 646.25 7732.382812 637.890625 7724.023438 637.890625 7713.710938 C 637.890625 7703.398438 646.25 7695.039062 656.5625 7695.039062 C 666.914062 7695.039062 675.273438 7703.398438 675.273438 7713.710938 Z M 675.273438 7713.710938 " transform="matrix(0.1, 0, 0, -0.1, -32, 819)"/>
<path fill-rule="nonzero" fill="rgb(0%, 0%, 0%)" fill-opacity="1" d="M 35.527344 47.628906 C 35.527344 46.597656 34.691406 45.761719 33.65625 45.761719 C 32.625 45.761719 31.789062 46.597656 31.789062 47.628906 C 31.789062 48.660156 32.625 49.496094 33.65625 49.496094 C 34.691406 49.496094 35.527344 48.660156 35.527344 47.628906 "/>
<path fill="none" stroke-width="3.73599" stroke-linecap="round" stroke-linejoin="miter" stroke="rgb(0%, 0%, 0%)" stroke-opacity="1" stroke-miterlimit="10" d="M 600.546875 7863.125 C 600.546875 7873.4375 592.1875 7881.835938 581.875 7881.835938 C 571.5625 7881.835938 563.164062 7873.4375 563.164062 7863.125 C 563.164062 7852.8125 571.5625 7844.453125 581.875 7844.453125 C 592.1875 7844.453125 600.546875 7852.8125 600.546875 7863.125 Z M 600.546875 7863.125 " transform="matrix(0.1, 0, 0, -0.1, -32, 819)"/>
<path fill-rule="nonzero" fill="rgb(0%, 0%, 0%)" fill-opacity="1" d="M 28.054688 32.6875 C 28.054688 31.65625 27.21875 30.816406 26.1875 30.816406 C 25.15625 30.816406 24.316406 31.65625 24.316406 32.6875 C 24.316406 33.71875 25.15625 34.554688 26.1875 34.554688 C 27.21875 34.554688 28.054688 33.71875 28.054688 32.6875 "/>
<g fill="rgb(0%, 0%, 0%)" fill-opacity="1">
<use xlink:href="#glyph-5-0" x="61.3773" y="26.522"/>
</g>
<g fill="rgb(0%, 0%, 0%)" fill-opacity="1">
<use xlink:href="#glyph-5-0" x="53.905401" y="26.522"/>
</g>
<g fill="rgb(0%, 0%, 0%)" fill-opacity="1">
<use xlink:href="#glyph-6-0" x="67.03121" y="34.85169"/>
</g>
<g fill="rgb(0%, 0%, 0%)" fill-opacity="1">
<use xlink:href="#glyph-6-1" x="71.623789" y="34.85169"/>
</g>
<g fill="rgb(0%, 0%, 0%)" fill-opacity="1">
<use xlink:href="#glyph-6-2" x="73.919883" y="34.85169"/>
</g>
<path fill-rule="nonzero" fill="rgb(100%, 100%, 100%)" fill-opacity="1" d="M 203.835938 142.308594 L 208.765625 142.308594 L 208.765625 136.03125 L 203.835938 136.03125 Z M 203.835938 142.308594 "/>
<g fill="rgb(0%, 0%, 0%)" fill-opacity="1">
<use xlink:href="#glyph-2-0" x="203.835" y="142.187"/>
</g>
<path fill-rule="nonzero" fill="rgb(100%, 100%, 100%)" fill-opacity="1" d="M 203.835938 134.835938 L 208.765625 134.835938 L 208.765625 128.558594 L 203.835938 128.558594 Z M 203.835938 134.835938 "/>
<g fill="rgb(0%, 0%, 0%)" fill-opacity="1">
<use xlink:href="#glyph-2-1" x="203.835" y="134.715"/>
</g>
<path fill-rule="nonzero" fill="rgb(100%, 100%, 100%)" fill-opacity="1" d="M 203.835938 127.363281 L 208.765625 127.363281 L 208.765625 121.085938 L 203.835938 121.085938 Z M 203.835938 127.363281 "/>
<g fill="rgb(0%, 0%, 0%)" fill-opacity="1">
<use xlink:href="#glyph-2-0" x="203.835" y="127.243"/>
</g>
<path fill-rule="nonzero" fill="rgb(100%, 100%, 100%)" fill-opacity="1" d="M 203.835938 119.894531 L 208.765625 119.894531 L 208.765625 113.613281 L 203.835938 113.613281 Z M 203.835938 119.894531 "/>
<g fill="rgb(0%, 0%, 0%)" fill-opacity="1">
<use xlink:href="#glyph-2-1" x="203.835" y="119.771"/>
</g>
<g fill="rgb(0%, 0%, 0%)" fill-opacity="1">
<use xlink:href="#glyph-0-2" x="196.11898" y="71.4476"/>
</g>
<g fill="rgb(0%, 0%, 0%)" fill-opacity="1">
<use xlink:href="#glyph-3-0" x="257.40848" y="22.8847"/>
</g>
<g fill="rgb(0%, 0%, 0%)" fill-opacity="1">
<use xlink:href="#glyph-4-0" x="266.0827" y="16.96087"/>
</g>
<g fill="rgb(0%, 0%, 0%)" fill-opacity="1">
<use xlink:href="#glyph-0-3" x="257.40848" y="101.33547"/>
</g>
<g fill="rgb(0%, 0%, 0%)" fill-opacity="1">
<use xlink:href="#glyph-0-3" x="257.40848" y="86.39177"/>
</g>
<g fill="rgb(0%, 0%, 0%)" fill-opacity="1">
<use xlink:href="#glyph-0-3" x="257.40848" y="78.9199"/>
</g>
<path fill="none" stroke-width="3.73599" stroke-linecap="round" stroke-linejoin="miter" stroke="rgb(0%, 0%, 0%)" stroke-opacity="1" stroke-miterlimit="10" d="M 3130.46875 7502.773438 L 3130.46875 7876.40625 " transform="matrix(0.1, 0, 0, -0.1, -32, 819)"/>
<path fill="none" stroke-width="3.73599" stroke-linecap="round" stroke-linejoin="miter" stroke="rgb(0%, 0%, 0%)" stroke-opacity="1" stroke-miterlimit="10" d="M 3055.742188 7502.773438 L 3055.742188 7876.40625 " transform="matrix(0.1, 0, 0, -0.1, -32, 819)"/>
<path fill="none" stroke-width="3.73599" stroke-linecap="round" stroke-linejoin="miter" stroke="rgb(0%, 0%, 0%)" stroke-opacity="1" stroke-miterlimit="10" d="M 2981.015625 7502.773438 L 2981.015625 7876.40625 " transform="matrix(0.1, 0, 0, -0.1, -32, 819)"/>
<path fill="none" stroke-width="3.73599" stroke-linecap="round" stroke-linejoin="miter" stroke="rgb(0%, 0%, 0%)" stroke-opacity="1" stroke-miterlimit="10" d="M 2906.289062 7502.773438 L 2906.289062 7876.40625 " transform="matrix(0.1, 0, 0, -0.1, -32, 819)"/>
<path fill="none" stroke-width="3.73599" stroke-linecap="round" stroke-linejoin="miter" stroke="rgb(0%, 0%, 0%)" stroke-opacity="1" stroke-miterlimit="10" d="M 2831.5625 7502.773438 L 2831.5625 7876.40625 " transform="matrix(0.1, 0, 0, -0.1, -32, 819)"/>
<path fill="none" stroke-width="3.73599" stroke-linecap="round" stroke-linejoin="miter" stroke="rgb(0%, 0%, 0%)" stroke-opacity="1" stroke-miterlimit="10" d="M 2756.875 7502.773438 L 2756.875 7876.40625 " transform="matrix(0.1, 0, 0, -0.1, -32, 819)"/>
<path fill="none" stroke-width="3.73599" stroke-linecap="round" stroke-linejoin="miter" stroke="rgb(0%, 0%, 0%)" stroke-opacity="1" stroke-miterlimit="10" d="M 2756.875 7876.40625 L 3130.46875 7876.40625 " transform="matrix(0.1, 0, 0, -0.1, -32, 819)"/>
<path fill="none" stroke-width="3.73599" stroke-linecap="round" stroke-linejoin="miter" stroke="rgb(0%, 0%, 0%)" stroke-opacity="1" stroke-miterlimit="10" d="M 2756.875 7801.679688 L 3130.46875 7801.679688 " transform="matrix(0.1, 0, 0, -0.1, -32, 819)"/>
<path fill="none" stroke-width="3.73599" stroke-linecap="round" stroke-linejoin="miter" stroke="rgb(0%, 0%, 0%)" stroke-opacity="1" stroke-miterlimit="10" d="M 2756.875 7726.953125 L 3130.46875 7726.953125 " transform="matrix(0.1, 0, 0, -0.1, -32, 819)"/>
<path fill="none" stroke-width="3.73599" stroke-linecap="round" stroke-linejoin="miter" stroke="rgb(0%, 0%, 0%)" stroke-opacity="1" stroke-miterlimit="10" d="M 2756.875 7652.226562 L 3130.46875 7652.226562 " transform="matrix(0.1, 0, 0, -0.1, -32, 819)"/>
<path fill="none" stroke-width="3.73599" stroke-linecap="round" stroke-linejoin="miter" stroke="rgb(0%, 0%, 0%)" stroke-opacity="1" stroke-miterlimit="10" d="M 2756.875 7577.5 L 3130.46875 7577.5 " transform="matrix(0.1, 0, 0, -0.1, -32, 819)"/>
<path fill="none" stroke-width="3.73599" stroke-linecap="round" stroke-linejoin="miter" stroke="rgb(0%, 0%, 0%)" stroke-opacity="1" stroke-miterlimit="10" d="M 2999.6875 7756.835938 C 2999.6875 7767.148438 2991.328125 7775.507812 2981.015625 7775.507812 C 2970.703125 7775.507812 2962.34375 7767.148438 2962.34375 7756.835938 C 2962.34375 7746.523438 2970.703125 7738.164062 2981.015625 7738.164062 C 2991.328125 7738.164062 2999.6875 7746.523438 2999.6875 7756.835938 Z M 2999.6875 7756.835938 " transform="matrix(0.1, 0, 0, -0.1, -32, 819)"/>
<path fill-rule="nonzero" fill="rgb(0%, 0%, 0%)" fill-opacity="1" d="M 267.96875 43.316406 C 267.96875 42.285156 267.132812 41.449219 266.101562 41.449219 C 265.070312 41.449219 264.234375 42.285156 264.234375 43.316406 C 264.234375 44.347656 265.070312 45.183594 266.101562 45.183594 C 267.132812 45.183594 267.96875 44.347656 267.96875 43.316406 "/>
<path fill="none" stroke-width="3.73599" stroke-linecap="round" stroke-linejoin="miter" stroke="rgb(0%, 0%, 0%)" stroke-opacity="1" stroke-miterlimit="10" d="M 2924.960938 7831.5625 C 2924.960938 7841.875 2916.601562 7850.234375 2906.289062 7850.234375 C 2895.976562 7850.234375 2887.617188 7841.875 2887.617188 7831.5625 C 2887.617188 7821.25 2895.976562 7812.890625 2906.289062 7812.890625 C 2916.601562 7812.890625 2924.960938 7821.25 2924.960938 7831.5625 Z M 2924.960938 7831.5625 " transform="matrix(0.1, 0, 0, -0.1, -32, 819)"/>
<path fill-rule="nonzero" fill="rgb(0%, 0%, 0%)" fill-opacity="1" d="M 260.496094 35.84375 C 260.496094 34.8125 259.660156 33.976562 258.628906 33.976562 C 257.597656 33.976562 256.761719 34.8125 256.761719 35.84375 C 256.761719 36.875 257.597656 37.710938 258.628906 37.710938 C 259.660156 37.710938 260.496094 36.875 260.496094 35.84375 "/>
<path fill="none" stroke-width="3.73599" stroke-linecap="round" stroke-linejoin="miter" stroke="rgb(0%, 0%, 0%)" stroke-opacity="1" stroke-miterlimit="10" d="M 2775.546875 7831.5625 C 2775.546875 7841.875 2767.1875 7850.234375 2756.875 7850.234375 C 2746.523438 7850.234375 2738.164062 7841.875 2738.164062 7831.5625 C 2738.164062 7821.25 2746.523438 7812.890625 2756.875 7812.890625 C 2767.1875 7812.890625 2775.546875 7821.25 2775.546875 7831.5625 Z M 2775.546875 7831.5625 " transform="matrix(0.1, 0, 0, -0.1, -32, 819)"/>
<path fill-rule="nonzero" fill="rgb(0%, 0%, 0%)" fill-opacity="1" d="M 245.554688 35.84375 C 245.554688 34.8125 244.71875 33.976562 243.6875 33.976562 C 242.652344 33.976562 241.816406 34.8125 241.816406 35.84375 C 241.816406 36.875 242.652344 37.710938 243.6875 37.710938 C 244.71875 37.710938 245.554688 36.875 245.554688 35.84375 "/>
<g fill="rgb(0%, 0%, 0%)" fill-opacity="1">
<use xlink:href="#glyph-5-0" x="248.988" y="29.68"/>
</g>
<g fill="rgb(0%, 0%, 0%)" fill-opacity="1">
<use xlink:href="#glyph-6-0" x="284.5302" y="38.01047"/>
</g>
<g fill="rgb(0%, 0%, 0%)" fill-opacity="1">
<use xlink:href="#glyph-6-1" x="289.122388" y="38.01047"/>
</g>
<g fill="rgb(0%, 0%, 0%)" fill-opacity="1">
<use xlink:href="#glyph-6-2" x="291.418471" y="38.01047"/>
</g>
<path fill-rule="nonzero" fill="rgb(100%, 100%, 100%)" fill-opacity="1" d="M 257.902344 149.78125 L 262.835938 149.78125 L 262.835938 143.5 L 257.902344 143.5 Z M 257.902344 149.78125 "/>
<g fill="rgb(0%, 0%, 0%)" fill-opacity="1">
<use xlink:href="#glyph-2-0" x="257.902" y="149.659"/>
</g>
<path fill-rule="nonzero" fill="rgb(100%, 100%, 100%)" fill-opacity="1" d="M 257.902344 134.835938 L 262.835938 134.835938 L 262.835938 128.558594 L 257.902344 128.558594 Z M 257.902344 134.835938 "/>
<g fill="rgb(0%, 0%, 0%)" fill-opacity="1">
<use xlink:href="#glyph-2-0" x="257.902" y="134.715"/>
</g>
<path fill-rule="nonzero" fill="rgb(100%, 100%, 100%)" fill-opacity="1" d="M 257.902344 127.363281 L 262.835938 127.363281 L 262.835938 121.085938 L 257.902344 121.085938 Z M 257.902344 127.363281 "/>
<g fill="rgb(0%, 0%, 0%)" fill-opacity="1">
<use xlink:href="#glyph-2-2" x="257.902" y="127.243"/>
</g>
<g fill="rgb(0%, 0%, 0%)" fill-opacity="1">
<use xlink:href="#glyph-0-2" x="250.18598" y="78.92"/>
</g>
<g fill="rgb(0%, 0%, 0%)" fill-opacity="1">
<use xlink:href="#glyph-3-1" x="311.47508" y="22.8848"/>
</g>
<g fill="rgb(0%, 0%, 0%)" fill-opacity="1">
<use xlink:href="#glyph-4-0" x="320.82938" y="16.96097"/>
</g>
<g fill="rgb(0%, 0%, 0%)" fill-opacity="1">
<use xlink:href="#glyph-0-3" x="311.47508" y="93.86367"/>
</g>
<g fill="rgb(0%, 0%, 0%)" fill-opacity="1">
<use xlink:href="#glyph-0-3" x="311.47508" y="88.88242"/>
</g>
<g fill="rgb(0%, 0%, 0%)" fill-opacity="1">
<use xlink:href="#glyph-0-3" x="311.47508" y="78.91992"/>
</g>
<path fill="none" stroke-width="3.73599" stroke-linecap="round" stroke-linejoin="miter" stroke="rgb(0%, 0%, 0%)" stroke-opacity="1" stroke-miterlimit="10" d="M 3658.320312 7502.773438 L 3658.320312 7876.40625 " transform="matrix(0.1, 0, 0, -0.1, -32, 819)"/>
<path fill="none" stroke-width="3.73599" stroke-linecap="round" stroke-linejoin="miter" stroke="rgb(0%, 0%, 0%)" stroke-opacity="1" stroke-miterlimit="10" d="M 3583.59375 7502.773438 L 3583.59375 7876.40625 " transform="matrix(0.1, 0, 0, -0.1, -32, 819)"/>
<path fill="none" stroke-width="3.73599" stroke-linecap="round" stroke-linejoin="miter" stroke="rgb(0%, 0%, 0%)" stroke-opacity="1" stroke-miterlimit="10" d="M 3508.90625 7502.773438 L 3508.90625 7876.40625 " transform="matrix(0.1, 0, 0, -0.1, -32, 819)"/>
<path fill="none" stroke-width="3.73599" stroke-linecap="round" stroke-linejoin="miter" stroke="rgb(0%, 0%, 0%)" stroke-opacity="1" stroke-miterlimit="10" d="M 3434.179688 7502.773438 L 3434.179688 7876.40625 " transform="matrix(0.1, 0, 0, -0.1, -32, 819)"/>
<path fill="none" stroke-width="3.73599" stroke-linecap="round" stroke-linejoin="miter" stroke="rgb(0%, 0%, 0%)" stroke-opacity="1" stroke-miterlimit="10" d="M 3359.453125 7502.773438 L 3359.453125 7876.40625 " transform="matrix(0.1, 0, 0, -0.1, -32, 819)"/>
<path fill="none" stroke-width="3.73599" stroke-linecap="round" stroke-linejoin="miter" stroke="rgb(0%, 0%, 0%)" stroke-opacity="1" stroke-miterlimit="10" d="M 3284.726562 7502.773438 L 3284.726562 7876.40625 " transform="matrix(0.1, 0, 0, -0.1, -32, 819)"/>
<path fill="none" stroke-width="3.73599" stroke-linecap="round" stroke-linejoin="miter" stroke="rgb(0%, 0%, 0%)" stroke-opacity="1" stroke-miterlimit="10" d="M 3284.726562 7876.40625 L 3658.320312 7876.40625 " transform="matrix(0.1, 0, 0, -0.1, -32, 819)"/>
<path fill="none" stroke-width="3.73599" stroke-linecap="round" stroke-linejoin="miter" stroke="rgb(0%, 0%, 0%)" stroke-opacity="1" stroke-miterlimit="10" d="M 3284.726562 7801.679688 L 3658.320312 7801.679688 " transform="matrix(0.1, 0, 0, -0.1, -32, 819)"/>
<path fill="none" stroke-width="3.73599" stroke-linecap="round" stroke-linejoin="miter" stroke="rgb(0%, 0%, 0%)" stroke-opacity="1" stroke-miterlimit="10" d="M 3284.726562 7726.953125 L 3658.320312 7726.953125 " transform="matrix(0.1, 0, 0, -0.1, -32, 819)"/>
<path fill="none" stroke-width="3.73599" stroke-linecap="round" stroke-linejoin="miter" stroke="rgb(0%, 0%, 0%)" stroke-opacity="1" stroke-miterlimit="10" d="M 3284.726562 7652.226562 L 3658.320312 7652.226562 " transform="matrix(0.1, 0, 0, -0.1, -32, 819)"/>
<path fill="none" stroke-width="3.73599" stroke-linecap="round" stroke-linejoin="miter" stroke="rgb(0%, 0%, 0%)" stroke-opacity="1" stroke-miterlimit="10" d="M 3284.726562 7577.5 L 3658.320312 7577.5 " transform="matrix(0.1, 0, 0, -0.1, -32, 819)"/>
<path fill="none" stroke-width="3.73599" stroke-linecap="round" stroke-linejoin="miter" stroke="rgb(0%, 0%, 0%)" stroke-opacity="1" stroke-miterlimit="10" d="M 3527.578125 7756.835938 C 3527.578125 7767.148438 3519.21875 7775.507812 3508.90625 7775.507812 C 3498.554688 7775.507812 3490.195312 7767.148438 3490.195312 7756.835938 C 3490.195312 7746.523438 3498.554688 7738.164062 3508.90625 7738.164062 C 3519.21875 7738.164062 3527.578125 7746.523438 3527.578125 7756.835938 Z M 3527.578125 7756.835938 " transform="matrix(0.1, 0, 0, -0.1, -32, 819)"/>
<path fill-rule="nonzero" fill="rgb(0%, 0%, 0%)" fill-opacity="1" d="M 320.757812 43.316406 C 320.757812 42.285156 319.921875 41.449219 318.890625 41.449219 C 317.855469 41.449219 317.019531 42.285156 317.019531 43.316406 C 317.019531 44.347656 317.855469 45.183594 318.890625 45.183594 C 319.921875 45.183594 320.757812 44.347656 320.757812 43.316406 "/>
<path fill="none" stroke-width="3.73599" stroke-linecap="round" stroke-linejoin="miter" stroke="rgb(0%, 0%, 0%)" stroke-opacity="1" stroke-miterlimit="10" d="M 3452.851562 7831.5625 C 3452.851562 7841.875 3444.492188 7850.234375 3434.179688 7850.234375 C 3423.867188 7850.234375 3415.507812 7841.875 3415.507812 7831.5625 C 3415.507812 7821.25 3423.867188 7812.890625 3434.179688 7812.890625 C 3444.492188 7812.890625 3452.851562 7821.25 3452.851562 7831.5625 Z M 3452.851562 7831.5625 " transform="matrix(0.1, 0, 0, -0.1, -32, 819)"/>
<path fill-rule="nonzero" fill="rgb(0%, 0%, 0%)" fill-opacity="1" d="M 313.285156 35.84375 C 313.285156 34.8125 312.449219 33.976562 311.417969 33.976562 C 310.386719 33.976562 309.550781 34.8125 309.550781 35.84375 C 309.550781 36.875 310.386719 37.710938 311.417969 37.710938 C 312.449219 37.710938 313.285156 36.875 313.285156 35.84375 "/>
<path fill="none" stroke-width="3.73599" stroke-linecap="round" stroke-linejoin="miter" stroke="rgb(0%, 0%, 0%)" stroke-opacity="1" stroke-miterlimit="10" d="M 3378.125 7756.835938 C 3378.125 7767.148438 3369.765625 7775.507812 3359.453125 7775.507812 C 3349.140625 7775.507812 3340.78125 7767.148438 3340.78125 7756.835938 C 3340.78125 7746.523438 3349.140625 7738.164062 3359.453125 7738.164062 C 3369.765625 7738.164062 3378.125 7746.523438 3378.125 7756.835938 Z M 3378.125 7756.835938 " transform="matrix(0.1, 0, 0, -0.1, -32, 819)"/>
<path fill-rule="nonzero" fill="rgb(0%, 0%, 0%)" fill-opacity="1" d="M 305.8125 43.316406 C 305.8125 42.285156 304.976562 41.449219 303.945312 41.449219 C 302.914062 41.449219 302.078125 42.285156 302.078125 43.316406 C 302.078125 44.347656 302.914062 45.183594 303.945312 45.183594 C 304.976562 45.183594 305.8125 44.347656 305.8125 43.316406 "/>
<g fill="rgb(0%, 0%, 0%)" fill-opacity="1">
<use xlink:href="#glyph-6-4" x="337.223" y="38.104"/>
</g>
<g fill="rgb(0%, 0%, 0%)" fill-opacity="1">
<use xlink:href="#glyph-6-1" x="341.815188" y="38.104"/>
</g>
<g fill="rgb(0%, 0%, 0%)" fill-opacity="1">
<use xlink:href="#glyph-6-2" x="344.111271" y="38.104"/>
</g>
<path fill-rule="nonzero" fill="rgb(100%, 100%, 100%)" fill-opacity="1" d="M 311.96875 142.308594 L 316.902344 142.308594 L 316.902344 136.03125 L 311.96875 136.03125 Z M 311.96875 142.308594 "/>
<g fill="rgb(0%, 0%, 0%)" fill-opacity="1">
<use xlink:href="#glyph-2-0" x="311.969" y="142.187"/>
</g>
<path fill-rule="nonzero" fill="rgb(100%, 100%, 100%)" fill-opacity="1" d="M 311.96875 134.777344 L 316.902344 134.777344 L 316.902344 128.621094 L 311.96875 128.621094 Z M 311.96875 134.777344 "/>
<g fill="rgb(0%, 0%, 0%)" fill-opacity="1">
<use xlink:href="#glyph-2-6" x="311.969" y="134.776"/>
</g>
<path fill-rule="nonzero" fill="rgb(100%, 100%, 100%)" fill-opacity="1" d="M 311.96875 127.363281 L 316.902344 127.363281 L 316.902344 121.085938 L 311.96875 121.085938 Z M 311.96875 127.363281 "/>
<g fill="rgb(0%, 0%, 0%)" fill-opacity="1">
<use xlink:href="#glyph-2-0" x="311.969" y="127.243"/>
</g>
<path fill="none" stroke-width="4.98132" stroke-linecap="butt" stroke-linejoin="round" stroke="rgb(0%, 0%, 0%)" stroke-opacity="1" stroke-miterlimit="10" d="M 424.6875 6723.59375 L 427.695312 6723.59375 L 427.695312 7475.507812 L 424.6875 7475.507812 Z M 424.6875 6723.59375 " transform="matrix(0.1, 0, 0, -0.1, -32, 819)"/>
<path fill-rule="nonzero" fill="rgb(0%, 0%, 0%)" fill-opacity="1" d="M 10.46875 146.640625 L 10.769531 146.640625 L 10.769531 71.449219 L 10.46875 71.449219 Z M 10.46875 146.640625 "/>
<g fill="rgb(0%, 0%, 0%)" fill-opacity="1">
<use xlink:href="#glyph-0-2" x="304.252" y="88.883"/>
</g>
</svg>
