<?xml version="1.0" encoding="UTF-8"?>
<svg xmlns="http://www.w3.org/2000/svg" xmlns:xlink="http://www.w3.org/1999/xlink" width="78pt" height="82pt" viewBox="0 0 78 82">
<path fill="none" stroke-width="4.98132" stroke-linecap="round" stroke-linejoin="miter" stroke="rgb(0%, 0%, 0%)" stroke-opacity="1" stroke-miterlimit="10" d="M 818.945312 7617.226562 L 818.945312 8215 " transform="matrix(0.1, 0, 0, -0.1, -18, 833)"/>
<path fill="none" stroke-width="4.98132" stroke-linecap="round" stroke-linejoin="miter" stroke="rgb(0%, 0%, 0%)" stroke-opacity="1" stroke-miterlimit="10" d="M 719.335938 7617.226562 L 719.335938 8215 " transform="matrix(0.1, 0, 0, -0.1, -18, 833)"/>
<path fill="none" stroke-width="4.98132" stroke-linecap="round" stroke-linejoin="miter" stroke="rgb(0%, 0%, 0%)" stroke-opacity="1" stroke-miterlimit="10" d="M 619.6875 7617.226562 L 619.6875 8215 " transform="matrix(0.1, 0, 0, -0.1, -18, 833)"/>
<path fill="none" stroke-width="4.98132" stroke-linecap="round" stroke-linejoin="miter" stroke="rgb(0%, 0%, 0%)" stroke-opacity="1" stroke-miterlimit="10" d="M 520.078125 7617.226562 L 520.078125 8215 " transform="matrix(0.1, 0, 0, -0.1, -18, 833)"/>
<path fill="none" stroke-width="4.98132" stroke-linecap="round" stroke-linejoin="miter" stroke="rgb(0%, 0%, 0%)" stroke-opacity="1" stroke-miterlimit="10" d="M 420.46875 7617.226562 L 420.46875 8215 " transform="matrix(0.1, 0, 0, -0.1, -18, 833)"/>
<path fill="none" stroke-width="4.98132" stroke-linecap="round" stroke-linejoin="miter" stroke="rgb(0%, 0%, 0%)" stroke-opacity="1" stroke-miterlimit="10" d="M 320.820312 7617.226562 L 320.820312 8215 " transform="matrix(0.1, 0, 0, -0.1, -18, 833)"/>
<path fill="none" stroke-width="4.98132" stroke-linecap="round" stroke-linejoin="miter" stroke="rgb(0%, 0%, 0%)" stroke-opacity="1" stroke-miterlimit="10" d="M 320.820312 8215 L 818.945312 8215 " transform="matrix(0.1, 0, 0, -0.1, -18, 833)"/>
<path fill="none" stroke-width="4.98132" stroke-linecap="round" stroke-linejoin="miter" stroke="rgb(0%, 0%, 0%)" stroke-opacity="1" stroke-miterlimit="10" d="M 320.820312 8115.390625 L 818.945312 8115.390625 " transform="matrix(0.1, 0, 0, -0.1, -18, 833)"/>
<path fill="none" stroke-width="4.98132" stroke-linecap="round" stroke-linejoin="miter" stroke="rgb(0%, 0%, 0%)" stroke-opacity="1" stroke-miterlimit="10" d="M 320.820312 8015.742188 L 818.945312 8015.742188 " transform="matrix(0.1, 0, 0, -0.1, -18, 833)"/>
<path fill="none" stroke-width="4.98132" stroke-linecap="round" stroke-linejoin="miter" stroke="rgb(0%, 0%, 0%)" stroke-opacity="1" stroke-miterlimit="10" d="M 320.820312 7916.132812 L 818.945312 7916.132812 " transform="matrix(0.1, 0, 0, -0.1, -18, 833)"/>
<path fill="none" stroke-width="4.98132" stroke-linecap="round" stroke-linejoin="miter" stroke="rgb(0%, 0%, 0%)" stroke-opacity="1" stroke-miterlimit="10" d="M 320.820312 7816.484375 L 818.945312 7816.484375 " transform="matrix(0.1, 0, 0, -0.1, -18, 833)"/>
<path fill="none" stroke-width="4.98132" stroke-linecap="round" stroke-linejoin="miter" stroke="rgb(0%, 0%, 0%)" stroke-opacity="1" stroke-miterlimit="10" d="M 320.820312 7716.875 L 818.945312 7716.875 " transform="matrix(0.1, 0, 0, -0.1, -18, 833)"/>
<path fill="none" stroke-width="4.98132" stroke-linecap="round" stroke-linejoin="miter" stroke="rgb(0%, 0%, 0%)" stroke-opacity="1" stroke-miterlimit="10" d="M 853.828125 7863.828125 C 853.828125 7883.085938 838.203125 7898.671875 818.945312 7898.671875 C 799.6875 7898.671875 784.101562 7883.085938 784.101562 7863.828125 C 784.101562 7844.570312 799.6875 7828.945312 818.945312 7828.945312 C 838.203125 7828.945312 853.828125 7844.570312 853.828125 7863.828125 Z M 853.828125 7863.828125 " transform="matrix(0.1, 0, 0, -0.1, -18, 833)"/>
<path fill-rule="nonzero" fill="rgb(0%, 0%, 0%)" fill-opacity="1" d="M 67.382812 46.617188 C 67.382812 44.691406 65.820312 43.132812 63.894531 43.132812 C 61.96875 43.132812 60.410156 44.691406 60.410156 46.617188 C 60.410156 48.542969 61.96875 50.105469 63.894531 50.105469 C 65.820312 50.105469 67.382812 48.542969 67.382812 46.617188 "/>
<path fill="none" stroke-width="4.98132" stroke-linecap="round" stroke-linejoin="miter" stroke="rgb(0%, 0%, 100%)" stroke-opacity="1" stroke-miterlimit="10" d="M 853.828125 8063.085938 C 853.828125 8082.304688 838.203125 8097.929688 818.945312 8097.929688 C 799.6875 8097.929688 784.101562 8082.304688 784.101562 8063.085938 C 784.101562 8043.828125 799.6875 8028.203125 818.945312 8028.203125 C 838.203125 8028.203125 853.828125 8043.828125 853.828125 8063.085938 Z M 853.828125 8063.085938 " transform="matrix(0.1, 0, 0, -0.1, -18, 833)"/>
<path fill-rule="nonzero" fill="rgb(0%, 0%, 100%)" fill-opacity="1" d="M 67.382812 26.691406 C 67.382812 24.769531 65.820312 23.207031 63.894531 23.207031 C 61.96875 23.207031 60.410156 24.769531 60.410156 26.691406 C 60.410156 28.617188 61.96875 30.179688 63.894531 30.179688 C 65.820312 30.179688 67.382812 28.617188 67.382812 26.691406 "/>
<path fill="none" stroke-width="4.98132" stroke-linecap="round" stroke-linejoin="miter" stroke="rgb(0%, 0%, 0%)" stroke-opacity="1" stroke-miterlimit="10" d="M 853.828125 8162.695312 C 853.828125 8181.953125 838.203125 8197.578125 818.945312 8197.578125 C 799.6875 8197.578125 784.101562 8181.953125 784.101562 8162.695312 C 784.101562 8143.4375 799.6875 8127.8125 818.945312 8127.8125 C 838.203125 8127.8125 853.828125 8143.4375 853.828125 8162.695312 Z M 853.828125 8162.695312 " transform="matrix(0.1, 0, 0, -0.1, -18, 833)"/>
<path fill-rule="nonzero" fill="rgb(0%, 0%, 0%)" fill-opacity="1" d="M 67.382812 16.730469 C 67.382812 14.804688 65.820312 13.242188 63.894531 13.242188 C 61.96875 13.242188 60.410156 14.804688 60.410156 16.730469 C 60.410156 18.65625 61.96875 20.21875 63.894531 20.21875 C 65.820312 20.21875 67.382812 18.65625 67.382812 16.730469 "/>
<path fill="none" stroke-width="4.98132" stroke-linecap="round" stroke-linejoin="miter" stroke="rgb(0%, 0%, 100%)" stroke-opacity="1" stroke-miterlimit="10" d="M 754.21875 7863.828125 C 754.21875 7883.085938 738.59375 7898.671875 719.335938 7898.671875 C 700.078125 7898.671875 684.453125 7883.085938 684.453125 7863.828125 C 684.453125 7844.570312 700.078125 7828.945312 719.335938 7828.945312 C 738.59375 7828.945312 754.21875 7844.570312 754.21875 7863.828125 Z M 754.21875 7863.828125 " transform="matrix(0.1, 0, 0, -0.1, -18, 833)"/>
<path fill-rule="nonzero" fill="rgb(0%, 0%, 100%)" fill-opacity="1" d="M 57.421875 46.617188 C 57.421875 44.691406 55.859375 43.132812 53.933594 43.132812 C 52.007812 43.132812 50.445312 44.691406 50.445312 46.617188 C 50.445312 48.542969 52.007812 50.105469 53.933594 50.105469 C 55.859375 50.105469 57.421875 48.542969 57.421875 46.617188 "/>
<path fill="none" stroke-width="4.98132" stroke-linecap="round" stroke-linejoin="miter" stroke="rgb(0%, 0%, 0%)" stroke-opacity="1" stroke-miterlimit="10" d="M 754.21875 7963.4375 C 754.21875 7982.695312 738.59375 7998.320312 719.335938 7998.320312 C 700.078125 7998.320312 684.453125 7982.695312 684.453125 7963.4375 C 684.453125 7944.179688 700.078125 7928.554688 719.335938 7928.554688 C 738.59375 7928.554688 754.21875 7944.179688 754.21875 7963.4375 Z M 754.21875 7963.4375 " transform="matrix(0.1, 0, 0, -0.1, -18, 833)"/>
<path fill-rule="nonzero" fill="rgb(0%, 0%, 0%)" fill-opacity="1" d="M 57.421875 36.65625 C 57.421875 34.730469 55.859375 33.167969 53.933594 33.167969 C 52.007812 33.167969 50.445312 34.730469 50.445312 36.65625 C 50.445312 38.582031 52.007812 40.144531 53.933594 40.144531 C 55.859375 40.144531 57.421875 38.582031 57.421875 36.65625 "/>
<path fill="none" stroke-width="4.98132" stroke-linecap="round" stroke-linejoin="miter" stroke="rgb(0%, 0%, 100%)" stroke-opacity="1" stroke-miterlimit="10" d="M 754.21875 8162.695312 C 754.21875 8181.953125 738.59375 8197.578125 719.335938 8197.578125 C 700.078125 8197.578125 684.453125 8181.953125 684.453125 8162.695312 C 684.453125 8143.4375 700.078125 8127.8125 719.335938 8127.8125 C 738.59375 8127.8125 754.21875 8143.4375 754.21875 8162.695312 Z M 754.21875 8162.695312 " transform="matrix(0.1, 0, 0, -0.1, -18, 833)"/>
<path fill-rule="nonzero" fill="rgb(0%, 0%, 100%)" fill-opacity="1" d="M 57.421875 16.730469 C 57.421875 14.804688 55.859375 13.242188 53.933594 13.242188 C 52.007812 13.242188 50.445312 14.804688 50.445312 16.730469 C 50.445312 18.65625 52.007812 20.21875 53.933594 20.21875 C 55.859375 20.21875 57.421875 18.65625 57.421875 16.730469 "/>
<path fill="none" stroke-width="4.98132" stroke-linecap="round" stroke-linejoin="miter" stroke="rgb(0%, 0%, 0%)" stroke-opacity="1" stroke-miterlimit="10" d="M 654.570312 7863.828125 C 654.570312 7883.085938 638.945312 7898.671875 619.6875 7898.671875 C 600.46875 7898.671875 584.84375 7883.085938 584.84375 7863.828125 C 584.84375 7844.570312 600.46875 7828.945312 619.6875 7828.945312 C 638.945312 7828.945312 654.570312 7844.570312 654.570312 7863.828125 Z M 654.570312 7863.828125 " transform="matrix(0.1, 0, 0, -0.1, -18, 833)"/>
<path fill-rule="nonzero" fill="rgb(0%, 0%, 0%)" fill-opacity="1" d="M 47.457031 46.617188 C 47.457031 44.691406 45.894531 43.132812 43.96875 43.132812 C 42.046875 43.132812 40.484375 44.691406 40.484375 46.617188 C 40.484375 48.542969 42.046875 50.105469 43.96875 50.105469 C 45.894531 50.105469 47.457031 48.542969 47.457031 46.617188 "/>
<path fill="none" stroke-width="4.98132" stroke-linecap="round" stroke-linejoin="miter" stroke="rgb(0%, 0%, 100%)" stroke-opacity="1" stroke-miterlimit="10" d="M 654.570312 8063.085938 C 654.570312 8082.304688 638.945312 8097.929688 619.6875 8097.929688 C 600.46875 8097.929688 584.84375 8082.304688 584.84375 8063.085938 C 584.84375 8043.828125 600.46875 8028.203125 619.6875 8028.203125 C 638.945312 8028.203125 654.570312 8043.828125 654.570312 8063.085938 Z M 654.570312 8063.085938 " transform="matrix(0.1, 0, 0, -0.1, -18, 833)"/>
<path fill-rule="nonzero" fill="rgb(0%, 0%, 100%)" fill-opacity="1" d="M 47.457031 26.691406 C 47.457031 24.769531 45.894531 23.207031 43.96875 23.207031 C 42.046875 23.207031 40.484375 24.769531 40.484375 26.691406 C 40.484375 28.617188 42.046875 30.179688 43.96875 30.179688 C 45.894531 30.179688 47.457031 28.617188 47.457031 26.691406 "/>
<path fill="none" stroke-width="4.98132" stroke-linecap="round" stroke-linejoin="miter" stroke="rgb(0%, 0%, 0%)" stroke-opacity="1" stroke-miterlimit="10" d="M 654.570312 8162.695312 C 654.570312 8181.953125 638.945312 8197.578125 619.6875 8197.578125 C 600.46875 8197.578125 584.84375 8181.953125 584.84375 8162.695312 C 584.84375 8143.4375 600.46875 8127.8125 619.6875 8127.8125 C 638.945312 8127.8125 654.570312 8143.4375 654.570312 8162.695312 Z M 654.570312 8162.695312 " transform="matrix(0.1, 0, 0, -0.1, -18, 833)"/>
<path fill-rule="nonzero" fill="rgb(0%, 0%, 0%)" fill-opacity="1" d="M 47.457031 16.730469 C 47.457031 14.804688 45.894531 13.242188 43.96875 13.242188 C 42.046875 13.242188 40.484375 14.804688 40.484375 16.730469 C 40.484375 18.65625 42.046875 20.21875 43.96875 20.21875 C 45.894531 20.21875 47.457031 18.65625 47.457031 16.730469 "/>
<path fill="none" stroke-width="4.98132" stroke-linecap="round" stroke-linejoin="miter" stroke="rgb(0%, 0%, 100%)" stroke-opacity="1" stroke-miterlimit="10" d="M 554.960938 7863.828125 C 554.960938 7883.085938 539.335938 7898.671875 520.078125 7898.671875 C 500.820312 7898.671875 485.195312 7883.085938 485.195312 7863.828125 C 485.195312 7844.570312 500.820312 7828.945312 520.078125 7828.945312 C 539.335938 7828.945312 554.960938 7844.570312 554.960938 7863.828125 Z M 554.960938 7863.828125 " transform="matrix(0.1, 0, 0, -0.1, -18, 833)"/>
<path fill-rule="nonzero" fill="rgb(0%, 0%, 100%)" fill-opacity="1" d="M 37.496094 46.617188 C 37.496094 44.691406 35.933594 43.132812 34.007812 43.132812 C 32.082031 43.132812 30.519531 44.691406 30.519531 46.617188 C 30.519531 48.542969 32.082031 50.105469 34.007812 50.105469 C 35.933594 50.105469 37.496094 48.542969 37.496094 46.617188 "/>
<path fill="none" stroke-width="4.98132" stroke-linecap="round" stroke-linejoin="miter" stroke="rgb(0%, 0%, 0%)" stroke-opacity="1" stroke-miterlimit="10" d="M 554.960938 7963.4375 C 554.960938 7982.695312 539.335938 7998.320312 520.078125 7998.320312 C 500.820312 7998.320312 485.195312 7982.695312 485.195312 7963.4375 C 485.195312 7944.179688 500.820312 7928.554688 520.078125 7928.554688 C 539.335938 7928.554688 554.960938 7944.179688 554.960938 7963.4375 Z M 554.960938 7963.4375 " transform="matrix(0.1, 0, 0, -0.1, -18, 833)"/>
<path fill-rule="nonzero" fill="rgb(0%, 0%, 0%)" fill-opacity="1" d="M 37.496094 36.65625 C 37.496094 34.730469 35.933594 33.167969 34.007812 33.167969 C 32.082031 33.167969 30.519531 34.730469 30.519531 36.65625 C 30.519531 38.582031 32.082031 40.144531 34.007812 40.144531 C 35.933594 40.144531 37.496094 38.582031 37.496094 36.65625 "/>
<path fill="none" stroke-width="4.98132" stroke-linecap="round" stroke-linejoin="miter" stroke="rgb(0%, 0%, 100%)" stroke-opacity="1" stroke-miterlimit="10" d="M 554.960938 8162.695312 C 554.960938 8181.953125 539.335938 8197.578125 520.078125 8197.578125 C 500.820312 8197.578125 485.195312 8181.953125 485.195312 8162.695312 C 485.195312 8143.4375 500.820312 8127.8125 520.078125 8127.8125 C 539.335938 8127.8125 554.960938 8143.4375 554.960938 8162.695312 Z M 554.960938 8162.695312 " transform="matrix(0.1, 0, 0, -0.1, -18, 833)"/>
<path fill-rule="nonzero" fill="rgb(0%, 0%, 100%)" fill-opacity="1" d="M 37.496094 16.730469 C 37.496094 14.804688 35.933594 13.242188 34.007812 13.242188 C 32.082031 13.242188 30.519531 14.804688 30.519531 16.730469 C 30.519531 18.65625 32.082031 20.21875 34.007812 20.21875 C 35.933594 20.21875 37.496094 18.65625 37.496094 16.730469 "/>
<path fill="none" stroke-width="4.98132" stroke-linecap="round" stroke-linejoin="miter" stroke="rgb(0%, 0%, 0%)" stroke-opacity="1" stroke-miterlimit="10" d="M 455.3125 7764.179688 C 455.3125 7783.4375 439.6875 7799.0625 420.46875 7799.0625 C 401.210938 7799.0625 385.585938 7783.4375 385.585938 7764.179688 C 385.585938 7744.921875 401.210938 7729.335938 420.46875 7729.335938 C 439.6875 7729.335938 455.3125 7744.921875 455.3125 7764.179688 Z M 455.3125 7764.179688 " transform="matrix(0.1, 0, 0, -0.1, -18, 833)"/>
<path fill-rule="nonzero" fill="rgb(0%, 0%, 0%)" fill-opacity="1" d="M 27.53125 56.582031 C 27.53125 54.65625 25.96875 53.09375 24.046875 53.09375 C 22.121094 53.09375 20.558594 54.65625 20.558594 56.582031 C 20.558594 58.507812 22.121094 60.066406 24.046875 60.066406 C 25.96875 60.066406 27.53125 58.507812 27.53125 56.582031 "/>
<path fill="none" stroke-width="4.98132" stroke-linecap="round" stroke-linejoin="miter" stroke="rgb(0%, 0%, 100%)" stroke-opacity="1" stroke-miterlimit="10" d="M 455.3125 7963.4375 C 455.3125 7982.695312 439.6875 7998.320312 420.46875 7998.320312 C 401.210938 7998.320312 385.585938 7982.695312 385.585938 7963.4375 C 385.585938 7944.179688 401.210938 7928.554688 420.46875 7928.554688 C 439.6875 7928.554688 455.3125 7944.179688 455.3125 7963.4375 Z M 455.3125 7963.4375 " transform="matrix(0.1, 0, 0, -0.1, -18, 833)"/>
<path fill-rule="nonzero" fill="rgb(0%, 0%, 100%)" fill-opacity="1" d="M 27.53125 36.65625 C 27.53125 34.730469 25.96875 33.167969 24.046875 33.167969 C 22.121094 33.167969 20.558594 34.730469 20.558594 36.65625 C 20.558594 38.582031 22.121094 40.144531 24.046875 40.144531 C 25.96875 40.144531 27.53125 38.582031 27.53125 36.65625 "/>
<path fill="none" stroke-width="4.98132" stroke-linecap="round" stroke-linejoin="miter" stroke="rgb(0%, 0%, 0%)" stroke-opacity="1" stroke-miterlimit="10" d="M 455.3125 8063.085938 C 455.3125 8082.304688 439.6875 8097.929688 420.46875 8097.929688 C 401.210938 8097.929688 385.585938 8082.304688 385.585938 8063.085938 C 385.585938 8043.828125 401.210938 8028.203125 420.46875 8028.203125 C 439.6875 8028.203125 455.3125 8043.828125 455.3125 8063.085938 Z M 455.3125 8063.085938 " transform="matrix(0.1, 0, 0, -0.1, -18, 833)"/>
<path fill-rule="nonzero" fill="rgb(0%, 0%, 0%)" fill-opacity="1" d="M 27.53125 26.691406 C 27.53125 24.769531 25.96875 23.207031 24.046875 23.207031 C 22.121094 23.207031 20.558594 24.769531 20.558594 26.691406 C 20.558594 28.617188 22.121094 30.179688 24.046875 30.179688 C 25.96875 30.179688 27.53125 28.617188 27.53125 26.691406 "/>
<path fill="none" stroke-width="4.98132" stroke-linecap="round" stroke-linejoin="miter" stroke="rgb(0%, 0%, 100%)" stroke-opacity="1" stroke-miterlimit="10" d="M 355.703125 7764.179688 C 355.703125 7783.4375 340.078125 7799.0625 320.820312 7799.0625 C 301.5625 7799.0625 285.9375 7783.4375 285.9375 7764.179688 C 285.9375 7744.921875 301.5625 7729.335938 320.820312 7729.335938 C 340.078125 7729.335938 355.703125 7744.921875 355.703125 7764.179688 Z M 355.703125 7764.179688 " transform="matrix(0.1, 0, 0, -0.1, -18, 833)"/>
<path fill-rule="nonzero" fill="rgb(0%, 0%, 100%)" fill-opacity="1" d="M 17.570312 56.582031 C 17.570312 54.65625 16.007812 53.09375 14.082031 53.09375 C 12.15625 53.09375 10.59375 54.65625 10.59375 56.582031 C 10.59375 58.507812 12.15625 60.066406 14.082031 60.066406 C 16.007812 60.066406 17.570312 58.507812 17.570312 56.582031 "/>
<path fill="none" stroke-width="4.98132" stroke-linecap="round" stroke-linejoin="miter" stroke="rgb(0%, 0%, 0%)" stroke-opacity="1" stroke-miterlimit="10" d="M 355.703125 7863.828125 C 355.703125 7883.085938 340.078125 7898.671875 320.820312 7898.671875 C 301.5625 7898.671875 285.9375 7883.085938 285.9375 7863.828125 C 285.9375 7844.570312 301.5625 7828.945312 320.820312 7828.945312 C 340.078125 7828.945312 355.703125 7844.570312 355.703125 7863.828125 Z M 355.703125 7863.828125 " transform="matrix(0.1, 0, 0, -0.1, -18, 833)"/>
<path fill-rule="nonzero" fill="rgb(0%, 0%, 0%)" fill-opacity="1" d="M 17.570312 46.617188 C 17.570312 44.691406 16.007812 43.132812 14.082031 43.132812 C 12.15625 43.132812 10.59375 44.691406 10.59375 46.617188 C 10.59375 48.542969 12.15625 50.105469 14.082031 50.105469 C 16.007812 50.105469 17.570312 48.542969 17.570312 46.617188 "/>
<path fill="none" stroke-width="4.98132" stroke-linecap="round" stroke-linejoin="miter" stroke="rgb(0%, 0%, 100%)" stroke-opacity="1" stroke-miterlimit="10" d="M 355.703125 8063.085938 C 355.703125 8082.304688 340.078125 8097.929688 320.820312 8097.929688 C 301.5625 8097.929688 285.9375 8082.304688 285.9375 8063.085938 C 285.9375 8043.828125 301.5625 8028.203125 320.820312 8028.203125 C 340.078125 8028.203125 355.703125 8043.828125 355.703125 8063.085938 Z M 355.703125 8063.085938 " transform="matrix(0.1, 0, 0, -0.1, -18, 833)"/>
<path fill-rule="nonzero" fill="rgb(0%, 0%, 100%)" fill-opacity="1" d="M 17.570312 26.691406 C 17.570312 24.769531 16.007812 23.207031 14.082031 23.207031 C 12.15625 23.207031 10.59375 24.769531 10.59375 26.691406 C 10.59375 28.617188 12.15625 30.179688 14.082031 30.179688 C 16.007812 30.179688 17.570312 28.617188 17.570312 26.691406 "/>
<path fill="none" stroke-width="4.98132" stroke-linecap="round" stroke-linejoin="round" stroke="rgb(0%, 0%, 0%)" stroke-opacity="1" stroke-miterlimit="10" d="M 320.820312 8215 L 818.945312 8215 L 818.945312 8224.960938 L 320.820312 8224.960938 Z M 320.820312 8215 " transform="matrix(0.1, 0, 0, -0.1, -18, 833)"/>
<path fill-rule="nonzero" fill="rgb(0%, 0%, 0%)" fill-opacity="1" d="M 14.082031 11.5 L 63.894531 11.5 L 63.894531 10.503906 L 14.082031 10.503906 Z M 14.082031 11.5 "/>
</svg>
