<?xml version="1.0" encoding="UTF-8"?>
<svg xmlns="http://www.w3.org/2000/svg" xmlns:xlink="http://www.w3.org/1999/xlink" width="449pt" height="122pt" viewBox="0 0 449 122">
<defs>
<g>
<g id="glyph-0-0">
<path d="M 4.34375 -2.703125 C 2.25 -2.703125 0 -0.84375 0 0.9375 C 0 1.984375 0.84375 2.703125 2.15625 2.703125 C 4.25 2.703125 6.5 0.84375 6.5 -0.9375 C 6.5 -1.984375 5.65625 -2.703125 4.34375 -2.703125 Z M 4.34375 -2.703125 "/>
</g>
<g id="glyph-0-1">
<path d="M -3.546875 -6.640625 C -3.671875 -6.640625 -3.75 -6.546875 -3.75 -6.4375 L -3.75 -0.296875 C -3.75 -0.140625 -3.578125 0 -3.421875 0 C -3.265625 0 -3.125 -0.140625 -3.125 -0.296875 L -3.125 -3.984375 L 3.125 -3.984375 L 3.125 -0.296875 C 3.125 -0.140625 3.28125 0 3.453125 0 C 3.609375 0 3.75 -0.140625 3.75 -0.296875 L 3.75 -6.4375 C 3.75 -6.546875 3.671875 -6.640625 3.546875 -6.640625 Z M -3.546875 -6.640625 "/>
</g>
<g id="glyph-0-2">
<path d="M 5.296875 12.65625 L 5.3125 11.796875 L 5.234375 11.796875 C 4.265625 11.796875 3.421875 11.28125 2.90625 10.5 C 3.109375 10.578125 3.3125 10.625 3.53125 10.625 C 4.5625 10.625 5.421875 9.765625 5.421875 8.71875 C 5.421875 7.609375 4.609375 6.671875 3.53125 6.671875 C 2.34375 6.671875 1.296875 7.5625 1.296875 8.71875 C 1.296875 10.890625 3.03125 12.65625 5.171875 12.65625 Z M 9.1875 4.046875 C 8.9375 1.8125 8.359375 -1.234375 7.984375 -3.015625 C 10.125 -2.78125 11.4375 -1.015625 11.4375 0.78125 C 11.4375 2.25 10.53125 3.5625 9.1875 4.046875 Z M 1.46875 -0.5625 C 1.46875 -3.75 3.578125 -6.171875 5.71875 -8.59375 C 6.0625 -7.4375 6.359375 -6.25 6.640625 -5.09375 C 4.609375 -4.640625 3.453125 -2.921875 3.453125 -1.171875 C 3.453125 1.3125 5.65625 2.546875 5.953125 2.546875 C 6.203125 2.546875 6.390625 2.328125 6.390625 2.109375 C 6.390625 2.015625 6.359375 1.90625 6.25 1.8125 C 5.140625 1.171875 4.640625 0.234375 4.640625 -0.640625 C 4.640625 -1.796875 5.53125 -2.84375 7.109375 -3.015625 C 7.796875 0.203125 8.234375 2.96875 8.359375 4.25 C 7.671875 4.359375 6.75 4.359375 6.734375 4.359375 C 4.28125 4.359375 1.46875 2.328125 1.46875 -0.5625 Z M 4.984375 -11.015625 C 2.65625 -8.328125 0.046875 -5.75 0.046875 -2.234375 C 0.046875 1.640625 2.828125 5.21875 6.671875 5.21875 C 7.5625 5.21875 8.34375 5.078125 8.453125 5.0625 C 8.5 5.671875 8.53125 6.28125 8.53125 6.890625 C 8.53125 7.25 8.5 7.625 8.484375 7.984375 C 8.359375 9.953125 7.171875 11.75 5.3125 11.796875 L 5.296875 12.65625 C 7.5625 12.59375 9.1875 10.484375 9.328125 8.109375 C 9.34375 7.734375 9.359375 7.328125 9.359375 6.953125 C 9.359375 6.25 9.328125 5.5625 9.265625 4.859375 C 11.375 4.1875 12.84375 2.21875 12.84375 -0.046875 C 12.84375 -2.6875 10.84375 -5.234375 7.75 -5.234375 C 7.625 -5.234375 7.53125 -5.21875 7.484375 -5.21875 C 7.15625 -6.59375 6.796875 -7.984375 6.375 -9.34375 C 8.25 -11.515625 9.953125 -13.75 9.953125 -16.59375 C 9.953125 -18.84375 8.671875 -22.140625 7.3125 -23.734375 C 7.1875 -23.828125 7.03125 -23.828125 6.90625 -23.734375 C 5.046875 -22.375 3.9375 -20.203125 3.9375 -17.90625 C 3.9375 -14.40625 4.40625 -12.921875 4.984375 -11.015625 Z M 8.53125 -18.25 C 8.53125 -15.734375 7.21875 -13.71875 5.625 -11.796875 C 5.140625 -13.375 4.90625 -14.625 4.90625 -15.65625 C 4.90625 -17.84375 6.15625 -19.859375 8.125 -20.8125 C 8.546875 -19.5625 8.53125 -18.921875 8.53125 -18.25 Z M 8.53125 -18.25 "/>
</g>
<g id="glyph-0-3">
<path d="M 4.140625 14.390625 C 5.640625 14.390625 6.90625 12.390625 7.3125 10.359375 C 7.484375 9.421875 7.890625 7.21875 8.109375 5.96875 C 9.25 6.171875 9.703125 6.796875 9.703125 7.484375 C 9.703125 8.25 9.046875 9.03125 8.328125 9.03125 C 8.0625 9.03125 7.96875 9.28125 7.96875 9.5 C 7.96875 9.65625 8.015625 9.828125 8.125 9.828125 L 8.140625 9.828125 C 9.15625 9.828125 10.140625 10.15625 10.140625 11.078125 C 10.140625 12.109375 9.125 12.921875 8.25 12.921875 C 7.515625 12.921875 7.4375 12.4375 7.171875 12.4375 C 6.9375 12.4375 6.609375 12.6875 6.609375 12.921875 C 6.609375 13.109375 7.375 14.125 8.828125 14.125 C 10.59375 14.125 12.390625 12.671875 12.390625 10.984375 C 12.390625 9.875 11.515625 9.390625 10.359375 9.15625 C 11.609375 8.359375 11.734375 7.328125 11.734375 6.96875 C 11.734375 5.140625 8.859375 4.921875 7.453125 4.921875 C 5.140625 4.921875 2.78125 5.875 2.78125 7.515625 C 2.78125 8.453125 3.640625 9 4.46875 9 C 5.296875 9 5.3125 8.640625 5.3125 8.46875 C 5.3125 8.015625 4.796875 8.109375 4.796875 7.46875 C 4.796875 6.875 5.421875 6.328125 6.203125 6.078125 C 6.015625 7.15625 5.84375 8.625 5.84375 9.328125 L 5.84375 9.484375 C 5.84375 11.390625 5.359375 13.375 4.0625 13.375 C 3.3125 13.375 2.953125 12.625 2.625 12.625 C 2.390625 12.625 2.15625 12.921875 2.15625 13.140625 C 2.15625 13.203125 3.171875 14.390625 4.140625 14.390625 Z M 10.875 -5.125 C 10.875 -5.4375 10.3125 -5.734375 9.734375 -5.734375 C 9.265625 -5.734375 8.78125 -5.53125 8.609375 -5 C 7.375 -1.28125 3.9375 2.765625 2.53125 2.765625 C 2.015625 2.765625 1.65625 2.375 1.390625 2.375 C 1.109375 2.375 0.890625 2.703125 0.890625 2.921875 C 0.890625 3.015625 0.9375 3.09375 1 3.109375 C 1.5 3.328125 1.875 3.71875 2.484375 3.75 L 2.546875 3.75 C 3.546875 3.75 4.65625 2.90625 6 1.65625 C 6.375 2.234375 7.046875 2.3125 7.390625 2.3125 C 8.5 2.3125 8.5 1.859375 8.5 1.734375 C 8.5 1.578125 8.453125 1.4375 8.34375 1.4375 C 8.328125 1.4375 8.25 1.453125 8.109375 1.453125 C 7.3125 1.453125 6.953125 1 6.828125 0.796875 C 7.453125 0.140625 8.03125 -0.515625 8.5625 -1.21875 C 8.671875 0.09375 8.859375 1.375 9.1875 2.59375 C 9.34375 3.171875 9.609375 3.75 10.234375 3.75 C 10.84375 3.75 11.375 3.25 11.96875 3.0625 C 12.15625 3.015625 12.21875 2.84375 12.21875 2.6875 C 12.21875 2.515625 12.125 2.34375 12.03125 2.34375 C 11.875 2.34375 11.296875 2.75 10.9375 2.75 C 10.515625 2.75 10.515625 2.34375 10.515625 2.15625 C 10.515625 2.078125 10.875 -4.953125 10.875 -5.125 Z M 5.734375 -10.75 C 5.734375 -11.25 5.09375 -11.203125 5.09375 -11.96875 C 5.09375 -12.8125 6.109375 -13.375 7.34375 -13.375 C 7.53125 -13.375 7.75 -13.328125 7.984375 -13.265625 C 7.8125 -12.109375 7.59375 -10.015625 7.546875 -9.125 C 7.484375 -7.671875 6.96875 -6.140625 5.859375 -6.140625 C 5.078125 -6.140625 4.5625 -7.09375 4.21875 -7.09375 C 4 -7.09375 3.765625 -6.796875 3.765625 -6.578125 C 3.765625 -6.5 3.78125 -6.4375 3.84375 -6.390625 C 4.421875 -6.015625 5.046875 -5.3125 5.75 -5.15625 C 5.890625 -5.140625 6.015625 -5.125 6.140625 -5.125 C 7.625 -5.125 8.9375 -6.890625 9.390625 -8.8125 C 9.5625 -9.640625 9.90625 -11.46875 10.078125 -12.65625 C 10.359375 -12.578125 10.625 -12.53125 10.953125 -12.53125 C 12.6875 -12.53125 13.9375 -13.890625 13.9375 -14.03125 C 13.9375 -14.1875 13.703125 -14.40625 13.484375 -14.40625 C 13.265625 -14.40625 12.484375 -13.53125 11.109375 -13.53125 C 10.09375 -13.53125 8.625 -14.34375 7.703125 -14.34375 C 3.421875 -14.34375 3.09375 -12.546875 3.09375 -11.953125 C 3.09375 -11 3.921875 -10.28125 4.90625 -10.28125 C 5.71875 -10.28125 5.734375 -10.578125 5.734375 -10.75 Z M 5.734375 -10.75 "/>
</g>
<g id="glyph-0-4">
<path d="M 0 -2.375 L 0 -1.171875 C 0 -0.953125 0.171875 -0.78125 0.390625 -0.78125 C 0.4375 -0.78125 0.5 -0.78125 0.53125 -0.796875 L 1.171875 -1.015625 L 1.171875 2.171875 L 0.265625 2.484375 C 0.09375 2.546875 0 2.703125 0 2.875 L 0 4.0625 C 0 4.28125 0.171875 4.46875 0.390625 4.46875 C 0.4375 4.46875 0.5 4.46875 0.53125 4.4375 L 1.171875 4.203125 L 1.171875 7.09375 C 1.171875 7.296875 1.328125 7.46875 1.53125 7.46875 C 1.734375 7.46875 1.90625 7.296875 1.90625 7.09375 L 1.90625 3.9375 L 3.5625 3.328125 L 3.5625 6.21875 C 3.5625 6.421875 3.75 6.59375 3.9375 6.59375 C 4.140625 6.59375 4.296875 6.421875 4.296875 6.21875 L 4.296875 3.0625 L 5.21875 2.734375 C 5.375 2.671875 5.484375 2.53125 5.484375 2.375 L 5.484375 1.171875 C 5.484375 0.953125 5.296875 0.78125 5.078125 0.78125 C 5.046875 0.78125 4.984375 0.78125 4.9375 0.796875 L 4.296875 1.015625 L 4.296875 -2.171875 L 5.21875 -2.484375 C 5.375 -2.546875 5.484375 -2.703125 5.484375 -2.875 L 5.484375 -4.0625 C 5.484375 -4.28125 5.296875 -4.46875 5.078125 -4.46875 C 5.046875 -4.46875 4.984375 -4.46875 4.9375 -4.4375 L 4.296875 -4.203125 L 4.296875 -7.09375 C 4.296875 -7.296875 4.140625 -7.46875 3.9375 -7.46875 C 3.75 -7.46875 3.5625 -7.296875 3.5625 -7.09375 L 3.5625 -3.9375 L 1.90625 -3.328125 L 1.90625 -6.21875 C 1.90625 -6.421875 1.734375 -6.59375 1.53125 -6.59375 C 1.328125 -6.59375 1.171875 -6.421875 1.171875 -6.21875 L 1.171875 -3.0625 L 0.265625 -2.734375 C 0.09375 -2.671875 0 -2.53125 0 -2.375 Z M 3.5625 -1.890625 L 3.5625 1.296875 L 1.90625 1.890625 L 1.90625 -1.296875 Z M 3.5625 -1.890625 "/>
</g>
<g id="glyph-0-5">
<path d="M 0.53125 -0.8125 C 0.5625 -1.46875 0.96875 -2.078125 1.59375 -2.078125 C 2.171875 -2.078125 2.453125 -1.390625 2.453125 -0.734375 C 2.453125 0.4375 1.5 1.28125 0.59375 2.03125 C 0.53125 1.59375 0.515625 1.15625 0.515625 0.71875 L 0.515625 0.5 Z M -0.296875 2.75 C -0.296875 3.03125 -0.09375 3.25 0.15625 3.25 C 0.578125 3.25 0.75 2.75 1.0625 2.484375 C 2.265625 1.453125 3.984375 0.71875 3.984375 -0.875 C 3.984375 -1.953125 3.25 -2.90625 2.21875 -2.90625 C 1.546875 -2.90625 0.890625 -2.65625 0.390625 -2.234375 L 0.53125 -9.109375 C 0.375 -9.203125 0.171875 -9.265625 0 -9.265625 C -0.171875 -9.265625 -0.375 -9.203125 -0.53125 -9.109375 Z M -0.296875 2.75 "/>
</g>
<g id="glyph-0-6">
<path d="M -0.140625 -7.46875 L 0 3.890625 C 0 4.078125 0.15625 4.21875 0.359375 4.21875 L 0.421875 4.21875 L 2.53125 3.828125 L 2.484375 7.46875 C 2.65625 7.546875 2.8125 7.609375 2.96875 7.609375 C 3.125 7.609375 3.3125 7.546875 3.46875 7.46875 L 3.328125 -3.890625 C 3.328125 -4.078125 3.171875 -4.21875 2.96875 -4.21875 L 2.90625 -4.21875 L 0.796875 -3.828125 L 0.84375 -7.46875 C 0.671875 -7.546875 0.515625 -7.609375 0.359375 -7.609375 C 0.203125 -7.609375 0.015625 -7.546875 -0.140625 -7.46875 Z M 2.609375 -2.234375 L 2.546875 1.890625 L 0.71875 2.234375 L 0.78125 -1.890625 Z M 2.609375 -2.234375 "/>
</g>
<g id="glyph-1-0">
<path d="M 2.125 -4.984375 C 2.75 -4.984375 2.8125 -4.046875 2.8125 -3.25 L 2.8125 -2.34375 C 2.8125 -1.546875 2.75 -0.609375 2.125 -0.609375 C 1.5 -0.609375 1.4375 -1.546875 1.4375 -2.34375 L 1.4375 -3.25 C 1.4375 -4.046875 1.5 -4.984375 2.125 -4.984375 Z M 2.125 -5.59375 C 0.8125 -5.59375 0 -4.234375 0 -2.796875 C 0 -1.359375 0.8125 0 2.125 0 C 3.453125 0 4.25 -1.359375 4.25 -2.796875 C 4.25 -4.234375 3.453125 -5.59375 2.125 -5.59375 Z M 2.125 -5.59375 "/>
</g>
<g id="glyph-1-1">
<path d="M 2.171875 -5.4375 C 1.984375 -5.4375 1.765625 -5.65625 1.5625 -5.65625 C 1.515625 -5.65625 1.46875 -5.640625 1.4375 -5.59375 L 0 -2.796875 C -0.015625 -2.734375 -0.03125 -2.703125 -0.03125 -2.65625 C -0.03125 -2.484375 0.125 -2.34375 0.28125 -2.34375 C 0.375 -2.34375 0.484375 -2.40625 0.53125 -2.515625 L 0.921875 -3.25 C 0.96875 -3.328125 1.03125 -3.375 1.109375 -3.375 C 1.265625 -3.375 1.4375 -3.234375 1.4375 -2.96875 L 1.4375 -1.4375 C 1.4375 -0.921875 1.0625 -0.484375 0.546875 -0.484375 C 0.390625 -0.484375 0.296875 -0.375 0.296875 -0.25 C 0.296875 -0.125 0.390625 0 0.546875 0 C 1.09375 0 1.625 -0.15625 2.171875 -0.15625 C 2.71875 -0.15625 3.25 0 3.796875 0 C 3.953125 0 4.03125 -0.125 4.03125 -0.25 C 4.03125 -0.375 3.953125 -0.484375 3.796875 -0.484375 C 3.296875 -0.484375 2.890625 -0.921875 2.890625 -1.4375 L 2.890625 -5.265625 C 2.890625 -5.453125 2.78125 -5.609375 2.625 -5.609375 C 2.5 -5.609375 2.34375 -5.4375 2.171875 -5.4375 Z M 2.171875 -5.4375 "/>
</g>
<g id="glyph-1-2">
<path d="M 1.046875 -0.734375 C 1.5625 -0.734375 1.609375 0 2.640625 0 C 3.71875 0 4.25 -0.890625 4.25 -1.21875 C 4.25 -1.359375 4.125 -1.453125 4 -1.453125 C 3.6875 -1.453125 3.875 -1 3.375 -1 C 2.78125 -1 2.46875 -1.65625 1.515625 -1.671875 C 2.578125 -2.25 4.03125 -2.40625 4.03125 -3.96875 C 4.03125 -4.984375 3.015625 -5.59375 1.90625 -5.59375 C 0.96875 -5.59375 0.15625 -4.875 0.15625 -3.9375 C 0.15625 -3.5625 0.453125 -3.25 0.84375 -3.25 C 1.21875 -3.25 1.515625 -3.5625 1.515625 -3.9375 C 1.515625 -4.203125 1.171875 -4.359375 1.171875 -4.625 C 1.171875 -4.953125 1.546875 -5.109375 1.90625 -5.109375 C 2.40625 -5.109375 2.59375 -4.53125 2.59375 -3.96875 C 2.59375 -2.046875 0 -1.953125 0 -0.234375 C 0 -0.078125 0.125 0 0.25 0 C 0.609375 0 0.375 -0.734375 1.046875 -0.734375 Z M 1.046875 -0.734375 "/>
</g>
<g id="glyph-1-3">
<path d="M 2.921875 -2.96875 C 2.921875 -3.578125 3.6875 -3.28125 3.6875 -4.328125 C 3.6875 -5.25 2.78125 -5.59375 1.734375 -5.59375 C 0.890625 -5.59375 0.15625 -5.015625 0.15625 -4.21875 C 0.15625 -3.90625 0.40625 -3.640625 0.734375 -3.640625 C 1.046875 -3.640625 1.296875 -3.90625 1.296875 -4.21875 C 1.296875 -4.4375 0.9375 -4.46875 0.9375 -4.6875 C 0.9375 -5.015625 1.359375 -5.109375 1.734375 -5.109375 C 2.1875 -5.109375 2.421875 -4.8125 2.421875 -4.328125 L 2.421875 -4.203125 C 2.421875 -3.6875 2.40625 -3.28125 1.9375 -3.28125 L 1.203125 -3.28125 C 1 -3.28125 0.90625 -3.125 0.90625 -2.96875 C 0.90625 -2.828125 1 -2.671875 1.203125 -2.671875 L 1.9375 -2.671875 C 2.390625 -2.671875 2.421875 -2.296875 2.421875 -1.8125 L 2.421875 -1.578125 C 2.421875 -1.046875 2.25 -0.484375 1.796875 -0.484375 C 1.359375 -0.484375 0.890625 -0.578125 0.890625 -0.953125 C 0.890625 -1.203125 1.296875 -1.234375 1.296875 -1.484375 C 1.296875 -1.84375 1 -2.140625 0.65625 -2.140625 C 0.296875 -2.140625 0 -1.84375 0 -1.484375 C 0 -0.609375 0.84375 0 1.796875 0 C 2.9375 0 3.875 -0.53125 3.875 -1.578125 C 3.875 -2.53125 2.921875 -2.375 2.921875 -2.96875 Z M 2.921875 -2.96875 "/>
</g>
<g id="glyph-1-4">
<path d="M 1.65625 -5.609375 C 1.5 -5.609375 1.375 -5.453125 1.375 -5.265625 C 1.375 -4.03125 0.8125 -2.90625 0 -2 C -0.015625 -1.984375 -0.03125 -1.921875 -0.03125 -1.875 C -0.03125 -1.671875 0.125 -1.40625 0.609375 -1.40625 L 2.109375 -1.40625 C 2.078125 -0.890625 1.6875 -0.484375 1.203125 -0.484375 C 1.046875 -0.484375 0.96875 -0.375 0.96875 -0.25 C 0.96875 -0.125 1.046875 0 1.203125 0 C 1.75 0 2.28125 -0.15625 2.828125 -0.15625 C 3.375 -0.15625 3.90625 0 4.453125 0 C 4.609375 0 4.703125 -0.125 4.703125 -0.25 C 4.703125 -0.375 4.609375 -0.484375 4.453125 -0.484375 C 3.953125 -0.484375 3.578125 -0.890625 3.5625 -1.40625 L 4.34375 -1.40625 C 4.546875 -1.40625 4.640625 -1.5625 4.640625 -1.703125 C 4.640625 -1.84375 4.546875 -2 4.34375 -2 L 3.5625 -2 L 3.5625 -3.234375 C 3.5625 -3.421875 3.40625 -3.515625 3.296875 -3.515625 C 3.203125 -3.515625 3.125 -3.484375 3.09375 -3.40625 C 3.03125 -3.265625 3.015625 -3.125 2.9375 -3 C 2.65625 -2.5 2.109375 -2.71875 2.109375 -2.046875 L 2.109375 -2 L 0.609375 -2 L 3.5625 -5.265625 C 3.59375 -5.296875 3.609375 -5.328125 3.609375 -5.375 C 3.609375 -5.484375 3.484375 -5.609375 3.3125 -5.609375 C 3.171875 -5.609375 2.8125 -5.4375 2.46875 -5.4375 C 2.109375 -5.4375 1.765625 -5.609375 1.65625 -5.609375 Z M 1.65625 -5.609375 "/>
</g>
<g id="glyph-2-0">
<path d="M 2.59375 -2.5625 C 2.921875 -2.703125 3.0625 -2.796875 3.1875 -2.890625 C 3.484375 -3.109375 3.640625 -3.4375 3.640625 -3.78125 C 3.640625 -4.40625 3.109375 -4.859375 2.375 -4.859375 C 1.484375 -4.859375 0.78125 -4.21875 0.78125 -3.390625 C 0.78125 -2.96875 0.9375 -2.6875 1.3125 -2.421875 C 0.484375 -2.109375 0.0625 -1.609375 0.0625 -0.984375 C 0.0625 -0.3125 0.609375 0.109375 1.484375 0.109375 C 2.5625 0.109375 3.3125 -0.546875 3.3125 -1.4375 C 3.3125 -1.703125 3.234375 -1.953125 3.078125 -2.140625 C 2.984375 -2.28125 2.859375 -2.390625 2.59375 -2.5625 Z M 2.296875 -2.71875 C 1.59375 -3.046875 1.34375 -3.328125 1.34375 -3.71875 C 1.34375 -4.1875 1.765625 -4.5625 2.3125 -4.5625 C 2.796875 -4.5625 3.125 -4.265625 3.125 -3.828125 C 3.125 -3.546875 2.984375 -3.234375 2.765625 -3.015625 C 2.625 -2.875 2.53125 -2.8125 2.296875 -2.71875 Z M 1.5625 -2.234375 C 1.90625 -2.078125 2.015625 -2.03125 2.1875 -1.921875 C 2.53125 -1.71875 2.71875 -1.4375 2.71875 -1.125 C 2.71875 -0.59375 2.21875 -0.203125 1.5625 -0.203125 C 0.984375 -0.203125 0.609375 -0.53125 0.609375 -1.0625 C 0.609375 -1.578125 0.953125 -1.984375 1.5625 -2.234375 Z M 1.5625 -2.234375 "/>
</g>
<g id="glyph-3-0">
<path d="M 2.5 -6.15625 C 1.1875 -6.15625 0.234375 -4.828125 0.234375 -3.015625 C 0.234375 -1.203125 1.1875 0.125 2.5 0.125 C 3.78125 0.125 4.75 -1.203125 4.75 -2.96875 C 4.75 -4 4.515625 -4.765625 4 -5.40625 C 3.59375 -5.90625 3.078125 -6.15625 2.5 -6.15625 Z M 2.484375 -5.703125 C 2.75 -5.703125 2.953125 -5.546875 3.0625 -5.28125 C 3.171875 -4.984375 3.234375 -4.078125 3.234375 -3 C 3.234375 -2.09375 3.171875 -1.15625 3.09375 -0.859375 C 3 -0.515625 2.78125 -0.328125 2.484375 -0.328125 C 2.21875 -0.328125 2.015625 -0.484375 1.921875 -0.765625 C 1.796875 -1.046875 1.734375 -1.96875 1.734375 -3.015625 C 1.734375 -3.9375 1.796875 -4.875 1.875 -5.171875 C 1.96875 -5.53125 2.1875 -5.703125 2.484375 -5.703125 Z M 2.484375 -5.703125 "/>
</g>
<g id="glyph-3-1">
<path d="M 3.234375 -6.15625 L 2.921875 -6.15625 C 2.375 -5.75 1.765625 -5.578125 0.71875 -5.5625 L 0.71875 -5.078125 L 1.09375 -5.078125 C 1.859375 -5.078125 1.875 -5.0625 1.859375 -4.34375 L 1.859375 -1.25 C 1.859375 -0.71875 1.859375 -0.6875 1.796875 -0.59375 C 1.71875 -0.5 1.546875 -0.46875 1.078125 -0.46875 L 0.796875 -0.46875 L 0.796875 0 L 4.265625 0 L 4.265625 -0.46875 L 4 -0.46875 C 3.53125 -0.46875 3.375 -0.5 3.296875 -0.59375 C 3.234375 -0.6875 3.234375 -0.71875 3.234375 -1.25 Z M 3.234375 -6.15625 "/>
</g>
<g id="glyph-3-2">
<path d="M 4.15625 -2.3125 L 4.0625 -1.875 C 3.984375 -1.53125 3.921875 -1.421875 3.859375 -1.375 C 3.765625 -1.3125 3.75 -1.3125 3.203125 -1.3125 L 1.515625 -1.3125 C 1.828125 -1.5625 2.046875 -1.734375 2.390625 -1.953125 C 3.625 -2.75 3.875 -2.9375 4.125 -3.265625 C 4.421875 -3.65625 4.59375 -4.109375 4.59375 -4.53125 C 4.59375 -5.453125 3.6875 -6.15625 2.453125 -6.15625 C 1.265625 -6.15625 0.359375 -5.390625 0.359375 -4.40625 C 0.359375 -3.796875 0.703125 -3.40625 1.21875 -3.40625 C 1.671875 -3.40625 1.953125 -3.6875 1.953125 -4.140625 C 1.953125 -4.515625 1.796875 -4.734375 1.390625 -4.921875 C 1.296875 -4.96875 1.25 -5.015625 1.25 -5.09375 C 1.25 -5.375 1.71875 -5.671875 2.15625 -5.671875 C 2.765625 -5.671875 3.109375 -5.296875 3.109375 -4.640625 C 3.109375 -3.921875 2.84375 -3.40625 1.921875 -2.421875 C 0.9375 -1.390625 0.59375 -1 0.171875 -0.375 L 0.171875 0.03125 C 0.390625 0.015625 0.484375 0 0.625 0 L 3.890625 0 C 4.0625 0 4.15625 0.015625 4.421875 0.03125 L 4.625 -2.3125 Z M 4.15625 -2.3125 "/>
</g>
<g id="glyph-3-3">
<path d="M 3.0625 -3.203125 C 3.390625 -3.296875 3.546875 -3.34375 3.734375 -3.4375 C 4.1875 -3.6875 4.453125 -4.109375 4.453125 -4.625 C 4.453125 -5.546875 3.640625 -6.15625 2.40625 -6.15625 C 1.765625 -6.15625 1.25 -6 0.890625 -5.671875 C 0.59375 -5.421875 0.421875 -5.0625 0.421875 -4.71875 C 0.421875 -4.265625 0.765625 -3.9375 1.203125 -3.9375 C 1.625 -3.9375 1.921875 -4.21875 1.921875 -4.625 C 1.921875 -4.859375 1.8125 -5.046875 1.578125 -5.28125 C 1.53125 -5.3125 1.515625 -5.34375 1.515625 -5.375 C 1.515625 -5.546875 1.84375 -5.703125 2.171875 -5.703125 C 2.71875 -5.703125 3.046875 -5.3125 3.046875 -4.625 C 3.046875 -3.875 2.796875 -3.40625 2.375 -3.40625 C 2.296875 -3.40625 2.203125 -3.421875 2.078125 -3.453125 C 1.875 -3.5 1.8125 -3.5 1.71875 -3.5 C 1.5 -3.5 1.40625 -3.40625 1.40625 -3.21875 C 1.40625 -3.015625 1.53125 -2.890625 1.71875 -2.890625 C 1.78125 -2.890625 1.828125 -2.890625 1.96875 -2.921875 C 2.171875 -2.9375 2.234375 -2.9375 2.28125 -2.9375 C 2.828125 -2.9375 3.09375 -2.53125 3.09375 -1.703125 C 3.09375 -0.828125 2.734375 -0.328125 2.09375 -0.328125 C 1.71875 -0.328125 1.34375 -0.515625 1.34375 -0.703125 C 1.34375 -0.75 1.359375 -0.796875 1.421875 -0.859375 C 1.6875 -1.09375 1.734375 -1.203125 1.734375 -1.46875 C 1.734375 -1.875 1.421875 -2.1875 0.984375 -2.1875 C 0.515625 -2.1875 0.203125 -1.84375 0.203125 -1.359375 C 0.203125 -0.484375 1.0625 0.125 2.3125 0.125 C 2.953125 0.125 3.546875 -0.03125 3.953125 -0.3125 C 4.359375 -0.59375 4.609375 -1.125 4.609375 -1.6875 C 4.609375 -2.234375 4.375 -2.703125 3.96875 -2.9375 C 3.71875 -3.078125 3.515625 -3.140625 3.0625 -3.203125 Z M 3.0625 -3.203125 "/>
</g>
<g id="glyph-3-4">
<path d="M 3.875 -2.15625 L 3.875 -4.84375 C 3.875 -4.96875 3.90625 -5.53125 3.9375 -6.15625 L 3.328125 -6.15625 L 0.171875 -2.21875 L 0.171875 -1.578125 L 2.515625 -1.578125 L 2.515625 -1.25 C 2.515625 -0.71875 2.515625 -0.671875 2.453125 -0.59375 C 2.390625 -0.5 2.203125 -0.46875 1.796875 -0.46875 L 1.703125 -0.46875 L 1.703125 0 L 4.671875 0 L 4.671875 -0.46875 L 4.5625 -0.46875 C 4.1875 -0.484375 4 -0.515625 3.9375 -0.59375 C 3.875 -0.6875 3.875 -0.71875 3.875 -1.25 L 3.875 -1.578125 L 4.75 -1.578125 L 4.75 -2.15625 Z M 2.515625 -2.15625 L 0.796875 -2.15625 L 2.515625 -4.328125 Z M 2.515625 -2.15625 "/>
</g>
<g id="glyph-3-5">
<path d="M 0.71875 -3.3125 C 0.515625 -3.09375 0.5 -3.0625 0.5 -2.921875 C 0.5 -2.734375 0.640625 -2.59375 0.8125 -2.59375 C 1.015625 -2.59375 1.171875 -2.75 1.171875 -2.9375 C 1.171875 -2.96875 1.171875 -3.03125 1.15625 -3.078125 C 1.421875 -3.296875 1.765625 -3.40625 2.125 -3.40625 C 2.78125 -3.40625 3.109375 -2.9375 3.109375 -2 C 3.109375 -0.9375 2.734375 -0.375 2.03125 -0.375 C 1.640625 -0.375 1.265625 -0.5625 1.265625 -0.734375 C 1.265625 -0.796875 1.296875 -0.8125 1.375 -0.859375 C 1.71875 -1.03125 1.84375 -1.1875 1.84375 -1.484375 C 1.84375 -1.921875 1.546875 -2.203125 1.109375 -2.203125 C 0.59375 -2.203125 0.265625 -1.859375 0.265625 -1.3125 C 0.265625 -0.4375 1.046875 0.125 2.25 0.125 C 3.6875 0.125 4.65625 -0.75 4.65625 -2.03125 C 4.65625 -3.171875 3.75 -4 2.484375 -4 C 2.078125 -4 1.8125 -3.9375 1.234375 -3.671875 L 1.359375 -4.796875 C 1.78125 -4.703125 2.125 -4.671875 2.46875 -4.671875 C 3.1875 -4.671875 3.78125 -4.90625 4.109375 -5.328125 C 4.265625 -5.546875 4.40625 -5.875 4.40625 -6.0625 C 4.40625 -6.125 4.375 -6.15625 4.328125 -6.15625 C 4.296875 -6.15625 4.25 -6.15625 4.1875 -6.140625 C 3.875 -6.0625 3.3125 -6.015625 2.625 -6.015625 C 1.890625 -6.015625 1.453125 -6.046875 0.921875 -6.15625 C 0.875 -5.4375 0.875 -5.359375 0.78125 -3.9375 Z M 0.71875 -3.3125 "/>
</g>
<g id="glyph-3-6">
<path d="M 1.765625 -3.140625 C 1.765625 -3.5625 1.84375 -4.25 1.9375 -4.609375 C 2.125 -5.328125 2.46875 -5.703125 2.90625 -5.703125 C 3.125 -5.703125 3.28125 -5.625 3.28125 -5.515625 C 3.28125 -5.453125 3.265625 -5.421875 3.21875 -5.34375 C 3.09375 -5.203125 3.03125 -5 3.03125 -4.828125 C 3.03125 -4.4375 3.34375 -4.15625 3.796875 -4.15625 C 4.296875 -4.15625 4.609375 -4.46875 4.609375 -4.9375 C 4.609375 -5.6875 3.984375 -6.15625 2.984375 -6.15625 C 2.15625 -6.15625 1.5 -5.84375 1 -5.171875 C 0.484375 -4.5 0.25 -3.703125 0.25 -2.65625 C 0.25 -1.796875 0.4375 -1.171875 0.84375 -0.671875 C 1.265625 -0.140625 1.859375 0.125 2.5625 0.125 C 3.84375 0.125 4.78125 -0.734375 4.78125 -1.9375 C 4.78125 -2.984375 4.0625 -3.71875 3.03125 -3.71875 C 2.46875 -3.71875 2.125 -3.5625 1.765625 -3.140625 Z M 2.578125 -3.0625 C 3.03125 -3.046875 3.265625 -2.625 3.265625 -1.84375 C 3.265625 -0.828125 3.015625 -0.28125 2.546875 -0.28125 C 2.078125 -0.28125 1.8125 -0.796875 1.8125 -1.6875 C 1.8125 -2 1.84375 -2.265625 1.875 -2.46875 C 1.96875 -2.84375 2.25 -3.078125 2.578125 -3.0625 Z M 2.578125 -3.0625 "/>
</g>
<g id="glyph-3-7">
<path d="M 4.75 -6.15625 C 4.171875 -6.0625 3.6875 -6.046875 2.78125 -6.046875 C 1.953125 -6.046875 1.625 -6.0625 0.6875 -6.15625 L 0.390625 -3.5625 L 0.875 -3.5 L 0.953125 -3.90625 C 1.125 -4.671875 1.1875 -4.78125 1.5 -4.78125 C 1.53125 -4.78125 1.578125 -4.78125 1.640625 -4.765625 C 1.890625 -4.765625 2.421875 -4.75 2.640625 -4.75 C 2.71875 -4.75 3.015625 -4.75 3.453125 -4.765625 L 3.78125 -4.765625 L 3.1875 -3.890625 L 2.765625 -3.21875 C 2.078125 -2.15625 2.078125 -2.15625 1.875 -1.671875 C 1.703125 -1.28125 1.625 -1 1.625 -0.734375 C 1.625 -0.203125 1.9375 0.125 2.421875 0.125 C 2.96875 0.125 3.296875 -0.21875 3.296875 -0.828125 C 3.28125 -2.453125 3.453125 -3.03125 4.75 -5.796875 Z M 4.75 -6.15625 "/>
</g>
<g id="glyph-3-8">
<path d="M 3.5 -3.578125 C 3.765625 -3.671875 3.875 -3.734375 4 -3.828125 C 4.34375 -4.0625 4.53125 -4.40625 4.53125 -4.828125 C 4.53125 -5.625 3.78125 -6.15625 2.640625 -6.15625 C 1.296875 -6.15625 0.421875 -5.4375 0.421875 -4.3125 C 0.421875 -3.625 0.75 -3.109375 1.4375 -2.75 C 1.171875 -2.65625 1.046875 -2.625 0.90625 -2.546875 C 0.46875 -2.328125 0.234375 -1.921875 0.234375 -1.421875 C 0.234375 -0.484375 1.078125 0.125 2.40625 0.125 C 3.796875 0.125 4.75 -0.671875 4.75 -1.875 C 4.75 -2.6875 4.359375 -3.234375 3.5 -3.578125 Z M 3.015625 -3.765625 C 2.65625 -3.84375 2.390625 -3.921875 2.21875 -3.984375 C 1.8125 -4.140625 1.5625 -4.484375 1.5625 -4.875 C 1.5625 -5.359375 1.953125 -5.703125 2.5 -5.703125 C 3.078125 -5.703125 3.453125 -5.328125 3.453125 -4.71875 C 3.453125 -4.328125 3.296875 -4 3.015625 -3.765625 Z M 1.90625 -2.515625 C 2.265625 -2.421875 2.703125 -2.28125 2.921875 -2.21875 C 3.46875 -2.03125 3.671875 -1.796875 3.671875 -1.34375 C 3.671875 -0.75 3.1875 -0.328125 2.5 -0.328125 C 1.796875 -0.328125 1.359375 -0.75 1.359375 -1.4375 C 1.359375 -1.90625 1.515625 -2.203125 1.90625 -2.515625 Z M 1.90625 -2.515625 "/>
</g>
<g id="glyph-3-9">
<path d="M 3.21875 -2.859375 C 3.21875 -2.109375 3.15625 -1.65625 3.03125 -1.25 C 2.828125 -0.625 2.515625 -0.328125 2.015625 -0.328125 C 1.828125 -0.328125 1.71875 -0.390625 1.71875 -0.5 C 1.71875 -0.5625 1.734375 -0.609375 1.78125 -0.65625 C 1.9375 -0.90625 1.953125 -0.96875 1.953125 -1.15625 C 1.953125 -1.578125 1.65625 -1.859375 1.21875 -1.859375 C 0.734375 -1.859375 0.390625 -1.5 0.390625 -0.984375 C 0.390625 -0.3125 1.03125 0.125 2.015625 0.125 C 2.90625 0.125 3.625 -0.25 4.09375 -0.9375 C 4.515625 -1.578125 4.75 -2.40625 4.75 -3.359375 C 4.75 -4.15625 4.5625 -4.75 4.203125 -5.25 C 3.765625 -5.84375 3.125 -6.15625 2.390625 -6.15625 C 1.125 -6.15625 0.21875 -5.28125 0.21875 -4.078125 C 0.21875 -3.046875 0.953125 -2.28125 1.9375 -2.28125 C 2.484375 -2.28125 2.84375 -2.453125 3.21875 -2.859375 Z M 2.46875 -5.703125 C 2.6875 -5.703125 2.875 -5.5625 2.984375 -5.3125 C 3.09375 -5.0625 3.171875 -4.609375 3.171875 -4.1875 C 3.171875 -3.421875 2.890625 -2.9375 2.453125 -2.9375 C 2.203125 -2.9375 1.96875 -3.09375 1.875 -3.3125 C 1.765625 -3.53125 1.71875 -3.84375 1.71875 -4.265625 C 1.71875 -5.21875 1.96875 -5.703125 2.46875 -5.703125 Z M 2.46875 -5.703125 "/>
</g>
</g>
</defs>
<path fill="none" stroke-width="4.98132" stroke-linecap="round" stroke-linejoin="miter" stroke="rgb(0%, 0%, 0%)" stroke-opacity="1" stroke-miterlimit="10" d="M 711.132812 7218.828125 L 4981.289062 7218.828125 " transform="matrix(0.1, 0, 0, -0.1, -60, 833)"/>
<path fill="none" stroke-width="4.98132" stroke-linecap="round" stroke-linejoin="miter" stroke="rgb(0%, 0%, 0%)" stroke-opacity="1" stroke-miterlimit="10" d="M 711.132812 7293.554688 L 4981.289062 7293.554688 " transform="matrix(0.1, 0, 0, -0.1, -60, 833)"/>
<path fill="none" stroke-width="4.98132" stroke-linecap="round" stroke-linejoin="miter" stroke="rgb(0%, 0%, 0%)" stroke-opacity="1" stroke-miterlimit="10" d="M 711.132812 7368.242188 L 4981.289062 7368.242188 " transform="matrix(0.1, 0, 0, -0.1, -60, 833)"/>
<path fill="none" stroke-width="4.98132" stroke-linecap="round" stroke-linejoin="miter" stroke="rgb(0%, 0%, 0%)" stroke-opacity="1" stroke-miterlimit="10" d="M 711.132812 7442.96875 L 4981.289062 7442.96875 " transform="matrix(0.1, 0, 0, -0.1, -60, 833)"/>
<path fill="none" stroke-width="4.98132" stroke-linecap="round" stroke-linejoin="miter" stroke="rgb(0%, 0%, 0%)" stroke-opacity="1" stroke-miterlimit="10" d="M 711.132812 7517.695312 L 4981.289062 7517.695312 " transform="matrix(0.1, 0, 0, -0.1, -60, 833)"/>
<path fill="none" stroke-width="4.98132" stroke-linecap="round" stroke-linejoin="miter" stroke="rgb(0%, 0%, 0%)" stroke-opacity="1" stroke-miterlimit="10" d="M 711.132812 7592.421875 L 4981.289062 7592.421875 " transform="matrix(0.1, 0, 0, -0.1, -60, 833)"/>
<path fill="none" stroke-width="4.98132" stroke-linecap="round" stroke-linejoin="miter" stroke="rgb(0%, 0%, 0%)" stroke-opacity="1" stroke-miterlimit="10" d="M 711.132812 7770.664062 L 4981.289062 7770.664062 " transform="matrix(0.1, 0, 0, -0.1, -60, 833)"/>
<path fill="none" stroke-width="4.98132" stroke-linecap="round" stroke-linejoin="miter" stroke="rgb(0%, 0%, 0%)" stroke-opacity="1" stroke-miterlimit="10" d="M 711.132812 7820.507812 L 4981.289062 7820.507812 " transform="matrix(0.1, 0, 0, -0.1, -60, 833)"/>
<path fill="none" stroke-width="4.98132" stroke-linecap="round" stroke-linejoin="miter" stroke="rgb(0%, 0%, 0%)" stroke-opacity="1" stroke-miterlimit="10" d="M 711.132812 7870.3125 L 4981.289062 7870.3125 " transform="matrix(0.1, 0, 0, -0.1, -60, 833)"/>
<path fill="none" stroke-width="4.98132" stroke-linecap="round" stroke-linejoin="miter" stroke="rgb(0%, 0%, 0%)" stroke-opacity="1" stroke-miterlimit="10" d="M 711.132812 7920.117188 L 4981.289062 7920.117188 " transform="matrix(0.1, 0, 0, -0.1, -60, 833)"/>
<path fill="none" stroke-width="4.98132" stroke-linecap="round" stroke-linejoin="miter" stroke="rgb(0%, 0%, 0%)" stroke-opacity="1" stroke-miterlimit="10" d="M 711.132812 7969.921875 L 4981.289062 7969.921875 " transform="matrix(0.1, 0, 0, -0.1, -60, 833)"/>
<path fill="none" stroke-width="9.96264" stroke-linecap="round" stroke-linejoin="miter" stroke="rgb(0%, 0%, 0%)" stroke-opacity="1" stroke-miterlimit="10" d="M 4239.609375 8019.726562 L 4319.53125 8019.726562 " transform="matrix(0.1, 0, 0, -0.1, -60, 833)"/>
<path fill="none" stroke-width="9.96264" stroke-linecap="round" stroke-linejoin="miter" stroke="rgb(0%, 0%, 0%)" stroke-opacity="1" stroke-miterlimit="10" d="M 4080.742188 8019.726562 L 4161.445312 8019.726562 " transform="matrix(0.1, 0, 0, -0.1, -60, 833)"/>
<path fill="none" stroke-width="9.96264" stroke-linecap="round" stroke-linejoin="miter" stroke="rgb(0%, 0%, 0%)" stroke-opacity="1" stroke-miterlimit="10" d="M 3934.492188 8019.726562 L 4014.492188 8019.726562 " transform="matrix(0.1, 0, 0, -0.1, -60, 833)"/>
<path fill="none" stroke-width="9.96264" stroke-linecap="round" stroke-linejoin="miter" stroke="rgb(0%, 0%, 0%)" stroke-opacity="1" stroke-miterlimit="10" d="M 3768.867188 8019.726562 L 3856.367188 8019.726562 " transform="matrix(0.1, 0, 0, -0.1, -60, 833)"/>
<path fill="none" stroke-width="9.96264" stroke-linecap="round" stroke-linejoin="miter" stroke="rgb(0%, 0%, 0%)" stroke-opacity="1" stroke-miterlimit="10" d="M 3631.484375 8069.53125 L 3712.148438 8069.53125 " transform="matrix(0.1, 0, 0, -0.1, -60, 833)"/>
<path fill="none" stroke-width="9.96264" stroke-linecap="round" stroke-linejoin="miter" stroke="rgb(0%, 0%, 0%)" stroke-opacity="1" stroke-miterlimit="10" d="M 3624.6875 8019.726562 L 3712.148438 8019.726562 " transform="matrix(0.1, 0, 0, -0.1, -60, 833)"/>
<path fill="none" stroke-width="9.96264" stroke-linecap="round" stroke-linejoin="miter" stroke="rgb(0%, 0%, 0%)" stroke-opacity="1" stroke-miterlimit="10" d="M 3485.234375 8069.53125 L 3565.195312 8069.53125 " transform="matrix(0.1, 0, 0, -0.1, -60, 833)"/>
<path fill="none" stroke-width="9.96264" stroke-linecap="round" stroke-linejoin="miter" stroke="rgb(0%, 0%, 0%)" stroke-opacity="1" stroke-miterlimit="10" d="M 3477.695312 8019.726562 L 3565.195312 8019.726562 " transform="matrix(0.1, 0, 0, -0.1, -60, 833)"/>
<path fill="none" stroke-width="9.96264" stroke-linecap="round" stroke-linejoin="miter" stroke="rgb(0%, 0%, 0%)" stroke-opacity="1" stroke-miterlimit="10" d="M 3326.40625 8069.53125 L 3407.070312 8069.53125 " transform="matrix(0.1, 0, 0, -0.1, -60, 833)"/>
<path fill="none" stroke-width="9.96264" stroke-linecap="round" stroke-linejoin="miter" stroke="rgb(0%, 0%, 0%)" stroke-opacity="1" stroke-miterlimit="10" d="M 3319.609375 8019.726562 L 3407.070312 8019.726562 " transform="matrix(0.1, 0, 0, -0.1, -60, 833)"/>
<path fill="none" stroke-width="9.96264" stroke-linecap="round" stroke-linejoin="miter" stroke="rgb(0%, 0%, 0%)" stroke-opacity="1" stroke-miterlimit="10" d="M 3170.585938 8119.375 L 3250.546875 8119.375 " transform="matrix(0.1, 0, 0, -0.1, -60, 833)"/>
<path fill="none" stroke-width="9.96264" stroke-linecap="round" stroke-linejoin="miter" stroke="rgb(0%, 0%, 0%)" stroke-opacity="1" stroke-miterlimit="10" d="M 3163.085938 8069.53125 L 3250.546875 8069.53125 " transform="matrix(0.1, 0, 0, -0.1, -60, 833)"/>
<path fill="none" stroke-width="9.96264" stroke-linecap="round" stroke-linejoin="miter" stroke="rgb(0%, 0%, 0%)" stroke-opacity="1" stroke-miterlimit="10" d="M 3163.085938 8019.726562 L 3250.546875 8019.726562 " transform="matrix(0.1, 0, 0, -0.1, -60, 833)"/>
<path fill="none" stroke-width="9.96264" stroke-linecap="round" stroke-linejoin="miter" stroke="rgb(0%, 0%, 0%)" stroke-opacity="1" stroke-miterlimit="10" d="M 3004.960938 8119.375 L 3092.421875 8119.375 " transform="matrix(0.1, 0, 0, -0.1, -60, 833)"/>
<path fill="none" stroke-width="9.96264" stroke-linecap="round" stroke-linejoin="miter" stroke="rgb(0%, 0%, 0%)" stroke-opacity="1" stroke-miterlimit="10" d="M 3004.960938 8069.53125 L 3092.421875 8069.53125 " transform="matrix(0.1, 0, 0, -0.1, -60, 833)"/>
<path fill="none" stroke-width="9.96264" stroke-linecap="round" stroke-linejoin="miter" stroke="rgb(0%, 0%, 0%)" stroke-opacity="1" stroke-miterlimit="10" d="M 3004.960938 8019.726562 L 3092.421875 8019.726562 " transform="matrix(0.1, 0, 0, -0.1, -60, 833)"/>
<path fill="none" stroke-width="9.96264" stroke-linecap="round" stroke-linejoin="miter" stroke="rgb(0%, 0%, 0%)" stroke-opacity="1" stroke-miterlimit="10" d="M 2848.4375 8119.375 L 2935.898438 8119.375 " transform="matrix(0.1, 0, 0, -0.1, -60, 833)"/>
<path fill="none" stroke-width="9.96264" stroke-linecap="round" stroke-linejoin="miter" stroke="rgb(0%, 0%, 0%)" stroke-opacity="1" stroke-miterlimit="10" d="M 2848.4375 8069.53125 L 2935.898438 8069.53125 " transform="matrix(0.1, 0, 0, -0.1, -60, 833)"/>
<path fill="none" stroke-width="9.96264" stroke-linecap="round" stroke-linejoin="miter" stroke="rgb(0%, 0%, 0%)" stroke-opacity="1" stroke-miterlimit="10" d="M 2848.4375 8019.726562 L 2935.898438 8019.726562 " transform="matrix(0.1, 0, 0, -0.1, -60, 833)"/>
<path fill="none" stroke-width="9.96264" stroke-linecap="round" stroke-linejoin="miter" stroke="rgb(0%, 0%, 0%)" stroke-opacity="1" stroke-miterlimit="10" d="M 2699.414062 8069.53125 L 2779.375 8069.53125 " transform="matrix(0.1, 0, 0, -0.1, -60, 833)"/>
<path fill="none" stroke-width="9.96264" stroke-linecap="round" stroke-linejoin="miter" stroke="rgb(0%, 0%, 0%)" stroke-opacity="1" stroke-miterlimit="10" d="M 2691.914062 8019.726562 L 2779.375 8019.726562 " transform="matrix(0.1, 0, 0, -0.1, -60, 833)"/>
<path fill="none" stroke-width="9.96264" stroke-linecap="round" stroke-linejoin="miter" stroke="rgb(0%, 0%, 0%)" stroke-opacity="1" stroke-miterlimit="10" d="M 2524.804688 8069.53125 L 2612.304688 8069.53125 " transform="matrix(0.1, 0, 0, -0.1, -60, 833)"/>
<path fill="none" stroke-width="9.96264" stroke-linecap="round" stroke-linejoin="miter" stroke="rgb(0%, 0%, 0%)" stroke-opacity="1" stroke-miterlimit="10" d="M 2524.804688 8019.726562 L 2612.304688 8019.726562 " transform="matrix(0.1, 0, 0, -0.1, -60, 833)"/>
<path fill="none" stroke-width="9.96264" stroke-linecap="round" stroke-linejoin="miter" stroke="rgb(0%, 0%, 0%)" stroke-opacity="1" stroke-miterlimit="10" d="M 2388.125 8069.53125 L 2468.125 8069.53125 " transform="matrix(0.1, 0, 0, -0.1, -60, 833)"/>
<path fill="none" stroke-width="9.96264" stroke-linecap="round" stroke-linejoin="miter" stroke="rgb(0%, 0%, 0%)" stroke-opacity="1" stroke-miterlimit="10" d="M 2380.625 8019.726562 L 2468.125 8019.726562 " transform="matrix(0.1, 0, 0, -0.1, -60, 833)"/>
<path fill="none" stroke-width="9.96264" stroke-linecap="round" stroke-linejoin="miter" stroke="rgb(0%, 0%, 0%)" stroke-opacity="1" stroke-miterlimit="10" d="M 2213.554688 8069.53125 L 2301.015625 8069.53125 " transform="matrix(0.1, 0, 0, -0.1, -60, 833)"/>
<path fill="none" stroke-width="9.96264" stroke-linecap="round" stroke-linejoin="miter" stroke="rgb(0%, 0%, 0%)" stroke-opacity="1" stroke-miterlimit="10" d="M 2213.554688 8019.726562 L 2301.015625 8019.726562 " transform="matrix(0.1, 0, 0, -0.1, -60, 833)"/>
<path fill="none" stroke-width="9.96264" stroke-linecap="round" stroke-linejoin="miter" stroke="rgb(0%, 0%, 0%)" stroke-opacity="1" stroke-miterlimit="10" d="M 2069.335938 8019.726562 L 2156.835938 8019.726562 " transform="matrix(0.1, 0, 0, -0.1, -60, 833)"/>
<path fill="none" stroke-width="9.96264" stroke-linecap="round" stroke-linejoin="miter" stroke="rgb(0%, 0%, 0%)" stroke-opacity="1" stroke-miterlimit="10" d="M 1932.65625 8019.726562 L 2012.617188 8019.726562 " transform="matrix(0.1, 0, 0, -0.1, -60, 833)"/>
<path fill="none" stroke-width="9.96264" stroke-linecap="round" stroke-linejoin="miter" stroke="rgb(0%, 0%, 0%)" stroke-opacity="1" stroke-miterlimit="10" d="M 1758.046875 8019.726562 L 1845.546875 8019.726562 " transform="matrix(0.1, 0, 0, -0.1, -60, 833)"/>
<g fill="rgb(0%, 0%, 0%)" fill-opacity="1">
<use xlink:href="#glyph-0-0" x="225.968" y="21.063"/>
</g>
<path fill="none" stroke-width="4.98132" stroke-linecap="butt" stroke-linejoin="round" stroke="rgb(0%, 0%, 0%)" stroke-opacity="1" stroke-miterlimit="10" d="M 708.164062 7218.828125 L 711.132812 7218.828125 L 711.132812 7969.921875 L 708.164062 7969.921875 Z M 708.164062 7218.828125 " transform="matrix(0.1, 0, 0, -0.1, -60, 833)"/>
<path fill-rule="nonzero" fill="rgb(0%, 0%, 0%)" fill-opacity="1" d="M 10.816406 111.117188 L 11.113281 111.117188 L 11.113281 36.007812 L 10.816406 36.007812 Z M 10.816406 111.117188 "/>
<g fill="rgb(0%, 0%, 0%)" fill-opacity="1">
<use xlink:href="#glyph-0-0" x="40.256" y="38.498"/>
</g>
<g fill="rgb(0%, 0%, 0%)" fill-opacity="1">
<use xlink:href="#glyph-1-0" x="41.37866" y="33.26753"/>
</g>
<g fill="rgb(0%, 0%, 0%)" fill-opacity="1">
<use xlink:href="#glyph-0-1" x="43.50444" y="26.67925"/>
</g>
<g fill="rgb(0%, 0%, 0%)" fill-opacity="1">
<use xlink:href="#glyph-0-2" x="14.85134" y="50.95155"/>
</g>
<g fill="rgb(0%, 0%, 0%)" fill-opacity="1">
<use xlink:href="#glyph-2-0" x="18.00603" y="68.42425"/>
</g>
<path fill-rule="nonzero" fill="rgb(100%, 100%, 100%)" fill-opacity="1" d="M 40.75 76.898438 L 45.679688 76.898438 L 45.679688 70.617188 L 40.75 70.617188 Z M 40.75 76.898438 "/>
<g fill="rgb(0%, 0%, 0%)" fill-opacity="1">
<use xlink:href="#glyph-3-0" x="40.749" y="76.776"/>
</g>
<g fill="rgb(0%, 0%, 0%)" fill-opacity="1">
<use xlink:href="#glyph-0-3" x="14.851" y="92.4377"/>
</g>
<path fill="none" stroke-width="3.98506" stroke-linecap="butt" stroke-linejoin="round" stroke="rgb(0%, 0%, 0%)" stroke-opacity="1" stroke-miterlimit="10" d="M 1004.53125 7772.65625 L 1007.03125 7772.65625 L 1007.03125 7933.75 L 1004.53125 7933.75 Z M 1004.53125 7772.65625 " transform="matrix(0.1, 0, 0, -0.1, -60, 833)"/>
<path fill-rule="nonzero" fill="rgb(0%, 0%, 0%)" fill-opacity="1" d="M 40.453125 55.734375 L 40.703125 55.734375 L 40.703125 39.625 L 40.453125 39.625 Z M 40.453125 55.734375 "/>
<g fill="rgb(0%, 0%, 0%)" fill-opacity="1">
<use xlink:href="#glyph-0-0" x="54.675" y="36.007"/>
</g>
<g fill="rgb(0%, 0%, 0%)" fill-opacity="1">
<use xlink:href="#glyph-1-1" x="55.88242" y="30.80153"/>
</g>
<g fill="rgb(0%, 0%, 0%)" fill-opacity="1">
<use xlink:href="#glyph-0-1" x="57.92344" y="24.14645"/>
</g>
<path fill-rule="nonzero" fill="rgb(100%, 100%, 100%)" fill-opacity="1" d="M 55.167969 76.835938 L 60.101562 76.835938 L 60.101562 70.679688 L 55.167969 70.679688 Z M 55.167969 76.835938 "/>
<g fill="rgb(0%, 0%, 0%)" fill-opacity="1">
<use xlink:href="#glyph-3-1" x="55.169" y="76.837"/>
</g>
<path fill="none" stroke-width="3.98506" stroke-linecap="butt" stroke-linejoin="round" stroke="rgb(0%, 0%, 0%)" stroke-opacity="1" stroke-miterlimit="10" d="M 1148.75 7797.578125 L 1151.25 7797.578125 L 1151.25 7958.671875 L 1148.75 7958.671875 Z M 1148.75 7797.578125 " transform="matrix(0.1, 0, 0, -0.1, -60, 833)"/>
<path fill-rule="nonzero" fill="rgb(0%, 0%, 0%)" fill-opacity="1" d="M 54.875 53.242188 L 55.125 53.242188 L 55.125 37.132812 L 54.875 37.132812 Z M 54.875 53.242188 "/>
<g fill="rgb(0%, 0%, 0%)" fill-opacity="1">
<use xlink:href="#glyph-0-0" x="71.384" y="36.007"/>
</g>
<g fill="rgb(0%, 0%, 0%)" fill-opacity="1">
<use xlink:href="#glyph-1-2" x="72.50627" y="30.80153"/>
</g>
<g fill="rgb(0%, 0%, 0%)" fill-opacity="1">
<use xlink:href="#glyph-0-1" x="74.63205" y="24.21325"/>
</g>
<path fill-rule="nonzero" fill="rgb(100%, 100%, 100%)" fill-opacity="1" d="M 71.878906 76.855469 L 76.808594 76.855469 L 76.808594 70.664062 L 71.878906 70.664062 Z M 71.878906 76.855469 "/>
<g fill="rgb(0%, 0%, 0%)" fill-opacity="1">
<use xlink:href="#glyph-3-2" x="71.877" y="76.82"/>
</g>
<path fill="none" stroke-width="3.98506" stroke-linecap="butt" stroke-linejoin="round" stroke="rgb(0%, 0%, 0%)" stroke-opacity="1" stroke-miterlimit="10" d="M 1315.820312 7797.578125 L 1318.320312 7797.578125 L 1318.320312 7958.671875 L 1315.820312 7958.671875 Z M 1315.820312 7797.578125 " transform="matrix(0.1, 0, 0, -0.1, -60, 833)"/>
<path fill-rule="nonzero" fill="rgb(0%, 0%, 0%)" fill-opacity="1" d="M 71.582031 53.242188 L 71.832031 53.242188 L 71.832031 37.132812 L 71.582031 37.132812 Z M 71.582031 53.242188 "/>
<g fill="rgb(0%, 0%, 0%)" fill-opacity="1">
<use xlink:href="#glyph-0-4" x="64.161" y="36.007"/>
</g>
<g fill="rgb(0%, 0%, 0%)" fill-opacity="1">
<use xlink:href="#glyph-0-0" x="85.804" y="33.51637"/>
</g>
<g fill="rgb(0%, 0%, 0%)" fill-opacity="1">
<use xlink:href="#glyph-1-3" x="87.0958" y="28.3109"/>
</g>
<g fill="rgb(0%, 0%, 0%)" fill-opacity="1">
<use xlink:href="#glyph-0-1" x="89.05205" y="21.72262"/>
</g>
<path fill-rule="nonzero" fill="rgb(100%, 100%, 100%)" fill-opacity="1" d="M 86.296875 76.898438 L 91.230469 76.898438 L 91.230469 70.617188 L 86.296875 70.617188 Z M 86.296875 76.898438 "/>
<g fill="rgb(0%, 0%, 0%)" fill-opacity="1">
<use xlink:href="#glyph-3-3" x="86.297" y="76.776"/>
</g>
<path fill="none" stroke-width="3.98506" stroke-linecap="butt" stroke-linejoin="round" stroke="rgb(0%, 0%, 0%)" stroke-opacity="1" stroke-miterlimit="10" d="M 1460.039062 7822.460938 L 1462.5 7822.460938 L 1462.5 7983.554688 L 1460.039062 7983.554688 Z M 1460.039062 7822.460938 " transform="matrix(0.1, 0, 0, -0.1, -60, 833)"/>
<path fill-rule="nonzero" fill="rgb(0%, 0%, 0%)" fill-opacity="1" d="M 86.003906 50.753906 L 86.25 50.753906 L 86.25 34.644531 L 86.003906 34.644531 Z M 86.003906 50.753906 "/>
<g fill="rgb(0%, 0%, 0%)" fill-opacity="1">
<use xlink:href="#glyph-0-0" x="102.512" y="33.516"/>
</g>
<g fill="rgb(0%, 0%, 0%)" fill-opacity="1">
<use xlink:href="#glyph-1-4" x="103.463953" y="28.31053"/>
</g>
<path fill-rule="nonzero" fill="rgb(100%, 100%, 100%)" fill-opacity="1" d="M 103.003906 76.835938 L 107.9375 76.835938 L 107.9375 70.679688 L 103.003906 70.679688 Z M 103.003906 76.835938 "/>
<g fill="rgb(0%, 0%, 0%)" fill-opacity="1">
<use xlink:href="#glyph-3-4" x="103.005" y="76.837"/>
</g>
<path fill="none" stroke-width="3.98506" stroke-linecap="butt" stroke-linejoin="round" stroke="rgb(0%, 0%, 0%)" stroke-opacity="1" stroke-miterlimit="10" d="M 1627.109375 7822.460938 L 1629.609375 7822.460938 L 1629.609375 7983.554688 L 1627.109375 7983.554688 Z M 1627.109375 7822.460938 " transform="matrix(0.1, 0, 0, -0.1, -60, 833)"/>
<path fill-rule="nonzero" fill="rgb(0%, 0%, 0%)" fill-opacity="1" d="M 102.710938 50.753906 L 102.960938 50.753906 L 102.960938 34.644531 L 102.710938 34.644531 Z M 102.710938 50.753906 "/>
<g fill="rgb(0%, 0%, 0%)" fill-opacity="1">
<use xlink:href="#glyph-0-4" x="95.289" y="33.516"/>
</g>
<path fill="none" stroke-width="3.98506" stroke-linecap="butt" stroke-linejoin="round" stroke="rgb(0%, 0%, 0%)" stroke-opacity="1" stroke-miterlimit="10" d="M 4841.5625 7772.65625 L 4844.023438 7772.65625 L 4844.023438 7933.75 L 4841.5625 7933.75 Z M 4841.5625 7772.65625 " transform="matrix(0.1, 0, 0, -0.1, -60, 833)"/>
<path fill-rule="nonzero" fill="rgb(0%, 0%, 0%)" fill-opacity="1" d="M 424.15625 55.734375 L 424.402344 55.734375 L 424.402344 39.625 L 424.15625 39.625 Z M 424.15625 55.734375 "/>
<g fill="rgb(0%, 0%, 0%)" fill-opacity="1">
<use xlink:href="#glyph-0-0" x="116.932" y="31.026"/>
</g>
<g fill="rgb(0%, 0%, 0%)" fill-opacity="1">
<use xlink:href="#glyph-1-1" x="118.13942" y="25.82053"/>
</g>
<path fill-rule="nonzero" fill="rgb(100%, 100%, 100%)" fill-opacity="1" d="M 117.425781 76.898438 L 122.355469 76.898438 L 122.355469 70.617188 L 117.425781 70.617188 Z M 117.425781 76.898438 "/>
<g fill="rgb(0%, 0%, 0%)" fill-opacity="1">
<use xlink:href="#glyph-3-5" x="117.425" y="76.776"/>
</g>
<path fill="none" stroke-width="3.98506" stroke-linecap="butt" stroke-linejoin="round" stroke="rgb(0%, 0%, 0%)" stroke-opacity="1" stroke-miterlimit="10" d="M 1771.328125 7847.382812 L 1773.789062 7847.382812 L 1773.789062 8008.476562 L 1771.328125 8008.476562 Z M 1771.328125 7847.382812 " transform="matrix(0.1, 0, 0, -0.1, -60, 833)"/>
<path fill-rule="nonzero" fill="rgb(0%, 0%, 0%)" fill-opacity="1" d="M 117.128906 48.261719 L 117.378906 48.261719 L 117.378906 32.152344 L 117.128906 32.152344 Z M 117.128906 48.261719 "/>
<path fill-rule="nonzero" fill="rgb(100%, 100%, 100%)" fill-opacity="1" d="M 424.449219 76.898438 L 429.382812 76.898438 L 429.382812 70.617188 L 424.449219 70.617188 Z M 424.449219 76.898438 "/>
<g fill="rgb(0%, 0%, 0%)" fill-opacity="1">
<use xlink:href="#glyph-3-0" x="424.449" y="76.776"/>
</g>
<g fill="rgb(0%, 0%, 0%)" fill-opacity="1">
<use xlink:href="#glyph-0-0" x="133.64" y="31.0256"/>
</g>
<g fill="rgb(0%, 0%, 0%)" fill-opacity="1">
<use xlink:href="#glyph-1-2" x="134.76227" y="25.82013"/>
</g>
<path fill-rule="nonzero" fill="rgb(100%, 100%, 100%)" fill-opacity="1" d="M 134.132812 76.898438 L 139.066406 76.898438 L 139.066406 70.617188 L 134.132812 70.617188 Z M 134.132812 76.898438 "/>
<g fill="rgb(0%, 0%, 0%)" fill-opacity="1">
<use xlink:href="#glyph-3-6" x="134.133" y="76.776"/>
</g>
<path fill="none" stroke-width="3.98506" stroke-linecap="butt" stroke-linejoin="round" stroke="rgb(0%, 0%, 0%)" stroke-opacity="1" stroke-miterlimit="10" d="M 1938.398438 7847.382812 L 1940.898438 7847.382812 L 1940.898438 8008.476562 L 1938.398438 8008.476562 Z M 1938.398438 7847.382812 " transform="matrix(0.1, 0, 0, -0.1, -60, 833)"/>
<path fill-rule="nonzero" fill="rgb(0%, 0%, 0%)" fill-opacity="1" d="M 133.839844 48.261719 L 134.085938 48.261719 L 134.085938 32.152344 L 133.839844 32.152344 Z M 133.839844 48.261719 "/>
<g fill="rgb(0%, 0%, 0%)" fill-opacity="1">
<use xlink:href="#glyph-0-4" x="126.417" y="31.026"/>
</g>
<g fill="rgb(0%, 0%, 0%)" fill-opacity="1">
<use xlink:href="#glyph-1-0" x="425.078" y="33.26741"/>
</g>
<g fill="rgb(0%, 0%, 0%)" fill-opacity="1">
<use xlink:href="#glyph-0-0" x="148.06" y="28.53538"/>
</g>
<g fill="rgb(0%, 0%, 0%)" fill-opacity="1">
<use xlink:href="#glyph-1-3" x="149.35219" y="23.32991"/>
</g>
<path fill-rule="nonzero" fill="rgb(100%, 100%, 100%)" fill-opacity="1" d="M 148.554688 76.898438 L 153.484375 76.898438 L 153.484375 70.617188 L 148.554688 70.617188 Z M 148.554688 76.898438 "/>
<g fill="rgb(0%, 0%, 0%)" fill-opacity="1">
<use xlink:href="#glyph-3-7" x="148.553" y="76.776"/>
</g>
<path fill="none" stroke-width="3.98506" stroke-linecap="butt" stroke-linejoin="round" stroke="rgb(0%, 0%, 0%)" stroke-opacity="1" stroke-miterlimit="10" d="M 2082.578125 7872.304688 L 2085.078125 7872.304688 L 2085.078125 8033.398438 L 2082.578125 8033.398438 Z M 2082.578125 7872.304688 " transform="matrix(0.1, 0, 0, -0.1, -60, 833)"/>
<path fill-rule="nonzero" fill="rgb(0%, 0%, 0%)" fill-opacity="1" d="M 148.257812 45.769531 L 148.507812 45.769531 L 148.507812 29.660156 L 148.257812 29.660156 Z M 148.257812 45.769531 "/>
<g fill="rgb(0%, 0%, 0%)" fill-opacity="1">
<use xlink:href="#glyph-0-0" x="423.956" y="38.498"/>
</g>
<g fill="rgb(0%, 0%, 0%)" fill-opacity="1">
<use xlink:href="#glyph-0-0" x="162.479" y="26.0449"/>
</g>
<g fill="rgb(0%, 0%, 0%)" fill-opacity="1">
<use xlink:href="#glyph-1-4" x="163.431344" y="20.83943"/>
</g>
<path fill-rule="nonzero" fill="rgb(100%, 100%, 100%)" fill-opacity="1" d="M 162.972656 76.898438 L 167.90625 76.898438 L 167.90625 70.617188 L 162.972656 70.617188 Z M 162.972656 76.898438 "/>
<g fill="rgb(0%, 0%, 0%)" fill-opacity="1">
<use xlink:href="#glyph-3-8" x="162.972" y="76.776"/>
</g>
<path fill="none" stroke-width="3.98506" stroke-linecap="butt" stroke-linejoin="round" stroke="rgb(0%, 0%, 0%)" stroke-opacity="1" stroke-miterlimit="10" d="M 2226.796875 7872.304688 L 2229.296875 7872.304688 L 2229.296875 8058.28125 L 2226.796875 8058.28125 Z M 2226.796875 7872.304688 " transform="matrix(0.1, 0, 0, -0.1, -60, 833)"/>
<path fill-rule="nonzero" fill="rgb(0%, 0%, 0%)" fill-opacity="1" d="M 162.679688 45.769531 L 162.925781 45.769531 L 162.925781 27.171875 L 162.679688 27.171875 Z M 162.679688 45.769531 "/>
<g fill="rgb(0%, 0%, 0%)" fill-opacity="1">
<use xlink:href="#glyph-0-0" x="179.188" y="26.045"/>
</g>
<g fill="rgb(0%, 0%, 0%)" fill-opacity="1">
<use xlink:href="#glyph-1-1" x="180.39542" y="20.83953"/>
</g>
<path fill-rule="nonzero" fill="rgb(100%, 100%, 100%)" fill-opacity="1" d="M 179.679688 76.898438 L 184.613281 76.898438 L 184.613281 70.617188 L 179.679688 70.617188 Z M 179.679688 76.898438 "/>
<g fill="rgb(0%, 0%, 0%)" fill-opacity="1">
<use xlink:href="#glyph-3-9" x="179.681" y="76.776"/>
</g>
<path fill="none" stroke-width="3.98506" stroke-linecap="butt" stroke-linejoin="round" stroke="rgb(0%, 0%, 0%)" stroke-opacity="1" stroke-miterlimit="10" d="M 2393.867188 7872.304688 L 2396.367188 7872.304688 L 2396.367188 8058.28125 L 2393.867188 8058.28125 Z M 2393.867188 7872.304688 " transform="matrix(0.1, 0, 0, -0.1, -60, 833)"/>
<path fill-rule="nonzero" fill="rgb(0%, 0%, 0%)" fill-opacity="1" d="M 179.386719 45.769531 L 179.636719 45.769531 L 179.636719 27.171875 L 179.386719 27.171875 Z M 179.386719 45.769531 "/>
<g fill="rgb(0%, 0%, 0%)" fill-opacity="1">
<use xlink:href="#glyph-0-4" x="171.964" y="26.045"/>
</g>
<g fill="rgb(0%, 0%, 0%)" fill-opacity="1">
<use xlink:href="#glyph-0-0" x="193.6066" y="23.55437"/>
</g>
<g fill="rgb(0%, 0%, 0%)" fill-opacity="1">
<use xlink:href="#glyph-1-2" x="194.72926" y="18.3489"/>
</g>
<path fill-rule="nonzero" fill="rgb(100%, 100%, 100%)" fill-opacity="1" d="M 191.632812 76.898438 L 201.5 76.898438 L 201.5 70.617188 L 191.632812 70.617188 Z M 191.632812 76.898438 "/>
<g fill="rgb(0%, 0%, 0%)" fill-opacity="1">
<use xlink:href="#glyph-3-1" x="191.634" y="76.776"/>
</g>
<g fill="rgb(0%, 0%, 0%)" fill-opacity="1">
<use xlink:href="#glyph-3-0" x="196.566427" y="76.776"/>
</g>
<path fill="none" stroke-width="3.98506" stroke-linecap="butt" stroke-linejoin="round" stroke="rgb(0%, 0%, 0%)" stroke-opacity="1" stroke-miterlimit="10" d="M 2538.046875 7872.304688 L 2540.546875 7872.304688 L 2540.546875 8083.203125 L 2538.046875 8083.203125 Z M 2538.046875 7872.304688 " transform="matrix(0.1, 0, 0, -0.1, -60, 833)"/>
<path fill-rule="nonzero" fill="rgb(0%, 0%, 0%)" fill-opacity="1" d="M 193.804688 45.769531 L 194.054688 45.769531 L 194.054688 24.679688 L 193.804688 24.679688 Z M 193.804688 45.769531 "/>
<g fill="rgb(0%, 0%, 0%)" fill-opacity="1">
<use xlink:href="#glyph-0-0" x="210.316" y="23.554"/>
</g>
<g fill="rgb(0%, 0%, 0%)" fill-opacity="1">
<use xlink:href="#glyph-1-3" x="211.6078" y="18.34853"/>
</g>
<path fill-rule="nonzero" fill="rgb(100%, 100%, 100%)" fill-opacity="1" d="M 208.34375 76.835938 L 218.207031 76.835938 L 218.207031 70.679688 L 208.34375 70.679688 Z M 208.34375 76.835938 "/>
<g fill="rgb(0%, 0%, 0%)" fill-opacity="1">
<use xlink:href="#glyph-3-1" x="208.343" y="76.837"/>
</g>
<g fill="rgb(0%, 0%, 0%)" fill-opacity="1">
<use xlink:href="#glyph-3-1" x="213.275818" y="76.837"/>
</g>
<path fill="none" stroke-width="3.98506" stroke-linecap="butt" stroke-linejoin="round" stroke="rgb(0%, 0%, 0%)" stroke-opacity="1" stroke-miterlimit="10" d="M 2705.15625 7872.304688 L 2707.65625 7872.304688 L 2707.65625 8083.203125 L 2705.15625 8083.203125 Z M 2705.15625 7872.304688 " transform="matrix(0.1, 0, 0, -0.1, -60, 833)"/>
<path fill-rule="nonzero" fill="rgb(0%, 0%, 0%)" fill-opacity="1" d="M 210.515625 45.769531 L 210.765625 45.769531 L 210.765625 24.679688 L 210.515625 24.679688 Z M 210.515625 45.769531 "/>
<g fill="rgb(0%, 0%, 0%)" fill-opacity="1">
<use xlink:href="#glyph-0-4" x="203.093" y="23.554"/>
</g>
<g fill="rgb(0%, 0%, 0%)" fill-opacity="1">
<use xlink:href="#glyph-1-4" x="226.9207" y="15.85791"/>
</g>
<path fill-rule="nonzero" fill="rgb(100%, 100%, 100%)" fill-opacity="1" d="M 223.996094 76.855469 L 233.859375 76.855469 L 233.859375 70.664062 L 223.996094 70.664062 Z M 223.996094 76.855469 "/>
<g fill="rgb(0%, 0%, 0%)" fill-opacity="1">
<use xlink:href="#glyph-3-1" x="223.996" y="76.82"/>
</g>
<g fill="rgb(0%, 0%, 0%)" fill-opacity="1">
<use xlink:href="#glyph-3-2" x="228.928427" y="76.82"/>
</g>
<g fill="rgb(0%, 0%, 0%)" fill-opacity="1">
<use xlink:href="#glyph-0-0" x="241.6214" y="21.0637"/>
</g>
<g fill="rgb(0%, 0%, 0%)" fill-opacity="1">
<use xlink:href="#glyph-1-4" x="242.573744" y="15.85823"/>
</g>
<path fill-rule="nonzero" fill="rgb(100%, 100%, 100%)" fill-opacity="1" d="M 239.648438 76.855469 L 249.511719 76.855469 L 249.511719 70.664062 L 239.648438 70.664062 Z M 239.648438 76.855469 "/>
<g fill="rgb(0%, 0%, 0%)" fill-opacity="1">
<use xlink:href="#glyph-3-1" x="239.648" y="76.82"/>
</g>
<g fill="rgb(0%, 0%, 0%)" fill-opacity="1">
<use xlink:href="#glyph-3-2" x="244.580818" y="76.82"/>
</g>
<path fill="none" stroke-width="3.98506" stroke-linecap="butt" stroke-linejoin="round" stroke="rgb(0%, 0%, 0%)" stroke-opacity="1" stroke-miterlimit="10" d="M 3018.203125 7872.304688 L 3020.703125 7872.304688 L 3020.703125 8108.125 L 3018.203125 8108.125 Z M 3018.203125 7872.304688 " transform="matrix(0.1, 0, 0, -0.1, -60, 833)"/>
<path fill-rule="nonzero" fill="rgb(0%, 0%, 0%)" fill-opacity="1" d="M 241.820312 45.769531 L 242.070312 45.769531 L 242.070312 22.191406 L 241.820312 22.191406 Z M 241.820312 45.769531 "/>
<g fill="rgb(0%, 0%, 0%)" fill-opacity="1">
<use xlink:href="#glyph-0-0" x="257.433" y="21.063"/>
</g>
<g fill="rgb(0%, 0%, 0%)" fill-opacity="1">
<use xlink:href="#glyph-1-3" x="258.72558" y="15.85753"/>
</g>
<path fill-rule="nonzero" fill="rgb(100%, 100%, 100%)" fill-opacity="1" d="M 255.460938 76.835938 L 265.324219 76.835938 L 265.324219 70.679688 L 255.460938 70.679688 Z M 255.460938 76.835938 "/>
<g fill="rgb(0%, 0%, 0%)" fill-opacity="1">
<use xlink:href="#glyph-3-1" x="255.46" y="76.837"/>
</g>
<g fill="rgb(0%, 0%, 0%)" fill-opacity="1">
<use xlink:href="#glyph-3-1" x="260.392427" y="76.837"/>
</g>
<path fill="none" stroke-width="3.98506" stroke-linecap="butt" stroke-linejoin="round" stroke="rgb(0%, 0%, 0%)" stroke-opacity="1" stroke-miterlimit="10" d="M 3176.328125 7872.304688 L 3178.789062 7872.304688 L 3178.789062 8108.125 L 3176.328125 8108.125 Z M 3176.328125 7872.304688 " transform="matrix(0.1, 0, 0, -0.1, -60, 833)"/>
<path fill-rule="nonzero" fill="rgb(0%, 0%, 0%)" fill-opacity="1" d="M 257.632812 45.769531 L 257.878906 45.769531 L 257.878906 22.191406 L 257.632812 22.191406 Z M 257.632812 45.769531 "/>
<g fill="rgb(0%, 0%, 0%)" fill-opacity="1">
<use xlink:href="#glyph-0-5" x="251.704" y="21.063"/>
</g>
<g fill="rgb(0%, 0%, 0%)" fill-opacity="1">
<use xlink:href="#glyph-0-0" x="273.0853" y="23.55363"/>
</g>
<g fill="rgb(0%, 0%, 0%)" fill-opacity="1">
<use xlink:href="#glyph-1-2" x="274.20757" y="18.34816"/>
</g>
<path fill-rule="nonzero" fill="rgb(100%, 100%, 100%)" fill-opacity="1" d="M 271.113281 76.898438 L 280.976562 76.898438 L 280.976562 70.617188 L 271.113281 70.617188 Z M 271.113281 76.898438 "/>
<g fill="rgb(0%, 0%, 0%)" fill-opacity="1">
<use xlink:href="#glyph-3-1" x="271.113" y="76.776"/>
</g>
<g fill="rgb(0%, 0%, 0%)" fill-opacity="1">
<use xlink:href="#glyph-3-0" x="276.045427" y="76.776"/>
</g>
<path fill="none" stroke-width="3.98506" stroke-linecap="butt" stroke-linejoin="round" stroke="rgb(0%, 0%, 0%)" stroke-opacity="1" stroke-miterlimit="10" d="M 3332.851562 7872.304688 L 3335.351562 7872.304688 L 3335.351562 8083.203125 L 3332.851562 8083.203125 Z M 3332.851562 7872.304688 " transform="matrix(0.1, 0, 0, -0.1, -60, 833)"/>
<path fill-rule="nonzero" fill="rgb(0%, 0%, 0%)" fill-opacity="1" d="M 273.285156 45.769531 L 273.53125 45.769531 L 273.53125 24.679688 L 273.285156 24.679688 Z M 273.285156 45.769531 "/>
<g fill="rgb(0%, 0%, 0%)" fill-opacity="1">
<use xlink:href="#glyph-0-6" x="267.875" y="23.554"/>
</g>
<g fill="rgb(0%, 0%, 0%)" fill-opacity="1">
<use xlink:href="#glyph-0-6" x="404.326" y="36.0071"/>
</g>
<g fill="rgb(0%, 0%, 0%)" fill-opacity="1">
<use xlink:href="#glyph-0-0" x="288.897" y="23.554"/>
</g>
<g fill="rgb(0%, 0%, 0%)" fill-opacity="1">
<use xlink:href="#glyph-1-1" x="290.10442" y="18.34853"/>
</g>
<path fill-rule="nonzero" fill="rgb(100%, 100%, 100%)" fill-opacity="1" d="M 289.390625 76.898438 L 294.324219 76.898438 L 294.324219 70.617188 L 289.390625 70.617188 Z M 289.390625 76.898438 "/>
<g fill="rgb(0%, 0%, 0%)" fill-opacity="1">
<use xlink:href="#glyph-3-9" x="289.39" y="76.776"/>
</g>
<path fill="none" stroke-width="3.98506" stroke-linecap="butt" stroke-linejoin="round" stroke="rgb(0%, 0%, 0%)" stroke-opacity="1" stroke-miterlimit="10" d="M 3490.976562 7872.304688 L 3493.4375 7872.304688 L 3493.4375 8083.203125 L 3490.976562 8083.203125 Z M 3490.976562 7872.304688 " transform="matrix(0.1, 0, 0, -0.1, -60, 833)"/>
<path fill-rule="nonzero" fill="rgb(0%, 0%, 0%)" fill-opacity="1" d="M 289.097656 45.769531 L 289.34375 45.769531 L 289.34375 24.679688 L 289.097656 24.679688 Z M 289.097656 45.769531 "/>
<g fill="rgb(0%, 0%, 0%)" fill-opacity="1">
<use xlink:href="#glyph-0-5" x="283.169" y="23.554"/>
</g>
<g fill="rgb(0%, 0%, 0%)" fill-opacity="1">
<use xlink:href="#glyph-0-0" x="303.5932" y="26.04463"/>
</g>
<g fill="rgb(0%, 0%, 0%)" fill-opacity="1">
<use xlink:href="#glyph-1-4" x="304.545544" y="20.83916"/>
</g>
<path fill-rule="nonzero" fill="rgb(100%, 100%, 100%)" fill-opacity="1" d="M 304.085938 76.898438 L 309.019531 76.898438 L 309.019531 70.617188 L 304.085938 70.617188 Z M 304.085938 76.898438 "/>
<g fill="rgb(0%, 0%, 0%)" fill-opacity="1">
<use xlink:href="#glyph-3-8" x="304.087" y="76.776"/>
</g>
<path fill="none" stroke-width="3.98506" stroke-linecap="butt" stroke-linejoin="round" stroke="rgb(0%, 0%, 0%)" stroke-opacity="1" stroke-miterlimit="10" d="M 3637.929688 7872.304688 L 3640.429688 7872.304688 L 3640.429688 8058.28125 L 3637.929688 8058.28125 Z M 3637.929688 7872.304688 " transform="matrix(0.1, 0, 0, -0.1, -60, 833)"/>
<path fill-rule="nonzero" fill="rgb(0%, 0%, 0%)" fill-opacity="1" d="M 303.792969 45.769531 L 304.039062 45.769531 L 304.039062 27.171875 L 303.792969 27.171875 Z M 303.792969 45.769531 "/>
<g fill="rgb(0%, 0%, 0%)" fill-opacity="1">
<use xlink:href="#glyph-0-6" x="298.382" y="26.045"/>
</g>
<g fill="rgb(0%, 0%, 0%)" fill-opacity="1">
<use xlink:href="#glyph-0-0" x="318.0125" y="28.53563"/>
</g>
<g fill="rgb(0%, 0%, 0%)" fill-opacity="1">
<use xlink:href="#glyph-1-3" x="319.30469" y="23.33016"/>
</g>
<path fill-rule="nonzero" fill="rgb(100%, 100%, 100%)" fill-opacity="1" d="M 318.507812 76.898438 L 323.4375 76.898438 L 323.4375 70.617188 L 318.507812 70.617188 Z M 318.507812 76.898438 "/>
<g fill="rgb(0%, 0%, 0%)" fill-opacity="1">
<use xlink:href="#glyph-3-7" x="318.506" y="76.776"/>
</g>
<path fill="none" stroke-width="3.98506" stroke-linecap="butt" stroke-linejoin="round" stroke="rgb(0%, 0%, 0%)" stroke-opacity="1" stroke-miterlimit="10" d="M 3782.109375 7872.304688 L 3784.609375 7872.304688 L 3784.609375 8033.398438 L 3782.109375 8033.398438 Z M 3782.109375 7872.304688 " transform="matrix(0.1, 0, 0, -0.1, -60, 833)"/>
<path fill-rule="nonzero" fill="rgb(0%, 0%, 0%)" fill-opacity="1" d="M 318.210938 45.769531 L 318.460938 45.769531 L 318.460938 29.660156 L 318.210938 29.660156 Z M 318.210938 45.769531 "/>
<g fill="rgb(0%, 0%, 0%)" fill-opacity="1">
<use xlink:href="#glyph-0-0" x="333.825" y="28.535"/>
</g>
<g fill="rgb(0%, 0%, 0%)" fill-opacity="1">
<use xlink:href="#glyph-1-2" x="334.94727" y="23.32953"/>
</g>
<path fill-rule="nonzero" fill="rgb(100%, 100%, 100%)" fill-opacity="1" d="M 334.316406 76.898438 L 339.25 76.898438 L 339.25 70.617188 L 334.316406 70.617188 Z M 334.316406 76.898438 "/>
<g fill="rgb(0%, 0%, 0%)" fill-opacity="1">
<use xlink:href="#glyph-3-6" x="334.318" y="76.776"/>
</g>
<path fill="none" stroke-width="3.98506" stroke-linecap="butt" stroke-linejoin="round" stroke="rgb(0%, 0%, 0%)" stroke-opacity="1" stroke-miterlimit="10" d="M 3940.234375 7872.304688 L 3942.734375 7872.304688 L 3942.734375 8033.398438 L 3940.234375 8033.398438 Z M 3940.234375 7872.304688 " transform="matrix(0.1, 0, 0, -0.1, -60, 833)"/>
<path fill-rule="nonzero" fill="rgb(0%, 0%, 0%)" fill-opacity="1" d="M 334.023438 45.769531 L 334.273438 45.769531 L 334.273438 29.660156 L 334.023438 29.660156 Z M 334.023438 45.769531 "/>
<g fill="rgb(0%, 0%, 0%)" fill-opacity="1">
<use xlink:href="#glyph-0-5" x="328.096" y="28.535"/>
</g>
<path fill="none" stroke-width="3.98506" stroke-linecap="butt" stroke-linejoin="round" stroke="rgb(0%, 0%, 0%)" stroke-opacity="1" stroke-miterlimit="10" d="M 4697.34375 7797.578125 L 4699.84375 7797.578125 L 4699.84375 7958.671875 L 4697.34375 7958.671875 Z M 4697.34375 7797.578125 " transform="matrix(0.1, 0, 0, -0.1, -60, 833)"/>
<path fill-rule="nonzero" fill="rgb(0%, 0%, 0%)" fill-opacity="1" d="M 409.734375 53.242188 L 409.984375 53.242188 L 409.984375 37.132812 L 409.734375 37.132812 Z M 409.734375 53.242188 "/>
<g fill="rgb(0%, 0%, 0%)" fill-opacity="1">
<use xlink:href="#glyph-0-0" x="348.521" y="31.026"/>
</g>
<g fill="rgb(0%, 0%, 0%)" fill-opacity="1">
<use xlink:href="#glyph-1-1" x="349.72842" y="25.82053"/>
</g>
<path fill-rule="nonzero" fill="rgb(100%, 100%, 100%)" fill-opacity="1" d="M 349.015625 76.898438 L 353.945312 76.898438 L 353.945312 70.617188 L 349.015625 70.617188 Z M 349.015625 76.898438 "/>
<g fill="rgb(0%, 0%, 0%)" fill-opacity="1">
<use xlink:href="#glyph-3-5" x="349.014" y="76.776"/>
</g>
<path fill="none" stroke-width="3.98506" stroke-linecap="butt" stroke-linejoin="round" stroke="rgb(0%, 0%, 0%)" stroke-opacity="1" stroke-miterlimit="10" d="M 4087.1875 7847.382812 L 4089.6875 7847.382812 L 4089.6875 8008.476562 L 4087.1875 8008.476562 Z M 4087.1875 7847.382812 " transform="matrix(0.1, 0, 0, -0.1, -60, 833)"/>
<path fill-rule="nonzero" fill="rgb(0%, 0%, 0%)" fill-opacity="1" d="M 348.71875 48.261719 L 348.96875 48.261719 L 348.96875 32.152344 L 348.71875 32.152344 Z M 348.71875 48.261719 "/>
<g fill="rgb(0%, 0%, 0%)" fill-opacity="1">
<use xlink:href="#glyph-0-6" x="343.31" y="31.026"/>
</g>
<path fill-rule="nonzero" fill="rgb(100%, 100%, 100%)" fill-opacity="1" d="M 410.027344 76.835938 L 414.960938 76.835938 L 414.960938 70.679688 L 410.027344 70.679688 Z M 410.027344 76.835938 "/>
<g fill="rgb(0%, 0%, 0%)" fill-opacity="1">
<use xlink:href="#glyph-3-1" x="410.029" y="76.837"/>
</g>
<g fill="rgb(0%, 0%, 0%)" fill-opacity="1">
<use xlink:href="#glyph-0-0" x="364.3321" y="31.0257"/>
</g>
<g fill="rgb(0%, 0%, 0%)" fill-opacity="1">
<use xlink:href="#glyph-1-4" x="365.284444" y="25.82023"/>
</g>
<path fill-rule="nonzero" fill="rgb(100%, 100%, 100%)" fill-opacity="1" d="M 364.824219 76.835938 L 369.757812 76.835938 L 369.757812 70.679688 L 364.824219 70.679688 Z M 364.824219 76.835938 "/>
<g fill="rgb(0%, 0%, 0%)" fill-opacity="1">
<use xlink:href="#glyph-3-4" x="364.825" y="76.837"/>
</g>
<path fill="none" stroke-width="3.98506" stroke-linecap="butt" stroke-linejoin="round" stroke="rgb(0%, 0%, 0%)" stroke-opacity="1" stroke-miterlimit="10" d="M 4245.3125 7847.382812 L 4247.8125 7847.382812 L 4247.8125 8008.476562 L 4245.3125 8008.476562 Z M 4245.3125 7847.382812 " transform="matrix(0.1, 0, 0, -0.1, -60, 833)"/>
<path fill-rule="nonzero" fill="rgb(0%, 0%, 0%)" fill-opacity="1" d="M 364.53125 48.261719 L 364.78125 48.261719 L 364.78125 32.152344 L 364.53125 32.152344 Z M 364.53125 48.261719 "/>
<g fill="rgb(0%, 0%, 0%)" fill-opacity="1">
<use xlink:href="#glyph-0-5" x="358.604" y="31.026"/>
</g>
<g fill="rgb(0%, 0%, 0%)" fill-opacity="1">
<use xlink:href="#glyph-1-1" x="410.7438" y="30.801781"/>
</g>
<g fill="rgb(0%, 0%, 0%)" fill-opacity="1">
<use xlink:href="#glyph-0-0" x="379.0282" y="33.516621"/>
</g>
<g fill="rgb(0%, 0%, 0%)" fill-opacity="1">
<use xlink:href="#glyph-1-3" x="380.32078" y="28.311151"/>
</g>
<path fill-rule="nonzero" fill="rgb(100%, 100%, 100%)" fill-opacity="1" d="M 379.519531 76.898438 L 384.453125 76.898438 L 384.453125 70.617188 L 379.519531 70.617188 Z M 379.519531 76.898438 "/>
<g fill="rgb(0%, 0%, 0%)" fill-opacity="1">
<use xlink:href="#glyph-3-3" x="379.522" y="76.776"/>
</g>
<path fill="none" stroke-width="3.98506" stroke-linecap="butt" stroke-linejoin="round" stroke="rgb(0%, 0%, 0%)" stroke-opacity="1" stroke-miterlimit="10" d="M 4392.265625 7822.460938 L 4394.765625 7822.460938 L 4394.765625 7983.554688 L 4392.265625 7983.554688 Z M 4392.265625 7822.460938 " transform="matrix(0.1, 0, 0, -0.1, -60, 833)"/>
<path fill-rule="nonzero" fill="rgb(0%, 0%, 0%)" fill-opacity="1" d="M 379.226562 50.753906 L 379.476562 50.753906 L 379.476562 34.644531 L 379.226562 34.644531 Z M 379.226562 50.753906 "/>
<g fill="rgb(0%, 0%, 0%)" fill-opacity="1">
<use xlink:href="#glyph-0-6" x="373.818" y="33.516"/>
</g>
<g fill="rgb(0%, 0%, 0%)" fill-opacity="1">
<use xlink:href="#glyph-0-0" x="409.5368" y="36.00663"/>
</g>
<g fill="rgb(0%, 0%, 0%)" fill-opacity="1">
<use xlink:href="#glyph-0-0" x="394.8407" y="33.516"/>
</g>
<g fill="rgb(0%, 0%, 0%)" fill-opacity="1">
<use xlink:href="#glyph-1-2" x="395.96297" y="28.31053"/>
</g>
<path fill-rule="nonzero" fill="rgb(100%, 100%, 100%)" fill-opacity="1" d="M 395.332031 76.855469 L 400.265625 76.855469 L 400.265625 70.664062 L 395.332031 70.664062 Z M 395.332031 76.855469 "/>
<g fill="rgb(0%, 0%, 0%)" fill-opacity="1">
<use xlink:href="#glyph-3-2" x="395.334" y="76.82"/>
</g>
<path fill="none" stroke-width="3.98506" stroke-linecap="butt" stroke-linejoin="round" stroke="rgb(0%, 0%, 0%)" stroke-opacity="1" stroke-miterlimit="10" d="M 4550.390625 7822.460938 L 4552.890625 7822.460938 L 4552.890625 7983.554688 L 4550.390625 7983.554688 Z M 4550.390625 7822.460938 " transform="matrix(0.1, 0, 0, -0.1, -60, 833)"/>
<path fill-rule="nonzero" fill="rgb(0%, 0%, 0%)" fill-opacity="1" d="M 395.039062 50.753906 L 395.289062 50.753906 L 395.289062 34.644531 L 395.039062 34.644531 Z M 395.039062 50.753906 "/>
<g fill="rgb(0%, 0%, 0%)" fill-opacity="1">
<use xlink:href="#glyph-0-5" x="389.112" y="33.516"/>
</g>
<path fill="none" stroke-width="3.98506" stroke-linecap="butt" stroke-linejoin="round" stroke="rgb(0%, 0%, 0%)" stroke-opacity="1" stroke-miterlimit="10" d="M 2861.679688 7872.304688 L 2864.179688 7872.304688 L 2864.179688 8108.125 L 2861.679688 8108.125 Z M 2861.679688 7872.304688 " transform="matrix(0.1, 0, 0, -0.1, -60, 833)"/>
<path fill-rule="nonzero" fill="rgb(0%, 0%, 0%)" fill-opacity="1" d="M 226.167969 45.769531 L 226.414062 45.769531 L 226.414062 22.191406 L 226.167969 22.191406 Z M 226.167969 45.769531 "/>
</svg>
