<?xml version="1.0" encoding="UTF-8"?>
<svg xmlns="http://www.w3.org/2000/svg" xmlns:xlink="http://www.w3.org/1999/xlink" width="85pt" height="91pt" viewBox="0 0 85 91">
<defs>
<g>
<g id="glyph-0-0">
<path d="M 1.859375 -3.6875 L 1.859375 0 L 2.484375 0 L 2.484375 -5.1875 L 2.078125 -5.1875 C 1.84375 -4.390625 1.703125 -4.28125 0.734375 -4.15625 L 0.734375 -3.6875 Z M 1.859375 -3.6875 "/>
</g>
<g id="glyph-0-1">
<path d="M 2.34375 -1.25 L 2.34375 0 L 2.96875 0 L 2.96875 -1.25 L 3.734375 -1.25 L 3.734375 -1.828125 L 2.96875 -1.828125 L 2.96875 -5.1875 L 2.515625 -5.1875 L 0.203125 -1.921875 L 0.203125 -1.25 Z M 2.34375 -1.828125 L 0.75 -1.828125 L 2.34375 -4.109375 Z M 2.34375 -1.828125 "/>
</g>
<g id="glyph-1-0">
<path d="M 0.28125 -3.703125 L 0.28125 0 L 0.65625 0 L 0.65625 -0.34375 C 0.859375 -0.03125 1.125 0.109375 1.5 0.109375 C 2.203125 0.109375 2.65625 -0.453125 2.65625 -1.34375 C 2.65625 -2.203125 2.21875 -2.734375 1.515625 -2.734375 C 1.15625 -2.734375 0.890625 -2.59375 0.703125 -2.296875 L 0.703125 -3.703125 Z M 1.4375 -2.34375 C 1.90625 -2.34375 2.21875 -1.921875 2.21875 -1.296875 C 2.21875 -0.6875 1.90625 -0.28125 1.4375 -0.28125 C 0.984375 -0.28125 0.703125 -0.6875 0.703125 -1.3125 C 0.703125 -1.9375 0.984375 -2.34375 1.4375 -2.34375 Z M 1.4375 -2.34375 "/>
</g>
<g id="glyph-1-1">
<path d="M 2.640625 -3.59375 L 0.234375 -3.59375 L 0.234375 -3.15625 L 2.171875 -3.15625 C 1.3125 -1.9375 0.96875 -1.1875 0.703125 0 L 1.171875 0 C 1.375 -1.15625 1.828125 -2.140625 2.640625 -3.21875 Z M 2.640625 -3.59375 "/>
</g>
<g id="glyph-1-2">
<path d="M 1.125 -1.6875 L 1.359375 -1.6875 C 1.859375 -1.6875 2.109375 -1.46875 2.109375 -1.015625 C 2.109375 -0.5625 1.828125 -0.28125 1.375 -0.28125 C 0.875 -0.28125 0.640625 -0.53125 0.609375 -1.0625 L 0.15625 -1.0625 C 0.1875 -0.765625 0.234375 -0.578125 0.3125 -0.421875 C 0.5 -0.0625 0.859375 0.109375 1.34375 0.109375 C 2.09375 0.109375 2.5625 -0.328125 2.5625 -1.03125 C 2.5625 -1.5 2.390625 -1.75 1.953125 -1.90625 C 2.296875 -2.03125 2.46875 -2.296875 2.46875 -2.65625 C 2.46875 -3.296875 2.046875 -3.671875 1.359375 -3.671875 C 0.640625 -3.671875 0.25 -3.265625 0.234375 -2.484375 L 0.6875 -2.484375 C 0.6875 -2.71875 0.703125 -2.84375 0.765625 -2.953125 C 0.875 -3.15625 1.09375 -3.28125 1.375 -3.28125 C 1.765625 -3.28125 2 -3.046875 2 -2.640625 C 2 -2.390625 1.921875 -2.234375 1.71875 -2.140625 C 1.59375 -2.09375 1.4375 -2.078125 1.125 -2.0625 Z M 1.125 -1.6875 "/>
</g>
<g id="glyph-2-0">
<path d="M 3.515625 -3.765625 C 3.390625 -4.609375 2.859375 -5.09375 2.09375 -5.09375 C 1.546875 -5.09375 1.046875 -4.828125 0.75 -4.375 C 0.4375 -3.875 0.296875 -3.25 0.296875 -2.328125 C 0.296875 -1.46875 0.421875 -0.921875 0.71875 -0.46875 C 1 -0.0625 1.4375 0.15625 1.984375 0.15625 C 2.9375 0.15625 3.609375 -0.546875 3.609375 -1.546875 C 3.609375 -2.484375 2.984375 -3.140625 2.078125 -3.140625 C 1.59375 -3.140625 1.203125 -2.953125 0.9375 -2.59375 C 0.9375 -3.84375 1.34375 -4.546875 2.046875 -4.546875 C 2.484375 -4.546875 2.796875 -4.265625 2.890625 -3.765625 Z M 2.015625 -2.59375 C 2.609375 -2.59375 2.984375 -2.171875 2.984375 -1.5 C 2.984375 -0.859375 2.5625 -0.390625 1.984375 -0.390625 C 1.40625 -0.390625 0.96875 -0.875 0.96875 -1.515625 C 0.96875 -2.15625 1.390625 -2.59375 2.015625 -2.59375 Z M 2.015625 -2.59375 "/>
</g>
<g id="glyph-3-0">
<path d="M 3.390625 -5.046875 L 0.78125 -5.046875 L 0.40625 -2.296875 L 0.984375 -2.296875 C 1.28125 -2.65625 1.515625 -2.765625 1.921875 -2.765625 C 2.59375 -2.765625 3.015625 -2.3125 3.015625 -1.5625 C 3.015625 -0.828125 2.59375 -0.390625 1.90625 -0.390625 C 1.359375 -0.390625 1.03125 -0.671875 0.875 -1.234375 L 0.25 -1.234375 C 0.328125 -0.828125 0.40625 -0.625 0.5625 -0.4375 C 0.84375 -0.0625 1.359375 0.15625 1.921875 0.15625 C 2.9375 0.15625 3.65625 -0.578125 3.65625 -1.640625 C 3.65625 -2.640625 3 -3.328125 2.03125 -3.328125 C 1.671875 -3.328125 1.375 -3.234375 1.09375 -3.015625 L 1.296875 -4.4375 L 3.390625 -4.4375 Z M 3.390625 -5.046875 "/>
</g>
<g id="glyph-4-0">
<path d="M 3.640625 -0.625 L 0.953125 -0.625 C 1.015625 -1.0625 1.25 -1.328125 1.875 -1.703125 L 2.59375 -2.109375 C 3.3125 -2.515625 3.671875 -3.046875 3.671875 -3.6875 C 3.671875 -4.109375 3.5 -4.515625 3.203125 -4.796875 C 2.890625 -5.0625 2.515625 -5.203125 2.046875 -5.203125 C 1.390625 -5.203125 0.90625 -4.96875 0.625 -4.515625 C 0.453125 -4.25 0.375 -3.921875 0.359375 -3.40625 L 0.984375 -3.40625 C 1.015625 -3.75 1.0625 -3.953125 1.140625 -4.140625 C 1.3125 -4.453125 1.640625 -4.640625 2.015625 -4.640625 C 2.59375 -4.640625 3.03125 -4.21875 3.03125 -3.671875 C 3.03125 -3.25 2.78125 -2.890625 2.34375 -2.625 L 1.671875 -2.25 C 0.609375 -1.625 0.296875 -1.140625 0.25 0 L 3.640625 0 Z M 3.640625 -0.625 "/>
</g>
<g id="glyph-5-0">
<path d="M 3.203125 -2.96875 L 5.125 -5.734375 L 4.09375 -5.734375 L 2.71875 -3.65625 L 1.34375 -5.734375 L 0.296875 -5.734375 L 2.21875 -2.921875 L 0.1875 0 L 1.234375 0 L 2.6875 -2.203125 L 4.125 0 L 5.1875 0 Z M 3.203125 -2.96875 "/>
</g>
</g>
</defs>
<path fill="none" stroke-width="4.98132" stroke-linecap="round" stroke-linejoin="miter" stroke="rgb(0%, 0%, 0%)" stroke-opacity="1" stroke-miterlimit="10" d="M 818.945312 7527.578125 L 818.945312 8224.960938 " transform="matrix(0.1, 0, 0, -0.1, -18, 833)"/>
<path fill="none" stroke-width="4.98132" stroke-linecap="round" stroke-linejoin="miter" stroke="rgb(0%, 0%, 0%)" stroke-opacity="1" stroke-miterlimit="10" d="M 719.335938 7527.578125 L 719.335938 8224.960938 " transform="matrix(0.1, 0, 0, -0.1, -18, 833)"/>
<path fill="none" stroke-width="4.98132" stroke-linecap="round" stroke-linejoin="miter" stroke="rgb(0%, 0%, 0%)" stroke-opacity="1" stroke-miterlimit="10" d="M 619.6875 7527.578125 L 619.6875 8224.960938 " transform="matrix(0.1, 0, 0, -0.1, -18, 833)"/>
<path fill="none" stroke-width="4.98132" stroke-linecap="round" stroke-linejoin="miter" stroke="rgb(0%, 0%, 0%)" stroke-opacity="1" stroke-miterlimit="10" d="M 520.078125 7527.578125 L 520.078125 8224.960938 " transform="matrix(0.1, 0, 0, -0.1, -18, 833)"/>
<path fill="none" stroke-width="4.98132" stroke-linecap="round" stroke-linejoin="miter" stroke="rgb(0%, 0%, 0%)" stroke-opacity="1" stroke-miterlimit="10" d="M 420.46875 7527.578125 L 420.46875 8224.960938 " transform="matrix(0.1, 0, 0, -0.1, -18, 833)"/>
<path fill="none" stroke-width="4.98132" stroke-linecap="round" stroke-linejoin="miter" stroke="rgb(0%, 0%, 0%)" stroke-opacity="1" stroke-miterlimit="10" d="M 320.820312 7527.578125 L 320.820312 8224.960938 " transform="matrix(0.1, 0, 0, -0.1, -18, 833)"/>
<path fill="none" stroke-width="4.98132" stroke-linecap="round" stroke-linejoin="miter" stroke="rgb(0%, 0%, 0%)" stroke-opacity="1" stroke-miterlimit="10" d="M 320.820312 8224.960938 L 818.945312 8224.960938 " transform="matrix(0.1, 0, 0, -0.1, -18, 833)"/>
<path fill="none" stroke-width="4.98132" stroke-linecap="round" stroke-linejoin="miter" stroke="rgb(0%, 0%, 0%)" stroke-opacity="1" stroke-miterlimit="10" d="M 320.820312 8125.351562 L 818.945312 8125.351562 " transform="matrix(0.1, 0, 0, -0.1, -18, 833)"/>
<path fill="none" stroke-width="4.98132" stroke-linecap="round" stroke-linejoin="miter" stroke="rgb(0%, 0%, 0%)" stroke-opacity="1" stroke-miterlimit="10" d="M 320.820312 8025.703125 L 818.945312 8025.703125 " transform="matrix(0.1, 0, 0, -0.1, -18, 833)"/>
<path fill="none" stroke-width="4.98132" stroke-linecap="round" stroke-linejoin="miter" stroke="rgb(0%, 0%, 0%)" stroke-opacity="1" stroke-miterlimit="10" d="M 320.820312 7926.09375 L 818.945312 7926.09375 " transform="matrix(0.1, 0, 0, -0.1, -18, 833)"/>
<path fill="none" stroke-width="4.98132" stroke-linecap="round" stroke-linejoin="miter" stroke="rgb(0%, 0%, 0%)" stroke-opacity="1" stroke-miterlimit="10" d="M 320.820312 7826.445312 L 818.945312 7826.445312 " transform="matrix(0.1, 0, 0, -0.1, -18, 833)"/>
<path fill="none" stroke-width="4.98132" stroke-linecap="round" stroke-linejoin="miter" stroke="rgb(0%, 0%, 0%)" stroke-opacity="1" stroke-miterlimit="10" d="M 320.820312 7726.835938 L 818.945312 7726.835938 " transform="matrix(0.1, 0, 0, -0.1, -18, 833)"/>
<path fill="none" stroke-width="4.98132" stroke-linecap="round" stroke-linejoin="miter" stroke="rgb(0%, 0%, 0%)" stroke-opacity="1" stroke-miterlimit="10" d="M 320.820312 7627.1875 L 818.945312 7627.1875 " transform="matrix(0.1, 0, 0, -0.1, -18, 833)"/>
<path fill="none" stroke-width="4.98132" stroke-linecap="round" stroke-linejoin="miter" stroke="rgb(100%, 0%, 0%)" stroke-opacity="1" stroke-miterlimit="10" d="M 754.21875 7674.53125 C 754.21875 7693.789062 738.59375 7709.375 719.335938 7709.375 C 700.078125 7709.375 684.453125 7693.789062 684.453125 7674.53125 C 684.453125 7655.273438 700.078125 7639.648438 719.335938 7639.648438 C 738.59375 7639.648438 754.21875 7655.273438 754.21875 7674.53125 Z M 754.21875 7674.53125 " transform="matrix(0.1, 0, 0, -0.1, -18, 833)"/>
<path fill-rule="nonzero" fill="rgb(100%, 0%, 0%)" fill-opacity="1" d="M 57.421875 65.546875 C 57.421875 63.621094 55.859375 62.0625 53.933594 62.0625 C 52.007812 62.0625 50.445312 63.621094 50.445312 65.546875 C 50.445312 67.472656 52.007812 69.035156 53.933594 69.035156 C 55.859375 69.035156 57.421875 67.472656 57.421875 65.546875 "/>
<g fill="rgb(100%, 100%, 100%)" fill-opacity="1">
<use xlink:href="#glyph-0-0" x="51.943" y="68.141"/>
</g>
<path fill="none" stroke-width="4.98132" stroke-linecap="round" stroke-linejoin="miter" stroke="rgb(0%, 0%, 0%)" stroke-opacity="1" stroke-miterlimit="10" d="M 754.21875 7873.789062 C 754.21875 7893.046875 738.59375 7908.632812 719.335938 7908.632812 C 700.078125 7908.632812 684.453125 7893.046875 684.453125 7873.789062 C 684.453125 7854.53125 700.078125 7838.90625 719.335938 7838.90625 C 738.59375 7838.90625 754.21875 7854.53125 754.21875 7873.789062 Z M 754.21875 7873.789062 " transform="matrix(0.1, 0, 0, -0.1, -18, 833)"/>
<path fill-rule="nonzero" fill="rgb(0%, 0%, 0%)" fill-opacity="1" d="M 57.421875 45.621094 C 57.421875 43.695312 55.859375 42.136719 53.933594 42.136719 C 52.007812 42.136719 50.445312 43.695312 50.445312 45.621094 C 50.445312 47.546875 52.007812 49.109375 53.933594 49.109375 C 55.859375 49.109375 57.421875 47.546875 57.421875 45.621094 "/>
<g fill="rgb(100%, 100%, 100%)" fill-opacity="1">
<use xlink:href="#glyph-1-0" x="51.1164" y="47.418"/>
</g>
<g fill="rgb(100%, 100%, 100%)" fill-opacity="1">
<use xlink:href="#glyph-1-1" x="53.935152" y="47.418"/>
</g>
<path fill="none" stroke-width="4.98132" stroke-linecap="round" stroke-linejoin="miter" stroke="rgb(0%, 0%, 0%)" stroke-opacity="1" stroke-miterlimit="10" d="M 754.21875 7973.398438 C 754.21875 7992.65625 738.59375 8008.28125 719.335938 8008.28125 C 700.078125 8008.28125 684.453125 7992.65625 684.453125 7973.398438 C 684.453125 7954.140625 700.078125 7938.554688 719.335938 7938.554688 C 738.59375 7938.554688 754.21875 7954.140625 754.21875 7973.398438 Z M 754.21875 7973.398438 " transform="matrix(0.1, 0, 0, -0.1, -18, 833)"/>
<path fill-rule="nonzero" fill="rgb(0%, 0%, 0%)" fill-opacity="1" d="M 57.421875 35.660156 C 57.421875 33.734375 55.859375 32.171875 53.933594 32.171875 C 52.007812 32.171875 50.445312 33.734375 50.445312 35.660156 C 50.445312 37.585938 52.007812 39.144531 53.933594 39.144531 C 55.859375 39.144531 57.421875 37.585938 57.421875 35.660156 "/>
<g fill="rgb(100%, 100%, 100%)" fill-opacity="1">
<use xlink:href="#glyph-2-0" x="51.9785" y="38.129"/>
</g>
<path fill="none" stroke-width="4.98132" stroke-linecap="round" stroke-linejoin="miter" stroke="rgb(0%, 0%, 0%)" stroke-opacity="1" stroke-miterlimit="10" d="M 654.570312 7774.140625 C 654.570312 7793.398438 638.945312 7809.023438 619.6875 7809.023438 C 600.46875 7809.023438 584.84375 7793.398438 584.84375 7774.140625 C 584.84375 7754.882812 600.46875 7739.296875 619.6875 7739.296875 C 638.945312 7739.296875 654.570312 7754.882812 654.570312 7774.140625 Z M 654.570312 7774.140625 " transform="matrix(0.1, 0, 0, -0.1, -18, 833)"/>
<path fill-rule="nonzero" fill="rgb(0%, 0%, 0%)" fill-opacity="1" d="M 47.457031 55.585938 C 47.457031 53.660156 45.894531 52.097656 43.96875 52.097656 C 42.046875 52.097656 40.484375 53.660156 40.484375 55.585938 C 40.484375 57.511719 42.046875 59.070312 43.96875 59.070312 C 45.894531 59.070312 47.457031 57.511719 47.457031 55.585938 "/>
<g fill="rgb(100%, 100%, 100%)" fill-opacity="1">
<use xlink:href="#glyph-3-0" x="41.9938" y="58.029"/>
</g>
<path fill="none" stroke-width="4.98132" stroke-linecap="round" stroke-linejoin="miter" stroke="rgb(0%, 0%, 0%)" stroke-opacity="1" stroke-miterlimit="10" d="M 654.570312 7973.398438 C 654.570312 7992.65625 638.945312 8008.28125 619.6875 8008.28125 C 600.46875 8008.28125 584.84375 7992.65625 584.84375 7973.398438 C 584.84375 7954.140625 600.46875 7938.554688 619.6875 7938.554688 C 638.945312 7938.554688 654.570312 7954.140625 654.570312 7973.398438 Z M 654.570312 7973.398438 " transform="matrix(0.1, 0, 0, -0.1, -18, 833)"/>
<path fill-rule="nonzero" fill="rgb(0%, 0%, 0%)" fill-opacity="1" d="M 47.457031 35.660156 C 47.457031 33.734375 45.894531 32.171875 43.96875 32.171875 C 42.046875 32.171875 40.484375 33.734375 40.484375 35.660156 C 40.484375 37.585938 42.046875 39.144531 43.96875 39.144531 C 45.894531 39.144531 47.457031 37.585938 47.457031 35.660156 "/>
<g fill="rgb(100%, 100%, 100%)" fill-opacity="1">
<use xlink:href="#glyph-0-1" x="41.9801" y="38.254"/>
</g>
<path fill="none" stroke-width="4.98132" stroke-linecap="round" stroke-linejoin="miter" stroke="rgb(0%, 0%, 0%)" stroke-opacity="1" stroke-miterlimit="10" d="M 554.960938 7674.53125 C 554.960938 7693.789062 539.335938 7709.375 520.078125 7709.375 C 500.820312 7709.375 485.195312 7693.789062 485.195312 7674.53125 C 485.195312 7655.273438 500.820312 7639.648438 520.078125 7639.648438 C 539.335938 7639.648438 554.960938 7655.273438 554.960938 7674.53125 Z M 554.960938 7674.53125 " transform="matrix(0.1, 0, 0, -0.1, -18, 833)"/>
<path fill-rule="nonzero" fill="rgb(0%, 0%, 0%)" fill-opacity="1" d="M 37.496094 65.546875 C 37.496094 63.621094 35.933594 62.0625 34.007812 62.0625 C 32.082031 62.0625 30.519531 63.621094 30.519531 65.546875 C 30.519531 67.472656 32.082031 69.035156 34.007812 69.035156 C 35.933594 69.035156 37.496094 67.472656 37.496094 65.546875 "/>
<g fill="rgb(100%, 100%, 100%)" fill-opacity="1">
<use xlink:href="#glyph-1-0" x="31.1902" y="67.344"/>
</g>
<g fill="rgb(100%, 100%, 100%)" fill-opacity="1">
<use xlink:href="#glyph-1-2" x="34.008952" y="67.344"/>
</g>
<path fill="none" stroke-width="4.98132" stroke-linecap="round" stroke-linejoin="miter" stroke="rgb(0%, 0%, 0%)" stroke-opacity="1" stroke-miterlimit="10" d="M 554.960938 7774.140625 C 554.960938 7793.398438 539.335938 7809.023438 520.078125 7809.023438 C 500.820312 7809.023438 485.195312 7793.398438 485.195312 7774.140625 C 485.195312 7754.882812 500.820312 7739.296875 520.078125 7739.296875 C 539.335938 7739.296875 554.960938 7754.882812 554.960938 7774.140625 Z M 554.960938 7774.140625 " transform="matrix(0.1, 0, 0, -0.1, -18, 833)"/>
<path fill-rule="nonzero" fill="rgb(0%, 0%, 0%)" fill-opacity="1" d="M 37.496094 55.585938 C 37.496094 53.660156 35.933594 52.097656 34.007812 52.097656 C 32.082031 52.097656 30.519531 53.660156 30.519531 55.585938 C 30.519531 57.511719 32.082031 59.070312 34.007812 59.070312 C 35.933594 59.070312 37.496094 57.511719 37.496094 55.585938 "/>
<g fill="rgb(100%, 100%, 100%)" fill-opacity="1">
<use xlink:href="#glyph-4-0" x="32.0152" y="58.184"/>
</g>
<path fill="none" stroke-width="4.98132" stroke-linecap="round" stroke-linejoin="miter" stroke="rgb(100%, 0%, 0%)" stroke-opacity="1" stroke-miterlimit="10" d="M 554.960938 7973.398438 C 554.960938 7992.65625 539.335938 8008.28125 520.078125 8008.28125 C 500.820312 8008.28125 485.195312 7992.65625 485.195312 7973.398438 C 485.195312 7954.140625 500.820312 7938.554688 520.078125 7938.554688 C 539.335938 7938.554688 554.960938 7954.140625 554.960938 7973.398438 Z M 554.960938 7973.398438 " transform="matrix(0.1, 0, 0, -0.1, -18, 833)"/>
<path fill-rule="nonzero" fill="rgb(100%, 0%, 0%)" fill-opacity="1" d="M 37.496094 35.660156 C 37.496094 33.734375 35.933594 32.171875 34.007812 32.171875 C 32.082031 32.171875 30.519531 33.734375 30.519531 35.660156 C 30.519531 37.585938 32.082031 39.144531 34.007812 39.144531 C 35.933594 39.144531 37.496094 37.585938 37.496094 35.660156 "/>
<g fill="rgb(100%, 100%, 100%)" fill-opacity="1">
<use xlink:href="#glyph-0-0" x="32.0176" y="38.254"/>
</g>
<path fill="none" stroke-width="4.98132" stroke-linecap="round" stroke-linejoin="miter" stroke="rgb(0%, 0%, 0%)" stroke-opacity="1" stroke-miterlimit="10" d="M 455.3125 7674.53125 C 455.3125 7693.789062 439.6875 7709.375 420.46875 7709.375 C 401.210938 7709.375 385.585938 7693.789062 385.585938 7674.53125 C 385.585938 7655.273438 401.210938 7639.648438 420.46875 7639.648438 C 439.6875 7639.648438 455.3125 7655.273438 455.3125 7674.53125 Z M 455.3125 7674.53125 " transform="matrix(0.1, 0, 0, -0.1, -18, 833)"/>
<path fill-rule="nonzero" fill="rgb(0%, 0%, 0%)" fill-opacity="1" d="M 27.53125 65.546875 C 27.53125 63.621094 25.96875 62.0625 24.046875 62.0625 C 22.121094 62.0625 20.558594 63.621094 20.558594 65.546875 C 20.558594 67.472656 22.121094 69.035156 24.046875 69.035156 C 25.96875 69.035156 27.53125 67.472656 27.53125 65.546875 "/>
<g fill="rgb(100%, 100%, 100%)" fill-opacity="1">
<use xlink:href="#glyph-1-0" x="21.2273" y="67.344"/>
</g>
<g fill="rgb(100%, 100%, 100%)" fill-opacity="1">
<use xlink:href="#glyph-1-1" x="24.046052" y="67.344"/>
</g>
<path fill="none" stroke-width="4.98132" stroke-linecap="round" stroke-linejoin="miter" stroke="rgb(0%, 0%, 0%)" stroke-opacity="1" stroke-miterlimit="10" d="M 455.3125 7774.140625 C 455.3125 7793.398438 439.6875 7809.023438 420.46875 7809.023438 C 401.210938 7809.023438 385.585938 7793.398438 385.585938 7774.140625 C 385.585938 7754.882812 401.210938 7739.296875 420.46875 7739.296875 C 439.6875 7739.296875 455.3125 7754.882812 455.3125 7774.140625 Z M 455.3125 7774.140625 " transform="matrix(0.1, 0, 0, -0.1, -18, 833)"/>
<path fill-rule="nonzero" fill="rgb(0%, 0%, 0%)" fill-opacity="1" d="M 27.53125 55.585938 C 27.53125 53.660156 25.96875 52.097656 24.046875 52.097656 C 22.121094 52.097656 20.558594 53.660156 20.558594 55.585938 C 20.558594 57.511719 22.121094 59.070312 24.046875 59.070312 C 25.96875 59.070312 27.53125 57.511719 27.53125 55.585938 "/>
<g fill="rgb(100%, 100%, 100%)" fill-opacity="1">
<use xlink:href="#glyph-2-0" x="22.0906" y="58.054"/>
</g>
<path fill="none" stroke-width="4.98132" stroke-linecap="round" stroke-linejoin="miter" stroke="rgb(0%, 0%, 0%)" stroke-opacity="1" stroke-miterlimit="10" d="M 455.3125 7973.398438 C 455.3125 7992.65625 439.6875 8008.28125 420.46875 8008.28125 C 401.210938 8008.28125 385.585938 7992.65625 385.585938 7973.398438 C 385.585938 7954.140625 401.210938 7938.554688 420.46875 7938.554688 C 439.6875 7938.554688 455.3125 7954.140625 455.3125 7973.398438 Z M 455.3125 7973.398438 " transform="matrix(0.1, 0, 0, -0.1, -18, 833)"/>
<path fill-rule="nonzero" fill="rgb(0%, 0%, 0%)" fill-opacity="1" d="M 27.53125 35.660156 C 27.53125 33.734375 25.96875 32.171875 24.046875 32.171875 C 22.121094 32.171875 20.558594 33.734375 20.558594 35.660156 C 20.558594 37.585938 22.121094 39.144531 24.046875 39.144531 C 25.96875 39.144531 27.53125 37.585938 27.53125 35.660156 "/>
<g fill="rgb(100%, 100%, 100%)" fill-opacity="1">
<use xlink:href="#glyph-3-0" x="22.0688" y="38.104"/>
</g>
<path fill="none" stroke-width="4.98132" stroke-linecap="round" stroke-linejoin="miter" stroke="rgb(0%, 0%, 0%)" stroke-opacity="1" stroke-miterlimit="10" d="M 455.3125 8172.65625 C 455.3125 8191.914062 439.6875 8207.539062 420.46875 8207.539062 C 401.210938 8207.539062 385.585938 8191.914062 385.585938 8172.65625 C 385.585938 8153.398438 401.210938 8137.773438 420.46875 8137.773438 C 439.6875 8137.773438 455.3125 8153.398438 455.3125 8172.65625 Z M 455.3125 8172.65625 " transform="matrix(0.1, 0, 0, -0.1, -18, 833)"/>
<path fill-rule="nonzero" fill="rgb(0%, 0%, 0%)" fill-opacity="1" d="M 27.53125 15.734375 C 27.53125 13.808594 25.96875 12.246094 24.046875 12.246094 C 22.121094 12.246094 20.558594 13.808594 20.558594 15.734375 C 20.558594 17.660156 22.121094 19.222656 24.046875 19.222656 C 25.96875 19.222656 27.53125 17.660156 27.53125 15.734375 "/>
<g fill="rgb(100%, 100%, 100%)" fill-opacity="1">
<use xlink:href="#glyph-0-1" x="22.0551" y="18.329"/>
</g>
<path fill="none" stroke-width="4.98132" stroke-linecap="round" stroke-linejoin="miter" stroke="rgb(0%, 0%, 0%)" stroke-opacity="1" stroke-miterlimit="10" d="M 355.703125 7873.789062 C 355.703125 7893.046875 340.078125 7908.632812 320.820312 7908.632812 C 301.5625 7908.632812 285.9375 7893.046875 285.9375 7873.789062 C 285.9375 7854.53125 301.5625 7838.90625 320.820312 7838.90625 C 340.078125 7838.90625 355.703125 7854.53125 355.703125 7873.789062 Z M 355.703125 7873.789062 " transform="matrix(0.1, 0, 0, -0.1, -18, 833)"/>
<path fill-rule="nonzero" fill="rgb(0%, 0%, 0%)" fill-opacity="1" d="M 17.570312 45.621094 C 17.570312 43.695312 16.007812 42.136719 14.082031 42.136719 C 12.15625 42.136719 10.59375 43.695312 10.59375 45.621094 C 10.59375 47.546875 12.15625 49.109375 14.082031 49.109375 C 16.007812 49.109375 17.570312 47.546875 17.570312 45.621094 "/>
<g fill="rgb(100%, 100%, 100%)" fill-opacity="1">
<use xlink:href="#glyph-1-0" x="11.2648" y="47.418"/>
</g>
<g fill="rgb(100%, 100%, 100%)" fill-opacity="1">
<use xlink:href="#glyph-1-2" x="14.083162" y="47.418"/>
</g>
<path fill="none" stroke-width="4.98132" stroke-linecap="round" stroke-linejoin="miter" stroke="rgb(0%, 0%, 0%)" stroke-opacity="1" stroke-miterlimit="10" d="M 355.703125 7973.398438 C 355.703125 7992.65625 340.078125 8008.28125 320.820312 8008.28125 C 301.5625 8008.28125 285.9375 7992.65625 285.9375 7973.398438 C 285.9375 7954.140625 301.5625 7938.554688 320.820312 7938.554688 C 340.078125 7938.554688 355.703125 7954.140625 355.703125 7973.398438 Z M 355.703125 7973.398438 " transform="matrix(0.1, 0, 0, -0.1, -18, 833)"/>
<path fill-rule="nonzero" fill="rgb(0%, 0%, 0%)" fill-opacity="1" d="M 17.570312 35.660156 C 17.570312 33.734375 16.007812 32.171875 14.082031 32.171875 C 12.15625 32.171875 10.59375 33.734375 10.59375 35.660156 C 10.59375 37.585938 12.15625 39.144531 14.082031 39.144531 C 16.007812 39.144531 17.570312 37.585938 17.570312 35.660156 "/>
<g fill="rgb(100%, 100%, 100%)" fill-opacity="1">
<use xlink:href="#glyph-4-0" x="12.0906" y="38.259"/>
</g>
<path fill="none" stroke-width="4.98132" stroke-linecap="round" stroke-linejoin="miter" stroke="rgb(100%, 0%, 0%)" stroke-opacity="1" stroke-miterlimit="10" d="M 355.703125 8172.65625 C 355.703125 8191.914062 340.078125 8207.539062 320.820312 8207.539062 C 301.5625 8207.539062 285.9375 8191.914062 285.9375 8172.65625 C 285.9375 8153.398438 301.5625 8137.773438 320.820312 8137.773438 C 340.078125 8137.773438 355.703125 8153.398438 355.703125 8172.65625 Z M 355.703125 8172.65625 " transform="matrix(0.1, 0, 0, -0.1, -18, 833)"/>
<path fill-rule="nonzero" fill="rgb(100%, 0%, 0%)" fill-opacity="1" d="M 17.570312 15.734375 C 17.570312 13.808594 16.007812 12.246094 14.082031 12.246094 C 12.15625 12.246094 10.59375 13.808594 10.59375 15.734375 C 10.59375 17.660156 12.15625 19.222656 14.082031 19.222656 C 16.007812 19.222656 17.570312 17.660156 17.570312 15.734375 "/>
<g fill="rgb(100%, 100%, 100%)" fill-opacity="1">
<use xlink:href="#glyph-0-0" x="12.0926" y="18.329"/>
</g>
<g fill="rgb(0%, 0%, 0%)" fill-opacity="1">
<use xlink:href="#glyph-5-0" x="69.0273" y="23.337"/>
</g>
</svg>
