<?xml version="1.0" encoding="UTF-8"?>
<svg xmlns="http://www.w3.org/2000/svg" xmlns:xlink="http://www.w3.org/1999/xlink" width="84pt" height="121pt" viewBox="0 0 84 121">
<defs>
<g>
<g id="glyph-0-0">
<path d="M 1.859375 -3.6875 L 1.859375 0 L 2.484375 0 L 2.484375 -5.1875 L 2.078125 -5.1875 C 1.84375 -4.390625 1.703125 -4.28125 0.734375 -4.15625 L 0.734375 -3.6875 Z M 1.859375 -3.6875 "/>
</g>
<g id="glyph-1-0">
<path d="M 0.28125 -3.703125 L 0.28125 0 L 0.65625 0 L 0.65625 -0.34375 C 0.859375 -0.03125 1.125 0.109375 1.5 0.109375 C 2.203125 0.109375 2.65625 -0.453125 2.65625 -1.34375 C 2.65625 -2.203125 2.21875 -2.734375 1.515625 -2.734375 C 1.15625 -2.734375 0.890625 -2.59375 0.703125 -2.296875 L 0.703125 -3.703125 Z M 1.4375 -2.34375 C 1.90625 -2.34375 2.21875 -1.921875 2.21875 -1.296875 C 2.21875 -0.6875 1.90625 -0.28125 1.4375 -0.28125 C 0.984375 -0.28125 0.703125 -0.6875 0.703125 -1.3125 C 0.703125 -1.9375 0.984375 -2.34375 1.4375 -2.34375 Z M 1.4375 -2.34375 "/>
</g>
<g id="glyph-1-1">
<path d="M 2.640625 -3.59375 L 0.234375 -3.59375 L 0.234375 -3.15625 L 2.171875 -3.15625 C 1.3125 -1.9375 0.96875 -1.1875 0.703125 0 L 1.171875 0 C 1.375 -1.15625 1.828125 -2.140625 2.640625 -3.21875 Z M 2.640625 -3.59375 "/>
</g>
<g id="glyph-2-0">
<path d="M 2.484375 -3.578125 L 2.09375 -3.578125 L 1.90625 -2.5625 L 1.265625 -2.5625 L 1.453125 -3.578125 L 1.0625 -3.578125 L 0.875 -2.5625 L 0.265625 -2.5625 L 0.265625 -2.21875 L 0.8125 -2.21875 L 0.65625 -1.328125 L 0.078125 -1.328125 L 0.078125 -0.984375 L 0.59375 -0.984375 L 0.390625 0.109375 L 0.78125 0.109375 L 0.984375 -0.984375 L 1.625 -0.984375 L 1.421875 0.109375 L 1.8125 0.109375 L 2.015625 -0.984375 L 2.609375 -0.984375 L 2.609375 -1.328125 L 2.078125 -1.328125 L 2.234375 -2.21875 L 2.78125 -2.21875 L 2.78125 -2.5625 L 2.296875 -2.5625 Z M 1.84375 -2.21875 L 1.6875 -1.328125 L 1.046875 -1.328125 L 1.203125 -2.21875 Z M 1.84375 -2.21875 "/>
</g>
<g id="glyph-2-1">
<path d="M 2.4375 -3.640625 L 0.5625 -3.640625 L 0.296875 -1.65625 L 0.703125 -1.65625 C 0.921875 -1.90625 1.09375 -2 1.375 -2 C 1.859375 -2 2.171875 -1.65625 2.171875 -1.125 C 2.171875 -0.59375 1.859375 -0.28125 1.375 -0.28125 C 0.984375 -0.28125 0.734375 -0.484375 0.625 -0.890625 L 0.171875 -0.890625 C 0.234375 -0.59375 0.296875 -0.453125 0.40625 -0.3125 C 0.609375 -0.046875 0.96875 0.125 1.390625 0.125 C 2.109375 0.125 2.625 -0.421875 2.625 -1.1875 C 2.625 -1.90625 2.15625 -2.390625 1.453125 -2.390625 C 1.203125 -2.390625 1 -2.328125 0.78125 -2.171875 L 0.921875 -3.1875 L 2.4375 -3.1875 Z M 2.4375 -3.640625 "/>
</g>
<g id="glyph-3-0">
<path d="M 2.46875 -3.546875 L 2.078125 -3.546875 L 1.90625 -2.546875 L 1.265625 -2.546875 L 1.453125 -3.546875 L 1.0625 -3.546875 L 0.875 -2.546875 L 0.265625 -2.546875 L 0.265625 -2.203125 L 0.8125 -2.203125 L 0.65625 -1.3125 L 0.078125 -1.3125 L 0.078125 -0.96875 L 0.578125 -0.96875 L 0.390625 0.109375 L 0.78125 0.109375 L 0.984375 -0.96875 L 1.609375 -0.96875 L 1.421875 0.109375 L 1.796875 0.109375 L 2 -0.96875 L 2.59375 -0.96875 L 2.59375 -1.3125 L 2.0625 -1.3125 L 2.21875 -2.203125 L 2.765625 -2.203125 L 2.765625 -2.546875 L 2.28125 -2.546875 Z M 1.828125 -2.203125 L 1.671875 -1.3125 L 1.046875 -1.3125 L 1.203125 -2.203125 Z M 1.828125 -2.203125 "/>
</g>
<g id="glyph-3-1">
<path d="M 1.671875 -0.890625 L 1.671875 0 L 2.109375 0 L 2.109375 -0.890625 L 2.65625 -0.890625 L 2.65625 -1.296875 L 2.109375 -1.296875 L 2.109375 -3.6875 L 1.78125 -3.6875 L 0.140625 -1.359375 L 0.140625 -0.890625 Z M 1.671875 -1.296875 L 0.53125 -1.296875 L 1.671875 -2.921875 Z M 1.671875 -1.296875 "/>
</g>
<g id="glyph-4-0">
<path d="M 1.5625 -2.34375 L 1.890625 -2.34375 C 2.578125 -2.34375 2.9375 -2.03125 2.9375 -1.421875 C 2.9375 -0.78125 2.546875 -0.390625 1.90625 -0.390625 C 1.21875 -0.390625 0.890625 -0.734375 0.84375 -1.484375 L 0.21875 -1.484375 C 0.25 -1.078125 0.328125 -0.796875 0.4375 -0.578125 C 0.703125 -0.078125 1.1875 0.15625 1.875 0.15625 C 2.90625 0.15625 3.5625 -0.453125 3.5625 -1.421875 C 3.5625 -2.078125 3.3125 -2.421875 2.71875 -2.640625 C 3.1875 -2.828125 3.421875 -3.171875 3.421875 -3.6875 C 3.421875 -4.5625 2.84375 -5.09375 1.890625 -5.09375 C 0.890625 -5.09375 0.359375 -4.53125 0.328125 -3.453125 L 0.953125 -3.453125 C 0.953125 -3.765625 0.984375 -3.9375 1.0625 -4.09375 C 1.203125 -4.390625 1.515625 -4.546875 1.90625 -4.546875 C 2.453125 -4.546875 2.78125 -4.21875 2.78125 -3.671875 C 2.78125 -3.3125 2.65625 -3.09375 2.375 -2.96875 C 2.21875 -2.90625 1.984375 -2.875 1.5625 -2.875 Z M 1.5625 -2.34375 "/>
</g>
<g id="glyph-5-0">
<path d="M 3.640625 -0.625 L 0.953125 -0.625 C 1.015625 -1.0625 1.25 -1.328125 1.875 -1.703125 L 2.59375 -2.109375 C 3.3125 -2.515625 3.671875 -3.046875 3.671875 -3.6875 C 3.671875 -4.109375 3.5 -4.515625 3.203125 -4.796875 C 2.890625 -5.0625 2.515625 -5.203125 2.046875 -5.203125 C 1.390625 -5.203125 0.90625 -4.96875 0.625 -4.515625 C 0.453125 -4.25 0.375 -3.921875 0.359375 -3.40625 L 0.984375 -3.40625 C 1.015625 -3.75 1.0625 -3.953125 1.140625 -4.140625 C 1.3125 -4.453125 1.640625 -4.640625 2.015625 -4.640625 C 2.59375 -4.640625 3.03125 -4.21875 3.03125 -3.671875 C 3.03125 -3.25 2.78125 -2.890625 2.34375 -2.625 L 1.671875 -2.25 C 0.609375 -1.625 0.296875 -1.140625 0.25 0 L 3.640625 0 Z M 3.640625 -0.625 "/>
</g>
<g id="glyph-6-0">
<path d="M 3.203125 -2.96875 L 5.125 -5.734375 L 4.09375 -5.734375 L 2.71875 -3.65625 L 1.34375 -5.734375 L 0.296875 -5.734375 L 2.21875 -2.921875 L 0.1875 0 L 1.234375 0 L 2.6875 -2.203125 L 4.125 0 L 5.1875 0 Z M 3.203125 -2.96875 "/>
</g>
<g id="glyph-6-1">
<path d="M 1.640625 -5.734375 L 0.734375 -5.734375 L 0.734375 0 L 1.640625 0 Z M 1.640625 -7.984375 L 0.71875 -7.984375 L 0.71875 -6.828125 L 1.640625 -6.828125 Z M 1.640625 -7.984375 "/>
</g>
</g>
</defs>
<path fill="none" stroke-width="4.98132" stroke-linecap="round" stroke-linejoin="miter" stroke="rgb(0%, 0%, 0%)" stroke-opacity="1" stroke-miterlimit="10" d="M 784.101562 7228.710938 L 784.101562 8224.960938 " transform="matrix(0.1, 0, 0, -0.1, -18, 833)"/>
<path fill="none" stroke-width="4.98132" stroke-linecap="round" stroke-linejoin="miter" stroke="rgb(0%, 0%, 0%)" stroke-opacity="1" stroke-miterlimit="10" d="M 684.453125 7228.710938 L 684.453125 8224.960938 " transform="matrix(0.1, 0, 0, -0.1, -18, 833)"/>
<path fill="none" stroke-width="4.98132" stroke-linecap="round" stroke-linejoin="miter" stroke="rgb(0%, 0%, 0%)" stroke-opacity="1" stroke-miterlimit="10" d="M 584.84375 7228.710938 L 584.84375 8224.960938 " transform="matrix(0.1, 0, 0, -0.1, -18, 833)"/>
<path fill="none" stroke-width="4.98132" stroke-linecap="round" stroke-linejoin="miter" stroke="rgb(0%, 0%, 0%)" stroke-opacity="1" stroke-miterlimit="10" d="M 485.195312 7228.710938 L 485.195312 8224.960938 " transform="matrix(0.1, 0, 0, -0.1, -18, 833)"/>
<path fill="none" stroke-width="4.98132" stroke-linecap="round" stroke-linejoin="miter" stroke="rgb(0%, 0%, 0%)" stroke-opacity="1" stroke-miterlimit="10" d="M 385.585938 7228.710938 L 385.585938 8224.960938 " transform="matrix(0.1, 0, 0, -0.1, -18, 833)"/>
<path fill="none" stroke-width="4.98132" stroke-linecap="round" stroke-linejoin="miter" stroke="rgb(0%, 0%, 0%)" stroke-opacity="1" stroke-miterlimit="10" d="M 285.9375 7228.710938 L 285.9375 8224.960938 " transform="matrix(0.1, 0, 0, -0.1, -18, 833)"/>
<path fill="none" stroke-width="4.98132" stroke-linecap="round" stroke-linejoin="miter" stroke="rgb(0%, 0%, 0%)" stroke-opacity="1" stroke-miterlimit="10" d="M 285.9375 8224.960938 L 784.101562 8224.960938 " transform="matrix(0.1, 0, 0, -0.1, -18, 833)"/>
<path fill="none" stroke-width="4.98132" stroke-linecap="round" stroke-linejoin="miter" stroke="rgb(0%, 0%, 0%)" stroke-opacity="1" stroke-miterlimit="10" d="M 285.9375 8125.351562 L 784.101562 8125.351562 " transform="matrix(0.1, 0, 0, -0.1, -18, 833)"/>
<path fill="none" stroke-width="4.98132" stroke-linecap="round" stroke-linejoin="miter" stroke="rgb(0%, 0%, 0%)" stroke-opacity="1" stroke-miterlimit="10" d="M 285.9375 8025.703125 L 784.101562 8025.703125 " transform="matrix(0.1, 0, 0, -0.1, -18, 833)"/>
<path fill="none" stroke-width="4.98132" stroke-linecap="round" stroke-linejoin="miter" stroke="rgb(0%, 0%, 0%)" stroke-opacity="1" stroke-miterlimit="10" d="M 285.9375 7926.09375 L 784.101562 7926.09375 " transform="matrix(0.1, 0, 0, -0.1, -18, 833)"/>
<path fill="none" stroke-width="4.98132" stroke-linecap="round" stroke-linejoin="miter" stroke="rgb(0%, 0%, 0%)" stroke-opacity="1" stroke-miterlimit="10" d="M 285.9375 7826.445312 L 784.101562 7826.445312 " transform="matrix(0.1, 0, 0, -0.1, -18, 833)"/>
<path fill="none" stroke-width="4.98132" stroke-linecap="round" stroke-linejoin="miter" stroke="rgb(0%, 0%, 0%)" stroke-opacity="1" stroke-miterlimit="10" d="M 285.9375 7726.835938 L 784.101562 7726.835938 " transform="matrix(0.1, 0, 0, -0.1, -18, 833)"/>
<path fill="none" stroke-width="4.98132" stroke-linecap="round" stroke-linejoin="miter" stroke="rgb(0%, 0%, 0%)" stroke-opacity="1" stroke-miterlimit="10" d="M 285.9375 7627.1875 L 784.101562 7627.1875 " transform="matrix(0.1, 0, 0, -0.1, -18, 833)"/>
<path fill="none" stroke-width="4.98132" stroke-linecap="round" stroke-linejoin="miter" stroke="rgb(0%, 0%, 0%)" stroke-opacity="1" stroke-miterlimit="10" d="M 285.9375 7527.578125 L 784.101562 7527.578125 " transform="matrix(0.1, 0, 0, -0.1, -18, 833)"/>
<path fill="none" stroke-width="4.98132" stroke-linecap="round" stroke-linejoin="miter" stroke="rgb(0%, 0%, 0%)" stroke-opacity="1" stroke-miterlimit="10" d="M 285.9375 7427.96875 L 784.101562 7427.96875 " transform="matrix(0.1, 0, 0, -0.1, -18, 833)"/>
<path fill="none" stroke-width="4.98132" stroke-linecap="round" stroke-linejoin="miter" stroke="rgb(0%, 0%, 0%)" stroke-opacity="1" stroke-miterlimit="10" d="M 285.9375 7328.320312 L 784.101562 7328.320312 " transform="matrix(0.1, 0, 0, -0.1, -18, 833)"/>
<path fill="none" stroke-width="4.98132" stroke-linecap="round" stroke-linejoin="miter" stroke="rgb(100%, 0%, 0%)" stroke-opacity="1" stroke-miterlimit="10" d="M 818.945312 7375.664062 C 818.945312 7394.882812 803.359375 7410.507812 784.101562 7410.507812 C 764.84375 7410.507812 749.21875 7394.882812 749.21875 7375.664062 C 749.21875 7356.40625 764.84375 7340.78125 784.101562 7340.78125 C 803.359375 7340.78125 818.945312 7356.40625 818.945312 7375.664062 Z M 818.945312 7375.664062 " transform="matrix(0.1, 0, 0, -0.1, -18, 833)"/>
<path fill-rule="nonzero" fill="rgb(100%, 0%, 0%)" fill-opacity="1" d="M 63.894531 95.433594 C 63.894531 93.511719 62.335938 91.949219 60.410156 91.949219 C 58.484375 91.949219 56.921875 93.511719 56.921875 95.433594 C 56.921875 97.359375 58.484375 98.921875 60.410156 98.921875 C 62.335938 98.921875 63.894531 97.359375 63.894531 95.433594 "/>
<g fill="rgb(100%, 100%, 100%)" fill-opacity="1">
<use xlink:href="#glyph-0-0" x="58.418" y="98.029"/>
</g>
<path fill="none" stroke-width="4.98132" stroke-linecap="round" stroke-linejoin="miter" stroke="rgb(0%, 0%, 0%)" stroke-opacity="1" stroke-miterlimit="10" d="M 818.945312 7574.882812 C 818.945312 7594.140625 803.359375 7609.765625 784.101562 7609.765625 C 764.84375 7609.765625 749.21875 7594.140625 749.21875 7574.882812 C 749.21875 7555.664062 764.84375 7540.039062 784.101562 7540.039062 C 803.359375 7540.039062 818.945312 7555.664062 818.945312 7574.882812 Z M 818.945312 7574.882812 " transform="matrix(0.1, 0, 0, -0.1, -18, 833)"/>
<path fill-rule="nonzero" fill="rgb(0%, 0%, 0%)" fill-opacity="1" d="M 63.894531 75.511719 C 63.894531 73.585938 62.335938 72.023438 60.410156 72.023438 C 58.484375 72.023438 56.921875 73.585938 56.921875 75.511719 C 56.921875 77.433594 58.484375 78.996094 60.410156 78.996094 C 62.335938 78.996094 63.894531 77.433594 63.894531 75.511719 "/>
<g fill="rgb(100%, 100%, 100%)" fill-opacity="1">
<use xlink:href="#glyph-1-0" x="57.5922" y="77.307"/>
</g>
<g fill="rgb(100%, 100%, 100%)" fill-opacity="1">
<use xlink:href="#glyph-1-1" x="60.410952" y="77.307"/>
</g>
<path fill="none" stroke-width="4.98132" stroke-linecap="round" stroke-linejoin="miter" stroke="rgb(0%, 0%, 0%)" stroke-opacity="1" stroke-miterlimit="10" d="M 818.945312 7774.140625 C 818.945312 7793.398438 803.359375 7809.023438 784.101562 7809.023438 C 764.84375 7809.023438 749.21875 7793.398438 749.21875 7774.140625 C 749.21875 7754.882812 764.84375 7739.296875 784.101562 7739.296875 C 803.359375 7739.296875 818.945312 7754.882812 818.945312 7774.140625 Z M 818.945312 7774.140625 " transform="matrix(0.1, 0, 0, -0.1, -18, 833)"/>
<path fill-rule="nonzero" fill="rgb(0%, 0%, 0%)" fill-opacity="1" d="M 63.894531 55.585938 C 63.894531 53.660156 62.335938 52.097656 60.410156 52.097656 C 58.484375 52.097656 56.921875 53.660156 56.921875 55.585938 C 56.921875 57.511719 58.484375 59.070312 60.410156 59.070312 C 62.335938 59.070312 63.894531 57.511719 63.894531 55.585938 "/>
<g fill="rgb(100%, 100%, 100%)" fill-opacity="1">
<use xlink:href="#glyph-2-0" x="57.5648" y="57.338"/>
</g>
<g fill="rgb(100%, 100%, 100%)" fill-opacity="1">
<use xlink:href="#glyph-2-1" x="60.404644" y="57.338"/>
</g>
<path fill="none" stroke-width="4.98132" stroke-linecap="round" stroke-linejoin="miter" stroke="rgb(0%, 0%, 0%)" stroke-opacity="1" stroke-miterlimit="10" d="M 818.945312 7973.398438 C 818.945312 7992.65625 803.359375 8008.28125 784.101562 8008.28125 C 764.84375 8008.28125 749.21875 7992.65625 749.21875 7973.398438 C 749.21875 7954.140625 764.84375 7938.554688 784.101562 7938.554688 C 803.359375 7938.554688 818.945312 7954.140625 818.945312 7973.398438 Z M 818.945312 7973.398438 " transform="matrix(0.1, 0, 0, -0.1, -18, 833)"/>
<path fill-rule="nonzero" fill="rgb(0%, 0%, 0%)" fill-opacity="1" d="M 63.894531 35.660156 C 63.894531 33.734375 62.335938 32.171875 60.410156 32.171875 C 58.484375 32.171875 56.921875 33.734375 56.921875 35.660156 C 56.921875 37.585938 58.484375 39.144531 60.410156 39.144531 C 62.335938 39.144531 63.894531 37.585938 63.894531 35.660156 "/>
<g fill="rgb(100%, 100%, 100%)" fill-opacity="1">
<use xlink:href="#glyph-3-0" x="57.5852" y="37.455"/>
</g>
<g fill="rgb(100%, 100%, 100%)" fill-opacity="1">
<use xlink:href="#glyph-3-1" x="60.413712" y="37.455"/>
</g>
<path fill="none" stroke-width="4.98132" stroke-linecap="round" stroke-linejoin="miter" stroke="rgb(0%, 0%, 0%)" stroke-opacity="1" stroke-miterlimit="10" d="M 719.335938 7674.53125 C 719.335938 7693.789062 703.710938 7709.375 684.453125 7709.375 C 665.195312 7709.375 649.609375 7693.789062 649.609375 7674.53125 C 649.609375 7655.273438 665.195312 7639.648438 684.453125 7639.648438 C 703.710938 7639.648438 719.335938 7655.273438 719.335938 7674.53125 Z M 719.335938 7674.53125 " transform="matrix(0.1, 0, 0, -0.1, -18, 833)"/>
<path fill-rule="nonzero" fill="rgb(0%, 0%, 0%)" fill-opacity="1" d="M 53.933594 65.546875 C 53.933594 63.621094 52.371094 62.0625 50.445312 62.0625 C 48.519531 62.0625 46.960938 63.621094 46.960938 65.546875 C 46.960938 67.472656 48.519531 69.035156 50.445312 69.035156 C 52.371094 69.035156 53.933594 67.472656 53.933594 65.546875 "/>
<g fill="rgb(100%, 100%, 100%)" fill-opacity="1">
<use xlink:href="#glyph-4-0" x="48.4914" y="68.016"/>
</g>
<path fill="none" stroke-width="4.98132" stroke-linecap="round" stroke-linejoin="miter" stroke="rgb(0%, 0%, 0%)" stroke-opacity="1" stroke-miterlimit="10" d="M 719.335938 7873.789062 C 719.335938 7893.046875 703.710938 7908.632812 684.453125 7908.632812 C 665.195312 7908.632812 649.609375 7893.046875 649.609375 7873.789062 C 649.609375 7854.53125 665.195312 7838.90625 684.453125 7838.90625 C 703.710938 7838.90625 719.335938 7854.53125 719.335938 7873.789062 Z M 719.335938 7873.789062 " transform="matrix(0.1, 0, 0, -0.1, -18, 833)"/>
<path fill-rule="nonzero" fill="rgb(0%, 0%, 0%)" fill-opacity="1" d="M 53.933594 45.621094 C 53.933594 43.695312 52.371094 42.136719 50.445312 42.136719 C 48.519531 42.136719 46.960938 43.695312 46.960938 45.621094 C 46.960938 47.546875 48.519531 49.109375 50.445312 49.109375 C 52.371094 49.109375 53.933594 47.546875 53.933594 45.621094 "/>
<g fill="rgb(100%, 100%, 100%)" fill-opacity="1">
<use xlink:href="#glyph-5-0" x="48.4535" y="48.221"/>
</g>
<path fill="none" stroke-width="4.98132" stroke-linecap="round" stroke-linejoin="miter" stroke="rgb(100%, 0%, 0%)" stroke-opacity="1" stroke-miterlimit="10" d="M 719.335938 8073.046875 C 719.335938 8092.304688 703.710938 8107.890625 684.453125 8107.890625 C 665.195312 8107.890625 649.609375 8092.304688 649.609375 8073.046875 C 649.609375 8053.789062 665.195312 8038.164062 684.453125 8038.164062 C 703.710938 8038.164062 719.335938 8053.789062 719.335938 8073.046875 Z M 719.335938 8073.046875 " transform="matrix(0.1, 0, 0, -0.1, -18, 833)"/>
<path fill-rule="nonzero" fill="rgb(100%, 0%, 0%)" fill-opacity="1" d="M 53.933594 25.695312 C 53.933594 23.769531 52.371094 22.210938 50.445312 22.210938 C 48.519531 22.210938 46.960938 23.769531 46.960938 25.695312 C 46.960938 27.621094 48.519531 29.183594 50.445312 29.183594 C 52.371094 29.183594 53.933594 27.621094 53.933594 25.695312 "/>
<g fill="rgb(100%, 100%, 100%)" fill-opacity="1">
<use xlink:href="#glyph-0-0" x="48.4559" y="28.291"/>
</g>
<path fill="none" stroke-width="4.98132" stroke-linecap="round" stroke-linejoin="miter" stroke="rgb(0%, 0%, 0%)" stroke-opacity="1" stroke-miterlimit="10" d="M 619.6875 7873.789062 C 619.6875 7893.046875 604.101562 7908.632812 584.84375 7908.632812 C 565.585938 7908.632812 549.960938 7893.046875 549.960938 7873.789062 C 549.960938 7854.53125 565.585938 7838.90625 584.84375 7838.90625 C 604.101562 7838.90625 619.6875 7854.53125 619.6875 7873.789062 Z M 619.6875 7873.789062 " transform="matrix(0.1, 0, 0, -0.1, -18, 833)"/>
<path fill-rule="nonzero" fill="rgb(0%, 0%, 0%)" fill-opacity="1" d="M 43.96875 45.621094 C 43.96875 43.695312 42.410156 42.136719 40.484375 42.136719 C 38.558594 42.136719 36.996094 43.695312 36.996094 45.621094 C 36.996094 47.546875 38.558594 49.109375 40.484375 49.109375 C 42.410156 49.109375 43.96875 47.546875 43.96875 45.621094 "/>
<g fill="rgb(100%, 100%, 100%)" fill-opacity="1">
<use xlink:href="#glyph-1-0" x="37.666" y="47.418"/>
</g>
<g fill="rgb(100%, 100%, 100%)" fill-opacity="1">
<use xlink:href="#glyph-1-1" x="40.484752" y="47.418"/>
</g>
<path fill="none" stroke-width="4.98132" stroke-linecap="round" stroke-linejoin="miter" stroke="rgb(0%, 0%, 0%)" stroke-opacity="1" stroke-miterlimit="10" d="M 619.6875 8073.046875 C 619.6875 8092.304688 604.101562 8107.890625 584.84375 8107.890625 C 565.585938 8107.890625 549.960938 8092.304688 549.960938 8073.046875 C 549.960938 8053.789062 565.585938 8038.164062 584.84375 8038.164062 C 604.101562 8038.164062 619.6875 8053.789062 619.6875 8073.046875 Z M 619.6875 8073.046875 " transform="matrix(0.1, 0, 0, -0.1, -18, 833)"/>
<path fill-rule="nonzero" fill="rgb(0%, 0%, 0%)" fill-opacity="1" d="M 43.96875 25.695312 C 43.96875 23.769531 42.410156 22.210938 40.484375 22.210938 C 38.558594 22.210938 36.996094 23.769531 36.996094 25.695312 C 36.996094 27.621094 38.558594 29.183594 40.484375 29.183594 C 42.410156 29.183594 43.96875 27.621094 43.96875 25.695312 "/>
<g fill="rgb(100%, 100%, 100%)" fill-opacity="1">
<use xlink:href="#glyph-2-0" x="37.6406" y="27.452"/>
</g>
<g fill="rgb(100%, 100%, 100%)" fill-opacity="1">
<use xlink:href="#glyph-2-1" x="40.480444" y="27.452"/>
</g>
<path fill="none" stroke-width="4.98132" stroke-linecap="round" stroke-linejoin="miter" stroke="rgb(0%, 0%, 0%)" stroke-opacity="1" stroke-miterlimit="10" d="M 520.078125 7774.140625 C 520.078125 7793.398438 504.453125 7809.023438 485.195312 7809.023438 C 465.9375 7809.023438 450.351562 7793.398438 450.351562 7774.140625 C 450.351562 7754.882812 465.9375 7739.296875 485.195312 7739.296875 C 504.453125 7739.296875 520.078125 7754.882812 520.078125 7774.140625 Z M 520.078125 7774.140625 " transform="matrix(0.1, 0, 0, -0.1, -18, 833)"/>
<path fill-rule="nonzero" fill="rgb(0%, 0%, 0%)" fill-opacity="1" d="M 34.007812 55.585938 C 34.007812 53.660156 32.445312 52.097656 30.519531 52.097656 C 28.59375 52.097656 27.035156 53.660156 27.035156 55.585938 C 27.035156 57.511719 28.59375 59.070312 30.519531 59.070312 C 32.445312 59.070312 34.007812 57.511719 34.007812 55.585938 "/>
<g fill="rgb(100%, 100%, 100%)" fill-opacity="1">
<use xlink:href="#glyph-3-0" x="27.6957" y="57.382"/>
</g>
<g fill="rgb(100%, 100%, 100%)" fill-opacity="1">
<use xlink:href="#glyph-3-1" x="30.523824" y="57.382"/>
</g>
<path fill="none" stroke-width="4.98132" stroke-linecap="round" stroke-linejoin="miter" stroke="rgb(0%, 0%, 0%)" stroke-opacity="1" stroke-miterlimit="10" d="M 520.078125 7973.398438 C 520.078125 7992.65625 504.453125 8008.28125 485.195312 8008.28125 C 465.9375 8008.28125 450.351562 7992.65625 450.351562 7973.398438 C 450.351562 7954.140625 465.9375 7938.554688 485.195312 7938.554688 C 504.453125 7938.554688 520.078125 7954.140625 520.078125 7973.398438 Z M 520.078125 7973.398438 " transform="matrix(0.1, 0, 0, -0.1, -18, 833)"/>
<path fill-rule="nonzero" fill="rgb(0%, 0%, 0%)" fill-opacity="1" d="M 34.007812 35.660156 C 34.007812 33.734375 32.445312 32.171875 30.519531 32.171875 C 28.59375 32.171875 27.035156 33.734375 27.035156 35.660156 C 27.035156 37.585938 28.59375 39.144531 30.519531 39.144531 C 32.445312 39.144531 34.007812 37.585938 34.007812 35.660156 "/>
<g fill="rgb(100%, 100%, 100%)" fill-opacity="1">
<use xlink:href="#glyph-4-0" x="28.566" y="38.129"/>
</g>
<path fill="none" stroke-width="4.98132" stroke-linecap="round" stroke-linejoin="miter" stroke="rgb(0%, 0%, 0%)" stroke-opacity="1" stroke-miterlimit="10" d="M 520.078125 8172.65625 C 520.078125 8191.914062 504.453125 8207.539062 485.195312 8207.539062 C 465.9375 8207.539062 450.351562 8191.914062 450.351562 8172.65625 C 450.351562 8153.398438 465.9375 8137.773438 485.195312 8137.773438 C 504.453125 8137.773438 520.078125 8153.398438 520.078125 8172.65625 Z M 520.078125 8172.65625 " transform="matrix(0.1, 0, 0, -0.1, -18, 833)"/>
<path fill-rule="nonzero" fill="rgb(0%, 0%, 0%)" fill-opacity="1" d="M 34.007812 15.734375 C 34.007812 13.808594 32.445312 12.246094 30.519531 12.246094 C 28.59375 12.246094 27.035156 13.808594 27.035156 15.734375 C 27.035156 17.660156 28.59375 19.222656 30.519531 19.222656 C 32.445312 19.222656 34.007812 17.660156 34.007812 15.734375 "/>
<g fill="rgb(100%, 100%, 100%)" fill-opacity="1">
<use xlink:href="#glyph-5-0" x="28.5289" y="18.334"/>
</g>
<path fill="none" stroke-width="4.98132" stroke-linecap="round" stroke-linejoin="miter" stroke="rgb(100%, 0%, 0%)" stroke-opacity="1" stroke-miterlimit="10" d="M 420.46875 7873.789062 C 420.46875 7893.046875 404.84375 7908.632812 385.585938 7908.632812 C 366.328125 7908.632812 350.703125 7893.046875 350.703125 7873.789062 C 350.703125 7854.53125 366.328125 7838.90625 385.585938 7838.90625 C 404.84375 7838.90625 420.46875 7854.53125 420.46875 7873.789062 Z M 420.46875 7873.789062 " transform="matrix(0.1, 0, 0, -0.1, -18, 833)"/>
<path fill-rule="nonzero" fill="rgb(100%, 0%, 0%)" fill-opacity="1" d="M 24.046875 45.621094 C 24.046875 43.695312 22.484375 42.136719 20.558594 42.136719 C 18.632812 42.136719 17.070312 43.695312 17.070312 45.621094 C 17.070312 47.546875 18.632812 49.109375 20.558594 49.109375 C 22.484375 49.109375 24.046875 47.546875 24.046875 45.621094 "/>
<g fill="rgb(100%, 100%, 100%)" fill-opacity="1">
<use xlink:href="#glyph-0-0" x="18.5684" y="48.216"/>
</g>
<g fill="rgb(0%, 0%, 0%)" fill-opacity="1">
<use xlink:href="#glyph-6-0" x="64.2824" y="24.461"/>
</g>
<g fill="rgb(0%, 0%, 0%)" fill-opacity="1">
<use xlink:href="#glyph-6-1" x="69.724994" y="24.461"/>
</g>
<g fill="rgb(0%, 0%, 0%)" fill-opacity="1">
<use xlink:href="#glyph-6-1" x="72.106248" y="24.461"/>
</g>
</svg>
