<?xml version="1.0" encoding="UTF-8"?>
<svg xmlns="http://www.w3.org/2000/svg" xmlns:xlink="http://www.w3.org/1999/xlink" width="363pt" height="160pt" viewBox="0 0 363 160">
<defs>
<g>
<g id="glyph-0-0">
<path d="M 6.90625 0.515625 C 6.90625 2.078125 5.9375 2.234375 5.5 2.234375 C 4.375 2.234375 2.875 1.328125 2.875 -0.484375 C 2.875 -2.046875 3.8125 -2.25 4.265625 -2.25 C 5.140625 -2.25 6.90625 -1.515625 6.90625 0.515625 Z M 4.875 -2.703125 C 2.015625 -2.703125 0 -1.421875 0 0 C 0 1.421875 2.015625 2.703125 4.875 2.703125 C 7.75 2.703125 9.78125 1.421875 9.78125 0 C 9.78125 -1.421875 7.75 -2.703125 4.875 -2.703125 Z M 4.875 -2.703125 "/>
</g>
<g id="glyph-0-1">
<path d="M 5.3125 8.46875 C 5.3125 7.984375 4.796875 8.125 4.796875 7.484375 C 4.796875 7.015625 5.21875 6.390625 6.203125 6.078125 C 6.015625 7.15625 5.84375 8.625 5.84375 9.328125 L 5.84375 9.484375 C 5.84375 11.390625 5.359375 13.375 4.0625 13.375 C 3.3125 13.375 2.953125 12.625 2.625 12.625 C 2.390625 12.625 2.15625 12.921875 2.15625 13.140625 C 2.15625 13.28125 3.234375 14.21875 3.8125 14.34375 C 3.921875 14.359375 4.03125 14.390625 4.140625 14.390625 C 5.640625 14.390625 6.90625 12.390625 7.3125 10.359375 C 7.484375 9.421875 7.890625 7.21875 8.109375 5.96875 C 9.265625 6.203125 9.703125 6.828125 9.703125 7.46875 C 9.703125 8.25 9.046875 9.03125 8.328125 9.03125 C 8.0625 9.03125 7.96875 9.28125 7.96875 9.5 C 7.96875 9.65625 8.015625 9.828125 8.125 9.828125 L 8.140625 9.828125 C 9.15625 9.828125 10.140625 10.15625 10.140625 11.078125 C 10.140625 12.109375 9.125 12.921875 8.25 12.921875 C 7.515625 12.921875 7.4375 12.4375 7.171875 12.4375 C 6.9375 12.4375 6.609375 12.6875 6.609375 12.921875 C 6.609375 13.109375 7.375 14.125 8.828125 14.125 C 10.59375 14.125 12.390625 12.671875 12.390625 10.984375 C 12.390625 9.875 11.515625 9.390625 10.359375 9.15625 C 11.0625 8.71875 11.78125 7.828125 11.78125 6.96875 C 11.78125 5.078125 8.53125 4.921875 7.453125 4.921875 C 5.140625 4.921875 2.78125 5.875 2.78125 7.515625 C 2.78125 8.453125 3.640625 9 4.46875 9 C 5.296875 9 5.3125 8.640625 5.3125 8.46875 Z M 10.875 -5.125 C 10.875 -5.4375 10.3125 -5.734375 9.734375 -5.734375 C 9.265625 -5.734375 8.78125 -5.53125 8.609375 -5 C 7.375 -1.25 3.9375 2.765625 2.53125 2.765625 C 2.015625 2.765625 1.65625 2.375 1.390625 2.375 C 1.109375 2.375 0.890625 2.703125 0.890625 2.921875 C 0.890625 3.015625 0.9375 3.09375 1 3.109375 C 1.5 3.328125 1.875 3.71875 2.484375 3.75 L 2.546875 3.75 C 3.546875 3.75 4.6875 2.890625 6 1.65625 C 6.328125 2.171875 6.875 2.3125 7.34375 2.3125 C 8.484375 2.3125 8.5 1.875 8.5 1.734375 C 8.5 1.578125 8.453125 1.4375 8.34375 1.4375 C 8.328125 1.4375 8.25 1.453125 8.109375 1.453125 C 7.53125 1.453125 7.078125 1.21875 6.828125 0.796875 C 7.453125 0.140625 8.03125 -0.515625 8.5625 -1.21875 C 8.671875 0.09375 8.859375 1.375 9.1875 2.59375 C 9.34375 3.171875 9.609375 3.75 10.234375 3.75 C 10.84375 3.75 11.375 3.25 11.96875 3.0625 C 12.15625 3.015625 12.21875 2.84375 12.21875 2.6875 C 12.21875 2.515625 12.125 2.34375 12.03125 2.34375 C 11.875 2.34375 11.296875 2.75 10.9375 2.75 C 10.515625 2.75 10.515625 2.34375 10.515625 2.15625 C 10.515625 2.078125 10.875 -4.953125 10.875 -5.125 Z M 5.734375 -10.75 C 5.734375 -11.296875 5.09375 -11.140625 5.09375 -11.90625 C 5.09375 -12.578125 5.75 -13.375 7.34375 -13.375 C 7.53125 -13.375 7.75 -13.328125 7.984375 -13.265625 C 7.8125 -12.109375 7.59375 -10.015625 7.546875 -9.125 C 7.484375 -7.671875 6.96875 -6.140625 5.859375 -6.140625 C 5.078125 -6.140625 4.5625 -7.09375 4.21875 -7.09375 C 4 -7.09375 3.765625 -6.796875 3.765625 -6.578125 C 3.765625 -6.5 3.78125 -6.4375 3.84375 -6.390625 C 4.421875 -6.015625 5.046875 -5.3125 5.75 -5.15625 C 5.890625 -5.140625 6.015625 -5.125 6.140625 -5.125 C 7.625 -5.125 8.9375 -6.890625 9.390625 -8.8125 C 9.5625 -9.640625 9.90625 -11.46875 10.078125 -12.65625 C 10.375 -12.578125 10.703125 -12.53125 10.984375 -12.53125 C 12.828125 -12.53125 13.9375 -13.984375 13.9375 -14.03125 C 13.9375 -14.1875 13.703125 -14.40625 13.484375 -14.40625 C 13.265625 -14.40625 12.484375 -13.53125 11.109375 -13.53125 C 10.09375 -13.53125 8.625 -14.34375 7.703125 -14.34375 C 4.265625 -14.34375 3.0625 -13.125 3.0625 -12.015625 C 3.0625 -11.09375 3.890625 -10.28125 4.90625 -10.28125 C 5.734375 -10.28125 5.734375 -10.59375 5.734375 -10.75 Z M 5.734375 -10.75 "/>
</g>
<g id="glyph-0-2">
<path d="M 0.53125 -0.8125 C 0.5625 -1.46875 0.96875 -2.078125 1.59375 -2.078125 C 2.171875 -2.078125 2.453125 -1.390625 2.453125 -0.734375 C 2.453125 0.4375 1.5 1.28125 0.59375 2.03125 C 0.53125 1.59375 0.515625 1.15625 0.515625 0.71875 L 0.515625 0.5 Z M -0.296875 2.75 C -0.296875 3.03125 -0.09375 3.25 0.15625 3.25 C 0.578125 3.25 0.75 2.75 1.0625 2.484375 C 2.265625 1.453125 3.984375 0.71875 3.984375 -0.875 C 3.984375 -1.953125 3.25 -2.90625 2.21875 -2.90625 C 1.546875 -2.90625 0.890625 -2.65625 0.390625 -2.234375 L 0.53125 -9.109375 C 0.375 -9.203125 0.171875 -9.265625 0 -9.265625 C -0.171875 -9.265625 -0.375 -9.203125 -0.53125 -9.109375 Z M -0.296875 2.75 "/>
</g>
<g id="glyph-0-3">
<path d="M 5.296875 12.65625 L 5.3125 11.796875 L 5.234375 11.796875 C 4.265625 11.796875 3.421875 11.28125 2.90625 10.5 C 3.109375 10.578125 3.3125 10.625 3.53125 10.625 C 4.5625 10.625 5.421875 9.765625 5.421875 8.71875 C 5.421875 7.609375 4.609375 6.671875 3.53125 6.671875 C 2.34375 6.671875 1.296875 7.5625 1.296875 8.71875 C 1.296875 10.890625 3.03125 12.65625 5.171875 12.65625 Z M 7.984375 -3.015625 C 10.21875 -2.765625 11.421875 -0.96875 11.421875 0.796875 C 11.421875 2.171875 10.703125 3.5 9.1875 4.046875 C 8.9375 1.8125 8.359375 -1.234375 7.984375 -3.015625 Z M 1.46875 -0.5625 C 1.46875 -3.75 3.578125 -6.171875 5.71875 -8.59375 C 6.0625 -7.4375 6.359375 -6.25 6.640625 -5.09375 C 4.609375 -4.640625 3.453125 -2.921875 3.453125 -1.171875 C 3.453125 1.3125 5.65625 2.546875 5.953125 2.546875 C 6.203125 2.546875 6.390625 2.328125 6.390625 2.109375 C 6.390625 2.015625 6.359375 1.90625 6.25 1.8125 C 5.140625 1.171875 4.640625 0.234375 4.640625 -0.640625 C 4.640625 -1.796875 5.53125 -2.84375 7.109375 -3.015625 C 7.796875 0.203125 8.234375 2.96875 8.359375 4.25 C 7.890625 4.328125 7.4375 4.359375 7.015625 4.359375 C 3.421875 4.359375 1.46875 1.671875 1.46875 -0.5625 Z M 7.109375 -23.78125 C 6.8125 -23.78125 3.9375 -21.671875 3.9375 -17.90625 C 3.9375 -14.40625 4.40625 -12.921875 4.984375 -11.015625 C 2.65625 -8.328125 0.046875 -5.75 0.046875 -2.234375 C 0.046875 0.890625 2.09375 5.21875 6.859375 5.21875 C 7.34375 5.21875 7.890625 5.15625 8.453125 5.0625 C 8.5 5.671875 8.53125 6.28125 8.53125 6.890625 C 8.53125 7.25 8.5 7.625 8.484375 7.984375 C 8.359375 9.953125 7.171875 11.75 5.3125 11.796875 L 5.296875 12.65625 C 7.5625 12.59375 9.1875 10.484375 9.328125 8.109375 C 9.34375 7.734375 9.359375 7.328125 9.359375 6.953125 C 9.359375 6.25 9.328125 5.5625 9.265625 4.859375 C 11.375 4.203125 12.84375 2.234375 12.84375 -0.015625 C 12.84375 -2.671875 10.859375 -5.234375 7.765625 -5.234375 C 7.6875 -5.234375 7.59375 -5.21875 7.484375 -5.21875 C 7.15625 -6.59375 6.796875 -7.984375 6.375 -9.34375 C 8.25 -11.515625 9.953125 -13.75 9.953125 -16.59375 C 9.953125 -19.6875 7.671875 -23.78125 7.109375 -23.78125 Z M 4.921875 -15.578125 C 4.921875 -18.890625 7.15625 -20.34375 8.125 -20.8125 C 8.421875 -19.921875 8.546875 -19.078125 8.546875 -18.28125 C 8.546875 -15.8125 7.25 -13.78125 5.625 -11.796875 C 5.15625 -13.28125 4.921875 -14.484375 4.921875 -15.578125 Z M 4.921875 -15.578125 "/>
</g>
<g id="glyph-1-0">
<path d="M 0.71875 -3.3125 C 0.515625 -3.09375 0.5 -3.0625 0.5 -2.921875 C 0.5 -2.734375 0.640625 -2.59375 0.8125 -2.59375 C 1.015625 -2.59375 1.171875 -2.75 1.171875 -2.9375 C 1.171875 -2.96875 1.171875 -3.03125 1.15625 -3.078125 C 1.421875 -3.296875 1.765625 -3.40625 2.125 -3.40625 C 2.78125 -3.40625 3.109375 -2.9375 3.109375 -2 C 3.109375 -0.9375 2.734375 -0.375 2.03125 -0.375 C 1.640625 -0.375 1.265625 -0.5625 1.265625 -0.734375 C 1.265625 -0.796875 1.296875 -0.8125 1.375 -0.859375 C 1.71875 -1.03125 1.84375 -1.1875 1.84375 -1.484375 C 1.84375 -1.921875 1.546875 -2.203125 1.109375 -2.203125 C 0.59375 -2.203125 0.265625 -1.859375 0.265625 -1.3125 C 0.265625 -0.4375 1.046875 0.125 2.25 0.125 C 3.6875 0.125 4.65625 -0.75 4.65625 -2.03125 C 4.65625 -3.171875 3.75 -4 2.484375 -4 C 2.078125 -4 1.8125 -3.9375 1.234375 -3.671875 L 1.359375 -4.796875 C 1.78125 -4.703125 2.125 -4.671875 2.46875 -4.671875 C 3.1875 -4.671875 3.78125 -4.90625 4.109375 -5.328125 C 4.265625 -5.546875 4.40625 -5.875 4.40625 -6.0625 C 4.40625 -6.125 4.375 -6.15625 4.328125 -6.15625 C 4.296875 -6.15625 4.25 -6.15625 4.1875 -6.140625 C 3.875 -6.0625 3.3125 -6.015625 2.625 -6.015625 C 1.890625 -6.015625 1.453125 -6.046875 0.921875 -6.15625 C 0.875 -5.4375 0.875 -5.359375 0.78125 -3.9375 Z M 0.71875 -3.3125 "/>
</g>
<g id="glyph-1-1">
<path d="M 3.875 -2.15625 L 3.875 -4.84375 C 3.875 -4.96875 3.90625 -5.53125 3.9375 -6.15625 L 3.328125 -6.15625 L 0.171875 -2.21875 L 0.171875 -1.578125 L 2.515625 -1.578125 L 2.515625 -1.25 C 2.515625 -0.71875 2.515625 -0.671875 2.453125 -0.59375 C 2.390625 -0.5 2.203125 -0.46875 1.796875 -0.46875 L 1.703125 -0.46875 L 1.703125 0 L 4.671875 0 L 4.671875 -0.46875 L 4.5625 -0.46875 C 4.1875 -0.484375 4 -0.515625 3.9375 -0.59375 C 3.875 -0.6875 3.875 -0.71875 3.875 -1.25 L 3.875 -1.578125 L 4.75 -1.578125 L 4.75 -2.15625 Z M 2.515625 -2.15625 L 0.796875 -2.15625 L 2.515625 -4.328125 Z M 2.515625 -2.15625 "/>
</g>
<g id="glyph-1-2">
<path d="M 3.0625 -3.203125 C 3.390625 -3.296875 3.546875 -3.34375 3.734375 -3.4375 C 4.1875 -3.6875 4.453125 -4.109375 4.453125 -4.625 C 4.453125 -5.546875 3.640625 -6.15625 2.40625 -6.15625 C 1.765625 -6.15625 1.25 -6 0.890625 -5.671875 C 0.59375 -5.421875 0.421875 -5.0625 0.421875 -4.71875 C 0.421875 -4.265625 0.765625 -3.9375 1.203125 -3.9375 C 1.625 -3.9375 1.921875 -4.21875 1.921875 -4.625 C 1.921875 -4.859375 1.8125 -5.046875 1.578125 -5.28125 C 1.53125 -5.3125 1.515625 -5.34375 1.515625 -5.375 C 1.515625 -5.546875 1.84375 -5.703125 2.171875 -5.703125 C 2.71875 -5.703125 3.046875 -5.3125 3.046875 -4.625 C 3.046875 -3.875 2.796875 -3.40625 2.375 -3.40625 C 2.296875 -3.40625 2.203125 -3.421875 2.078125 -3.453125 C 1.875 -3.5 1.8125 -3.5 1.71875 -3.5 C 1.5 -3.5 1.40625 -3.40625 1.40625 -3.21875 C 1.40625 -3.015625 1.53125 -2.890625 1.71875 -2.890625 C 1.78125 -2.890625 1.828125 -2.890625 1.96875 -2.921875 C 2.171875 -2.9375 2.234375 -2.9375 2.28125 -2.9375 C 2.828125 -2.9375 3.09375 -2.53125 3.09375 -1.703125 C 3.09375 -0.828125 2.734375 -0.328125 2.09375 -0.328125 C 1.71875 -0.328125 1.34375 -0.515625 1.34375 -0.703125 C 1.34375 -0.75 1.359375 -0.796875 1.421875 -0.859375 C 1.6875 -1.09375 1.734375 -1.203125 1.734375 -1.46875 C 1.734375 -1.875 1.421875 -2.1875 0.984375 -2.1875 C 0.515625 -2.1875 0.203125 -1.84375 0.203125 -1.359375 C 0.203125 -0.484375 1.0625 0.125 2.3125 0.125 C 2.953125 0.125 3.546875 -0.03125 3.953125 -0.3125 C 4.359375 -0.59375 4.609375 -1.125 4.609375 -1.6875 C 4.609375 -2.234375 4.375 -2.703125 3.96875 -2.9375 C 3.71875 -3.078125 3.515625 -3.140625 3.0625 -3.203125 Z M 3.0625 -3.203125 "/>
</g>
<g id="glyph-1-3">
<path d="M 3.5 -3.578125 C 3.765625 -3.671875 3.875 -3.734375 4 -3.828125 C 4.34375 -4.0625 4.53125 -4.40625 4.53125 -4.828125 C 4.53125 -5.625 3.78125 -6.15625 2.640625 -6.15625 C 1.296875 -6.15625 0.421875 -5.4375 0.421875 -4.3125 C 0.421875 -3.625 0.75 -3.109375 1.4375 -2.75 C 1.171875 -2.65625 1.046875 -2.625 0.90625 -2.546875 C 0.46875 -2.328125 0.234375 -1.921875 0.234375 -1.421875 C 0.234375 -0.484375 1.078125 0.125 2.40625 0.125 C 3.796875 0.125 4.75 -0.671875 4.75 -1.875 C 4.75 -2.6875 4.359375 -3.234375 3.5 -3.578125 Z M 3.015625 -3.765625 C 2.65625 -3.84375 2.390625 -3.921875 2.21875 -3.984375 C 1.8125 -4.140625 1.5625 -4.484375 1.5625 -4.875 C 1.5625 -5.359375 1.953125 -5.703125 2.5 -5.703125 C 3.078125 -5.703125 3.453125 -5.328125 3.453125 -4.71875 C 3.453125 -4.328125 3.296875 -4 3.015625 -3.765625 Z M 1.90625 -2.515625 C 2.265625 -2.421875 2.703125 -2.28125 2.921875 -2.21875 C 3.46875 -2.03125 3.671875 -1.796875 3.671875 -1.34375 C 3.671875 -0.75 3.1875 -0.328125 2.5 -0.328125 C 1.796875 -0.328125 1.359375 -0.75 1.359375 -1.4375 C 1.359375 -1.90625 1.515625 -2.203125 1.90625 -2.515625 Z M 1.90625 -2.515625 "/>
</g>
<g id="glyph-1-4">
<path d="M 3.234375 -6.15625 L 2.921875 -6.15625 C 2.375 -5.75 1.765625 -5.578125 0.71875 -5.5625 L 0.71875 -5.078125 L 1.09375 -5.078125 C 1.859375 -5.078125 1.875 -5.0625 1.859375 -4.34375 L 1.859375 -1.25 C 1.859375 -0.71875 1.859375 -0.6875 1.796875 -0.59375 C 1.71875 -0.5 1.546875 -0.46875 1.078125 -0.46875 L 0.796875 -0.46875 L 0.796875 0 L 4.265625 0 L 4.265625 -0.46875 L 4 -0.46875 C 3.53125 -0.46875 3.375 -0.5 3.296875 -0.59375 C 3.234375 -0.6875 3.234375 -0.71875 3.234375 -1.25 Z M 3.234375 -6.15625 "/>
</g>
<g id="glyph-1-5">
<path d="M 4.15625 -2.3125 L 4.0625 -1.875 C 3.984375 -1.53125 3.921875 -1.421875 3.859375 -1.375 C 3.765625 -1.3125 3.75 -1.3125 3.203125 -1.3125 L 1.515625 -1.3125 C 1.828125 -1.5625 2.046875 -1.734375 2.390625 -1.953125 C 3.625 -2.75 3.875 -2.9375 4.125 -3.265625 C 4.421875 -3.65625 4.59375 -4.109375 4.59375 -4.53125 C 4.59375 -5.453125 3.6875 -6.15625 2.453125 -6.15625 C 1.265625 -6.15625 0.359375 -5.390625 0.359375 -4.40625 C 0.359375 -3.796875 0.703125 -3.40625 1.21875 -3.40625 C 1.671875 -3.40625 1.953125 -3.6875 1.953125 -4.140625 C 1.953125 -4.515625 1.796875 -4.734375 1.390625 -4.921875 C 1.296875 -4.96875 1.25 -5.015625 1.25 -5.09375 C 1.25 -5.375 1.71875 -5.671875 2.15625 -5.671875 C 2.765625 -5.671875 3.109375 -5.296875 3.109375 -4.640625 C 3.109375 -3.921875 2.84375 -3.40625 1.921875 -2.421875 C 0.9375 -1.390625 0.59375 -1 0.171875 -0.375 L 0.171875 0.03125 C 0.390625 0.015625 0.484375 0 0.625 0 L 3.890625 0 C 4.0625 0 4.15625 0.015625 4.421875 0.03125 L 4.625 -2.3125 Z M 4.15625 -2.3125 "/>
</g>
<g id="glyph-1-6">
<path d="M 2.5 -6.15625 C 1.1875 -6.15625 0.234375 -4.828125 0.234375 -3.015625 C 0.234375 -1.203125 1.1875 0.125 2.5 0.125 C 3.78125 0.125 4.75 -1.203125 4.75 -2.96875 C 4.75 -4 4.515625 -4.765625 4 -5.40625 C 3.59375 -5.90625 3.078125 -6.15625 2.5 -6.15625 Z M 2.484375 -5.703125 C 2.75 -5.703125 2.953125 -5.546875 3.0625 -5.28125 C 3.171875 -4.984375 3.234375 -4.078125 3.234375 -3 C 3.234375 -2.09375 3.171875 -1.15625 3.09375 -0.859375 C 3 -0.515625 2.78125 -0.328125 2.484375 -0.328125 C 2.21875 -0.328125 2.015625 -0.484375 1.921875 -0.765625 C 1.796875 -1.046875 1.734375 -1.96875 1.734375 -3.015625 C 1.734375 -3.9375 1.796875 -4.875 1.875 -5.171875 C 1.96875 -5.53125 2.1875 -5.703125 2.484375 -5.703125 Z M 2.484375 -5.703125 "/>
</g>
<g id="glyph-2-0">
<path d="M 3.21875 -3.125 C 3.828125 -3.5 4.015625 -3.796875 4.015625 -4.359375 C 4.015625 -5.296875 3.296875 -5.9375 2.265625 -5.9375 C 1.234375 -5.9375 0.515625 -5.296875 0.515625 -4.359375 C 0.515625 -3.796875 0.703125 -3.515625 1.296875 -3.125 C 0.640625 -2.796875 0.296875 -2.3125 0.296875 -1.65625 C 0.296875 -0.5625 1.09375 0.1875 2.265625 0.1875 C 3.40625 0.1875 4.21875 -0.5625 4.21875 -1.65625 C 4.21875 -2.3125 3.890625 -2.796875 3.21875 -3.125 Z M 2.265625 -5.296875 C 2.875 -5.296875 3.265625 -4.9375 3.265625 -4.34375 C 3.265625 -3.78125 2.875 -3.40625 2.265625 -3.40625 C 1.640625 -3.40625 1.25 -3.78125 1.25 -4.359375 C 1.25 -4.9375 1.640625 -5.296875 2.265625 -5.296875 Z M 2.265625 -2.796875 C 2.984375 -2.796875 3.46875 -2.328125 3.46875 -1.640625 C 3.46875 -0.921875 2.984375 -0.453125 2.25 -0.453125 C 1.53125 -0.453125 1.046875 -0.9375 1.046875 -1.625 C 1.046875 -2.328125 1.53125 -2.796875 2.265625 -2.796875 Z M 2.265625 -2.796875 "/>
</g>
<g id="glyph-2-1">
<path d="M 2.125 -4.3125 L 1.40625 -4.3125 L 1.40625 -4.984375 C 1.40625 -5.265625 1.5625 -5.421875 1.875 -5.421875 C 1.9375 -5.421875 1.96875 -5.421875 2.125 -5.40625 L 2.125 -5.96875 C 1.96875 -6.015625 1.875 -6.015625 1.734375 -6.015625 C 1.09375 -6.015625 0.71875 -5.65625 0.71875 -5.03125 L 0.71875 -4.3125 L 0.140625 -4.3125 L 0.140625 -3.75 L 0.71875 -3.75 L 0.71875 0 L 1.40625 0 L 1.40625 -3.75 L 2.125 -3.75 Z M 2.125 -4.3125 "/>
</g>
<g id="glyph-2-2">
<path d="M 0.5625 -4.3125 L 0.5625 0 L 1.25 0 L 1.25 -2.234375 C 1.265625 -3.265625 1.6875 -3.734375 2.640625 -3.703125 L 2.640625 -4.40625 C 2.515625 -4.421875 2.453125 -4.4375 2.375 -4.4375 C 1.9375 -4.4375 1.59375 -4.171875 1.203125 -3.53125 L 1.203125 -4.3125 Z M 0.5625 -4.3125 "/>
</g>
<g id="glyph-2-3">
<path d="M 2.125 -4.234375 L 2.125 0 L 2.859375 0 L 2.859375 -5.9375 L 2.375 -5.9375 C 2.125 -5.03125 1.953125 -4.90625 0.84375 -4.765625 L 0.84375 -4.234375 Z M 2.125 -4.234375 "/>
</g>
<g id="glyph-2-4">
<path d="M 1.8125 -2.734375 L 2.203125 -2.734375 C 3 -2.734375 3.421875 -2.359375 3.421875 -1.65625 C 3.421875 -0.90625 2.96875 -0.453125 2.21875 -0.453125 C 1.421875 -0.453125 1.03125 -0.859375 0.984375 -1.71875 L 0.265625 -1.71875 C 0.296875 -1.25 0.375 -0.9375 0.515625 -0.671875 C 0.828125 -0.09375 1.390625 0.1875 2.1875 0.1875 C 3.390625 0.1875 4.15625 -0.53125 4.15625 -1.65625 C 4.15625 -2.421875 3.875 -2.828125 3.171875 -3.078125 C 3.71875 -3.296875 3.984375 -3.703125 3.984375 -4.3125 C 3.984375 -5.328125 3.328125 -5.9375 2.203125 -5.9375 C 1.03125 -5.9375 0.40625 -5.28125 0.390625 -4.03125 L 1.109375 -4.03125 C 1.125 -4.390625 1.15625 -4.59375 1.234375 -4.78125 C 1.40625 -5.109375 1.765625 -5.3125 2.21875 -5.3125 C 2.859375 -5.3125 3.25 -4.921875 3.25 -4.28125 C 3.25 -3.859375 3.09375 -3.609375 2.78125 -3.46875 C 2.578125 -3.390625 2.3125 -3.359375 1.8125 -3.34375 Z M 1.8125 -2.734375 "/>
</g>
<g id="glyph-2-5">
<path d="M 2.6875 -1.4375 L 2.6875 0 L 3.40625 0 L 3.40625 -1.4375 L 4.28125 -1.4375 L 4.28125 -2.09375 L 3.40625 -2.09375 L 3.40625 -5.9375 L 2.875 -5.9375 L 0.234375 -2.203125 L 0.234375 -1.4375 Z M 2.6875 -2.09375 L 0.859375 -2.09375 L 2.6875 -4.703125 Z M 2.6875 -2.09375 "/>
</g>
<g id="glyph-2-6">
<path d="M 4.15625 -0.71875 L 1.09375 -0.71875 C 1.171875 -1.203125 1.4375 -1.515625 2.140625 -1.953125 L 2.96875 -2.421875 C 3.78125 -2.875 4.203125 -3.46875 4.203125 -4.203125 C 4.203125 -4.703125 4 -5.15625 3.65625 -5.484375 C 3.3125 -5.796875 2.890625 -5.9375 2.328125 -5.9375 C 1.59375 -5.9375 1.046875 -5.671875 0.71875 -5.171875 C 0.515625 -4.859375 0.421875 -4.484375 0.40625 -3.890625 L 1.140625 -3.890625 C 1.15625 -4.296875 1.203125 -4.53125 1.3125 -4.71875 C 1.5 -5.09375 1.875 -5.3125 2.3125 -5.3125 C 2.96875 -5.3125 3.453125 -4.828125 3.453125 -4.1875 C 3.453125 -3.71875 3.1875 -3.296875 2.671875 -3.015625 L 1.921875 -2.5625 C 0.703125 -1.859375 0.34375 -1.3125 0.28125 -0.015625 L 4.15625 -0.015625 Z M 4.15625 -0.71875 "/>
</g>
<g id="glyph-3-0">
<path d="M 2.59375 -2.5625 C 2.921875 -2.703125 3.0625 -2.796875 3.1875 -2.890625 C 3.484375 -3.109375 3.640625 -3.4375 3.640625 -3.78125 C 3.640625 -4.40625 3.109375 -4.859375 2.375 -4.859375 C 1.484375 -4.859375 0.78125 -4.21875 0.78125 -3.390625 C 0.78125 -2.96875 0.9375 -2.6875 1.3125 -2.421875 C 0.484375 -2.109375 0.0625 -1.609375 0.0625 -0.984375 C 0.0625 -0.3125 0.609375 0.109375 1.484375 0.109375 C 2.5625 0.109375 3.3125 -0.546875 3.3125 -1.4375 C 3.3125 -1.703125 3.234375 -1.953125 3.078125 -2.140625 C 2.984375 -2.28125 2.859375 -2.390625 2.59375 -2.5625 Z M 2.296875 -2.71875 C 1.59375 -3.046875 1.34375 -3.328125 1.34375 -3.71875 C 1.34375 -4.1875 1.765625 -4.5625 2.3125 -4.5625 C 2.796875 -4.5625 3.125 -4.265625 3.125 -3.828125 C 3.125 -3.546875 2.984375 -3.234375 2.765625 -3.015625 C 2.625 -2.875 2.53125 -2.8125 2.296875 -2.71875 Z M 1.5625 -2.234375 C 1.90625 -2.078125 2.015625 -2.03125 2.1875 -1.921875 C 2.53125 -1.71875 2.71875 -1.4375 2.71875 -1.125 C 2.71875 -0.59375 2.21875 -0.203125 1.5625 -0.203125 C 0.984375 -0.203125 0.609375 -0.53125 0.609375 -1.0625 C 0.609375 -1.578125 0.953125 -1.984375 1.5625 -2.234375 Z M 1.5625 -2.234375 "/>
</g>
</g>
</defs>
<path fill="none" stroke-width="9.46451" stroke-linecap="butt" stroke-linejoin="miter" stroke="rgb(0%, 0%, 0%)" stroke-opacity="1" stroke-miterlimit="10" d="M 1152.890625 7253.4375 L 1152.890625 7452.65625 " transform="matrix(0.1, 0, 0, -0.1, -32, 819)"/>
<path fill="none" stroke-width="4.98132" stroke-linecap="round" stroke-linejoin="miter" stroke="rgb(0%, 0%, 0%)" stroke-opacity="1" stroke-miterlimit="10" d="M 427.695312 7253.4375 L 3845.78125 7253.4375 " transform="matrix(0.1, 0, 0, -0.1, -32, 819)"/>
<path fill="none" stroke-width="4.98132" stroke-linecap="round" stroke-linejoin="miter" stroke="rgb(0%, 0%, 0%)" stroke-opacity="1" stroke-miterlimit="10" d="M 427.695312 7303.242188 L 3845.78125 7303.242188 " transform="matrix(0.1, 0, 0, -0.1, -32, 819)"/>
<path fill="none" stroke-width="4.98132" stroke-linecap="round" stroke-linejoin="miter" stroke="rgb(0%, 0%, 0%)" stroke-opacity="1" stroke-miterlimit="10" d="M 427.695312 7353.046875 L 3845.78125 7353.046875 " transform="matrix(0.1, 0, 0, -0.1, -32, 819)"/>
<path fill="none" stroke-width="4.98132" stroke-linecap="round" stroke-linejoin="miter" stroke="rgb(0%, 0%, 0%)" stroke-opacity="1" stroke-miterlimit="10" d="M 427.695312 7402.851562 L 3845.78125 7402.851562 " transform="matrix(0.1, 0, 0, -0.1, -32, 819)"/>
<path fill="none" stroke-width="4.98132" stroke-linecap="round" stroke-linejoin="miter" stroke="rgb(0%, 0%, 0%)" stroke-opacity="1" stroke-miterlimit="10" d="M 427.695312 7452.695312 L 3845.78125 7452.695312 " transform="matrix(0.1, 0, 0, -0.1, -32, 819)"/>
<path fill="none" stroke-width="9.46451" stroke-linecap="butt" stroke-linejoin="miter" stroke="rgb(0%, 0%, 0%)" stroke-opacity="1" stroke-miterlimit="10" d="M 3843.554688 6701.5625 L 3843.554688 7075.15625 " transform="matrix(0.1, 0, 0, -0.1, -32, 819)"/>
<path fill="none" stroke-width="4.98132" stroke-linecap="round" stroke-linejoin="miter" stroke="rgb(0%, 0%, 0%)" stroke-opacity="1" stroke-miterlimit="10" d="M 427.695312 6701.5625 L 3845.78125 6701.5625 " transform="matrix(0.1, 0, 0, -0.1, -32, 819)"/>
<path fill="none" stroke-width="4.98132" stroke-linecap="round" stroke-linejoin="miter" stroke="rgb(0%, 0%, 0%)" stroke-opacity="1" stroke-miterlimit="10" d="M 427.695312 6776.289062 L 3845.78125 6776.289062 " transform="matrix(0.1, 0, 0, -0.1, -32, 819)"/>
<path fill="none" stroke-width="4.98132" stroke-linecap="round" stroke-linejoin="miter" stroke="rgb(0%, 0%, 0%)" stroke-opacity="1" stroke-miterlimit="10" d="M 427.695312 6851.015625 L 3845.78125 6851.015625 " transform="matrix(0.1, 0, 0, -0.1, -32, 819)"/>
<path fill="none" stroke-width="4.98132" stroke-linecap="round" stroke-linejoin="miter" stroke="rgb(0%, 0%, 0%)" stroke-opacity="1" stroke-miterlimit="10" d="M 427.695312 6925.742188 L 3845.78125 6925.742188 " transform="matrix(0.1, 0, 0, -0.1, -32, 819)"/>
<path fill="none" stroke-width="4.98132" stroke-linecap="round" stroke-linejoin="miter" stroke="rgb(0%, 0%, 0%)" stroke-opacity="1" stroke-miterlimit="10" d="M 427.695312 7000.46875 L 3845.78125 7000.46875 " transform="matrix(0.1, 0, 0, -0.1, -32, 819)"/>
<path fill="none" stroke-width="4.98132" stroke-linecap="round" stroke-linejoin="miter" stroke="rgb(0%, 0%, 0%)" stroke-opacity="1" stroke-miterlimit="10" d="M 427.695312 7075.15625 L 3845.78125 7075.15625 " transform="matrix(0.1, 0, 0, -0.1, -32, 819)"/>
<path fill="none" stroke-width="9.46451" stroke-linecap="butt" stroke-linejoin="miter" stroke="rgb(0%, 0%, 0%)" stroke-opacity="1" stroke-miterlimit="10" d="M 3843.554688 7253.4375 L 3843.554688 7452.65625 " transform="matrix(0.1, 0, 0, -0.1, -32, 819)"/>
<path fill="none" stroke-width="9.46451" stroke-linecap="butt" stroke-linejoin="miter" stroke="rgb(0%, 0%, 0%)" stroke-opacity="1" stroke-miterlimit="10" d="M 3298.007812 6701.5625 L 3298.007812 7075.15625 " transform="matrix(0.1, 0, 0, -0.1, -32, 819)"/>
<path fill="none" stroke-width="9.46451" stroke-linecap="butt" stroke-linejoin="miter" stroke="rgb(0%, 0%, 0%)" stroke-opacity="1" stroke-miterlimit="10" d="M 3298.007812 7253.4375 L 3298.007812 7452.65625 " transform="matrix(0.1, 0, 0, -0.1, -32, 819)"/>
<path fill="none" stroke-width="9.46451" stroke-linecap="butt" stroke-linejoin="miter" stroke="rgb(0%, 0%, 0%)" stroke-opacity="1" stroke-miterlimit="10" d="M 2764.804688 6701.5625 L 2764.804688 7075.15625 " transform="matrix(0.1, 0, 0, -0.1, -32, 819)"/>
<path fill="none" stroke-width="9.46451" stroke-linecap="butt" stroke-linejoin="miter" stroke="rgb(0%, 0%, 0%)" stroke-opacity="1" stroke-miterlimit="10" d="M 2764.804688 7253.4375 L 2764.804688 7452.65625 " transform="matrix(0.1, 0, 0, -0.1, -32, 819)"/>
<path fill="none" stroke-width="9.46451" stroke-linecap="butt" stroke-linejoin="miter" stroke="rgb(0%, 0%, 0%)" stroke-opacity="1" stroke-miterlimit="10" d="M 2231.640625 6701.5625 L 2231.640625 7075.15625 " transform="matrix(0.1, 0, 0, -0.1, -32, 819)"/>
<path fill="none" stroke-width="9.46451" stroke-linecap="butt" stroke-linejoin="miter" stroke="rgb(0%, 0%, 0%)" stroke-opacity="1" stroke-miterlimit="10" d="M 2231.640625 7253.4375 L 2231.640625 7452.65625 " transform="matrix(0.1, 0, 0, -0.1, -32, 819)"/>
<path fill="none" stroke-width="9.96264" stroke-linecap="round" stroke-linejoin="miter" stroke="rgb(0%, 0%, 0%)" stroke-opacity="1" stroke-miterlimit="10" d="M 3377.929688 7552.304688 L 3514.570312 7552.304688 " transform="matrix(0.1, 0, 0, -0.1, -32, 819)"/>
<path fill="none" stroke-width="9.96264" stroke-linecap="round" stroke-linejoin="miter" stroke="rgb(0%, 0%, 0%)" stroke-opacity="1" stroke-miterlimit="10" d="M 3377.929688 7502.5 L 3514.570312 7502.5 " transform="matrix(0.1, 0, 0, -0.1, -32, 819)"/>
<path fill="none" stroke-width="9.96264" stroke-linecap="round" stroke-linejoin="miter" stroke="rgb(0%, 0%, 0%)" stroke-opacity="1" stroke-miterlimit="10" d="M 1781.757812 7602.109375 L 1902.65625 7602.109375 " transform="matrix(0.1, 0, 0, -0.1, -32, 819)"/>
<path fill="none" stroke-width="9.96264" stroke-linecap="round" stroke-linejoin="miter" stroke="rgb(0%, 0%, 0%)" stroke-opacity="1" stroke-miterlimit="10" d="M 1766.015625 7552.304688 L 1902.65625 7552.304688 " transform="matrix(0.1, 0, 0, -0.1, -32, 819)"/>
<path fill="none" stroke-width="9.96264" stroke-linecap="round" stroke-linejoin="miter" stroke="rgb(0%, 0%, 0%)" stroke-opacity="1" stroke-miterlimit="10" d="M 1766.015625 7502.5 L 1902.65625 7502.5 " transform="matrix(0.1, 0, 0, -0.1, -32, 819)"/>
<path fill="none" stroke-width="9.96264" stroke-linecap="round" stroke-linejoin="miter" stroke="rgb(0%, 0%, 0%)" stroke-opacity="1" stroke-miterlimit="10" d="M 1232.851562 7552.304688 L 1369.453125 7552.304688 " transform="matrix(0.1, 0, 0, -0.1, -32, 819)"/>
<path fill="none" stroke-width="9.96264" stroke-linecap="round" stroke-linejoin="miter" stroke="rgb(0%, 0%, 0%)" stroke-opacity="1" stroke-miterlimit="10" d="M 1232.851562 7502.5 L 1369.453125 7502.5 " transform="matrix(0.1, 0, 0, -0.1, -32, 819)"/>
<path fill="none" stroke-width="9.46451" stroke-linecap="butt" stroke-linejoin="miter" stroke="rgb(0%, 0%, 0%)" stroke-opacity="1" stroke-miterlimit="10" d="M 1686.09375 6701.5625 L 1686.09375 7075.15625 " transform="matrix(0.1, 0, 0, -0.1, -32, 819)"/>
<path fill="none" stroke-width="9.46451" stroke-linecap="butt" stroke-linejoin="miter" stroke="rgb(0%, 0%, 0%)" stroke-opacity="1" stroke-miterlimit="10" d="M 1686.09375 7253.4375 L 1686.09375 7452.65625 " transform="matrix(0.1, 0, 0, -0.1, -32, 819)"/>
<path fill="none" stroke-width="9.46451" stroke-linecap="butt" stroke-linejoin="miter" stroke="rgb(0%, 0%, 0%)" stroke-opacity="1" stroke-miterlimit="10" d="M 1152.890625 6701.5625 L 1152.890625 7075.15625 " transform="matrix(0.1, 0, 0, -0.1, -32, 819)"/>
<g fill="rgb(0%, 0%, 0%)" fill-opacity="1">
<use xlink:href="#glyph-0-0" x="201.1" y="81.205"/>
</g>
<path fill-rule="nonzero" fill="rgb(100%, 100%, 100%)" fill-opacity="1" d="M 40.402344 129.566406 L 45.335938 129.566406 L 45.335938 123.289062 L 40.402344 123.289062 Z M 40.402344 129.566406 "/>
<g fill="rgb(0%, 0%, 0%)" fill-opacity="1">
<use xlink:href="#glyph-1-0" x="40.4023" y="129.446"/>
</g>
<path fill-rule="nonzero" fill="rgb(100%, 100%, 100%)" fill-opacity="1" d="M 40.402344 122.035156 L 45.335938 122.035156 L 45.335938 115.878906 L 40.402344 115.878906 Z M 40.402344 122.035156 "/>
<g fill="rgb(0%, 0%, 0%)" fill-opacity="1">
<use xlink:href="#glyph-1-1" x="40.4023" y="122.034"/>
</g>
<path fill-rule="nonzero" fill="rgb(100%, 100%, 100%)" fill-opacity="1" d="M 40.402344 114.621094 L 45.335938 114.621094 L 45.335938 108.34375 L 40.402344 108.34375 Z M 40.402344 114.621094 "/>
<g fill="rgb(0%, 0%, 0%)" fill-opacity="1">
<use xlink:href="#glyph-1-2" x="40.4023" y="114.502"/>
</g>
<g fill="rgb(0%, 0%, 0%)" fill-opacity="1">
<use xlink:href="#glyph-0-1" x="14.5046" y="130.1641"/>
</g>
<g fill="rgb(0%, 0%, 0%)" fill-opacity="1">
<use xlink:href="#glyph-0-2" x="34.1808" y="76.2239"/>
</g>
<g fill="rgb(0%, 0%, 0%)" fill-opacity="1">
<use xlink:href="#glyph-0-0" x="93.228829" y="76.2239"/>
</g>
<g fill="rgb(0%, 0%, 0%)" fill-opacity="1">
<use xlink:href="#glyph-0-0" x="93.2288" y="71.24226"/>
</g>
<g fill="rgb(0%, 0%, 0%)" fill-opacity="1">
<use xlink:href="#glyph-0-0" x="93.2288" y="63.77039"/>
</g>
<path fill="none" stroke-width="3.73599" stroke-linecap="round" stroke-linejoin="miter" stroke="rgb(0%, 0%, 0%)" stroke-opacity="1" stroke-miterlimit="10" d="M 1475.585938 7604.21875 L 1475.585938 7977.8125 " transform="matrix(0.1, 0, 0, -0.1, -32, 819)"/>
<path fill="none" stroke-width="3.73599" stroke-linecap="round" stroke-linejoin="miter" stroke="rgb(0%, 0%, 0%)" stroke-opacity="1" stroke-miterlimit="10" d="M 1400.859375 7604.21875 L 1400.859375 7977.8125 " transform="matrix(0.1, 0, 0, -0.1, -32, 819)"/>
<path fill="none" stroke-width="3.73599" stroke-linecap="round" stroke-linejoin="miter" stroke="rgb(0%, 0%, 0%)" stroke-opacity="1" stroke-miterlimit="10" d="M 1326.132812 7604.21875 L 1326.132812 7977.8125 " transform="matrix(0.1, 0, 0, -0.1, -32, 819)"/>
<path fill="none" stroke-width="3.73599" stroke-linecap="round" stroke-linejoin="miter" stroke="rgb(0%, 0%, 0%)" stroke-opacity="1" stroke-miterlimit="10" d="M 1251.40625 7604.21875 L 1251.40625 7977.8125 " transform="matrix(0.1, 0, 0, -0.1, -32, 819)"/>
<path fill="none" stroke-width="3.73599" stroke-linecap="round" stroke-linejoin="miter" stroke="rgb(0%, 0%, 0%)" stroke-opacity="1" stroke-miterlimit="10" d="M 1176.71875 7604.21875 L 1176.71875 7977.8125 " transform="matrix(0.1, 0, 0, -0.1, -32, 819)"/>
<path fill="none" stroke-width="3.73599" stroke-linecap="round" stroke-linejoin="miter" stroke="rgb(0%, 0%, 0%)" stroke-opacity="1" stroke-miterlimit="10" d="M 1101.992188 7604.21875 L 1101.992188 7977.8125 " transform="matrix(0.1, 0, 0, -0.1, -32, 819)"/>
<path fill="none" stroke-width="3.73599" stroke-linecap="round" stroke-linejoin="miter" stroke="rgb(0%, 0%, 0%)" stroke-opacity="1" stroke-miterlimit="10" d="M 1101.992188 7977.8125 L 1475.585938 7977.8125 " transform="matrix(0.1, 0, 0, -0.1, -32, 819)"/>
<path fill="none" stroke-width="3.73599" stroke-linecap="round" stroke-linejoin="miter" stroke="rgb(0%, 0%, 0%)" stroke-opacity="1" stroke-miterlimit="10" d="M 1101.992188 7903.125 L 1475.585938 7903.125 " transform="matrix(0.1, 0, 0, -0.1, -32, 819)"/>
<path fill="none" stroke-width="3.73599" stroke-linecap="round" stroke-linejoin="miter" stroke="rgb(0%, 0%, 0%)" stroke-opacity="1" stroke-miterlimit="10" d="M 1101.992188 7828.398438 L 1475.585938 7828.398438 " transform="matrix(0.1, 0, 0, -0.1, -32, 819)"/>
<path fill="none" stroke-width="3.73599" stroke-linecap="round" stroke-linejoin="miter" stroke="rgb(0%, 0%, 0%)" stroke-opacity="1" stroke-miterlimit="10" d="M 1101.992188 7753.671875 L 1475.585938 7753.671875 " transform="matrix(0.1, 0, 0, -0.1, -32, 819)"/>
<path fill="none" stroke-width="3.73599" stroke-linecap="round" stroke-linejoin="miter" stroke="rgb(0%, 0%, 0%)" stroke-opacity="1" stroke-miterlimit="10" d="M 1101.992188 7678.945312 L 1475.585938 7678.945312 " transform="matrix(0.1, 0, 0, -0.1, -32, 819)"/>
<path fill="none" stroke-width="3.73599" stroke-linecap="round" stroke-linejoin="miter" stroke="rgb(0%, 0%, 0%)" stroke-opacity="1" stroke-miterlimit="10" d="M 1494.257812 7933.007812 C 1494.257812 7943.320312 1485.898438 7951.679688 1475.585938 7951.679688 C 1465.273438 7951.679688 1456.875 7943.320312 1456.875 7933.007812 C 1456.875 7922.695312 1465.273438 7914.335938 1475.585938 7914.335938 C 1485.898438 7914.335938 1494.257812 7922.695312 1494.257812 7933.007812 Z M 1494.257812 7933.007812 " transform="matrix(0.1, 0, 0, -0.1, -32, 819)"/>
<path fill-rule="nonzero" fill="rgb(0%, 0%, 0%)" fill-opacity="1" d="M 117.425781 25.699219 C 117.425781 24.667969 116.589844 23.832031 115.558594 23.832031 C 114.527344 23.832031 113.6875 24.667969 113.6875 25.699219 C 113.6875 26.730469 114.527344 27.566406 115.558594 27.566406 C 116.589844 27.566406 117.425781 26.730469 117.425781 25.699219 "/>
<path fill="none" stroke-width="3.73599" stroke-linecap="round" stroke-linejoin="miter" stroke="rgb(0%, 0%, 0%)" stroke-opacity="1" stroke-miterlimit="10" d="M 1419.53125 7933.007812 C 1419.53125 7943.320312 1411.171875 7951.679688 1400.859375 7951.679688 C 1390.546875 7951.679688 1382.1875 7943.320312 1382.1875 7933.007812 C 1382.1875 7922.695312 1390.546875 7914.335938 1400.859375 7914.335938 C 1411.171875 7914.335938 1419.53125 7922.695312 1419.53125 7933.007812 Z M 1419.53125 7933.007812 " transform="matrix(0.1, 0, 0, -0.1, -32, 819)"/>
<path fill-rule="nonzero" fill="rgb(0%, 0%, 0%)" fill-opacity="1" d="M 109.953125 25.699219 C 109.953125 24.667969 109.117188 23.832031 108.085938 23.832031 C 107.054688 23.832031 106.21875 24.667969 106.21875 25.699219 C 106.21875 26.730469 107.054688 27.566406 108.085938 27.566406 C 109.117188 27.566406 109.953125 26.730469 109.953125 25.699219 "/>
<path fill="none" stroke-width="3.73599" stroke-linecap="round" stroke-linejoin="miter" stroke="rgb(0%, 0%, 0%)" stroke-opacity="1" stroke-miterlimit="10" d="M 1344.804688 7933.007812 C 1344.804688 7943.320312 1336.445312 7951.679688 1326.132812 7951.679688 C 1315.820312 7951.679688 1307.460938 7943.320312 1307.460938 7933.007812 C 1307.460938 7922.695312 1315.820312 7914.335938 1326.132812 7914.335938 C 1336.445312 7914.335938 1344.804688 7922.695312 1344.804688 7933.007812 Z M 1344.804688 7933.007812 " transform="matrix(0.1, 0, 0, -0.1, -32, 819)"/>
<path fill-rule="nonzero" fill="rgb(0%, 0%, 0%)" fill-opacity="1" d="M 102.480469 25.699219 C 102.480469 24.667969 101.644531 23.832031 100.613281 23.832031 C 99.582031 23.832031 98.746094 24.667969 98.746094 25.699219 C 98.746094 26.730469 99.582031 27.566406 100.613281 27.566406 C 101.644531 27.566406 102.480469 26.730469 102.480469 25.699219 "/>
<g fill="rgb(0%, 0%, 0%)" fill-opacity="1">
<use xlink:href="#glyph-2-0" x="119.043" y="27.866"/>
</g>
<g fill="rgb(0%, 0%, 0%)" fill-opacity="1">
<use xlink:href="#glyph-2-1" x="123.635579" y="27.866"/>
</g>
<g fill="rgb(0%, 0%, 0%)" fill-opacity="1">
<use xlink:href="#glyph-2-2" x="125.931673" y="27.866"/>
</g>
<g fill="rgb(0%, 0%, 0%)" fill-opacity="1">
<use xlink:href="#glyph-3-0" x="17.66" y="106.1496"/>
</g>
<path fill-rule="nonzero" fill="rgb(100%, 100%, 100%)" fill-opacity="1" d="M 93.722656 129.566406 L 98.65625 129.566406 L 98.65625 123.289062 L 93.722656 123.289062 Z M 93.722656 129.566406 "/>
<g fill="rgb(0%, 0%, 0%)" fill-opacity="1">
<use xlink:href="#glyph-1-3" x="93.722" y="129.446"/>
</g>
<path fill-rule="nonzero" fill="rgb(100%, 100%, 100%)" fill-opacity="1" d="M 93.722656 122.09375 L 98.65625 122.09375 L 98.65625 115.816406 L 93.722656 115.816406 Z M 93.722656 122.09375 "/>
<g fill="rgb(0%, 0%, 0%)" fill-opacity="1">
<use xlink:href="#glyph-1-3" x="93.722" y="121.974"/>
</g>
<path fill-rule="nonzero" fill="rgb(100%, 100%, 100%)" fill-opacity="1" d="M 93.722656 114.621094 L 98.65625 114.621094 L 98.65625 108.34375 L 93.722656 108.34375 Z M 93.722656 114.621094 "/>
<g fill="rgb(0%, 0%, 0%)" fill-opacity="1">
<use xlink:href="#glyph-1-3" x="93.722" y="114.502"/>
</g>
<g fill="rgb(0%, 0%, 0%)" fill-opacity="1">
<use xlink:href="#glyph-0-3" x="14.5048" y="88.677"/>
</g>
<g fill="rgb(0%, 0%, 0%)" fill-opacity="1">
<use xlink:href="#glyph-0-2" x="87.5005" y="76.2239"/>
</g>
<g fill="rgb(0%, 0%, 0%)" fill-opacity="1">
<use xlink:href="#glyph-0-0" x="146.5482" y="71.24226"/>
</g>
<g fill="rgb(0%, 0%, 0%)" fill-opacity="1">
<use xlink:href="#glyph-0-0" x="146.5482" y="63.77039"/>
</g>
<g fill="rgb(0%, 0%, 0%)" fill-opacity="1">
<use xlink:href="#glyph-0-0" x="146.5482" y="58.78914"/>
</g>
<path fill="none" stroke-width="3.73599" stroke-linecap="round" stroke-linejoin="miter" stroke="rgb(0%, 0%, 0%)" stroke-opacity="1" stroke-miterlimit="10" d="M 2002.148438 7710.234375 L 2002.148438 8083.867188 " transform="matrix(0.1, 0, 0, -0.1, -32, 819)"/>
<path fill="none" stroke-width="3.73599" stroke-linecap="round" stroke-linejoin="miter" stroke="rgb(0%, 0%, 0%)" stroke-opacity="1" stroke-miterlimit="10" d="M 1927.421875 7710.234375 L 1927.421875 8083.867188 " transform="matrix(0.1, 0, 0, -0.1, -32, 819)"/>
<path fill="none" stroke-width="3.73599" stroke-linecap="round" stroke-linejoin="miter" stroke="rgb(0%, 0%, 0%)" stroke-opacity="1" stroke-miterlimit="10" d="M 1852.734375 7710.234375 L 1852.734375 8083.867188 " transform="matrix(0.1, 0, 0, -0.1, -32, 819)"/>
<path fill="none" stroke-width="3.73599" stroke-linecap="round" stroke-linejoin="miter" stroke="rgb(0%, 0%, 0%)" stroke-opacity="1" stroke-miterlimit="10" d="M 1778.007812 7710.234375 L 1778.007812 8083.867188 " transform="matrix(0.1, 0, 0, -0.1, -32, 819)"/>
<path fill="none" stroke-width="3.73599" stroke-linecap="round" stroke-linejoin="miter" stroke="rgb(0%, 0%, 0%)" stroke-opacity="1" stroke-miterlimit="10" d="M 1703.28125 7710.234375 L 1703.28125 8083.867188 " transform="matrix(0.1, 0, 0, -0.1, -32, 819)"/>
<path fill="none" stroke-width="3.73599" stroke-linecap="round" stroke-linejoin="miter" stroke="rgb(0%, 0%, 0%)" stroke-opacity="1" stroke-miterlimit="10" d="M 1628.554688 7710.234375 L 1628.554688 8083.867188 " transform="matrix(0.1, 0, 0, -0.1, -32, 819)"/>
<path fill="none" stroke-width="3.73599" stroke-linecap="round" stroke-linejoin="miter" stroke="rgb(0%, 0%, 0%)" stroke-opacity="1" stroke-miterlimit="10" d="M 1628.554688 8083.867188 L 2002.148438 8083.867188 " transform="matrix(0.1, 0, 0, -0.1, -32, 819)"/>
<path fill="none" stroke-width="3.73599" stroke-linecap="round" stroke-linejoin="miter" stroke="rgb(0%, 0%, 0%)" stroke-opacity="1" stroke-miterlimit="10" d="M 1628.554688 8009.140625 L 2002.148438 8009.140625 " transform="matrix(0.1, 0, 0, -0.1, -32, 819)"/>
<path fill="none" stroke-width="3.73599" stroke-linecap="round" stroke-linejoin="miter" stroke="rgb(0%, 0%, 0%)" stroke-opacity="1" stroke-miterlimit="10" d="M 1628.554688 7934.414062 L 2002.148438 7934.414062 " transform="matrix(0.1, 0, 0, -0.1, -32, 819)"/>
<path fill="none" stroke-width="3.73599" stroke-linecap="round" stroke-linejoin="miter" stroke="rgb(0%, 0%, 0%)" stroke-opacity="1" stroke-miterlimit="10" d="M 1628.554688 7859.6875 L 2002.148438 7859.6875 " transform="matrix(0.1, 0, 0, -0.1, -32, 819)"/>
<path fill="none" stroke-width="3.73599" stroke-linecap="round" stroke-linejoin="miter" stroke="rgb(0%, 0%, 0%)" stroke-opacity="1" stroke-miterlimit="10" d="M 1628.554688 7784.960938 L 2002.148438 7784.960938 " transform="matrix(0.1, 0, 0, -0.1, -32, 819)"/>
<path fill="none" stroke-width="3.73599" stroke-linecap="round" stroke-linejoin="miter" stroke="rgb(0%, 0%, 0%)" stroke-opacity="1" stroke-miterlimit="10" d="M 2020.859375 7964.296875 C 2020.859375 7974.609375 2012.460938 7982.96875 2002.148438 7982.96875 C 1991.835938 7982.96875 1983.476562 7974.609375 1983.476562 7964.296875 C 1983.476562 7953.984375 1991.835938 7945.625 2002.148438 7945.625 C 2012.460938 7945.625 2020.859375 7953.984375 2020.859375 7964.296875 Z M 2020.859375 7964.296875 " transform="matrix(0.1, 0, 0, -0.1, -32, 819)"/>
<path fill-rule="nonzero" fill="rgb(0%, 0%, 0%)" fill-opacity="1" d="M 170.085938 22.570312 C 170.085938 21.539062 169.246094 20.703125 168.214844 20.703125 C 167.183594 20.703125 166.347656 21.539062 166.347656 22.570312 C 166.347656 23.601562 167.183594 24.4375 168.214844 24.4375 C 169.246094 24.4375 170.085938 23.601562 170.085938 22.570312 "/>
<path fill="none" stroke-width="3.73599" stroke-linecap="round" stroke-linejoin="miter" stroke="rgb(0%, 0%, 0%)" stroke-opacity="1" stroke-miterlimit="10" d="M 1946.132812 7889.570312 C 1946.132812 7899.882812 1937.773438 7908.242188 1927.421875 7908.242188 C 1917.148438 7908.242188 1908.75 7899.882812 1908.75 7889.570312 C 1908.75 7879.257812 1917.148438 7870.898438 1927.421875 7870.898438 C 1937.773438 7870.898438 1946.132812 7879.257812 1946.132812 7889.570312 Z M 1946.132812 7889.570312 " transform="matrix(0.1, 0, 0, -0.1, -32, 819)"/>
<path fill-rule="nonzero" fill="rgb(0%, 0%, 0%)" fill-opacity="1" d="M 162.613281 30.042969 C 162.613281 29.011719 161.777344 28.175781 160.742188 28.175781 C 159.714844 28.175781 158.875 29.011719 158.875 30.042969 C 158.875 31.074219 159.714844 31.910156 160.742188 31.910156 C 161.777344 31.910156 162.613281 31.074219 162.613281 30.042969 "/>
<path fill="none" stroke-width="3.73599" stroke-linecap="round" stroke-linejoin="miter" stroke="rgb(0%, 0%, 0%)" stroke-opacity="1" stroke-miterlimit="10" d="M 1871.40625 8039.023438 C 1871.40625 8049.335938 1863.046875 8057.695312 1852.734375 8057.695312 C 1842.421875 8057.695312 1834.023438 8049.335938 1834.023438 8039.023438 C 1834.023438 8028.710938 1842.421875 8020.351562 1852.734375 8020.351562 C 1863.046875 8020.351562 1871.40625 8028.710938 1871.40625 8039.023438 Z M 1871.40625 8039.023438 " transform="matrix(0.1, 0, 0, -0.1, -32, 819)"/>
<path fill-rule="nonzero" fill="rgb(0%, 0%, 0%)" fill-opacity="1" d="M 155.140625 15.097656 C 155.140625 14.066406 154.304688 13.230469 153.273438 13.230469 C 152.242188 13.230469 151.402344 14.066406 151.402344 15.097656 C 151.402344 16.128906 152.242188 16.964844 153.273438 16.964844 C 154.304688 16.964844 155.140625 16.128906 155.140625 15.097656 "/>
<g fill="rgb(0%, 0%, 0%)" fill-opacity="1">
<use xlink:href="#glyph-2-3" x="169.311" y="17.358"/>
</g>
<g fill="rgb(0%, 0%, 0%)" fill-opacity="1">
<use xlink:href="#glyph-2-3" x="173.903188" y="17.358"/>
</g>
<g fill="rgb(0%, 0%, 0%)" fill-opacity="1">
<use xlink:href="#glyph-2-1" x="178.495377" y="17.358"/>
</g>
<g fill="rgb(0%, 0%, 0%)" fill-opacity="1">
<use xlink:href="#glyph-2-2" x="180.791459" y="17.358"/>
</g>
<path fill="none" stroke-width="3.73599" stroke-linecap="round" stroke-linejoin="miter" stroke="rgb(0%, 0%, 0%)" stroke-opacity="1" stroke-miterlimit="10" d="M 942.382812 7542.539062 L 942.382812 7916.09375 " transform="matrix(0.1, 0, 0, -0.1, -32, 819)"/>
<path fill="none" stroke-width="3.73599" stroke-linecap="round" stroke-linejoin="miter" stroke="rgb(0%, 0%, 0%)" stroke-opacity="1" stroke-miterlimit="10" d="M 867.65625 7542.539062 L 867.65625 7916.09375 " transform="matrix(0.1, 0, 0, -0.1, -32, 819)"/>
<path fill="none" stroke-width="3.73599" stroke-linecap="round" stroke-linejoin="miter" stroke="rgb(0%, 0%, 0%)" stroke-opacity="1" stroke-miterlimit="10" d="M 792.929688 7542.539062 L 792.929688 7916.09375 " transform="matrix(0.1, 0, 0, -0.1, -32, 819)"/>
<path fill="none" stroke-width="3.73599" stroke-linecap="round" stroke-linejoin="miter" stroke="rgb(0%, 0%, 0%)" stroke-opacity="1" stroke-miterlimit="10" d="M 718.242188 7542.539062 L 718.242188 7916.09375 " transform="matrix(0.1, 0, 0, -0.1, -32, 819)"/>
<path fill="none" stroke-width="3.73599" stroke-linecap="round" stroke-linejoin="miter" stroke="rgb(0%, 0%, 0%)" stroke-opacity="1" stroke-miterlimit="10" d="M 643.515625 7542.539062 L 643.515625 7916.09375 " transform="matrix(0.1, 0, 0, -0.1, -32, 819)"/>
<path fill="none" stroke-width="3.73599" stroke-linecap="round" stroke-linejoin="miter" stroke="rgb(0%, 0%, 0%)" stroke-opacity="1" stroke-miterlimit="10" d="M 568.789062 7542.539062 L 568.789062 7916.09375 " transform="matrix(0.1, 0, 0, -0.1, -32, 819)"/>
<path fill="none" stroke-width="3.73599" stroke-linecap="round" stroke-linejoin="miter" stroke="rgb(0%, 0%, 0%)" stroke-opacity="1" stroke-miterlimit="10" d="M 568.789062 7916.09375 L 942.382812 7916.09375 " transform="matrix(0.1, 0, 0, -0.1, -32, 819)"/>
<path fill="none" stroke-width="3.73599" stroke-linecap="round" stroke-linejoin="miter" stroke="rgb(0%, 0%, 0%)" stroke-opacity="1" stroke-miterlimit="10" d="M 568.789062 7841.40625 L 942.382812 7841.40625 " transform="matrix(0.1, 0, 0, -0.1, -32, 819)"/>
<path fill="none" stroke-width="3.73599" stroke-linecap="round" stroke-linejoin="miter" stroke="rgb(0%, 0%, 0%)" stroke-opacity="1" stroke-miterlimit="10" d="M 568.789062 7766.679688 L 942.382812 7766.679688 " transform="matrix(0.1, 0, 0, -0.1, -32, 819)"/>
<path fill="none" stroke-width="3.73599" stroke-linecap="round" stroke-linejoin="miter" stroke="rgb(0%, 0%, 0%)" stroke-opacity="1" stroke-miterlimit="10" d="M 568.789062 7691.953125 L 942.382812 7691.953125 " transform="matrix(0.1, 0, 0, -0.1, -32, 819)"/>
<path fill="none" stroke-width="3.73599" stroke-linecap="round" stroke-linejoin="miter" stroke="rgb(0%, 0%, 0%)" stroke-opacity="1" stroke-miterlimit="10" d="M 568.789062 7617.226562 L 942.382812 7617.226562 " transform="matrix(0.1, 0, 0, -0.1, -32, 819)"/>
<path fill="none" stroke-width="3.73599" stroke-linecap="round" stroke-linejoin="miter" stroke="rgb(0%, 0%, 0%)" stroke-opacity="1" stroke-miterlimit="10" d="M 961.054688 7871.289062 C 961.054688 7881.601562 952.695312 7889.960938 942.382812 7889.960938 C 932.070312 7889.960938 923.710938 7881.601562 923.710938 7871.289062 C 923.710938 7860.976562 932.070312 7852.617188 942.382812 7852.617188 C 952.695312 7852.617188 961.054688 7860.976562 961.054688 7871.289062 Z M 961.054688 7871.289062 " transform="matrix(0.1, 0, 0, -0.1, -32, 819)"/>
<path fill-rule="nonzero" fill="rgb(0%, 0%, 0%)" fill-opacity="1" d="M 64.105469 31.871094 C 64.105469 30.839844 63.269531 30.003906 62.238281 30.003906 C 61.207031 30.003906 60.371094 30.839844 60.371094 31.871094 C 60.371094 32.902344 61.207031 33.738281 62.238281 33.738281 C 63.269531 33.738281 64.105469 32.902344 64.105469 31.871094 "/>
<path fill="none" stroke-width="3.73599" stroke-linecap="round" stroke-linejoin="miter" stroke="rgb(0%, 0%, 0%)" stroke-opacity="1" stroke-miterlimit="10" d="M 886.328125 7796.5625 C 886.328125 7806.875 877.96875 7815.234375 867.65625 7815.234375 C 857.34375 7815.234375 848.984375 7806.875 848.984375 7796.5625 C 848.984375 7786.25 857.34375 7777.890625 867.65625 7777.890625 C 877.96875 7777.890625 886.328125 7786.25 886.328125 7796.5625 Z M 886.328125 7796.5625 " transform="matrix(0.1, 0, 0, -0.1, -32, 819)"/>
<path fill-rule="nonzero" fill="rgb(0%, 0%, 0%)" fill-opacity="1" d="M 56.632812 39.34375 C 56.632812 38.3125 55.796875 37.476562 54.765625 37.476562 C 53.734375 37.476562 52.898438 38.3125 52.898438 39.34375 C 52.898438 40.375 53.734375 41.210938 54.765625 41.210938 C 55.796875 41.210938 56.632812 40.375 56.632812 39.34375 "/>
<path fill="none" stroke-width="3.73599" stroke-linecap="round" stroke-linejoin="miter" stroke="rgb(0%, 0%, 0%)" stroke-opacity="1" stroke-miterlimit="10" d="M 811.601562 7721.835938 C 811.601562 7732.148438 803.242188 7740.507812 792.929688 7740.507812 C 782.617188 7740.507812 774.257812 7732.148438 774.257812 7721.835938 C 774.257812 7711.523438 782.617188 7703.164062 792.929688 7703.164062 C 803.242188 7703.164062 811.601562 7711.523438 811.601562 7721.835938 Z M 811.601562 7721.835938 " transform="matrix(0.1, 0, 0, -0.1, -32, 819)"/>
<path fill-rule="nonzero" fill="rgb(0%, 0%, 0%)" fill-opacity="1" d="M 49.160156 46.816406 C 49.160156 45.785156 48.324219 44.949219 47.292969 44.949219 C 46.261719 44.949219 45.425781 45.785156 45.425781 46.816406 C 45.425781 47.847656 46.261719 48.683594 47.292969 48.683594 C 48.324219 48.683594 49.160156 47.847656 49.160156 46.816406 "/>
<g fill="rgb(0%, 0%, 0%)" fill-opacity="1">
<use xlink:href="#glyph-2-4" x="65.7238" y="34.038"/>
</g>
<g fill="rgb(0%, 0%, 0%)" fill-opacity="1">
<use xlink:href="#glyph-2-1" x="70.315982" y="34.038"/>
</g>
<g fill="rgb(0%, 0%, 0%)" fill-opacity="1">
<use xlink:href="#glyph-2-2" x="72.612077" y="34.038"/>
</g>
<path fill-rule="nonzero" fill="rgb(100%, 100%, 100%)" fill-opacity="1" d="M 144.574219 129.523438 L 154.4375 129.523438 L 154.4375 123.332031 L 144.574219 123.332031 Z M 144.574219 129.523438 "/>
<g fill="rgb(0%, 0%, 0%)" fill-opacity="1">
<use xlink:href="#glyph-1-4" x="144.575" y="129.489"/>
</g>
<g fill="rgb(0%, 0%, 0%)" fill-opacity="1">
<use xlink:href="#glyph-1-5" x="149.507415" y="129.489"/>
</g>
<path fill-rule="nonzero" fill="rgb(100%, 100%, 100%)" fill-opacity="1" d="M 144.574219 122.09375 L 154.4375 122.09375 L 154.4375 115.816406 L 144.574219 115.816406 Z M 144.574219 122.09375 "/>
<g fill="rgb(0%, 0%, 0%)" fill-opacity="1">
<use xlink:href="#glyph-1-4" x="144.575" y="121.974"/>
</g>
<g fill="rgb(0%, 0%, 0%)" fill-opacity="1">
<use xlink:href="#glyph-1-2" x="149.507415" y="121.974"/>
</g>
<path fill-rule="nonzero" fill="rgb(100%, 100%, 100%)" fill-opacity="1" d="M 144.574219 114.5625 L 154.4375 114.5625 L 154.4375 108.40625 L 144.574219 108.40625 Z M 144.574219 114.5625 "/>
<g fill="rgb(0%, 0%, 0%)" fill-opacity="1">
<use xlink:href="#glyph-1-4" x="144.575" y="114.562"/>
</g>
<g fill="rgb(0%, 0%, 0%)" fill-opacity="1">
<use xlink:href="#glyph-1-4" x="149.507415" y="114.562"/>
</g>
<g fill="rgb(0%, 0%, 0%)" fill-opacity="1">
<use xlink:href="#glyph-0-0" x="39.909" y="71.2413"/>
</g>
<g fill="rgb(0%, 0%, 0%)" fill-opacity="1">
<use xlink:href="#glyph-0-2" x="140.819" y="58.7882"/>
</g>
<g fill="rgb(0%, 0%, 0%)" fill-opacity="1">
<use xlink:href="#glyph-0-0" x="201.0999" y="88.6761"/>
</g>
<g fill="rgb(0%, 0%, 0%)" fill-opacity="1">
<use xlink:href="#glyph-0-0" x="39.9089" y="76.223"/>
</g>
<g fill="rgb(0%, 0%, 0%)" fill-opacity="1">
<use xlink:href="#glyph-0-0" x="201.099994" y="76.223"/>
</g>
<path fill="none" stroke-width="3.73599" stroke-linecap="round" stroke-linejoin="miter" stroke="rgb(0%, 0%, 0%)" stroke-opacity="1" stroke-miterlimit="10" d="M 2554.570312 7542.8125 L 2554.570312 7916.40625 " transform="matrix(0.1, 0, 0, -0.1, -32, 819)"/>
<path fill="none" stroke-width="3.73599" stroke-linecap="round" stroke-linejoin="miter" stroke="rgb(0%, 0%, 0%)" stroke-opacity="1" stroke-miterlimit="10" d="M 2479.84375 7542.8125 L 2479.84375 7916.40625 " transform="matrix(0.1, 0, 0, -0.1, -32, 819)"/>
<path fill="none" stroke-width="3.73599" stroke-linecap="round" stroke-linejoin="miter" stroke="rgb(0%, 0%, 0%)" stroke-opacity="1" stroke-miterlimit="10" d="M 2405.117188 7542.8125 L 2405.117188 7916.40625 " transform="matrix(0.1, 0, 0, -0.1, -32, 819)"/>
<path fill="none" stroke-width="3.73599" stroke-linecap="round" stroke-linejoin="miter" stroke="rgb(0%, 0%, 0%)" stroke-opacity="1" stroke-miterlimit="10" d="M 2330.390625 7542.8125 L 2330.390625 7916.40625 " transform="matrix(0.1, 0, 0, -0.1, -32, 819)"/>
<path fill="none" stroke-width="3.73599" stroke-linecap="round" stroke-linejoin="miter" stroke="rgb(0%, 0%, 0%)" stroke-opacity="1" stroke-miterlimit="10" d="M 2255.703125 7542.8125 L 2255.703125 7916.40625 " transform="matrix(0.1, 0, 0, -0.1, -32, 819)"/>
<path fill="none" stroke-width="3.73599" stroke-linecap="round" stroke-linejoin="miter" stroke="rgb(0%, 0%, 0%)" stroke-opacity="1" stroke-miterlimit="10" d="M 2180.976562 7542.8125 L 2180.976562 7916.40625 " transform="matrix(0.1, 0, 0, -0.1, -32, 819)"/>
<path fill="none" stroke-width="3.73599" stroke-linecap="round" stroke-linejoin="miter" stroke="rgb(0%, 0%, 0%)" stroke-opacity="1" stroke-miterlimit="10" d="M 2180.976562 7916.40625 L 2554.570312 7916.40625 " transform="matrix(0.1, 0, 0, -0.1, -32, 819)"/>
<path fill="none" stroke-width="3.73599" stroke-linecap="round" stroke-linejoin="miter" stroke="rgb(0%, 0%, 0%)" stroke-opacity="1" stroke-miterlimit="10" d="M 2180.976562 7841.679688 L 2554.570312 7841.679688 " transform="matrix(0.1, 0, 0, -0.1, -32, 819)"/>
<path fill="none" stroke-width="3.73599" stroke-linecap="round" stroke-linejoin="miter" stroke="rgb(0%, 0%, 0%)" stroke-opacity="1" stroke-miterlimit="10" d="M 2180.976562 7766.953125 L 2554.570312 7766.953125 " transform="matrix(0.1, 0, 0, -0.1, -32, 819)"/>
<path fill="none" stroke-width="3.73599" stroke-linecap="round" stroke-linejoin="miter" stroke="rgb(0%, 0%, 0%)" stroke-opacity="1" stroke-miterlimit="10" d="M 2180.976562 7692.226562 L 2554.570312 7692.226562 " transform="matrix(0.1, 0, 0, -0.1, -32, 819)"/>
<path fill="none" stroke-width="3.73599" stroke-linecap="round" stroke-linejoin="miter" stroke="rgb(0%, 0%, 0%)" stroke-opacity="1" stroke-miterlimit="10" d="M 2180.976562 7617.539062 L 2554.570312 7617.539062 " transform="matrix(0.1, 0, 0, -0.1, -32, 819)"/>
<path fill="none" stroke-width="3.73599" stroke-linecap="round" stroke-linejoin="miter" stroke="rgb(0%, 0%, 0%)" stroke-opacity="1" stroke-miterlimit="10" d="M 2498.554688 7871.5625 C 2498.554688 7881.875 2490.15625 7890.234375 2479.84375 7890.234375 C 2469.53125 7890.234375 2461.171875 7881.875 2461.171875 7871.5625 C 2461.171875 7861.25 2469.53125 7852.890625 2479.84375 7852.890625 C 2490.15625 7852.890625 2498.554688 7861.25 2498.554688 7871.5625 Z M 2498.554688 7871.5625 " transform="matrix(0.1, 0, 0, -0.1, -32, 819)"/>
<path fill-rule="nonzero" fill="rgb(0%, 0%, 0%)" fill-opacity="1" d="M 217.855469 31.84375 C 217.855469 30.8125 217.015625 29.976562 215.984375 29.976562 C 214.953125 29.976562 214.117188 30.8125 214.117188 31.84375 C 214.117188 32.875 214.953125 33.710938 215.984375 33.710938 C 217.015625 33.710938 217.855469 32.875 217.855469 31.84375 "/>
<path fill="none" stroke-width="3.73599" stroke-linecap="round" stroke-linejoin="miter" stroke="rgb(0%, 0%, 0%)" stroke-opacity="1" stroke-miterlimit="10" d="M 2423.828125 7796.835938 C 2423.828125 7807.148438 2415.46875 7815.546875 2405.117188 7815.546875 C 2394.804688 7815.546875 2386.445312 7807.148438 2386.445312 7796.835938 C 2386.445312 7786.523438 2394.804688 7778.164062 2405.117188 7778.164062 C 2415.46875 7778.164062 2423.828125 7786.523438 2423.828125 7796.835938 Z M 2423.828125 7796.835938 " transform="matrix(0.1, 0, 0, -0.1, -32, 819)"/>
<path fill-rule="nonzero" fill="rgb(0%, 0%, 0%)" fill-opacity="1" d="M 210.382812 39.316406 C 210.382812 38.285156 209.546875 37.445312 208.511719 37.445312 C 207.480469 37.445312 206.644531 38.285156 206.644531 39.316406 C 206.644531 40.347656 207.480469 41.183594 208.511719 41.183594 C 209.546875 41.183594 210.382812 40.347656 210.382812 39.316406 "/>
<path fill="none" stroke-width="3.73599" stroke-linecap="round" stroke-linejoin="miter" stroke="rgb(0%, 0%, 0%)" stroke-opacity="1" stroke-miterlimit="10" d="M 2349.101562 7796.835938 C 2349.101562 7807.148438 2340.742188 7815.546875 2330.390625 7815.546875 C 2320.117188 7815.546875 2311.71875 7807.148438 2311.71875 7796.835938 C 2311.71875 7786.523438 2320.117188 7778.164062 2330.390625 7778.164062 C 2340.742188 7778.164062 2349.101562 7786.523438 2349.101562 7796.835938 Z M 2349.101562 7796.835938 " transform="matrix(0.1, 0, 0, -0.1, -32, 819)"/>
<path fill-rule="nonzero" fill="rgb(0%, 0%, 0%)" fill-opacity="1" d="M 202.910156 39.316406 C 202.910156 38.285156 202.074219 37.445312 201.039062 37.445312 C 200.011719 37.445312 199.171875 38.285156 199.171875 39.316406 C 199.171875 40.347656 200.011719 41.183594 201.039062 41.183594 C 202.074219 41.183594 202.910156 40.347656 202.910156 39.316406 "/>
<g fill="rgb(0%, 0%, 0%)" fill-opacity="1">
<use xlink:href="#glyph-2-5" x="226.848" y="34.104"/>
</g>
<g fill="rgb(0%, 0%, 0%)" fill-opacity="1">
<use xlink:href="#glyph-2-1" x="231.440188" y="34.104"/>
</g>
<g fill="rgb(0%, 0%, 0%)" fill-opacity="1">
<use xlink:href="#glyph-2-2" x="233.736271" y="34.104"/>
</g>
<g fill="rgb(0%, 0%, 0%)" fill-opacity="1">
<use xlink:href="#glyph-0-0" x="39.909" y="81.2048"/>
</g>
<path fill-rule="nonzero" fill="rgb(100%, 100%, 100%)" fill-opacity="1" d="M 201.59375 129.566406 L 206.527344 129.566406 L 206.527344 123.289062 L 201.59375 123.289062 Z M 201.59375 129.566406 "/>
<g fill="rgb(0%, 0%, 0%)" fill-opacity="1">
<use xlink:href="#glyph-1-0" x="201.593" y="129.446"/>
</g>
<path fill-rule="nonzero" fill="rgb(100%, 100%, 100%)" fill-opacity="1" d="M 201.59375 122.035156 L 206.527344 122.035156 L 206.527344 115.878906 L 201.59375 115.878906 Z M 201.59375 122.035156 "/>
<g fill="rgb(0%, 0%, 0%)" fill-opacity="1">
<use xlink:href="#glyph-1-1" x="201.593" y="122.034"/>
</g>
<g fill="rgb(0%, 0%, 0%)" fill-opacity="1">
<use xlink:href="#glyph-0-2" x="195.37152" y="76.2231"/>
</g>
<g fill="rgb(0%, 0%, 0%)" fill-opacity="1">
<use xlink:href="#glyph-0-0" x="254.41952" y="81.20435"/>
</g>
<g fill="rgb(0%, 0%, 0%)" fill-opacity="1">
<use xlink:href="#glyph-0-0" x="254.41952" y="76.2231"/>
</g>
<g fill="rgb(0%, 0%, 0%)" fill-opacity="1">
<use xlink:href="#glyph-0-0" x="254.41952" y="71.24146"/>
</g>
<path fill="none" stroke-width="3.73599" stroke-linecap="round" stroke-linejoin="miter" stroke="rgb(0%, 0%, 0%)" stroke-opacity="1" stroke-miterlimit="10" d="M 3087.5 7542.539062 L 3087.5 7916.09375 " transform="matrix(0.1, 0, 0, -0.1, -32, 819)"/>
<path fill="none" stroke-width="3.73599" stroke-linecap="round" stroke-linejoin="miter" stroke="rgb(0%, 0%, 0%)" stroke-opacity="1" stroke-miterlimit="10" d="M 3012.773438 7542.539062 L 3012.773438 7916.09375 " transform="matrix(0.1, 0, 0, -0.1, -32, 819)"/>
<path fill="none" stroke-width="3.73599" stroke-linecap="round" stroke-linejoin="miter" stroke="rgb(0%, 0%, 0%)" stroke-opacity="1" stroke-miterlimit="10" d="M 2938.046875 7542.539062 L 2938.046875 7916.09375 " transform="matrix(0.1, 0, 0, -0.1, -32, 819)"/>
<path fill="none" stroke-width="3.73599" stroke-linecap="round" stroke-linejoin="miter" stroke="rgb(0%, 0%, 0%)" stroke-opacity="1" stroke-miterlimit="10" d="M 2863.320312 7542.539062 L 2863.320312 7916.09375 " transform="matrix(0.1, 0, 0, -0.1, -32, 819)"/>
<path fill="none" stroke-width="3.73599" stroke-linecap="round" stroke-linejoin="miter" stroke="rgb(0%, 0%, 0%)" stroke-opacity="1" stroke-miterlimit="10" d="M 2788.59375 7542.539062 L 2788.59375 7916.09375 " transform="matrix(0.1, 0, 0, -0.1, -32, 819)"/>
<path fill="none" stroke-width="3.73599" stroke-linecap="round" stroke-linejoin="miter" stroke="rgb(0%, 0%, 0%)" stroke-opacity="1" stroke-miterlimit="10" d="M 2713.90625 7542.539062 L 2713.90625 7916.09375 " transform="matrix(0.1, 0, 0, -0.1, -32, 819)"/>
<path fill="none" stroke-width="3.73599" stroke-linecap="round" stroke-linejoin="miter" stroke="rgb(0%, 0%, 0%)" stroke-opacity="1" stroke-miterlimit="10" d="M 2713.90625 7916.09375 L 3087.5 7916.09375 " transform="matrix(0.1, 0, 0, -0.1, -32, 819)"/>
<path fill="none" stroke-width="3.73599" stroke-linecap="round" stroke-linejoin="miter" stroke="rgb(0%, 0%, 0%)" stroke-opacity="1" stroke-miterlimit="10" d="M 2713.90625 7841.40625 L 3087.5 7841.40625 " transform="matrix(0.1, 0, 0, -0.1, -32, 819)"/>
<path fill="none" stroke-width="3.73599" stroke-linecap="round" stroke-linejoin="miter" stroke="rgb(0%, 0%, 0%)" stroke-opacity="1" stroke-miterlimit="10" d="M 2713.90625 7766.679688 L 3087.5 7766.679688 " transform="matrix(0.1, 0, 0, -0.1, -32, 819)"/>
<path fill="none" stroke-width="3.73599" stroke-linecap="round" stroke-linejoin="miter" stroke="rgb(0%, 0%, 0%)" stroke-opacity="1" stroke-miterlimit="10" d="M 2713.90625 7691.953125 L 3087.5 7691.953125 " transform="matrix(0.1, 0, 0, -0.1, -32, 819)"/>
<path fill="none" stroke-width="3.73599" stroke-linecap="round" stroke-linejoin="miter" stroke="rgb(0%, 0%, 0%)" stroke-opacity="1" stroke-miterlimit="10" d="M 2713.90625 7617.226562 L 3087.5 7617.226562 " transform="matrix(0.1, 0, 0, -0.1, -32, 819)"/>
<path fill="none" stroke-width="3.73599" stroke-linecap="round" stroke-linejoin="miter" stroke="rgb(0%, 0%, 0%)" stroke-opacity="1" stroke-miterlimit="10" d="M 3031.445312 7871.289062 C 3031.445312 7881.601562 3023.085938 7889.960938 3012.773438 7889.960938 C 3002.460938 7889.960938 2994.101562 7881.601562 2994.101562 7871.289062 C 2994.101562 7860.976562 3002.460938 7852.617188 3012.773438 7852.617188 C 3023.085938 7852.617188 3031.445312 7860.976562 3031.445312 7871.289062 Z M 3031.445312 7871.289062 " transform="matrix(0.1, 0, 0, -0.1, -32, 819)"/>
<path fill-rule="nonzero" fill="rgb(0%, 0%, 0%)" fill-opacity="1" d="M 271.144531 31.871094 C 271.144531 30.839844 270.308594 30.003906 269.277344 30.003906 C 268.246094 30.003906 267.410156 30.839844 267.410156 31.871094 C 267.410156 32.902344 268.246094 33.738281 269.277344 33.738281 C 270.308594 33.738281 271.144531 32.902344 271.144531 31.871094 "/>
<path fill="none" stroke-width="3.73599" stroke-linecap="round" stroke-linejoin="miter" stroke="rgb(0%, 0%, 0%)" stroke-opacity="1" stroke-miterlimit="10" d="M 2956.71875 7871.289062 C 2956.71875 7881.601562 2948.359375 7889.960938 2938.046875 7889.960938 C 2927.734375 7889.960938 2919.375 7881.601562 2919.375 7871.289062 C 2919.375 7860.976562 2927.734375 7852.617188 2938.046875 7852.617188 C 2948.359375 7852.617188 2956.71875 7860.976562 2956.71875 7871.289062 Z M 2956.71875 7871.289062 " transform="matrix(0.1, 0, 0, -0.1, -32, 819)"/>
<path fill-rule="nonzero" fill="rgb(0%, 0%, 0%)" fill-opacity="1" d="M 263.671875 31.871094 C 263.671875 30.839844 262.835938 30.003906 261.804688 30.003906 C 260.773438 30.003906 259.9375 30.839844 259.9375 31.871094 C 259.9375 32.902344 260.773438 33.738281 261.804688 33.738281 C 262.835938 33.738281 263.671875 32.902344 263.671875 31.871094 "/>
<path fill="none" stroke-width="3.73599" stroke-linecap="round" stroke-linejoin="miter" stroke="rgb(0%, 0%, 0%)" stroke-opacity="1" stroke-miterlimit="10" d="M 2881.992188 7721.835938 C 2881.992188 7732.148438 2873.632812 7740.507812 2863.320312 7740.507812 C 2853.007812 7740.507812 2844.648438 7732.148438 2844.648438 7721.835938 C 2844.648438 7711.523438 2853.007812 7703.164062 2863.320312 7703.164062 C 2873.632812 7703.164062 2881.992188 7711.523438 2881.992188 7721.835938 Z M 2881.992188 7721.835938 " transform="matrix(0.1, 0, 0, -0.1, -32, 819)"/>
<path fill-rule="nonzero" fill="rgb(0%, 0%, 0%)" fill-opacity="1" d="M 256.199219 46.816406 C 256.199219 45.785156 255.363281 44.949219 254.332031 44.949219 C 253.300781 44.949219 252.464844 45.785156 252.464844 46.816406 C 252.464844 47.847656 253.300781 48.683594 254.332031 48.683594 C 255.363281 48.683594 256.199219 47.847656 256.199219 46.816406 "/>
<g fill="rgb(0%, 0%, 0%)" fill-opacity="1">
<use xlink:href="#glyph-2-0" x="280.234" y="34.038"/>
</g>
<g fill="rgb(0%, 0%, 0%)" fill-opacity="1">
<use xlink:href="#glyph-2-1" x="284.826188" y="34.038"/>
</g>
<g fill="rgb(0%, 0%, 0%)" fill-opacity="1">
<use xlink:href="#glyph-2-2" x="287.122271" y="34.038"/>
</g>
<path fill-rule="nonzero" fill="rgb(100%, 100%, 100%)" fill-opacity="1" d="M 252.445312 137.039062 L 262.308594 137.039062 L 262.308594 130.757812 L 252.445312 130.757812 Z M 252.445312 137.039062 "/>
<g fill="rgb(0%, 0%, 0%)" fill-opacity="1">
<use xlink:href="#glyph-1-4" x="252.447" y="136.918"/>
</g>
<g fill="rgb(0%, 0%, 0%)" fill-opacity="1">
<use xlink:href="#glyph-1-6" x="257.379427" y="136.918"/>
</g>
<path fill-rule="nonzero" fill="rgb(100%, 100%, 100%)" fill-opacity="1" d="M 254.914062 129.566406 L 259.84375 129.566406 L 259.84375 123.289062 L 254.914062 123.289062 Z M 254.914062 129.566406 "/>
<g fill="rgb(0%, 0%, 0%)" fill-opacity="1">
<use xlink:href="#glyph-1-3" x="254.913" y="129.446"/>
</g>
<path fill-rule="nonzero" fill="rgb(100%, 100%, 100%)" fill-opacity="1" d="M 254.914062 122.09375 L 259.84375 122.09375 L 259.84375 115.816406 L 254.914062 115.816406 Z M 254.914062 122.09375 "/>
<g fill="rgb(0%, 0%, 0%)" fill-opacity="1">
<use xlink:href="#glyph-1-3" x="254.913" y="121.974"/>
</g>
<g fill="rgb(0%, 0%, 0%)" fill-opacity="1">
<use xlink:href="#glyph-0-2" x="248.69113" y="76.2236"/>
</g>
<g fill="rgb(0%, 0%, 0%)" fill-opacity="1">
<use xlink:href="#glyph-0-0" x="307.73876" y="76.2236"/>
</g>
<g fill="rgb(0%, 0%, 0%)" fill-opacity="1">
<use xlink:href="#glyph-0-0" x="307.73883" y="71.24196"/>
</g>
<g fill="rgb(0%, 0%, 0%)" fill-opacity="1">
<use xlink:href="#glyph-0-0" x="307.73883" y="63.77009"/>
</g>
<path fill="none" stroke-width="3.73599" stroke-linecap="round" stroke-linejoin="miter" stroke="rgb(0%, 0%, 0%)" stroke-opacity="1" stroke-miterlimit="10" d="M 3614.0625 7604.21875 L 3614.0625 7977.8125 " transform="matrix(0.1, 0, 0, -0.1, -32, 819)"/>
<path fill="none" stroke-width="3.73599" stroke-linecap="round" stroke-linejoin="miter" stroke="rgb(0%, 0%, 0%)" stroke-opacity="1" stroke-miterlimit="10" d="M 3539.375 7604.21875 L 3539.375 7977.8125 " transform="matrix(0.1, 0, 0, -0.1, -32, 819)"/>
<path fill="none" stroke-width="3.73599" stroke-linecap="round" stroke-linejoin="miter" stroke="rgb(0%, 0%, 0%)" stroke-opacity="1" stroke-miterlimit="10" d="M 3464.648438 7604.21875 L 3464.648438 7977.8125 " transform="matrix(0.1, 0, 0, -0.1, -32, 819)"/>
<path fill="none" stroke-width="3.73599" stroke-linecap="round" stroke-linejoin="miter" stroke="rgb(0%, 0%, 0%)" stroke-opacity="1" stroke-miterlimit="10" d="M 3389.921875 7604.21875 L 3389.921875 7977.8125 " transform="matrix(0.1, 0, 0, -0.1, -32, 819)"/>
<path fill="none" stroke-width="3.73599" stroke-linecap="round" stroke-linejoin="miter" stroke="rgb(0%, 0%, 0%)" stroke-opacity="1" stroke-miterlimit="10" d="M 3315.195312 7604.21875 L 3315.195312 7977.8125 " transform="matrix(0.1, 0, 0, -0.1, -32, 819)"/>
<path fill="none" stroke-width="3.73599" stroke-linecap="round" stroke-linejoin="miter" stroke="rgb(0%, 0%, 0%)" stroke-opacity="1" stroke-miterlimit="10" d="M 3240.46875 7604.21875 L 3240.46875 7977.8125 " transform="matrix(0.1, 0, 0, -0.1, -32, 819)"/>
<path fill="none" stroke-width="3.73599" stroke-linecap="round" stroke-linejoin="miter" stroke="rgb(0%, 0%, 0%)" stroke-opacity="1" stroke-miterlimit="10" d="M 3240.46875 7977.8125 L 3614.0625 7977.8125 " transform="matrix(0.1, 0, 0, -0.1, -32, 819)"/>
<path fill="none" stroke-width="3.73599" stroke-linecap="round" stroke-linejoin="miter" stroke="rgb(0%, 0%, 0%)" stroke-opacity="1" stroke-miterlimit="10" d="M 3240.46875 7903.125 L 3614.0625 7903.125 " transform="matrix(0.1, 0, 0, -0.1, -32, 819)"/>
<path fill="none" stroke-width="3.73599" stroke-linecap="round" stroke-linejoin="miter" stroke="rgb(0%, 0%, 0%)" stroke-opacity="1" stroke-miterlimit="10" d="M 3240.46875 7828.398438 L 3614.0625 7828.398438 " transform="matrix(0.1, 0, 0, -0.1, -32, 819)"/>
<path fill="none" stroke-width="3.73599" stroke-linecap="round" stroke-linejoin="miter" stroke="rgb(0%, 0%, 0%)" stroke-opacity="1" stroke-miterlimit="10" d="M 3240.46875 7753.671875 L 3614.0625 7753.671875 " transform="matrix(0.1, 0, 0, -0.1, -32, 819)"/>
<path fill="none" stroke-width="3.73599" stroke-linecap="round" stroke-linejoin="miter" stroke="rgb(0%, 0%, 0%)" stroke-opacity="1" stroke-miterlimit="10" d="M 3240.46875 7678.945312 L 3614.0625 7678.945312 " transform="matrix(0.1, 0, 0, -0.1, -32, 819)"/>
<path fill="none" stroke-width="3.73599" stroke-linecap="round" stroke-linejoin="miter" stroke="rgb(0%, 0%, 0%)" stroke-opacity="1" stroke-miterlimit="10" d="M 3558.046875 7858.28125 C 3558.046875 7868.59375 3549.6875 7876.953125 3539.375 7876.953125 C 3529.023438 7876.953125 3520.664062 7868.59375 3520.664062 7858.28125 C 3520.664062 7847.96875 3529.023438 7839.609375 3539.375 7839.609375 C 3549.6875 7839.609375 3558.046875 7847.96875 3558.046875 7858.28125 Z M 3558.046875 7858.28125 " transform="matrix(0.1, 0, 0, -0.1, -32, 819)"/>
<path fill-rule="nonzero" fill="rgb(0%, 0%, 0%)" fill-opacity="1" d="M 323.804688 33.171875 C 323.804688 32.140625 322.96875 31.304688 321.9375 31.304688 C 320.902344 31.304688 320.066406 32.140625 320.066406 33.171875 C 320.066406 34.203125 320.902344 35.039062 321.9375 35.039062 C 322.96875 35.039062 323.804688 34.203125 323.804688 33.171875 "/>
<path fill="none" stroke-width="3.73599" stroke-linecap="round" stroke-linejoin="miter" stroke="rgb(0%, 0%, 0%)" stroke-opacity="1" stroke-miterlimit="10" d="M 3483.320312 7933.007812 C 3483.320312 7943.320312 3474.960938 7951.679688 3464.648438 7951.679688 C 3454.335938 7951.679688 3445.976562 7943.320312 3445.976562 7933.007812 C 3445.976562 7922.695312 3454.335938 7914.335938 3464.648438 7914.335938 C 3474.960938 7914.335938 3483.320312 7922.695312 3483.320312 7933.007812 Z M 3483.320312 7933.007812 " transform="matrix(0.1, 0, 0, -0.1, -32, 819)"/>
<path fill-rule="nonzero" fill="rgb(0%, 0%, 0%)" fill-opacity="1" d="M 316.332031 25.699219 C 316.332031 24.667969 315.496094 23.832031 314.464844 23.832031 C 313.433594 23.832031 312.597656 24.667969 312.597656 25.699219 C 312.597656 26.730469 313.433594 27.566406 314.464844 27.566406 C 315.496094 27.566406 316.332031 26.730469 316.332031 25.699219 "/>
<path fill="none" stroke-width="3.73599" stroke-linecap="round" stroke-linejoin="miter" stroke="rgb(0%, 0%, 0%)" stroke-opacity="1" stroke-miterlimit="10" d="M 3408.59375 7858.28125 C 3408.59375 7868.59375 3400.234375 7876.953125 3389.921875 7876.953125 C 3379.609375 7876.953125 3371.25 7868.59375 3371.25 7858.28125 C 3371.25 7847.96875 3379.609375 7839.609375 3389.921875 7839.609375 C 3400.234375 7839.609375 3408.59375 7847.96875 3408.59375 7858.28125 Z M 3408.59375 7858.28125 " transform="matrix(0.1, 0, 0, -0.1, -32, 819)"/>
<path fill-rule="nonzero" fill="rgb(0%, 0%, 0%)" fill-opacity="1" d="M 308.859375 33.171875 C 308.859375 32.140625 308.023438 31.304688 306.992188 31.304688 C 305.960938 31.304688 305.125 32.140625 305.125 33.171875 C 305.125 34.203125 305.960938 35.039062 306.992188 35.039062 C 308.023438 35.039062 308.859375 34.203125 308.859375 33.171875 "/>
<g fill="rgb(0%, 0%, 0%)" fill-opacity="1">
<use xlink:href="#glyph-2-3" x="330.502" y="27.96"/>
</g>
<g fill="rgb(0%, 0%, 0%)" fill-opacity="1">
<use xlink:href="#glyph-2-6" x="335.094188" y="27.96"/>
</g>
<g fill="rgb(0%, 0%, 0%)" fill-opacity="1">
<use xlink:href="#glyph-2-1" x="339.686377" y="27.96"/>
</g>
<g fill="rgb(0%, 0%, 0%)" fill-opacity="1">
<use xlink:href="#glyph-2-2" x="341.98285" y="27.96"/>
</g>
<path fill-rule="nonzero" fill="rgb(100%, 100%, 100%)" fill-opacity="1" d="M 305.765625 137.039062 L 315.628906 137.039062 L 315.628906 130.757812 L 305.765625 130.757812 Z M 305.765625 137.039062 "/>
<g fill="rgb(0%, 0%, 0%)" fill-opacity="1">
<use xlink:href="#glyph-1-4" x="305.766" y="136.918"/>
</g>
<g fill="rgb(0%, 0%, 0%)" fill-opacity="1">
<use xlink:href="#glyph-1-2" x="310.698427" y="136.918"/>
</g>
<path fill-rule="nonzero" fill="rgb(100%, 100%, 100%)" fill-opacity="1" d="M 305.765625 129.523438 L 315.628906 129.523438 L 315.628906 123.332031 L 305.765625 123.332031 Z M 305.765625 129.523438 "/>
<g fill="rgb(0%, 0%, 0%)" fill-opacity="1">
<use xlink:href="#glyph-1-4" x="305.766" y="129.489"/>
</g>
<g fill="rgb(0%, 0%, 0%)" fill-opacity="1">
<use xlink:href="#glyph-1-5" x="310.698427" y="129.489"/>
</g>
<path fill-rule="nonzero" fill="rgb(100%, 100%, 100%)" fill-opacity="1" d="M 305.765625 122.09375 L 315.628906 122.09375 L 315.628906 115.816406 L 305.765625 115.816406 Z M 305.765625 122.09375 "/>
<g fill="rgb(0%, 0%, 0%)" fill-opacity="1">
<use xlink:href="#glyph-1-4" x="305.766" y="121.974"/>
</g>
<g fill="rgb(0%, 0%, 0%)" fill-opacity="1">
<use xlink:href="#glyph-1-2" x="310.698427" y="121.974"/>
</g>
<path fill="none" stroke-width="4.98132" stroke-linecap="butt" stroke-linejoin="round" stroke="rgb(0%, 0%, 0%)" stroke-opacity="1" stroke-miterlimit="10" d="M 424.6875 6701.5625 L 427.695312 6701.5625 L 427.695312 7452.695312 L 424.6875 7452.695312 Z M 424.6875 6701.5625 " transform="matrix(0.1, 0, 0, -0.1, -32, 819)"/>
<path fill-rule="nonzero" fill="rgb(0%, 0%, 0%)" fill-opacity="1" d="M 10.46875 148.84375 L 10.769531 148.84375 L 10.769531 73.734375 L 10.46875 73.734375 Z M 10.46875 148.84375 "/>
<g fill="rgb(0%, 0%, 0%)" fill-opacity="1">
<use xlink:href="#glyph-0-2" x="302.011" y="76.223"/>
</g>
<path fill-rule="nonzero" fill="rgb(100%, 100%, 100%)" fill-opacity="1" d="M 201.59375 137.039062 L 206.527344 137.039062 L 206.527344 130.757812 L 201.59375 130.757812 Z M 201.59375 137.039062 "/>
<g fill="rgb(0%, 0%, 0%)" fill-opacity="1">
<use xlink:href="#glyph-1-0" x="201.593" y="136.918"/>
</g>
</svg>
